<svg width="53" height="76" viewBox="0 0 53 76" fill="none" xmlns="http://www.w3.org/2000/svg">
<path d="M18.1341 37.8806L49.8983 13.8098C53.345 11.2253 53.9717 6.36487 51.3475 3.00885C49.82 1.04153 47.47 7.14594e-06 45.12 6.9405e-06C43.4358 6.79327e-06 41.7909 0.540038 40.3417 1.58156L4.73913 28.584C1.76246 30.7442 -3.97652e-06 34.216 -4.29689e-06 37.8806C-4.61726e-06 41.5452 1.76247 45.0169 4.62164 47.0614L40.3417 74.3725C43.7492 76.9956 48.6842 76.3784 51.3475 73.0224C54.0109 69.6663 53.3842 64.8059 49.9767 62.1828L18.1733 37.8806L18.1341 37.8806Z" fill="white"/>
</svg>
