<svg width="183" height="85" viewBox="0 0 183 85" fill="none" xmlns="http://www.w3.org/2000/svg">
<g clip-path="url(#clip0_268_37)">
<path d="M96.3239 53.5165V47.2788H92.3066V54.4919C92.3066 56.5083 93.48 57.5411 95.5253 57.5411H116.492V54.3526H97.155C96.552 54.3526 96.3239 54.1968 96.3239 53.5165Z" fill="#27348B"/>
<path d="M88.6807 41.0004L88.6562 44.1889H102.37V50.525H104.603C105.858 50.525 106.387 50.0332 106.387 49.0742V44.1807H119.148V40.9922H88.6888L88.6807 41.0004Z" fill="#27348B"/>
<path d="M90.9863 36.0412L91.679 37.9674C92.0456 38.9756 92.6975 39.0822 93.7079 38.8855C97.3096 38.1314 104.488 35.8527 105.686 29.5084H116.027V26.3199H105.898V23.0166H101.881V26.3199H91.7523V29.5084H101.441C99.5341 34.8363 91.5078 35.9674 90.9863 36.033V36.0412Z" fill="#27348B"/>
<path d="M116.802 36.0411C116.337 35.9755 109.892 35.0656 107.154 31.082H107.097C106.754 32.123 106.143 33.4919 105.108 34.7624C107.854 37.2542 111.717 38.4017 114.072 38.8935C115.082 39.082 115.734 38.9755 116.101 37.9755L116.802 36.0492V36.0411Z" fill="#27348B"/>
<path d="M140.082 36.115H146.104V48.3937H148.336C149.583 48.3937 150.121 47.9019 150.121 46.9511V23.5576H146.104V32.9347H140.082V36.1232V36.115Z" fill="#27348B"/>
<path d="M132.813 54.3609C132.21 54.3609 131.982 54.2052 131.982 53.5248V46.0576H127.973V54.5002C127.973 56.5166 129.146 57.5494 131.191 57.5494H150.52V54.3609H132.821H132.813Z" fill="#27348B"/>
<path d="M134.606 29.5167H142.07V26.3282H134.532V23.0249H130.515V26.3282H122.978V29.5167H130.368C130.368 37.697 122.497 40.697 122.049 40.861L122.994 42.5085C123.532 43.4347 123.988 43.8774 125.3 43.2626C128.413 41.6397 134.614 37.4265 134.614 29.5167H134.606Z" fill="#27348B"/>
<path d="M135.657 34.1889C134.997 36.3446 134.06 37.7954 133.628 38.3856C135.624 40.8364 138.118 42.4102 139.747 43.2626C141.059 43.8774 141.516 43.4348 142.045 42.5085L142.991 40.861C142.64 40.7298 137.776 38.8774 135.649 34.1807L135.657 34.1889Z" fill="#27348B"/>
<path d="M178.982 23.5576V57.4757H181.068C182.315 57.4757 183 56.8691 183 55.9511V23.5576H178.982Z" fill="#27348B"/>
<path d="M167.575 24.615H163.557V28.2708C163.557 41.0003 154.586 45.697 154.586 45.697L155.808 47.1642C156.656 48.1724 157.34 48.3036 158.465 47.5495C161.406 45.4511 167.567 39.8609 167.567 29.8363V24.5986L167.575 24.615Z" fill="#27348B"/>
<path d="M168.659 35.4429C168.194 37.4183 167.502 39.2707 166.581 40.992C168.569 44.2871 171.079 46.4265 172.668 47.5576C173.793 48.3117 174.485 48.1806 175.324 47.1724L176.547 45.7052C176.547 45.7052 171.038 42.8199 168.659 35.4511V35.4429Z" fill="#27348B"/>
<path d="M71.8131 14.2705C71.7561 12.3197 71.4464 11.8279 69.9064 10.3934C62.4993 3.92623 52.8352 0 42.2502 0C18.9128 0 0 19.0328 0 42.5C0 65.9672 18.9128 85 42.2502 85C52.8352 85 62.5075 81.0738 69.9227 74.5984C71.6909 72.9508 71.8213 72.5492 71.8294 69.7213V44.3771L47.1475 65.2131C42.5191 68.9754 35.3402 68.8279 31.0134 63.7787C26.6783 58.7213 27.4932 51.2951 32.3579 47.1967C32.4068 47.1557 37.8826 42.5328 37.9152 42.5C37.8744 42.4672 32.3986 37.8443 32.3579 37.8033C27.4932 33.7049 26.6865 26.2787 31.0134 21.2213C35.3484 16.1639 42.5191 16.0164 47.1475 19.7869L71.8294 40.6148V14.2705H71.8131Z" fill="#009FE3"/>
<path d="M71.8131 14.2705C71.7561 12.3197 71.4464 11.8279 69.9064 10.3934C62.4993 3.92623 52.8352 0 42.2502 0C18.9128 0 0 19.0328 0 42.5C0 65.9672 18.9128 85 42.2502 85C52.8352 85 62.5075 81.0738 69.9227 74.5984C71.6909 72.9508 71.8213 72.5492 71.8294 69.7213V44.3771L47.1475 65.2131C42.5191 68.9754 35.3402 68.8279 31.0134 63.7787C26.6783 58.7213 27.4932 51.2951 32.3579 47.1967C32.4068 47.1557 37.8826 42.5328 37.9152 42.5C37.8744 42.4672 32.3986 37.8443 32.3579 37.8033C27.4932 33.7049 26.6865 26.2787 31.0134 21.2213C35.3484 16.1639 42.5191 16.0164 47.1475 19.7869L71.8294 40.6148V14.2705H71.8131Z" fill="#009FE3"/>
</g>
<defs>
<clipPath id="clip0_268_37">
<rect width="183" height="85" fill="white"/>
</clipPath>
</defs>
</svg>
