<svg width="77" height="76" viewBox="0 0 77 76" fill="none" xmlns="http://www.w3.org/2000/svg">
<path d="M74.8979 24.5862L39.6062 0.825856C37.9045 -0.319711 35.6536 -0.269023 34.0083 0.950044L1.925 24.7104C0.713533 25.6076 0 27.0168 0 28.5121V71.149C0 73.7721 2.15344 75.8985 4.80994 75.9011L29.5911 75.9188C30.8693 75.9188 32.0962 75.417 32.9996 74.5249C33.9031 73.6328 34.4087 72.4187 34.4062 71.1566L34.3677 53.7272H43.1662L43.1123 71.2352C43.1072 72.5024 43.6179 73.7164 44.524 74.611C45.43 75.5057 46.662 76.0075 47.9453 75.9999L72.208 75.9011C74.8594 75.8909 77 73.7645 77 71.149V28.5121C77 26.9407 76.2146 25.4708 74.8979 24.5862ZM67.3724 66.4172L52.7501 66.4755L52.804 48.9878C52.8092 47.7257 52.3035 46.5117 51.4001 45.617C50.4966 44.7224 49.2723 44.2206 47.9915 44.2206H29.5423C28.2641 44.2206 27.0373 44.7224 26.1364 45.6145C25.2329 46.5092 24.7273 47.7206 24.7298 48.9828L24.7683 66.4096L9.62244 66.3995V30.8894L37.0267 10.5936L67.3724 31.0237V66.4172Z" fill="white"/>
</svg>
