<svg width="70" height="66" viewBox="0 0 70 66" fill="none" xmlns="http://www.w3.org/2000/svg">
<path d="M44 43.0834V24.1523C44 14.8063 36.38 7.21387 27 7.21387C17.62 7.21387 10 14.8063 10 24.1523V43.0834H6.88C4.18 43.0834 2 45.2555 2 47.9457V51.0544H52V47.9457C52 45.2555 49.82 43.0834 47.12 43.0834H44Z" fill="#4C4C4C"/>
<path d="M44 43.0834V24.1523C44 14.8063 36.38 7.21387 27 7.21387C17.62 7.21387 10 14.8063 10 24.1523V43.0834H6.88C4.18 43.0834 2 45.2555 2 47.9457V51.0544H52V47.9457C52 45.2555 49.82 43.0834 47.12 43.0834H44Z" stroke="#4C4C4C" stroke-width="2" stroke-miterlimit="10" stroke-linejoin="round"/>
<path d="M34 57.0327C34 60.8787 30.86 64.0073 27 64.0073C23.14 64.0073 20 60.8787 20 57.0327" stroke="#4C4C4C" stroke-width="2" stroke-miterlimit="10" stroke-linejoin="round"/>
<path d="M55.64 34.6936C57.14 31.4853 58 27.9183 58 24.152C58 17.9744 55.74 12.3349 52 7.99072" stroke="#4C4C4C" stroke-width="2" stroke-miterlimit="10" stroke-linejoin="round"/>
<path d="M63.84 41.0904C66.48 36.0089 68 30.2698 68 24.152C68 15.4835 64.98 7.53245 59.96 1.23535" stroke="#4C4C4C" stroke-width="2" stroke-miterlimit="10" stroke-linejoin="round"/>
</svg>
