<svg width="70" height="66" viewBox="0 0 70 66" fill="none" xmlns="http://www.w3.org/2000/svg">
<g clip-path="url(#clip0_268_91)">
<path d="M36.2255 19.27H25.1289V44.7584H36.2255V19.27Z" fill="#4C4C4C"/>
<path d="M59.1419 59.4996C58.3445 59.4996 57.6887 58.8548 57.6887 58.0544V4.83934C53.3067 8.78971 43.8646 16.1865 34.497 16.1865H11.1934C11.1189 16.1939 7.31822 16.1642 4.91856 18.5211C3.57713 19.8329 2.89897 21.7007 2.89897 24.0575V29.757C2.89897 30.5501 2.25061 31.2023 1.44576 31.2023C0.648355 31.1949 0 30.5501 0 29.7496V24.0501C0 20.878 0.976259 18.321 2.90642 16.4384C6.19291 13.2366 11.0295 13.2959 11.2233 13.2959H34.5044C45.7798 13.2959 57.9719 0.577694 58.0911 0.451698C58.4936 0.0218268 59.127 -0.118993 59.6785 0.103354C60.23 0.318289 60.5951 0.851922 60.5951 1.44485V58.0618C60.5951 58.8548 59.9468 59.4996 59.1419 59.4996Z" fill="#4C4C4C"/>
<path d="M11.1264 46.2036C10.5078 46.2036 6.01405 46.0924 2.90642 43.0611C0.976259 41.1786 0 38.6216 0 35.4494V29.7499C0 28.9569 0.648355 28.3047 1.45321 28.3047C2.25061 28.3047 2.90642 28.9495 2.90642 29.7499V35.4494C2.90642 37.8137 3.59204 39.6814 4.94091 41.0007C7.31822 43.3205 11.1189 43.3428 11.1711 43.3205H36.2408C37.0382 43.3205 37.694 43.9653 37.694 44.7658C37.694 45.5588 37.0457 46.211 36.2408 46.211H11.2009C11.186 46.2036 11.1562 46.2036 11.1264 46.2036Z" fill="#4C4C4C"/>
<path d="M59.1421 59.4997C58.7546 59.4997 58.3745 59.3515 58.0913 59.0476C58.0317 58.9809 51.891 52.5625 44.3045 48.8271C43.589 48.4713 43.2909 47.6116 43.6486 46.8927C44.0064 46.1737 44.8708 45.8847 45.5937 46.2404C53.6497 50.213 59.932 56.7945 60.2003 57.0687C60.7518 57.6468 60.722 58.5585 60.1407 59.1069C59.8575 59.3663 59.4998 59.4997 59.1421 59.4997Z" fill="#4C4C4C"/>
<path d="M15.799 65.9998C12.4603 65.9998 9.74023 63.2946 9.74023 59.9742V44.7582C9.74023 43.9652 10.3886 43.313 11.1934 43.313H20.412C21.2094 43.313 21.8652 43.9578 21.8652 44.7582V59.9742C21.8578 63.2946 19.1377 65.9998 15.799 65.9998ZM12.6392 46.2035V59.9742C12.6392 61.7085 14.0552 63.1167 15.799 63.1167C17.5429 63.1167 18.9588 61.7085 18.9588 59.9742V46.2035H12.6392Z" fill="#4C4C4C"/>
<path d="M62.458 37.2505H59.1417C58.3443 37.2505 57.6885 36.6057 57.6885 35.8053V23.6948C57.6885 22.9017 58.3368 22.2495 59.1417 22.2495H62.458C66.6164 22.2495 69.9998 25.6144 69.9998 29.75C69.9998 33.8857 66.6164 37.2505 62.458 37.2505ZM60.5949 34.3674H62.4654C65.0216 34.3674 67.1083 32.2996 67.1083 29.75C67.1083 27.2078 65.029 25.1326 62.4654 25.1326H60.5949V34.3674Z" fill="#4C4C4C"/>
<path d="M20.4122 46.2033C19.6148 46.2033 18.959 45.5584 18.959 44.758V14.7412C18.959 13.9481 19.6073 13.2959 20.4122 13.2959C21.2096 13.2959 21.8654 13.9407 21.8654 14.7412V44.758C21.858 45.5584 21.2096 46.2033 20.4122 46.2033Z" fill="#4C4C4C"/>
</g>
<defs>
<clipPath id="clip0_268_91">
<rect width="70" height="66" fill="white"/>
</clipPath>
</defs>
</svg>
