<svg width="72" height="66" viewBox="0 0 72 66" fill="none" xmlns="http://www.w3.org/2000/svg">
<path d="M16.5386 64.1911H1V23.903L16.5386 19.2549V64.1911Z" fill="white"/>
<path d="M50.4403 12.2344C39.8035 12.2344 31.6387 22.2186 31.6387 32.7927C31.6387 48.6186 50.9065 65.2731 50.9065 65.2731C50.9065 65.2731 70.1743 48.6186 70.1743 32.7927C70.1743 22.2186 61.0772 12.2344 50.4403 12.2344ZM50.4403 36.1067C46.5416 36.1067 43.3773 32.9612 43.3773 29.0854C43.3773 25.2097 46.5416 22.0642 50.4403 22.0642C54.3391 22.0642 57.5033 25.2097 57.5033 29.0854C57.5033 32.9612 54.3391 36.1067 50.4403 36.1067Z" fill="white"/>
<path d="M70.1743 31.3884C70.1743 47.2144 50.9065 63.8688 50.9065 63.8688C50.9065 63.8688 31.6387 47.2144 31.6387 31.3884C31.6387 20.8144 40.2555 12.2344 50.9065 12.2344C61.5433 12.2344 70.1743 20.8144 70.1743 31.3884Z" stroke="white" stroke-width="2" stroke-miterlimit="10" stroke-linejoin="round"/>
<path d="M51.1462 37.5103C55.4371 37.5103 58.9155 34.0524 58.9155 29.7869C58.9155 25.5214 55.4371 22.0635 51.1462 22.0635C46.8554 22.0635 43.377 25.5214 43.377 29.7869C43.377 34.0524 46.8554 37.5103 51.1462 37.5103Z" stroke="white" stroke-width="2" stroke-miterlimit="10" stroke-linejoin="round"/>
<path d="M44.7905 64.1915H1V23.4681L16.5386 19.2553V1L41.9653 5.21277V9.42553" stroke="white" stroke-width="2" stroke-miterlimit="10" stroke-linejoin="round"/>
<path d="M16.5391 19.2549V64.1911" stroke="white" stroke-width="2" stroke-miterlimit="10" stroke-linejoin="round"/>
<path d="M5.23828 34.7021H12.3013" stroke="white" stroke-width="2" stroke-miterlimit="10" stroke-linejoin="round"/>
<path d="M5.23828 44.5322H12.3013" stroke="white" stroke-width="2" stroke-miterlimit="10" stroke-linejoin="round"/>
<path d="M5.23828 54.3613H12.3013" stroke="white" stroke-width="2" stroke-miterlimit="10" stroke-linejoin="round"/>
</svg>
