<svg width="70" height="83" viewBox="0 0 70 83" fill="none" xmlns="http://www.w3.org/2000/svg">
<path d="M69.9836 13.9305C69.9236 12.0283 69.6291 11.5501 68.1237 10.1482C60.9023 3.8317 51.4882 0 41.1742 0C18.4354 0 0 18.5813 0 41.5C0 64.4187 18.4354 83 41.1742 83C51.4937 83 60.9132 79.1628 68.1401 72.8408C69.8636 71.23 69.9891 70.8397 70 68.08V43.3306L45.9522 63.6711C41.436 67.3543 34.4491 67.2004 30.2275 62.2692C26.0059 57.3381 26.7968 50.0815 31.5365 46.0793C31.5802 46.0409 36.9199 41.5275 36.9526 41.4945C36.9144 41.467 31.5802 36.9536 31.5365 36.9152C26.7968 32.913 26.0059 25.6619 30.2275 20.7253C34.4491 15.7941 41.4415 15.6456 45.9522 19.3234L70 39.6639V13.9305H69.9836Z" fill="#4C4C4C"/>
</svg>
