<svg width="211" height="394" viewBox="0 0 211 394" fill="none" xmlns="http://www.w3.org/2000/svg">
<path d="M210.951 41.6235C210.77 35.9401 209.882 34.5111 205.344 30.3224C183.577 11.4489 155.2 0 124.111 0C55.5696 0 0 55.5199 0 124C0 192.48 55.5696 248 124.111 248C155.217 248 183.61 236.535 205.394 217.645C210.589 212.832 210.967 211.666 211 203.42V129.47L138.513 190.246C124.9 201.252 103.839 200.792 91.1144 186.057C78.3893 171.323 80.7732 149.641 95.0602 137.683C95.1917 137.568 111.287 124.082 111.386 123.984C111.271 123.901 95.1917 110.416 95.0602 110.301C80.7732 98.3426 78.3893 76.6767 91.1144 61.9261C103.839 47.1919 124.916 46.7484 138.513 57.7375L211 118.514V41.6235H210.951Z" fill="#009FE3"/>
<path d="M108.394 372.251H105.254V388.84H108.394V372.251Z" fill="#27348B"/>
<path d="M112.224 376.525C111.139 376.525 110.169 376.87 109.413 377.413V379.665C109.824 379.238 110.383 378.942 111.139 378.942C113.162 378.942 113.178 380.931 113.178 382.411V388.839H116.302V381.243C116.302 378.547 115.069 376.525 112.208 376.525H112.224Z" fill="#27348B"/>
<path d="M125.262 386.013C124.851 386.408 124.308 386.671 123.569 386.671C121.563 386.671 121.53 384.681 121.53 383.218V376.806H118.406V384.385C118.406 387.098 119.639 389.104 122.5 389.104C123.634 389.104 124.506 388.759 125.262 388.167V386.013Z" fill="#27348B"/>
<path d="M129.471 376.806H126.281V388.841H129.471V376.806Z" fill="#27348B"/>
<path d="M138.777 376.543C137.659 376.543 136.771 376.905 136.015 377.497V379.65C136.426 379.256 136.968 378.993 137.708 378.993C139.714 378.993 139.73 380.982 139.73 382.445V388.857H142.87V381.278C142.87 378.565 141.637 376.543 138.777 376.543Z" fill="#27348B"/>
<path d="M135.012 376.806H131.822V388.841H135.012V376.806Z" fill="#27348B"/>
<path d="M98.0532 374.997C99.9603 374.997 101.703 375.918 102.788 377.316V373.699C102.788 373.699 101.226 372.087 98.0368 372.087C93.3183 372.087 89.6191 375.819 89.6191 380.604C89.6191 385.371 93.3183 389.104 98.0368 389.104C101.226 389.104 102.788 387.492 102.788 387.492V383.875C101.703 385.273 99.9768 386.21 98.0532 386.21C95.0281 386.21 92.7429 383.793 92.7429 380.604C92.7429 377.414 95.0117 374.997 98.0532 374.997Z" fill="#27348B"/>
<path d="M206.908 376.543C205.79 376.543 204.902 376.905 204.146 377.497V379.65C204.557 379.256 205.099 378.993 205.839 378.993C207.845 378.993 207.878 380.982 207.878 382.445V388.857H211.001V381.278C211.001 378.565 209.768 376.543 206.908 376.543Z" fill="#27348B"/>
<path d="M203.126 376.806H199.937V388.841H203.126V376.806Z" fill="#27348B"/>
<path d="M164.095 372.251H160.758V388.84H164.095V372.251Z" fill="#27348B"/>
<path d="M167.926 376.525C166.841 376.525 165.871 376.87 165.114 377.413V379.665C165.509 379.238 166.084 378.942 166.857 378.942C168.863 378.942 168.879 380.931 168.879 382.411V388.839H172.019V381.243C172.019 378.547 170.786 376.525 167.926 376.525Z" fill="#27348B"/>
<path d="M153.738 374.997C155.661 374.997 157.388 375.918 158.473 377.316V373.699C158.473 373.699 156.911 372.087 153.721 372.087C149.003 372.087 145.304 375.819 145.304 380.604C145.304 385.371 149.003 389.104 153.721 389.104C156.911 389.104 158.473 387.492 158.473 387.492V383.875C157.388 385.273 155.645 386.21 153.738 386.21C150.713 386.21 148.444 383.793 148.444 380.604C148.444 377.414 150.713 374.997 153.738 374.997Z" fill="#27348B"/>
<path d="M192.226 376.527C188.691 376.527 185.978 378.911 185.945 382.823C185.978 386.736 188.707 389.104 192.226 389.104C195.744 389.104 198.49 386.736 198.539 382.823C198.49 378.911 195.793 376.527 192.226 376.527ZM192.226 386.687C190.187 386.687 189.217 384.615 189.217 382.823C189.217 381.031 190.187 378.96 192.226 378.96C194.264 378.96 195.251 380.982 195.251 382.823C195.251 384.665 194.281 386.687 192.226 386.687Z" fill="#27348B"/>
<path d="M179.189 376.527C175.457 376.527 173.418 379.404 173.418 382.889C173.418 386.835 175.67 389.137 179.83 389.137C182.822 389.137 184.4 387.657 184.4 387.657V384.994C184.4 384.994 182.46 386.835 179.83 386.835C179.008 386.835 176.328 386.72 176.328 382.889C176.328 379.058 178.416 378.828 179.189 378.828C180.948 378.828 181.638 380.127 181.737 381.656H177.314C177.249 382.133 177.183 382.955 177.314 383.81H184.696C185.042 379.93 183.496 376.543 179.205 376.543L179.189 376.527Z" fill="#27348B"/>
<path d="M78.4404 379.007H76.1387V376.722H78.4404V375.028C78.4404 372.628 80.1338 370.951 82.6163 370.951C83.6849 370.951 84.3097 371.214 84.3097 371.214V373.812C84.3097 373.812 83.8 373.532 83.1753 373.532C82.0902 373.532 81.5805 374.223 81.5805 375.242V376.738H84.3097V379.024H81.5805V388.872H78.4404V379.024V379.007Z" fill="#27348B"/>
<path d="M69.2823 376.542C65.764 376.542 63.0348 378.909 63.002 382.839C63.0348 386.751 65.764 389.119 69.2823 389.119C72.8006 389.119 75.5462 386.751 75.5955 382.839C75.5626 378.909 72.8499 376.542 69.2823 376.542ZM69.2823 386.686C67.2437 386.686 66.2737 384.614 66.2737 382.822C66.2737 381.03 67.2601 378.959 69.2823 378.959C71.3045 378.959 72.3238 380.981 72.3238 382.822C72.3238 384.663 71.3374 386.686 69.2823 386.686Z" fill="#27348B"/>
<path d="M38.5877 379.009H36.2695V376.723H38.5877V374.52L41.7278 373.517V376.723H44.5063V379.009H41.7278V384.861C41.7278 385.979 42.2539 386.686 43.2897 386.686C44.2433 386.686 44.72 386.292 44.72 386.292V388.774C44.72 388.774 43.898 389.12 42.4019 389.12C39.9358 389.12 38.5877 387.607 38.5877 385.207V379.009Z" fill="#27348B"/>
<path d="M34.5593 372.268H31.4355V375.261H34.5593V372.268Z" fill="#27348B"/>
<path d="M34.5593 376.724H31.4355V388.857H34.5593V376.724Z" fill="#27348B"/>
<path d="M24.2183 374.997C26.1418 374.997 27.8681 375.918 28.9532 377.315V373.698C28.9532 373.698 27.3749 372.087 24.2018 372.087C19.4833 372.087 15.7842 375.819 15.7842 380.603C15.7842 385.371 19.4833 389.119 24.2018 389.119C27.3749 389.119 28.9532 387.508 28.9532 387.508V383.891C27.8681 385.289 26.1254 386.209 24.2183 386.209C21.2096 386.209 18.9244 383.793 18.9244 380.603C18.9244 377.414 21.1932 374.997 24.2183 374.997Z" fill="#27348B"/>
<path d="M55.3897 376.722L50.9179 389.546C50.3918 390.977 49.6519 391.273 48.8628 391.273C48.238 391.273 47.416 390.878 47.416 390.878V393.36C47.416 393.36 48.1394 393.739 49.1752 393.739C51.0823 393.739 52.8086 392.966 53.6964 390.516L58.5135 376.706H55.3897V376.722Z" fill="#27348B"/>
<path d="M51.7729 383.941L49.2575 376.724H46.1338L50.2111 388.397L51.7729 383.941Z" fill="#27348B"/>
<path d="M27.1286 347.311V334.142H18.6123V349.366C18.6123 353.624 21.0948 355.81 25.4352 355.81H69.9073V349.086H28.8877C27.6054 349.086 27.1286 348.774 27.1286 347.327V347.311Z" fill="#27348B"/>
<path d="M10.8516 320.923V327.648H39.9351V340.998H44.6865C47.3335 340.998 48.4679 339.962 48.4679 337.94V327.631H75.5292V320.907H10.8516V320.923Z" fill="#27348B"/>
<path d="M15.7998 310.467L17.2795 314.545C18.0522 316.649 19.4496 316.879 21.5869 316.485C29.2319 314.906 44.4559 310.089 47.0042 296.707H68.9197V289.982H47.4317V283.011H38.9154V289.982H17.4274V296.707H37.9783C33.9339 307.919 16.9013 310.336 15.7998 310.467Z" fill="#27348B"/>
<path d="M70.5639 310.467C69.5774 310.352 55.8988 308.412 50.0952 300.011H49.9801C49.2403 302.214 47.9579 305.091 45.7549 307.771C51.5749 313.032 59.7952 315.449 64.7768 316.485C66.9141 316.879 68.3115 316.665 69.0842 314.545L70.5639 310.467Z" fill="#27348B"/>
<path d="M119.952 310.615H132.727V336.509H137.461C140.108 336.509 141.243 335.473 141.243 333.468V284.129H132.727V303.907H119.952V310.632V310.615Z" fill="#27348B"/>
<path d="M104.53 349.071C103.248 349.071 102.771 348.758 102.771 347.312V331.562H94.2549V349.367C94.2549 353.625 96.7374 355.812 101.078 355.812H142.081V349.087H104.53V349.071Z" fill="#27348B"/>
<path d="M108.345 296.707H124.177V289.982H108.18V283.011H99.6642V289.982H83.6674V296.707H99.3518C99.3518 313.953 82.6481 320.283 81.7109 320.628L83.7003 324.097C84.8347 326.053 85.8047 326.99 88.5831 325.692C95.1759 322.272 108.345 313.377 108.345 296.707Z" fill="#27348B"/>
<path d="M110.564 306.554C109.167 311.108 107.178 314.15 106.257 315.416C110.482 320.578 115.776 323.899 119.245 325.691C122.023 326.99 122.993 326.053 124.128 324.096L126.134 320.627C125.394 320.348 115.069 316.451 110.564 306.538V306.554Z" fill="#27348B"/>
<path d="M202.484 284.113V355.647H206.907C209.554 355.647 211.001 354.364 211.001 352.441V284.113H202.484Z" fill="#27348B"/>
<path d="M178.283 286.35H169.767V294.06C169.767 320.908 150.745 330.822 150.745 330.822L153.343 333.913C155.135 336.033 156.582 336.313 158.982 334.718C165.229 330.296 178.3 318.491 178.3 297.381V286.35H178.283Z" fill="#27348B"/>
<path d="M180.586 309.185C179.599 313.361 178.136 317.257 176.18 320.874C180.389 327.829 185.732 332.35 189.086 334.717C191.47 336.312 192.933 336.033 194.725 333.912L197.322 330.821C197.322 330.821 185.65 324.738 180.586 309.185Z" fill="#27348B"/>
</svg>
