<svg width="28" height="40" viewBox="0 0 28 40" fill="none" xmlns="http://www.w3.org/2000/svg">
<path d="M23.7154 0.0418011C22.8386 0.041801 21.9405 0.313434 21.1706 0.856693L2.92966 14.0621C1.0906 15.3785 -1.85767e-06 17.6142 -2.06774e-06 20.0171C-2.27781e-06 22.42 1.09059 24.6348 2.92966 25.9721L21.1706 39.1776C23.0738 40.5566 25.7469 40.1596 27.1583 38.3C28.5696 36.4404 28.1633 33.8285 26.2601 32.4495L9.06701 19.9962L26.2601 7.54299C28.1634 6.16394 28.5483 3.5521 27.1583 1.69247C26.3243 0.585052 25.0198 3.55416e-06 23.7154 3.44012e-06L23.7154 0.0418011Z" fill="white"/>
</svg>
