<svg width="616" height="564" viewBox="0 0 616 564" fill="none" xmlns="http://www.w3.org/2000/svg">
<g filter="url(#filter0_d_426_7467)">
<path d="M556.871 424.151C582.341 424.151 603 403.498 603 378.005V147.599C603 112.467 574.529 84 539.424 84H76.5764C41.4712 84 13 112.482 13 147.599V483.387C13 518.518 41.4712 546.986 76.5764 546.986H434.066C459.718 546.986 480.503 526.193 480.503 500.532C480.503 458.343 514.697 424.137 556.857 424.137L556.871 424.151Z" fill="#F3F8FF"/>
<path d="M13 74C13 38.1015 42.1015 9 78 9H538C573.898 9 603 38.1015 603 74V158H13V74Z" fill="#F3F8FF"/>
</g>
<defs>
<filter id="filter0_d_426_7467" x="0.6" y="0.6" width="614.8" height="562.786" filterUnits="userSpaceOnUse" color-interpolation-filters="sRGB">
<feFlood flood-opacity="0" result="BackgroundImageFix"/>
<feColorMatrix in="SourceAlpha" type="matrix" values="0 0 0 0 0 0 0 0 0 0 0 0 0 0 0 0 0 0 127 0" result="hardAlpha"/>
<feOffset dy="4"/>
<feGaussianBlur stdDeviation="6.2"/>
<feComposite in2="hardAlpha" operator="out"/>
<feColorMatrix type="matrix" values="0 0 0 0 0.580436 0 0 0 0 0.622957 0 0 0 0 0.701923 0 0 0 0.25 0"/>
<feBlend mode="normal" in2="BackgroundImageFix" result="effect1_dropShadow_426_7467"/>
<feBlend mode="normal" in="SourceGraphic" in2="effect1_dropShadow_426_7467" result="shape"/>
</filter>
</defs>
</svg>
