<svg width="590" height="538" viewBox="0 0 590 538" fill="none" xmlns="http://www.w3.org/2000/svg">
<path d="M0 65C0 29.1015 29.1015 0 65 0H525C560.898 0 590 29.1015 590 65V149H0V65Z" fill="#3162B7"/>
<path d="M543.871 415.151C569.341 415.151 590 394.498 590 369.005V138.599C590 103.467 561.529 75 526.424 75H63.5764C28.4712 75 0 103.482 0 138.599V474.387C0 509.518 28.4712 537.986 63.5764 537.986H421.066C446.718 537.986 467.503 517.193 467.503 491.532C467.503 449.343 501.697 415.137 543.857 415.137L543.871 415.151Z" fill="#3162B7"/>
</svg>
