<svg width="317" height="273" viewBox="0 0 317 273" fill="none" xmlns="http://www.w3.org/2000/svg">
<g filter="url(#filter0_d_447_15011)">
<path d="M102.868 249L83.2958 218.155L122.441 218.155L102.868 249Z" fill="white"/>
<rect x="20" y="17" width="277" height="210.909" rx="20" fill="white"/>
</g>
<path d="M88.5989 141.648H88.3313C88.2123 141.648 88.0934 141.619 88.0042 141.559C87.8852 141.5 87.796 141.41 87.7366 141.291C87.6473 141.173 87.6176 141.024 87.6176 140.786V137.307C87.6176 136.95 87.6473 136.712 87.7366 136.593C87.796 136.504 87.9744 136.445 88.2718 136.385C89.5801 136.266 90.7398 135.999 91.7508 135.582C92.7321 135.196 93.5647 134.69 94.2486 134.096C94.9028 133.531 95.4083 132.876 95.7651 132.103C96.0922 131.39 96.2706 130.587 96.2706 129.754V123.926C96.2706 123.629 96.3301 123.45 96.449 123.331C96.568 123.242 96.7464 123.183 97.0437 123.183H101.207C101.474 123.183 101.682 123.242 101.801 123.331C101.92 123.45 101.98 123.629 101.98 123.926V129.754C101.98 130.587 102.128 131.39 102.485 132.103C102.812 132.876 103.318 133.531 104.002 134.096C104.656 134.69 105.518 135.196 106.529 135.582C107.511 135.999 108.67 136.266 109.979 136.385C110.246 136.445 110.425 136.504 110.514 136.593C110.573 136.712 110.633 136.95 110.633 137.307V140.786C110.633 141.024 110.603 141.173 110.544 141.291C110.454 141.41 110.365 141.5 110.276 141.559C110.157 141.619 110.038 141.648 109.949 141.648H109.652C108.403 141.529 107.213 141.321 106.113 140.994C104.983 140.697 104.002 140.34 103.11 139.894C102.188 139.478 101.385 139.002 100.731 138.467C100.047 137.961 99.5118 137.426 99.1252 136.891C98.7089 137.426 98.1737 137.961 97.5195 138.467C96.8356 139.002 96.0327 139.478 95.1407 139.894C94.2189 140.34 93.2079 140.697 92.1374 140.994C91.0074 141.321 89.8478 141.529 88.5989 141.648ZM85.8038 146.317C85.8038 146.019 85.8632 145.841 85.9822 145.722C86.1011 145.633 86.2795 145.573 86.5769 145.573H111.674C111.941 145.573 112.149 145.633 112.268 145.722C112.387 145.841 112.447 146.019 112.447 146.317V149.796C112.447 150.093 112.387 150.272 112.268 150.39C112.149 150.48 111.941 150.539 111.674 150.539H86.5769C86.2795 150.539 86.1011 150.48 85.9822 150.39C85.8632 150.272 85.8038 150.093 85.8038 149.796V146.317ZM130.532 145.811C130.532 147.06 130.264 147.952 129.729 148.517C129.193 149.052 128.391 149.35 127.32 149.35H117.626C116.556 149.35 115.753 149.052 115.218 148.517C114.683 147.952 114.415 147.06 114.415 145.811V123.926C114.415 123.629 114.474 123.45 114.593 123.331C114.712 123.242 114.891 123.183 115.188 123.183H129.758C130.026 123.183 130.234 123.242 130.353 123.331C130.472 123.45 130.532 123.629 130.532 123.926V145.811ZM142.753 137.485C142.753 137.783 142.693 137.991 142.574 138.08C142.455 138.199 142.247 138.229 141.98 138.229H139.244V150.093C139.244 150.39 139.185 150.569 139.066 150.688C138.947 150.777 138.739 150.837 138.471 150.837H134.308C134.011 150.837 133.832 150.777 133.713 150.688C133.594 150.569 133.535 150.39 133.535 150.093V123.926C133.535 123.629 133.594 123.45 133.713 123.331C133.832 123.242 134.011 123.183 134.308 123.183H138.471C138.739 123.183 138.947 123.242 139.066 123.331C139.185 123.45 139.244 123.629 139.244 123.926V133.293H141.98C142.247 133.293 142.455 133.352 142.574 133.441C142.693 133.56 142.753 133.739 142.753 134.036V137.485ZM124.228 144.681C124.555 144.681 124.793 144.622 124.912 144.473C125.031 144.354 125.09 144.116 125.09 143.73V127.702H119.857V143.73C119.857 144.116 119.916 144.354 120.035 144.473C120.154 144.622 120.362 144.681 120.719 144.681H124.228ZM168.593 140.637C168.623 140.935 168.563 141.143 168.444 141.202C168.296 141.291 168.087 141.351 167.82 141.381C166.452 141.529 165.025 141.648 163.597 141.737C162.14 141.856 160.683 141.916 159.256 141.975C157.799 142.065 156.372 142.124 155.004 142.124C153.577 142.184 152.238 142.184 150.99 142.184C149.086 142.184 147.719 141.678 146.916 140.637C146.083 139.626 145.667 138.021 145.667 135.761V123.926C145.667 123.629 145.726 123.45 145.845 123.331C145.964 123.242 146.143 123.183 146.44 123.183H167.463C167.731 123.183 167.939 123.242 168.058 123.331C168.177 123.45 168.236 123.629 168.236 123.926V127.405C168.236 127.702 168.177 127.911 168.058 128C167.939 128.119 167.731 128.148 167.463 128.148H151.376V130.289H167.493C167.76 130.289 167.968 130.349 168.087 130.438C168.206 130.557 168.266 130.735 168.266 131.033V134.214C168.266 134.512 168.206 134.72 168.087 134.809C167.968 134.928 167.76 134.958 167.493 134.958H151.376V135.493C151.376 136.207 151.525 136.742 151.822 137.069C152.119 137.426 152.655 137.575 153.458 137.545C155.599 137.515 157.918 137.426 160.356 137.307C162.794 137.188 165.173 137.01 167.522 136.742C167.79 136.712 167.968 136.742 168.087 136.861C168.177 136.98 168.236 137.188 168.296 137.485L168.593 140.637ZM143.794 146.317C143.794 146.019 143.853 145.841 143.972 145.722C144.091 145.633 144.269 145.573 144.567 145.573H169.663C169.931 145.573 170.139 145.633 170.258 145.722C170.377 145.841 170.436 146.019 170.436 146.317V149.796C170.436 150.093 170.377 150.272 170.258 150.39C170.139 150.48 169.931 150.539 169.663 150.539H144.567C144.269 150.539 144.091 150.48 143.972 150.39C143.853 150.272 143.794 150.093 143.794 149.796V146.317ZM187.629 152.383C185.905 152.383 184.418 152.234 183.228 151.937C181.98 151.61 180.998 151.164 180.255 150.628C179.482 150.063 178.917 149.409 178.59 148.666C178.233 147.893 178.055 147.09 178.055 146.198C178.055 145.306 178.233 144.503 178.59 143.73C178.947 142.986 179.512 142.332 180.285 141.767C181.058 141.232 182.039 140.816 183.258 140.489C184.448 140.191 185.905 140.043 187.629 140.043C189.324 140.043 190.781 140.191 192 140.489C193.19 140.816 194.201 141.232 194.974 141.767C195.747 142.332 196.312 142.986 196.669 143.73C197.026 144.503 197.204 145.306 197.204 146.198C197.204 147.09 197.026 147.893 196.699 148.666C196.342 149.409 195.777 150.063 195.033 150.628C194.26 151.164 193.249 151.61 192.06 151.937C190.811 152.234 189.354 152.383 187.629 152.383ZM182.099 122.439C182.366 122.439 182.574 122.499 182.693 122.588C182.812 122.707 182.872 122.885 182.872 123.183V124.669H187.51C187.778 124.669 187.986 124.729 188.105 124.818C188.224 124.937 188.284 125.115 188.284 125.413V128.743C188.284 129.04 188.224 129.249 188.105 129.338C187.986 129.457 187.778 129.487 187.51 129.487H182.901C182.931 129.992 183.05 130.468 183.228 130.914C183.377 131.39 183.645 131.806 184.002 132.163C184.329 132.579 184.775 132.906 185.369 133.174C185.905 133.471 186.618 133.709 187.51 133.887C187.57 133.917 187.689 133.947 187.808 133.947C187.897 133.977 187.986 134.006 188.105 134.066C188.194 134.155 188.284 134.244 188.373 134.363C188.432 134.512 188.462 134.69 188.462 134.928V138.229C188.462 138.586 188.373 138.794 188.194 138.853C187.986 138.942 187.808 138.972 187.689 138.942C186.975 138.883 186.291 138.794 185.607 138.615C184.894 138.496 184.239 138.288 183.585 137.991C182.931 137.753 182.307 137.396 181.712 136.98C181.088 136.564 180.523 136.088 180.047 135.493C179.512 136.088 178.976 136.564 178.382 136.98C177.787 137.396 177.162 137.753 176.508 137.991C175.854 138.288 175.17 138.496 174.486 138.615C173.773 138.794 173.089 138.883 172.405 138.942C172.256 138.972 172.107 138.942 171.929 138.853C171.721 138.794 171.632 138.586 171.632 138.229V134.928C171.632 134.69 171.661 134.512 171.751 134.363C171.81 134.244 171.87 134.155 171.989 134.066C172.078 134.006 172.197 133.977 172.316 133.947C172.405 133.947 172.494 133.917 172.583 133.887C173.416 133.709 174.129 133.471 174.724 133.174C175.259 132.906 175.735 132.579 176.092 132.163C176.449 131.806 176.687 131.39 176.865 130.914C177.014 130.468 177.133 129.992 177.192 129.487H172.553C172.256 129.487 172.078 129.457 171.959 129.338C171.84 129.249 171.78 129.04 171.78 128.743V125.413C171.78 125.115 171.84 124.937 171.959 124.818C172.078 124.729 172.256 124.669 172.553 124.669H177.222V123.183C177.222 122.885 177.281 122.707 177.4 122.588C177.519 122.499 177.698 122.439 177.995 122.439H182.099ZM192.982 139.061C192.684 139.061 192.506 139.032 192.387 138.913C192.268 138.823 192.209 138.615 192.209 138.318V133.739H189.503C189.205 133.739 189.027 133.709 188.908 133.59C188.789 133.501 188.73 133.293 188.73 132.995V129.546C188.73 129.249 188.789 129.07 188.908 128.951C189.027 128.862 189.205 128.803 189.503 128.803H192.209V123.926C192.209 123.629 192.268 123.45 192.387 123.331C192.506 123.242 192.684 123.183 192.982 123.183H197.145C197.412 123.183 197.62 123.242 197.739 123.331C197.858 123.45 197.918 123.629 197.918 123.926V138.318C197.918 138.615 197.858 138.823 197.739 138.913C197.62 139.032 197.412 139.061 197.145 139.061H192.982ZM187.629 147.714C188.819 147.714 189.77 147.595 190.514 147.387C191.227 147.149 191.584 146.733 191.584 146.168C191.584 145.633 191.227 145.217 190.514 144.979C189.77 144.741 188.819 144.622 187.629 144.622C186.44 144.622 185.488 144.741 184.775 144.979C184.031 145.217 183.675 145.633 183.675 146.168C183.675 146.733 184.031 147.149 184.775 147.387C185.488 147.595 186.44 147.714 187.629 147.714ZM212.131 123.183C212.399 123.183 212.607 123.242 212.726 123.331C212.845 123.45 212.904 123.629 212.904 123.926V138.942C212.904 139.537 212.964 140.072 213.113 140.608C213.231 141.173 213.499 141.678 213.886 142.124C214.242 142.6 214.748 143.016 215.402 143.373C216.027 143.76 216.829 144.057 217.84 144.235C217.9 144.265 218.019 144.295 218.138 144.295C218.227 144.324 218.316 144.354 218.435 144.414C218.524 144.503 218.614 144.592 218.703 144.711C218.762 144.86 218.792 145.038 218.792 145.276V148.577C218.792 148.933 218.703 149.142 218.524 149.231C218.316 149.29 218.138 149.29 218.019 149.29C217.305 149.231 216.621 149.112 215.908 148.993C215.164 148.815 214.451 148.606 213.767 148.368C213.053 148.071 212.399 147.744 211.774 147.328C211.12 146.911 210.555 146.406 210.08 145.841C209.544 146.406 208.979 146.911 208.385 147.328C207.73 147.744 207.076 148.071 206.392 148.368C205.679 148.606 204.995 148.815 204.281 148.993C203.538 149.112 202.824 149.231 202.14 149.29C201.992 149.29 201.843 149.29 201.664 149.231C201.456 149.142 201.367 148.933 201.367 148.577V145.276C201.367 145.038 201.397 144.86 201.486 144.711C201.545 144.592 201.605 144.503 201.724 144.414C201.813 144.354 201.932 144.324 202.051 144.295C202.14 144.295 202.229 144.265 202.319 144.235C203.3 144.057 204.103 143.76 204.757 143.373C205.381 143.016 205.887 142.6 206.273 142.124C206.63 141.678 206.898 141.173 207.047 140.608C207.165 140.072 207.255 139.537 207.255 138.942V123.926C207.255 123.629 207.314 123.45 207.433 123.331C207.552 123.242 207.73 123.183 208.028 123.183H212.131ZM230.478 137.485C230.478 137.783 230.419 137.991 230.3 138.08C230.181 138.199 229.973 138.229 229.705 138.229H226.969V150.093C226.969 150.39 226.91 150.569 226.791 150.688C226.672 150.777 226.464 150.837 226.196 150.837H222.033C221.736 150.837 221.557 150.777 221.438 150.688C221.32 150.569 221.26 150.39 221.26 150.093V123.926C221.26 123.629 221.32 123.45 221.438 123.331C221.557 123.242 221.736 123.183 222.033 123.183H226.196C226.464 123.183 226.672 123.242 226.791 123.331C226.91 123.45 226.969 123.629 226.969 123.926V133.293H229.705C229.973 133.293 230.181 133.352 230.3 133.441C230.419 133.56 230.478 133.739 230.478 134.036V137.485ZM93.8352 162.034C95.5599 162.034 96.9872 162.302 98.1171 162.807C99.2173 163.342 100.109 164.026 100.793 164.799C101.447 165.632 101.894 166.524 102.161 167.476C102.399 168.457 102.548 169.379 102.548 170.271C102.548 171.163 102.399 172.114 102.161 173.066C101.894 174.077 101.447 174.969 100.793 175.742C100.139 176.575 99.2471 177.229 98.1468 177.734C97.0169 178.269 95.5599 178.537 93.8352 178.537C92.0808 178.537 90.6535 178.269 89.5533 177.734C88.4234 177.229 87.5313 176.575 86.8771 175.742C86.223 174.969 85.7472 174.077 85.5093 173.066C85.2417 172.114 85.1227 171.163 85.1227 170.271C85.1227 169.379 85.2417 168.457 85.5093 167.476C85.7472 166.524 86.223 165.632 86.9069 164.799C87.561 164.026 88.4531 163.342 89.5831 162.807C90.6833 162.302 92.1106 162.034 93.8352 162.034ZM110.963 188.796C110.993 189.093 110.933 189.272 110.814 189.361C110.665 189.42 110.457 189.48 110.19 189.539C108.822 189.658 107.395 189.807 105.938 189.926L101.507 190.193L97.1358 190.372C95.6788 190.401 94.311 190.431 93.0621 190.431C91.159 190.431 89.7912 189.926 88.9883 188.915C88.1558 187.874 87.7395 186.239 87.7395 184.008V180.737C87.7395 180.44 87.7989 180.262 87.9179 180.143C88.0368 180.054 88.2152 179.994 88.5126 179.994H92.6755C92.9432 179.994 93.1513 180.054 93.2702 180.143C93.3892 180.262 93.4487 180.44 93.4487 180.737V183.443C93.4487 184.157 93.5973 184.692 93.8947 185.019C94.192 185.346 94.7273 185.495 95.5301 185.495C96.6006 185.465 97.7306 185.436 98.9497 185.406C100.139 185.346 101.329 185.257 102.577 185.198C103.797 185.138 105.045 185.049 106.294 184.93C107.513 184.841 108.703 184.722 109.892 184.603C110.16 184.573 110.338 184.603 110.457 184.722C110.547 184.841 110.606 185.049 110.665 185.346L110.963 188.796ZM113.758 173.096C113.758 173.393 113.698 173.601 113.58 173.69C113.461 173.809 113.252 173.839 112.985 173.839H110.249V181.065C110.249 181.362 110.19 181.57 110.071 181.659C109.952 181.778 109.744 181.808 109.476 181.808H105.313C105.016 181.808 104.837 181.778 104.718 181.659C104.599 181.57 104.54 181.362 104.54 181.065V162.926C104.54 162.629 104.599 162.45 104.718 162.331C104.837 162.242 105.016 162.183 105.313 162.183H109.476C109.744 162.183 109.952 162.242 110.071 162.331C110.19 162.45 110.249 162.629 110.249 162.926V168.903H112.985C113.252 168.903 113.461 168.962 113.58 169.051C113.698 169.17 113.758 169.349 113.758 169.646V173.096ZM93.8352 173.69C94.8462 173.69 95.6193 173.393 96.214 172.739C96.7493 172.114 97.0466 171.282 97.0466 170.241C97.0466 169.23 96.7493 168.427 96.214 167.773C95.6193 167.148 94.8462 166.821 93.8352 166.821C92.8242 166.821 92.0214 167.148 91.4861 167.773C90.8914 168.427 90.6238 169.23 90.6238 170.241C90.6238 171.282 90.8914 172.114 91.4861 172.739C92.0214 173.393 92.8242 173.69 93.8352 173.69ZM130.142 189.837C129.845 189.837 129.666 189.777 129.547 189.688C129.428 189.569 129.369 189.39 129.369 189.093V162.926C129.369 162.629 129.428 162.45 129.547 162.331C129.666 162.242 129.845 162.183 130.142 162.183H133.859C134.127 162.183 134.335 162.242 134.454 162.331C134.573 162.45 134.632 162.629 134.632 162.926V172.293H135.941V162.926C135.941 162.629 136 162.45 136.119 162.331C136.238 162.242 136.416 162.183 136.714 162.183H140.431C140.698 162.183 140.906 162.242 141.025 162.331C141.144 162.45 141.204 162.629 141.204 162.926V189.093C141.204 189.39 141.144 189.569 141.025 189.688C140.906 189.777 140.698 189.837 140.431 189.837H136.714C136.416 189.837 136.238 189.777 136.119 189.688C136 189.569 135.941 189.39 135.941 189.093V177.229H134.632V189.093C134.632 189.39 134.573 189.569 134.454 189.688C134.335 189.777 134.127 189.837 133.859 189.837H130.142ZM122.946 183.414C123.481 183.414 124.046 183.354 124.671 183.265C125.266 183.206 125.979 183.087 126.812 182.908C127.079 182.878 127.258 182.908 127.377 182.997C127.466 183.116 127.525 183.324 127.585 183.622L128.061 186.774C128.09 187.071 128.031 187.25 127.912 187.339C127.734 187.398 127.525 187.458 127.258 187.517C126.068 187.785 124.938 187.993 123.838 188.142C122.708 188.261 121.578 188.35 120.478 188.35C118.575 188.35 117.207 187.844 116.404 186.833C115.572 185.793 115.155 184.187 115.155 181.927C115.155 180.202 115.155 178.507 115.185 176.872C115.185 175.266 115.215 173.66 115.274 172.114C115.274 170.568 115.334 169.051 115.393 167.505C115.423 166.018 115.483 164.472 115.572 162.926C115.572 162.629 115.661 162.45 115.78 162.331C115.869 162.242 116.048 162.183 116.345 162.183H120.419C120.686 162.183 120.894 162.242 121.043 162.331C121.162 162.45 121.192 162.629 121.192 162.926L121.013 167.386C120.954 168.873 120.894 170.39 120.894 171.876C120.835 173.393 120.835 174.939 120.835 176.485C120.805 178.061 120.805 179.697 120.865 181.362C120.865 182.076 121.043 182.611 121.34 182.938C121.608 183.295 122.143 183.443 122.946 183.414ZM165.468 189.837C165.17 189.837 164.992 189.777 164.873 189.688C164.754 189.569 164.695 189.39 164.695 189.093V162.926C164.695 162.629 164.754 162.45 164.873 162.331C164.992 162.242 165.17 162.183 165.468 162.183H169.631C169.898 162.183 170.106 162.242 170.225 162.331C170.344 162.45 170.404 162.629 170.404 162.926V189.093C170.404 189.39 170.344 189.569 170.225 189.688C170.106 189.777 169.898 189.837 169.631 189.837H165.468ZM155.179 162.183C155.447 162.183 155.655 162.242 155.774 162.331C155.893 162.45 155.952 162.629 155.952 162.926V177.942C155.952 178.537 156.012 179.072 156.161 179.608C156.28 180.173 156.547 180.678 156.934 181.124C157.291 181.6 157.796 182.016 158.45 182.373C159.075 182.76 159.878 183.057 160.889 183.235C160.948 183.265 161.067 183.295 161.186 183.295C161.275 183.324 161.364 183.354 161.483 183.414C161.572 183.503 161.662 183.592 161.751 183.711C161.81 183.86 161.84 184.038 161.84 184.276V187.577C161.84 187.933 161.751 188.142 161.572 188.231C161.364 188.29 161.186 188.29 161.067 188.29C160.353 188.231 159.669 188.112 158.956 187.993C158.212 187.815 157.499 187.606 156.815 187.368C156.101 187.071 155.447 186.744 154.822 186.328C154.168 185.911 153.603 185.406 153.128 184.841C152.592 185.406 152.027 185.911 151.433 186.328C150.778 186.744 150.124 187.071 149.44 187.368C148.727 187.606 148.043 187.815 147.329 187.993C146.586 188.112 145.872 188.231 145.188 188.29C145.04 188.29 144.891 188.29 144.712 188.231C144.504 188.142 144.415 187.933 144.415 187.577V184.276C144.415 184.038 144.445 183.86 144.534 183.711C144.594 183.592 144.653 183.503 144.772 183.414C144.861 183.354 144.98 183.324 145.099 183.295C145.188 183.295 145.277 183.265 145.367 183.235C146.348 183.057 147.151 182.76 147.805 182.373C148.429 182.016 148.935 181.6 149.321 181.124C149.678 180.678 149.946 180.173 150.095 179.608C150.214 179.072 150.303 178.537 150.303 177.942V162.926C150.303 162.629 150.362 162.45 150.481 162.331C150.6 162.242 150.778 162.183 151.076 162.183H155.179ZM177.065 180.648H176.797C176.678 180.648 176.559 180.619 176.47 180.559C176.351 180.5 176.262 180.41 176.202 180.291C176.113 180.173 176.083 180.024 176.083 179.786V176.307C176.083 175.95 176.113 175.712 176.202 175.593C176.262 175.504 176.44 175.445 176.737 175.385C178.046 175.266 179.206 174.999 180.217 174.582C181.198 174.196 182.03 173.69 182.714 173.096C183.368 172.531 183.874 171.876 184.231 171.103C184.558 170.39 184.736 169.587 184.736 168.754V162.926C184.736 162.629 184.796 162.45 184.915 162.331C185.034 162.242 185.212 162.183 185.509 162.183H189.672C189.94 162.183 190.148 162.242 190.267 162.331C190.386 162.45 190.445 162.629 190.445 162.926V168.754C190.445 169.587 190.594 170.39 190.951 171.103C191.278 171.876 191.784 172.531 192.467 173.096C193.122 173.69 193.984 174.196 194.995 174.582C195.976 174.999 197.136 175.266 198.444 175.385C198.712 175.445 198.89 175.504 198.98 175.593C199.039 175.712 199.098 175.95 199.098 176.307V179.786C199.098 180.024 199.069 180.173 199.009 180.291C198.92 180.41 198.831 180.5 198.742 180.559C198.623 180.619 198.504 180.648 198.415 180.648H198.117C196.868 180.529 195.679 180.321 194.579 179.994C193.449 179.697 192.467 179.34 191.575 178.894C190.654 178.478 189.851 178.002 189.197 177.467C188.513 176.961 187.977 176.426 187.591 175.891C187.175 176.426 186.639 176.961 185.985 177.467C185.301 178.002 184.498 178.478 183.606 178.894C182.685 179.34 181.674 179.697 180.603 179.994C179.473 180.321 178.313 180.529 177.065 180.648ZM174.269 185.317C174.269 185.019 174.329 184.841 174.448 184.722C174.567 184.633 174.745 184.573 175.043 184.573H200.139C200.407 184.573 200.615 184.633 200.734 184.722C200.853 184.841 200.912 185.019 200.912 185.317V188.796C200.912 189.093 200.853 189.272 200.734 189.39C200.615 189.48 200.407 189.539 200.139 189.539H175.043C174.745 189.539 174.567 189.48 174.448 189.39C174.329 189.272 174.269 189.093 174.269 188.796V185.317ZM228.959 186.893C228.959 188.142 228.691 189.034 228.156 189.599C227.621 190.134 226.818 190.431 225.747 190.431H207.846C206.776 190.431 205.973 190.134 205.438 189.599C204.903 189.034 204.635 188.142 204.635 186.893V180.47C204.635 180.173 204.695 179.994 204.813 179.875C204.932 179.786 205.111 179.726 205.408 179.726H228.185C228.453 179.726 228.661 179.786 228.78 179.875C228.899 179.994 228.959 180.173 228.959 180.47V186.893ZM214.24 171.371C214.24 171.668 214.18 171.876 214.061 171.966C213.942 172.084 213.734 172.114 213.466 172.114H208.56C208.56 172.203 208.56 172.263 208.59 172.322V172.501C208.59 173.096 208.739 173.482 209.036 173.69C209.304 173.928 209.75 174.017 210.374 173.958C210.998 173.928 211.682 173.898 212.455 173.839C213.169 173.809 213.913 173.72 214.686 173.601C214.953 173.571 215.132 173.601 215.251 173.69C215.34 173.809 215.399 174.017 215.459 174.315L215.756 177.05C215.786 177.348 215.726 177.556 215.607 177.615C215.459 177.704 215.251 177.764 214.983 177.794C213.794 177.972 212.664 178.091 211.563 178.151C210.433 178.24 209.333 178.269 208.203 178.269C206.3 178.269 204.932 177.764 204.13 176.723C203.297 175.712 202.881 174.107 202.881 171.847C202.881 170.479 202.881 168.992 202.91 167.386C202.91 165.781 202.94 164.294 203 162.926C203 162.629 203.089 162.45 203.208 162.331C203.297 162.242 203.475 162.183 203.773 162.183H214.656C214.924 162.183 215.132 162.242 215.251 162.331C215.37 162.45 215.429 162.629 215.429 162.926V165.662C215.429 165.959 215.37 166.167 215.251 166.256C215.132 166.375 214.924 166.405 214.656 166.405H208.53V167.892H213.466C213.734 167.892 213.942 167.951 214.061 168.04C214.18 168.159 214.24 168.338 214.24 168.635V171.371ZM214.924 168.427C214.924 168.13 214.983 167.951 215.102 167.832C215.221 167.743 215.399 167.684 215.697 167.684H217.243V162.926C217.243 162.629 217.302 162.45 217.421 162.331C217.54 162.242 217.719 162.183 218.016 162.183H221.733C222.001 162.183 222.209 162.242 222.328 162.331C222.447 162.45 222.506 162.629 222.506 162.926V177.615C222.506 177.913 222.447 178.121 222.328 178.21C222.209 178.329 222.001 178.359 221.733 178.359H218.016C217.719 178.359 217.54 178.329 217.421 178.21C217.302 178.121 217.243 177.913 217.243 177.615V172.203H215.697C215.399 172.203 215.221 172.174 215.102 172.055C214.983 171.966 214.924 171.757 214.924 171.46V168.427ZM224.439 178.359C224.141 178.359 223.963 178.329 223.844 178.21C223.725 178.121 223.666 177.913 223.666 177.615V162.926C223.666 162.629 223.725 162.45 223.844 162.331C223.963 162.242 224.141 162.183 224.439 162.183H228.156C228.423 162.183 228.632 162.242 228.75 162.331C228.869 162.45 228.929 162.629 228.929 162.926V177.615C228.929 177.913 228.869 178.121 228.75 178.21C228.632 178.329 228.423 178.359 228.156 178.359H224.439ZM222.625 185.911C222.952 185.911 223.19 185.852 223.309 185.733C223.428 185.584 223.487 185.317 223.487 184.96V184.098H210.047V184.96C210.047 185.317 210.106 185.584 210.225 185.733C210.344 185.852 210.552 185.911 210.909 185.911H222.625Z" fill="#5C5C5C"/>
<path d="M44.1129 18.344C44.1129 16.04 44.4009 13.928 45.0729 11.912C45.6489 9.992 46.6089 8.168 48.0489 6.632C49.3929 5.096 51.3129 3.848 53.6169 2.696C55.9209 1.736 58.7049 0.967995 62.1609 0.583994V4.13599C61.3929 4.328 60.7209 4.616 60.0489 4.99999C59.2809 5.576 58.6089 6.248 58.0329 7.20799C57.3609 8.168 56.8809 9.41599 56.4969 10.952C56.0169 12.488 55.7289 14.408 55.7289 16.52H59.4729C60.3369 16.52 61.0089 16.712 61.3929 17C61.7769 17.384 61.9689 17.96 61.9689 18.92V30.92C61.9689 31.88 61.7769 32.552 61.3929 32.84C61.0089 33.224 60.3369 33.32 59.4729 33.32H46.6089C45.6489 33.32 45.0729 33.224 44.6889 32.84C44.3049 32.552 44.1129 31.88 44.1129 30.92V18.344ZM68.0169 18.344C68.0169 16.04 68.3049 13.928 68.9769 11.912C69.5529 9.992 70.5129 8.168 71.9529 6.632C73.2969 5.096 75.2169 3.848 77.5209 2.696C79.8249 1.736 82.6089 0.967995 86.0649 0.583994V4.13599C85.2969 4.328 84.6249 4.616 83.9529 4.99999C83.1849 5.576 82.5129 6.248 81.9369 7.20799C81.2649 8.168 80.7849 9.41599 80.4009 10.952C79.9209 12.488 79.6329 14.408 79.6329 16.52H83.3769C84.2409 16.52 84.9129 16.712 85.2969 17C85.6809 17.384 85.8729 17.96 85.8729 18.92V30.92C85.8729 31.88 85.6809 32.552 85.2969 32.84C84.9129 33.224 84.2409 33.32 83.3769 33.32H70.5129C69.5529 33.32 68.9769 33.224 68.5929 32.84C68.2089 32.552 68.0169 31.88 68.0169 30.92V18.344Z" fill="#5597FA"/>
<path d="M86.4042 57.4069C86.4042 56.8958 86.5064 56.5892 86.7109 56.3847C86.9153 56.2314 87.2219 56.1292 87.733 56.1292H101.89V54.3915C101.89 54.0338 101.941 53.7271 102.145 53.4716C102.248 53.2672 102.605 53.1138 103.116 53.1138H109.658C110.169 53.1138 110.476 53.2672 110.68 53.4716C110.783 53.7271 110.885 54.0338 110.885 54.3915V56.1292H124.939C125.399 56.1292 125.757 56.2314 125.962 56.3847C126.166 56.5892 126.268 56.8958 126.268 57.4069V62.8243C126.268 63.3354 126.166 63.6931 125.962 63.8465C125.757 64.0509 125.399 64.102 124.939 64.102H112.929C114.105 65.3286 115.74 66.4018 117.784 67.2196C119.778 68.1395 122.128 68.6506 124.837 68.8039C124.939 68.8039 125.042 68.855 125.246 68.855C125.399 68.9061 125.553 68.9572 125.757 69.0594C125.859 69.1617 126.013 69.315 126.115 69.5194C126.217 69.7238 126.268 70.0305 126.268 70.3882V75.6523C126.268 76.0612 126.217 76.3167 126.115 76.5212C125.962 76.7256 125.808 76.8789 125.655 76.93C125.45 77.0322 125.246 77.0834 125.093 77.0834C124.888 77.1345 124.684 77.1345 124.582 77.1345C122.282 77.0834 120.186 76.8278 118.295 76.3678C116.353 75.959 114.616 75.4479 113.082 74.7324C111.549 74.1191 110.22 73.3525 109.096 72.4837C107.972 71.6659 107.052 70.8482 106.387 69.9794C105.672 70.8482 104.803 71.6659 103.679 72.4837C102.554 73.3525 101.225 74.1191 99.6922 74.7324C98.159 75.4479 96.4213 75.959 94.5303 76.3678C92.5882 76.8278 90.4417 77.0834 88.193 77.1345C88.0397 77.1345 87.8863 77.1345 87.733 77.0834C87.5286 77.0834 87.3241 77.0322 87.1708 76.93C86.9664 76.8789 86.8131 76.7256 86.7109 76.5212C86.5575 76.3167 86.5064 76.0612 86.5064 75.6523V70.3882C86.5064 70.0305 86.5575 69.7238 86.6597 69.5194C86.762 69.315 86.8642 69.1617 87.0686 69.0594C87.1708 68.9572 87.3241 68.9061 87.5286 68.855C87.6819 68.855 87.8352 68.8039 87.9374 68.8039C90.595 68.6506 92.946 68.1395 94.9903 67.2196C96.9835 66.4018 98.5678 65.3286 99.7944 64.102H87.733C87.2219 64.102 86.9153 64.0509 86.7109 63.8465C86.5064 63.6931 86.4042 63.3354 86.4042 62.8243V57.4069ZM83.4911 80.3542C83.4911 79.8432 83.5933 79.5365 83.7977 79.3321C84.0021 79.1788 84.3088 79.0766 84.8199 79.0766H127.955C128.415 79.0766 128.772 79.1788 128.977 79.3321C129.181 79.5365 129.284 79.8432 129.284 80.3542V85.8228C129.284 86.3338 129.181 86.6916 128.977 86.8449C128.772 87.0494 128.415 87.1005 127.955 87.1005H111.805V91.0869C111.805 91.5979 111.703 91.9557 111.498 92.109C111.294 92.3134 110.936 92.3646 110.476 92.3646H103.321C102.81 92.3646 102.503 92.3134 102.299 92.109C102.094 91.9557 101.992 91.5979 101.992 91.0869V87.1005H84.8199C84.3088 87.1005 84.0021 87.0494 83.7977 86.8449C83.5933 86.6916 83.4911 86.3338 83.4911 85.8228V80.3542ZM127.086 100.746C127.137 101.257 127.086 101.615 126.882 101.819C126.626 101.973 126.217 102.075 125.706 102.177C120.8 102.637 115.944 102.893 111.038 102.995C106.132 103.046 101.123 103.046 96.0636 102.944C92.7927 102.842 90.4417 101.973 89.0618 100.286C87.6308 98.5486 86.9153 95.7377 86.9153 91.9046V89.9625C86.9153 89.4514 87.0175 89.1448 87.2219 88.9403C87.4264 88.787 87.733 88.6848 88.2441 88.6848H95.3992C95.8591 88.6848 96.2169 88.787 96.4213 88.9403C96.6257 89.1448 96.728 89.4514 96.728 89.9625V91.4446C96.728 92.6712 96.9835 93.5911 97.4946 94.1022C98.0057 94.6133 98.9256 94.9199 100.305 94.971C104.445 95.0222 108.585 95.0222 112.674 94.9199C116.711 94.8177 120.851 94.5622 125.093 94.2044C125.553 94.1022 125.91 94.1533 126.166 94.3578C126.37 94.5111 126.524 94.8688 126.626 95.4821L127.086 100.746ZM149.328 53.165C149.788 53.165 150.145 53.2672 150.35 53.4205C150.554 53.6249 150.657 53.9316 150.657 54.4426V56.9469H158.629C159.089 56.9469 159.447 57.0491 159.652 57.2025C159.856 57.4069 159.958 57.7135 159.958 58.2246V64.2042C159.958 64.7153 159.856 65.073 159.652 65.2264C159.447 65.4308 159.089 65.4819 158.629 65.4819H150.657C150.657 66.453 150.759 67.3729 151.014 68.2928C151.219 69.2128 151.576 70.0816 152.19 70.8482C152.752 71.6659 153.57 72.3303 154.592 72.8925C155.614 73.5058 156.943 74.0169 158.629 74.3235C158.732 74.3746 158.936 74.4258 159.14 74.4258C159.294 74.4769 159.447 74.528 159.652 74.6302C159.805 74.7835 159.958 74.9368 160.111 75.1413C160.214 75.3968 160.265 75.7034 160.265 76.1123V81.7853C160.265 82.3986 160.111 82.7563 159.805 82.8585C159.447 83.0118 159.14 83.063 158.936 83.0118C157.709 82.9096 156.534 82.7563 155.358 82.4497C154.132 82.2452 153.008 81.8875 151.883 81.3764C150.759 80.9675 149.686 80.3542 148.663 79.6387C147.59 78.9232 146.619 78.1055 145.801 77.0834C144.881 78.1055 143.961 78.9232 142.939 79.6387C141.917 80.3542 140.844 80.9675 139.72 81.3764C138.595 81.8875 137.42 82.2452 136.244 82.4497C135.018 82.7563 133.842 82.9096 132.667 83.0118C132.411 83.063 132.156 83.0118 131.849 82.8585C131.491 82.7563 131.338 82.3986 131.338 81.7853V76.1123C131.338 75.7034 131.389 75.3968 131.542 75.1413C131.644 74.9368 131.747 74.7835 131.951 74.6302C132.104 74.528 132.309 74.4769 132.513 74.4258C132.667 74.4258 132.82 74.3746 132.973 74.3235C134.609 74.0169 135.989 73.5058 137.011 72.8925C138.033 72.3303 138.8 71.6659 139.413 70.8482C139.975 70.0816 140.384 69.2128 140.639 68.2928C140.844 67.3729 140.946 66.453 140.946 65.4819H132.922C132.411 65.4819 132.104 65.4308 131.9 65.2264C131.696 65.073 131.593 64.7153 131.593 64.2042V58.2246C131.593 57.7135 131.696 57.4069 131.9 57.2025C132.104 57.0491 132.411 56.9469 132.922 56.9469H140.946V54.4426C140.946 53.9316 141.048 53.6249 141.253 53.4205C141.457 53.2672 141.764 53.165 142.275 53.165H149.328ZM177.079 100.133C177.13 100.644 177.028 100.951 176.824 101.104C176.568 101.206 176.21 101.308 175.75 101.411C173.399 101.615 170.895 101.871 168.34 102.075L160.571 102.535L152.854 102.842C150.299 102.893 147.948 102.944 145.801 102.944C142.53 102.944 140.179 102.075 138.8 100.337C137.369 98.5486 136.653 95.7377 136.653 91.9046V86.7938C136.653 86.2827 136.755 85.9761 136.96 85.7717C137.164 85.6183 137.471 85.5161 137.982 85.5161H145.137C145.597 85.5161 145.955 85.6183 146.159 85.7717C146.364 85.9761 146.466 86.2827 146.466 86.7938V90.9335C146.466 92.1601 146.721 93.0801 147.232 93.6422C147.743 94.2044 148.663 94.46 150.043 94.46C151.883 94.4089 153.825 94.3578 155.972 94.3066C158.067 94.2044 160.214 94.0511 162.411 93.9489C164.558 93.8467 166.755 93.6934 168.953 93.4889C171.1 93.3356 173.195 93.1312 175.239 92.9267C175.699 92.8756 176.006 92.9267 176.21 93.1312C176.364 93.3356 176.466 93.6934 176.568 94.2044L177.079 100.133ZM168.033 88.1226C167.522 88.1226 167.215 88.0715 167.011 87.8671C166.807 87.7138 166.704 87.356 166.704 86.8449V73.9147H162.054C161.542 73.9147 161.236 73.8636 161.031 73.6591C160.827 73.5058 160.725 73.1481 160.725 72.637V66.7085C160.725 66.1974 160.827 65.8908 161.031 65.6863C161.236 65.533 161.542 65.4308 162.054 65.4308H166.704V55.6692C166.704 55.1582 166.807 54.8515 167.011 54.6471C167.215 54.4938 167.522 54.3915 168.033 54.3915H175.188C175.648 54.3915 176.006 54.4938 176.21 54.6471C176.415 54.8515 176.517 55.1582 176.517 55.6692V86.8449C176.517 87.356 176.415 87.7138 176.21 87.8671C176.006 88.0715 175.648 88.1226 175.188 88.1226H168.033ZM219.141 101.922C218.63 101.922 218.323 101.819 218.119 101.666C217.914 101.462 217.812 101.155 217.812 100.644V55.6692C217.812 55.1582 217.914 54.8515 218.119 54.6471C218.323 54.4938 218.63 54.3915 219.141 54.3915H226.296C226.756 54.3915 227.114 54.4938 227.318 54.6471C227.523 54.8515 227.625 55.1582 227.625 55.6692V100.644C227.625 101.155 227.523 101.462 227.318 101.666C227.114 101.819 226.756 101.922 226.296 101.922H219.141ZM201.458 54.3915C201.918 54.3915 202.275 54.4938 202.48 54.6471C202.684 54.8515 202.786 55.1582 202.786 55.6692V81.4786C202.786 82.5008 202.889 83.4207 203.144 84.3406C203.349 85.3117 203.809 86.1805 204.473 86.9471C205.086 87.7649 205.955 88.4804 207.079 89.0937C208.153 89.7581 209.533 90.2691 211.27 90.5758C211.373 90.6269 211.577 90.678 211.781 90.678C211.935 90.7291 212.088 90.7802 212.292 90.8824C212.446 91.0358 212.599 91.1891 212.752 91.3935C212.855 91.649 212.906 91.9557 212.906 92.3646V98.0375C212.906 98.6508 212.752 99.0086 212.446 99.1619C212.088 99.2641 211.781 99.2641 211.577 99.2641C210.35 99.1619 209.175 98.9574 207.948 98.753C206.671 98.4464 205.444 98.0886 204.269 97.6798C203.042 97.1687 201.918 96.6065 200.844 95.891C199.72 95.1755 198.749 94.3066 197.931 93.3356C197.011 94.3066 196.04 95.1755 195.018 95.891C193.894 96.6065 192.769 97.1687 191.594 97.6798C190.367 98.0886 189.192 98.4464 187.965 98.753C186.687 98.9574 185.461 99.1619 184.285 99.2641C184.03 99.2641 183.774 99.2641 183.468 99.1619C183.11 99.0086 182.957 98.6508 182.957 98.0375V92.3646C182.957 91.9557 183.008 91.649 183.161 91.3935C183.263 91.1891 183.365 91.0358 183.57 90.8824C183.723 90.7802 183.928 90.7291 184.132 90.678C184.285 90.678 184.439 90.6269 184.592 90.5758C186.279 90.2691 187.659 89.7581 188.783 89.0937C189.856 88.4804 190.725 87.7649 191.389 86.9471C192.003 86.1805 192.463 85.3117 192.718 84.3406C192.923 83.4207 193.076 82.5008 193.076 81.4786V55.6692C193.076 55.1582 193.178 54.8515 193.383 54.6471C193.587 54.4938 193.894 54.3915 194.405 54.3915H201.458Z" fill="#009FE3"/>
<defs>
<filter id="filter0_d_447_15011" x="0" y="1" width="317" height="272" filterUnits="userSpaceOnUse" color-interpolation-filters="sRGB">
<feFlood flood-opacity="0" result="BackgroundImageFix"/>
<feColorMatrix in="SourceAlpha" type="matrix" values="0 0 0 0 0 0 0 0 0 0 0 0 0 0 0 0 0 0 127 0" result="hardAlpha"/>
<feOffset dy="4"/>
<feGaussianBlur stdDeviation="10"/>
<feComposite in2="hardAlpha" operator="out"/>
<feColorMatrix type="matrix" values="0 0 0 0 0.420511 0 0 0 0 0.455293 0 0 0 0 0.543269 0 0 0 0.2 0"/>
<feBlend mode="normal" in2="BackgroundImageFix" result="effect1_dropShadow_447_15011"/>
<feBlend mode="normal" in="SourceGraphic" in2="effect1_dropShadow_447_15011" result="shape"/>
</filter>
</defs>
</svg>
