<svg width="38" height="54" viewBox="0 0 38 54" fill="none" xmlns="http://www.w3.org/2000/svg">
<path d="M32.1852 0.0564303C30.9953 0.0564302 29.7764 0.423129 28.7316 1.15653L3.97597 18.9839C1.48009 20.761 -1.17271e-06 23.7792 -1.4563e-06 27.0231C-1.73989e-06 30.267 1.48009 33.257 3.97597 35.0623L28.7316 52.8897C31.3145 54.7514 34.9422 54.2155 36.8577 51.705C38.7731 49.1945 38.2217 45.6685 35.6387 43.8068L12.3052 26.9949L35.6388 10.183C38.2217 8.32132 38.7441 4.79533 36.8577 2.28483C35.7258 0.789814 33.9555 3.46111e-06 32.1852 3.30635e-06L32.1852 0.0564303Z" fill="white"/>
</svg>
