<svg width="29" height="38" viewBox="0 0 29 38" fill="none" xmlns="http://www.w3.org/2000/svg">
<path d="M0.958983 15.9482C0.322249 15.212 0.347026 14.106 1.03906 13.4014L13.1406 1.07519L13.1475 1.06836L13.1973 1.02539C13.2023 1.02153 13.2078 1.01826 13.2129 1.01465C13.2581 0.973967 13.307 0.934374 13.3574 0.898437L13.3574 0.89746C13.3574 0.897463 13.3588 0.896611 13.373 0.884765C13.379 0.879849 13.3894 0.870623 13.4014 0.861328C13.4125 0.85266 13.4279 0.841363 13.4463 0.829101L13.5645 0.755859C13.8483 0.593375 14.1791 0.500025 14.5303 0.499999C14.7729 0.499999 15.0094 0.550141 15.2217 0.629882C15.2239 0.630482 15.226 0.63042 15.2275 0.630859C15.2516 0.637603 15.271 0.645021 15.2822 0.649413C15.2873 0.651415 15.2916 0.654447 15.2959 0.656249L15.2969 0.655273C15.3016 0.657372 15.3064 0.659832 15.3115 0.662109L15.3203 0.666015L15.3213 0.666992C15.3941 0.699432 15.5019 0.748018 15.6045 0.818359L15.6113 0.822265L15.6172 0.827148C15.6462 0.848475 15.6704 0.869469 15.6816 0.878906C15.6934 0.888745 15.6963 0.890624 15.6963 0.890624L15.7246 0.911132L15.7314 0.918945L15.7588 0.917968L15.9062 1.06836L27.958 13.3525L27.96 13.3545C28.312 13.7179 28.5 14.1772 28.5 14.6729C28.5 15.1033 28.352 15.5441 28.0469 15.8975L27.9062 16.0439C27.14 16.7568 25.9321 16.74 25.1914 15.9863L16.4482 7.08008L16.4482 35.6045C16.448 36.6579 15.5734 37.4999 14.5234 37.5C13.4734 37.5 12.5979 36.658 12.5977 35.6045L12.5977 7.08203L3.8125 16.0352C3.07182 16.7888 1.86387 16.8056 1.09766 16.0928L1.0957 16.0908L0.958983 15.9482Z" fill="white" stroke="white"/>
</svg>
