<svg width="33" height="33" viewBox="0 0 33 33" fill="none" xmlns="http://www.w3.org/2000/svg">
<path d="M1.74053 32.9912C2.18772 32.9912 2.63491 32.816 2.97688 32.4742L29.4049 6.06401L29.063 23.0896C29.0454 24.0535 29.8171 24.8596 30.7816 24.8771H30.8167C31.7724 24.8771 32.5528 24.1148 32.5704 23.1597L33 1.77912C33 1.77912 33 1.77037 33 1.7616C33 1.68274 32.9912 1.59512 32.9825 1.51625C32.9825 1.4812 32.9825 1.4549 32.9737 1.41985C32.9123 1.08688 32.7545 0.762656 32.4914 0.508543C32.1407 0.158042 31.6847 -0.00843404 31.2375 0.00032848C31.2375 0.00032848 31.2288 0.00032848 31.22 0.00032848L9.74612 0.429684C8.78159 0.447209 8.00996 1.25337 8.0275 2.21725C8.04503 3.17236 8.82542 3.93469 9.78118 3.93469H9.81627L26.941 3.59297L0.512954 30.0032C-0.170985 30.6867 -0.170985 31.7995 0.512954 32.483C0.854923 32.8248 1.3021 33 1.74929 33L1.74053 32.9912Z" fill="white"/>
</svg>
