<svg width="62" height="65" viewBox="0 0 62 65" fill="none" xmlns="http://www.w3.org/2000/svg">
<rect x="0.394531" y="0.928711" width="61.3201" height="63.4346" fill="black" fill-opacity="0.55"/>
<path d="M37.5004 18.4022C36.8714 18.4022 36.227 18.5961 35.6747 18.9838L22.5884 28.4077C21.269 29.3471 20.4866 30.9426 20.4866 32.6574C20.4866 34.3722 21.269 35.9528 22.5884 36.9071L35.6747 46.331C37.0401 47.3152 38.9578 47.0319 39.9704 45.7048C40.9829 44.3777 40.6914 42.5137 39.326 41.5296L26.9914 32.6425L39.326 23.7554C40.6914 22.7712 40.9676 20.9073 39.9704 19.5802C39.372 18.7899 38.4362 18.3724 37.5004 18.3724L37.5004 18.4022Z" fill="white"/>
</svg>
