<svg width="29" height="38" viewBox="0 0 29 38" fill="none" xmlns="http://www.w3.org/2000/svg">
<path d="M13.8953 36.8814C13.8953 36.8814 13.9092 36.8883 13.9162 36.8883C14.0834 36.9581 14.2716 37 14.4597 37C14.7524 37 15.0242 36.9093 15.2471 36.7557C15.2681 36.7418 15.2889 36.7208 15.3168 36.6999C15.3656 36.665 15.4144 36.6231 15.4562 36.5812C15.4562 36.5812 15.4632 36.5812 15.4701 36.5743L27.3024 24.2485C27.832 23.6972 27.8181 22.8108 27.2606 22.2734C26.7032 21.7429 25.8251 21.7569 25.2886 22.3153L15.8604 32.1423L15.8604 2.39589C15.8604 1.62815 15.2332 0.999999 14.4667 0.999999C13.7002 0.999999 13.073 1.62815 13.073 2.39589L13.073 32.1423L3.68658 22.3641C3.15001 21.8057 2.27203 21.7918 1.71456 22.3222C1.42885 22.5944 1.28945 22.9643 1.28945 23.3272C1.28945 23.6902 1.42185 24.0252 1.67968 24.2974L13.4632 36.5812C13.4632 36.5812 13.4702 36.5812 13.4772 36.5882C13.519 36.6301 13.5678 36.665 13.6096 36.7069C13.6375 36.7278 13.6584 36.7487 13.6862 36.7697C13.7559 36.8185 13.8326 36.8535 13.9092 36.8883L13.8953 36.8814Z" fill="white"/>
<path d="M14.4668 -6.12946e-07C15.81 -5.55121e-07 16.8761 1.09161 16.8763 2.39551L15.8609 2.39551L15.853 2.25391C15.7814 1.55221 15.1854 0.999999 14.4668 0.999999L14.325 1.00684C13.671 1.0738 13.1474 1.59892 13.0805 2.25391L13.0736 2.39551L13.0736 32.1426L3.68624 22.3643C3.1497 21.8061 2.2724 21.792 1.71497 22.3223C1.46489 22.5605 1.32704 22.8736 1.29652 23.1914L1.28958 23.3271C1.28958 23.6447 1.39098 23.9409 1.58904 24.1924L1.68026 24.2979L13.4633 36.5811C13.4633 36.5811 13.4703 36.5811 13.4772 36.5879L13.61 36.707L13.6864 36.7695C13.7213 36.794 13.758 36.8148 13.7955 36.834L13.8956 36.8818C13.8979 36.8829 13.9101 36.8887 13.9164 36.8887C14.0418 36.941 14.179 36.9771 14.319 36.9922L14.4598 37C14.7524 37 15.0242 36.9094 15.2471 36.7559C15.268 36.742 15.2889 36.721 15.3166 36.7002C15.3653 36.6653 15.4146 36.6229 15.4564 36.5811C15.4571 36.581 15.4637 36.5808 15.4703 36.5742L27.3029 24.249C27.8324 23.6977 27.8184 22.8109 27.2612 22.2734C26.7037 21.743 25.8255 21.7571 25.2889 22.3154L15.8609 32.1426L15.8609 2.39551L16.8763 2.39551L16.8763 29.627L24.5502 21.6289L24.5512 21.6279C25.4793 20.6621 27.006 20.641 27.9662 21.5547L27.9712 21.5586L28.1388 21.7373C28.9241 22.6639 28.8938 24.047 28.0406 24.9355L16.208 37.2617L16.1941 37.2754C16.1606 37.309 16.1256 37.339 16.09 37.3662C16.0404 37.4105 15.9875 37.4537 15.9323 37.4941L15.9323 37.4951C15.9473 37.4839 15.9604 37.4729 15.9422 37.4883C15.9363 37.4933 15.9209 37.5069 15.9026 37.5215C15.8859 37.5348 15.8601 37.553 15.8292 37.5742L15.8292 37.5752C15.4422 37.8417 14.9686 38 14.4598 38C14.1564 38 13.8656 37.9381 13.6061 37.8408C13.5684 37.8292 13.5385 37.8186 13.5208 37.8115C13.5068 37.8059 13.4945 37.7995 13.4841 37.7949L13.4831 37.7959C13.4791 37.7941 13.475 37.7912 13.4702 37.7891C13.469 37.7885 13.4674 37.7886 13.4663 37.7881C13.4631 37.7866 13.4602 37.7845 13.4573 37.7832C13.3821 37.749 13.2378 37.6824 13.0974 37.584L13.028 37.584L12.7255 37.2676L0.941533 24.9844L0.937566 24.9795C0.504651 24.5225 0.274196 23.9437 0.274196 23.3271C0.274217 22.794 0.453053 22.2391 0.833449 21.7891L1.00896 21.6035C1.96921 20.6898 3.49585 20.711 4.42398 21.6768L4.42498 21.6768L12.0582 29.6289L12.0582 2.39551C12.0584 1.09162 13.1236 2.18881e-05 14.4668 -6.12946e-07Z" fill="white"/>
</svg>
