<svg width="44" height="32" viewBox="0 0 44 32" fill="none" xmlns="http://www.w3.org/2000/svg">
<path d="M43.855 16.7202C43.855 16.7202 43.8635 16.7033 43.8635 16.6948C43.9488 16.4921 44 16.2641 44 16.036C44 15.6813 43.8891 15.3519 43.7015 15.0816C43.6844 15.0562 43.6588 15.0309 43.6332 14.9971C43.5905 14.938 43.5394 14.8789 43.4882 14.8282C43.4882 14.8282 43.4882 14.8197 43.4797 14.8113L28.4149 0.469108C27.741 -0.172828 26.6576 -0.155937 26.0008 0.519785C25.3525 1.19551 25.3695 2.25978 26.052 2.91017L38.0628 14.3383H1.70609C0.767739 14.3383 0 15.0985 0 16.0276C0 16.9567 0.767739 17.7169 1.70609 17.7169H38.0628L26.1117 29.0944C25.4292 29.7448 25.4122 30.809 26.0605 31.4847C26.3932 31.831 26.8453 32 27.2889 32C27.7324 32 28.1419 31.8395 28.4746 31.527L43.4882 17.2439C43.4882 17.2439 43.4882 17.2354 43.4967 17.227C43.5479 17.1763 43.5906 17.1172 43.6417 17.0665C43.6673 17.0327 43.6929 17.0074 43.7185 16.9736C43.7782 16.8891 43.8209 16.7962 43.8635 16.7033L43.855 16.7202Z" fill="#CECECE"/>
</svg>
