<svg width="26" height="20" viewBox="0 0 26 20" fill="none" xmlns="http://www.w3.org/2000/svg">
<path d="M23.7236 6.71362L15.1936 0.393616C14.3036 -0.266384 13.0536 -0.076386 12.3936 0.813614C11.7336 1.70361 11.9236 2.95362 12.8136 3.61362L20.8536 9.57362L12.8136 15.5336C11.9236 16.1936 11.7436 17.4436 12.3936 18.3336C12.7836 18.8636 13.3936 19.1436 14.0036 19.1436C14.4136 19.1436 14.8336 19.0136 15.1936 18.7536L23.7236 12.4336C24.5836 11.8036 25.0936 10.7336 25.0936 9.58362C25.0936 8.43362 24.5836 7.37361 23.7236 6.73361V6.71362Z" fill="black"/>
<path d="M2 11.5034H23.25C24.35 11.5034 25.25 10.6034 25.25 9.50342C25.25 8.40342 24.35 7.50342 23.25 7.50342H2C0.9 7.50342 0 8.40342 0 9.50342C0 10.6034 0.9 11.5034 2 11.5034Z" fill="black"/>
</svg>
