<svg width="44" height="32" viewBox="0 0 44 32" fill="none" xmlns="http://www.w3.org/2000/svg">
<path d="M0.145002 15.2798C0.145002 15.2798 0.136465 15.2967 0.136465 15.3051C0.0511603 15.5079 1.42185e-06 15.7359 1.40192e-06 15.9639C1.3709e-06 16.3187 0.110876 16.6481 0.298543 16.9184C0.315606 16.9438 0.341211 16.9691 0.366804 17.0029C0.409456 17.062 0.460622 17.1211 0.511804 17.1718C0.511804 17.1718 0.511815 17.1803 0.520345 17.1887L15.5851 31.5309C16.259 32.1728 17.3424 32.1559 17.9992 31.4802C18.6475 30.8045 18.6305 29.7402 17.948 29.0898L5.9372 17.6617L42.2939 17.6617C43.2323 17.6617 44 16.9015 44 15.9724C44 15.0433 43.2323 14.2831 42.2939 14.2831L5.9372 14.2831L17.8884 2.9056C18.5708 2.25522 18.5878 1.191 17.9395 0.515276C17.6068 0.168968 17.1547 -2.34689e-06 16.7111 -2.38567e-06C16.2676 -2.42445e-06 15.8581 0.16048 15.5254 0.473001L0.511804 14.7561C0.511804 14.7561 0.51185 14.7646 0.50332 14.773C0.452135 14.8237 0.409448 14.8828 0.358263 14.9335C0.332674 14.9673 0.307111 14.9926 0.281519 15.0264C0.221807 15.1109 0.179117 15.2038 0.136465 15.2967L0.145002 15.2798Z" fill="#CECECE"/>
</svg>
