<svg width="3161" height="607" viewBox="0 0 3161 607" fill="none" xmlns="http://www.w3.org/2000/svg">
<mask id="mask0_365_789" style="mask-type:luminance" maskUnits="userSpaceOnUse" x="0" y="0" width="3161" height="607">
<path d="M3160.71 0H0.109375V606.799H3160.71V0Z" fill="white"/>
</mask>
<g mask="url(#mask0_365_789)">
<path d="M3043.84 63.3995C3043.84 63.3995 2988.33 41.2592 3002.9 3.41748L3043.84 63.3995Z" fill="#91BE6A" fill-opacity="0.14"/>
<path d="M3043.84 63.3995C3043.84 63.3995 3043.56 3.79518 3002.9 3.41748L3043.84 63.3995Z" fill="#91BE6A" fill-opacity="0.14"/>
<path d="M3064.96 89.9101C3064.96 89.9101 3037.46 46.9965 3066.45 27.9497L3064.96 89.9101Z" fill="#91BE6A" fill-opacity="0.14"/>
<path d="M3064.96 89.9101C3064.96 89.9101 3094.5 48.3634 3066.45 27.9497L3064.96 89.9101Z" fill="#91BE6A" fill-opacity="0.14"/>
<path d="M3075.36 100.09C3075.36 100.09 3027.26 129.461 3006.79 97.1406L3075.36 100.09Z" fill="#91BE6A" fill-opacity="0.14"/>
<path d="M3075.36 100.09C3075.36 100.09 3029.98 66.691 3006.79 97.1406L3075.36 100.09Z" fill="#91BE6A" fill-opacity="0.14"/>
<path d="M3109.88 118.849C3109.88 118.849 3074.73 70.6297 3107.27 46.3491L3109.88 118.849Z" fill="#91BE6A" fill-opacity="0.14"/>
<path d="M3109.88 118.849C3109.88 118.849 3141.48 68.2376 3107.27 46.3491L3109.88 118.849Z" fill="#91BE6A" fill-opacity="0.14"/>
<path d="M3099.93 113.813C3099.93 113.813 3065.95 162.86 3032.19 140.288L3099.93 113.813Z" fill="#91BE6A" fill-opacity="0.14"/>
<path d="M3099.93 113.813C3099.93 113.813 3041.56 100.863 3032.19 140.288L3099.93 113.813Z" fill="#91BE6A" fill-opacity="0.14"/>
<path d="M3042.57 61.5288C3042.57 61.5288 3076.33 127.68 3150.69 123.076" stroke="#5B6A89" stroke-opacity="0.14" stroke-width="3.7799" stroke-miterlimit="10" stroke-linecap="round" stroke-linejoin="round"/>
<path d="M2983.42 296.097C2983.42 296.097 2930.05 322.968 2911.22 287.05L2983.42 296.097Z" fill="#91BE6A" fill-opacity="0.14"/>
<path d="M2983.42 296.097C2983.42 296.097 2938.38 256.888 2911.22 287.05L2983.42 296.097Z" fill="#91BE6A" fill-opacity="0.14"/>
<path d="M3017.33 297.842C3017.33 297.842 2966.86 290.036 2971.69 255.755L3017.33 297.842Z" fill="#91BE6A" fill-opacity="0.14"/>
<path d="M3017.33 297.842C3017.33 297.842 3005.6 248.273 2971.7 255.755L3017.33 297.842Z" fill="#91BE6A" fill-opacity="0.14"/>
<path d="M3031.85 296.798C3031.85 296.798 3022.13 352.194 2984.27 346.133L3031.85 296.798Z" fill="#91BE6A" fill-opacity="0.14"/>
<path d="M3031.85 296.798C3031.85 296.798 2976.71 308.651 2984.27 346.133L3031.85 296.798Z" fill="#91BE6A" fill-opacity="0.14"/>
<path d="M3068.81 283.399C3068.81 283.399 3009.29 277.788 3012.55 237.41L3068.81 283.399Z" fill="#91BE6A" fill-opacity="0.14"/>
<path d="M3068.81 283.399C3068.81 283.399 3051.64 226.295 3012.55 237.41L3068.81 283.399Z" fill="#91BE6A" fill-opacity="0.14"/>
<path d="M3061.65 297.842C3061.65 297.842 3076.08 355.684 3036.77 366.007L3061.65 297.842Z" fill="#91BE6A" fill-opacity="0.14"/>
<path d="M3061.65 297.842C3061.65 297.842 3013.32 332.932 3036.77 366.007L3061.65 297.842Z" fill="#91BE6A" fill-opacity="0.14"/>
<path d="M2981.18 295.828C2981.18 295.828 3087.97 317.284 3133.68 258.633" stroke="#5B6A89" stroke-opacity="0.14" stroke-width="3.7799" stroke-miterlimit="10" stroke-linecap="round" stroke-linejoin="round"/>
<path d="M2887.87 27.23C2887.87 27.23 2828.87 17.5358 2834.93 -22.5361L2887.87 27.23Z" fill="#91BE6A" fill-opacity="0.14"/>
<path d="M2887.87 27.2301C2887.87 27.2301 2874.7 -30.9174 2834.93 -22.5361L2887.87 27.2301Z" fill="#91BE6A" fill-opacity="0.14"/>
<path d="M2928.07 49.9277C2928.07 49.9277 2881.1 86.7982 2855.51 55.3234L2928.07 49.9277Z" fill="#91BE6A" fill-opacity="0.14"/>
<path d="M2928.07 49.9279C2928.07 49.9279 2876.12 20.3955 2855.51 55.3236L2928.07 49.9279Z" fill="#91BE6A" fill-opacity="0.14"/>
<path d="M2840.52 150C2840.52 150 2804.38 113.993 2828.58 89.1729L2840.52 150Z" fill="#91BE6A" fill-opacity="0.14"/>
<path d="M2840.52 150C2840.52 150 2860.4 103.076 2828.58 89.1729L2840.52 150Z" fill="#91BE6A" fill-opacity="0.14"/>
<path d="M2767.06 134.28C2767.06 134.28 2730.92 98.2733 2755.12 73.4531L2767.06 134.28Z" fill="#91BE6A" fill-opacity="0.14"/>
<path d="M2767.06 134.28C2767.06 134.28 2786.94 87.356 2755.12 73.4531L2767.06 134.28Z" fill="#91BE6A" fill-opacity="0.14"/>
<path d="M3103.49 233.345C3103.49 233.345 3067.35 197.338 3091.55 172.518L3103.49 233.345Z" fill="#91BE6A" fill-opacity="0.14"/>
<path d="M3103.49 233.345C3103.49 233.345 3123.35 186.421 3091.55 172.518L3103.49 233.345Z" fill="#91BE6A" fill-opacity="0.14"/>
<path d="M2845.67 150.684C2845.67 150.684 2805.05 189.694 2778.07 162.536L2845.67 150.684Z" fill="#91BE6A" fill-opacity="0.14"/>
<path d="M2845.67 150.684C2845.67 150.684 2794.13 127.824 2778.07 162.536L2845.67 150.684Z" fill="#91BE6A" fill-opacity="0.14"/>
<path d="M2754 131.655C2754 131.655 2713.38 170.666 2686.4 143.507L2754 131.655Z" fill="#91BE6A" fill-opacity="0.14"/>
<path d="M2754 131.655C2754 131.655 2702.47 108.795 2686.4 143.507L2754 131.655Z" fill="#91BE6A" fill-opacity="0.14"/>
<path d="M2883.44 161.601C2883.44 161.601 2838.69 122.069 2865.24 91.3672L2883.44 161.601Z" fill="#91BE6A" fill-opacity="0.14"/>
<path d="M2883.45 161.601C2883.45 161.601 2903.36 105.396 2865.24 91.3672L2883.45 161.601Z" fill="#91BE6A" fill-opacity="0.14"/>
<path d="M2982.36 180.899C2982.36 180.899 2937.61 141.367 2964.16 110.666L2982.36 180.899Z" fill="#91BE6A" fill-opacity="0.14"/>
<path d="M2982.36 180.899C2982.36 180.899 3002.28 124.694 2964.16 110.666L2982.36 180.899Z" fill="#91BE6A" fill-opacity="0.14"/>
<path d="M3020.77 164.587C3020.77 164.587 2964.21 114.623 2997.74 75.8276L3020.77 164.587Z" fill="#91BE6A" fill-opacity="0.14"/>
<path d="M3020.77 164.587C3020.77 164.587 3045.93 93.5614 2997.74 75.8276L3020.77 164.587Z" fill="#91BE6A" fill-opacity="0.14"/>
<path d="M2872.63 158.813C2872.63 158.813 2850.04 214.011 2812.21 199.227L2872.63 158.813Z" fill="#91BE6A" fill-opacity="0.14"/>
<path d="M2872.63 158.813C2872.63 158.813 2812.84 158.705 2812.21 199.227L2872.63 158.813Z" fill="#91BE6A" fill-opacity="0.14"/>
<path d="M2952.73 174.299C2952.73 174.299 2930.14 229.497 2892.31 214.713L2952.73 174.299Z" fill="#91BE6A" fill-opacity="0.14"/>
<path d="M2952.73 174.299C2952.73 174.299 2892.94 174.191 2892.31 214.713L2952.73 174.299Z" fill="#91BE6A" fill-opacity="0.14"/>
<path d="M3027.53 193.633C3027.53 193.633 2995.6 271.637 2942.12 250.738L3027.53 193.633Z" fill="#91BE6A" fill-opacity="0.14"/>
<path d="M3027.53 193.633C3027.53 193.633 2943.02 193.489 2942.12 250.738L3027.53 193.633Z" fill="#91BE6A" fill-opacity="0.14"/>
<path d="M3160.62 279.802C3160.62 279.802 3131.3 238.094 3159.47 217.824L3160.62 279.802Z" fill="#91BE6A" fill-opacity="0.14"/>
<path d="M3160.62 279.802C3160.62 279.802 3188.36 237.032 3159.47 217.824L3160.62 279.802Z" fill="#91BE6A" fill-opacity="0.14"/>
<path d="M3179.8 296.151C3179.8 296.151 3114.54 334.155 3088 290.288L3179.8 296.151Z" fill="#91BE6A" fill-opacity="0.14"/>
<path d="M3179.8 296.151C3179.8 296.151 3119.93 250.162 3088 290.288L3179.8 296.151Z" fill="#91BE6A" fill-opacity="0.14"/>
<path d="M3129.45 252.986C3129.45 252.986 3082.65 284.371 3060.81 252.95L3129.45 252.986Z" fill="#91BE6A" fill-opacity="0.14"/>
<path d="M3129.45 252.986C3129.45 252.986 3082.68 221.547 3060.81 252.95L3129.45 252.986Z" fill="#91BE6A" fill-opacity="0.14"/>
<path d="M3127.63 23.3275C3127.63 23.3275 3090.45 -23.3632 3121.93 -48.9927L3127.63 23.3275Z" fill="#91BE6A" fill-opacity="0.14"/>
<path d="M3127.64 23.3275C3127.64 23.3275 3157.05 -28.579 3121.93 -48.9927L3127.64 23.3275Z" fill="#91BE6A" fill-opacity="0.14"/>
<path d="M3209.39 318.489C3209.39 318.489 3162.49 383.255 3117.9 352.086L3209.39 318.489Z" fill="#91BE6A" fill-opacity="0.14"/>
<path d="M3209.39 318.489C3209.39 318.489 3131.56 299.532 3117.9 352.086L3209.39 318.489Z" fill="#91BE6A" fill-opacity="0.14"/>
<path d="M3139.05 62.7338C3139.05 62.7338 3140.8 11.8346 3175.52 12.536L3139.05 62.7338Z" fill="#91BE6A" fill-opacity="0.14"/>
<path d="M3139.05 62.7335C3139.05 62.7335 3187.01 45.1975 3175.52 12.5356L3139.05 62.7335Z" fill="#91BE6A" fill-opacity="0.14"/>
<path d="M3167.01 166.457C3167.01 166.457 3110.69 163.471 3112.2 125.27L3167.01 166.457Z" fill="#91BE6A" fill-opacity="0.14"/>
<path d="M3167.01 166.457C3167.01 166.457 3148.61 113.31 3112.2 125.27L3167.01 166.457Z" fill="#91BE6A" fill-opacity="0.14"/>
<path d="M3179.46 191.655C3179.46 191.655 3123.57 212.86 3108.58 175.18L3179.46 191.655Z" fill="#91BE6A" fill-opacity="0.14"/>
<path d="M3179.46 191.655C3179.46 191.655 3138.73 148.004 3108.58 175.18L3179.46 191.655Z" fill="#91BE6A" fill-opacity="0.14"/>
<path d="M2860.13 -73.0034C2860.13 -73.0034 2920.12 -27.4818 2930.88 54.4426" stroke="#5B6A89" stroke-opacity="0.14" stroke-width="3.7799" stroke-miterlimit="10" stroke-linecap="round"/>
<path d="M2781.29 -22.8594C2781.29 -22.8594 2917.5 39.7305 2949.21 67.6442C2980.92 95.5579 3037.73 196.799 3037.73 196.799" stroke="#5B6A89" stroke-opacity="0.14" stroke-width="3.7799" stroke-miterlimit="10" stroke-linecap="round"/>
<path d="M2736.45 131.439C2736.45 131.439 2994.25 171.061 3063.42 207.752C3132.58 244.443 3265.6 368.022 3265.6 368.022" stroke="#5B6A89" stroke-opacity="0.14" stroke-width="3.7799" stroke-miterlimit="10" stroke-linecap="round"/>
<path d="M3126.21 15.9355C3126.21 15.9355 3193 227.968 3194.3 302.77" stroke="#5B6A89" stroke-opacity="0.14" stroke-width="3.7799" stroke-miterlimit="10" stroke-linecap="round"/>
<path d="M3100.33 85.7554L3159.35 132.104" stroke="#5B6A89" stroke-opacity="0.14" stroke-width="3.7799" stroke-miterlimit="10" stroke-linecap="round"/>
<path d="M146.297 92.0322C146.297 92.0322 191.393 74.0466 179.557 43.3271L146.297 92.0322Z" fill="#91BE6A" fill-opacity="0.14"/>
<path d="M146.297 92.0322C146.297 92.0322 146.531 43.6149 179.557 43.3271L146.297 92.0322Z" fill="#91BE6A" fill-opacity="0.14"/>
<path d="M129.135 113.561C129.135 113.561 151.476 78.7049 127.93 63.2373L129.135 113.561Z" fill="#91BE6A" fill-opacity="0.14"/>
<path d="M129.137 113.561C129.137 113.561 105.141 79.82 127.931 63.2373L129.137 113.561Z" fill="#91BE6A" fill-opacity="0.14"/>
<path d="M120.699 22.4097C120.699 22.4097 159.769 46.2586 176.408 20.0176L120.699 22.4097Z" fill="#91BE6A" fill-opacity="0.14"/>
<path d="M120.699 22.4099C120.699 22.4099 157.557 -4.71239 176.408 20.0178L120.699 22.4099Z" fill="#91BE6A" fill-opacity="0.14"/>
<path d="M92.6562 137.068C92.6562 137.068 121.203 97.8953 94.7788 78.1831L92.6562 137.068Z" fill="#91BE6A" fill-opacity="0.14"/>
<path d="M92.6562 137.068C92.6562 137.068 66.9871 95.9709 94.7788 78.1831L92.6562 137.068Z" fill="#91BE6A" fill-opacity="0.14"/>
<path d="M100.734 132.967C100.734 132.967 128.346 172.805 155.76 154.478L100.734 132.967Z" fill="#91BE6A" fill-opacity="0.14"/>
<path d="M100.734 132.967C100.734 132.967 148.133 122.446 155.76 154.478L100.734 132.967Z" fill="#91BE6A" fill-opacity="0.14"/>
<path d="M147.322 90.5034C147.322 90.5034 119.89 144.226 59.5039 140.485" stroke="#5B6A89" stroke-opacity="0.14" stroke-width="3.0702" stroke-miterlimit="10" stroke-linecap="round" stroke-linejoin="round"/>
<path d="M195.367 281.025C195.367 281.025 238.719 302.842 254.008 273.669L195.367 281.025Z" fill="#91BE6A" fill-opacity="0.14"/>
<path d="M195.367 281.025C195.367 281.025 231.955 249.191 254.008 273.669L195.367 281.025Z" fill="#91BE6A" fill-opacity="0.14"/>
<path d="M167.828 282.446C167.828 282.446 208.841 276.097 204.902 248.255L167.828 282.446Z" fill="#91BE6A" fill-opacity="0.14"/>
<path d="M167.828 282.446C167.828 282.446 177.362 242.176 204.902 248.255L167.828 282.446Z" fill="#91BE6A" fill-opacity="0.14"/>
<path d="M156.027 281.601C156.027 281.601 163.924 326.583 194.666 321.673L156.027 281.601Z" fill="#91BE6A" fill-opacity="0.14"/>
<path d="M156.027 281.601C156.027 281.601 200.818 291.223 194.666 321.673L156.027 281.601Z" fill="#91BE6A" fill-opacity="0.14"/>
<path d="M126.023 270.719C126.023 270.719 174.376 266.169 171.731 233.363L126.023 270.719Z" fill="#91BE6A" fill-opacity="0.14"/>
<path d="M126.023 270.719C126.023 270.719 139.982 224.353 171.731 233.363L126.023 270.719Z" fill="#91BE6A" fill-opacity="0.14"/>
<path d="M137.211 280.989C137.211 280.989 125.501 327.968 157.412 336.367L137.211 280.989Z" fill="#91BE6A" fill-opacity="0.14"/>
<path d="M137.211 280.989C137.211 280.989 176.479 309.478 157.412 336.367L137.211 280.989Z" fill="#91BE6A" fill-opacity="0.14"/>
<path d="M197.202 280.81C197.202 280.81 110.463 298.238 73.3359 250.594" stroke="#5B6A89" stroke-opacity="0.14" stroke-width="3.0702" stroke-miterlimit="10" stroke-linecap="round" stroke-linejoin="round"/>
<path d="M351.484 26.9063C351.484 26.9063 399.405 19.0286 394.476 -13.5254L351.484 26.9063Z" fill="#91BE6A" fill-opacity="0.14"/>
<path d="M351.484 26.9062C351.484 26.9062 362.187 -20.324 394.476 -13.5255L351.484 26.9062Z" fill="#91BE6A" fill-opacity="0.14"/>
<path d="M272.984 62.644C272.984 62.644 320.905 54.7664 315.976 22.2124L272.984 62.644Z" fill="#91BE6A" fill-opacity="0.14"/>
<path d="M272.984 62.644C272.984 62.644 283.687 15.4138 315.976 22.2123L272.984 62.644Z" fill="#91BE6A" fill-opacity="0.14"/>
<path d="M256.813 28.8667C256.813 28.8667 280.197 -13.5613 251.488 -29.8203L256.813 28.8667Z" fill="#91BE6A" fill-opacity="0.14"/>
<path d="M256.814 28.8667C256.814 28.8667 226.162 -8.68722 251.489 -29.8203L256.814 28.8667Z" fill="#91BE6A" fill-opacity="0.14"/>
<path d="M240.32 81.0791C240.32 81.0791 278.473 111.025 299.267 85.4676L240.32 81.0791Z" fill="#91BE6A" fill-opacity="0.14"/>
<path d="M240.32 81.079C240.32 81.079 282.502 57.1041 299.267 85.4675L240.32 81.079Z" fill="#91BE6A" fill-opacity="0.14"/>
<path d="M311.441 162.356C311.441 162.356 340.798 133.112 321.137 112.95L311.441 162.356Z" fill="#91BE6A" fill-opacity="0.14"/>
<path d="M311.442 162.356C311.442 162.356 295.307 124.245 321.138 112.95L311.442 162.356Z" fill="#91BE6A" fill-opacity="0.14"/>
<path d="M371.109 149.586C371.109 149.586 400.466 120.342 380.805 100.18L371.109 149.586Z" fill="#91BE6A" fill-opacity="0.14"/>
<path d="M371.11 149.586C371.11 149.586 354.975 111.475 380.806 100.18L371.11 149.586Z" fill="#91BE6A" fill-opacity="0.14"/>
<path d="M97.8516 230.054C97.8516 230.054 127.208 200.809 107.547 180.647L97.8516 230.054Z" fill="#91BE6A" fill-opacity="0.14"/>
<path d="M97.8526 230.054C97.8526 230.054 81.7172 191.942 107.548 180.647L97.8526 230.054Z" fill="#91BE6A" fill-opacity="0.14"/>
<path d="M307.254 162.914C307.254 162.914 340.244 194.604 362.172 172.536L307.254 162.914Z" fill="#91BE6A" fill-opacity="0.14"/>
<path d="M307.254 162.914C307.254 162.914 349.112 144.352 362.172 172.536L307.254 162.914Z" fill="#91BE6A" fill-opacity="0.14"/>
<path d="M381.707 147.464C381.707 147.464 414.697 179.154 436.625 157.086L381.707 147.464Z" fill="#91BE6A" fill-opacity="0.14"/>
<path d="M381.707 147.464C381.707 147.464 423.565 128.903 436.625 157.086L381.707 147.464Z" fill="#91BE6A" fill-opacity="0.14"/>
<path d="M276.586 171.78C276.586 171.78 312.922 139.658 291.372 114.73L276.586 171.78Z" fill="#91BE6A" fill-opacity="0.14"/>
<path d="M276.585 171.78C276.585 171.78 260.414 126.133 291.371 114.73L276.585 171.78Z" fill="#91BE6A" fill-opacity="0.14"/>
<path d="M196.23 187.464C196.23 187.464 232.566 155.342 211.017 130.414L196.23 187.464Z" fill="#91BE6A" fill-opacity="0.14"/>
<path d="M196.23 187.464C196.23 187.464 180.058 141.816 211.016 130.414L196.23 187.464Z" fill="#91BE6A" fill-opacity="0.14"/>
<path d="M165.039 174.208C165.039 174.208 210.963 133.633 183.729 102.122L165.039 174.208Z" fill="#91BE6A" fill-opacity="0.14"/>
<path d="M165.04 174.208C165.04 174.208 144.588 116.511 183.73 102.122L165.04 174.208Z" fill="#91BE6A" fill-opacity="0.14"/>
<path d="M285.344 169.514C285.344 169.514 303.692 214.352 334.433 202.338L285.344 169.514Z" fill="#91BE6A" fill-opacity="0.14"/>
<path d="M285.344 169.514C285.344 169.514 333.912 169.424 334.433 202.338L285.344 169.514Z" fill="#91BE6A" fill-opacity="0.14"/>
<path d="M220.297 182.104C220.297 182.104 238.645 226.943 269.386 214.928L220.297 182.104Z" fill="#91BE6A" fill-opacity="0.14"/>
<path d="M220.297 182.104C220.297 182.104 268.865 182.015 269.386 214.928L220.297 182.104Z" fill="#91BE6A" fill-opacity="0.14"/>
<path d="M159.535 197.806C159.535 197.806 185.456 261.169 228.897 244.191L159.535 197.806Z" fill="#91BE6A" fill-opacity="0.14"/>
<path d="M159.535 197.806C159.535 197.806 228.178 197.68 228.897 244.191L159.535 197.806Z" fill="#91BE6A" fill-opacity="0.14"/>
<path d="M51.4258 267.788C51.4258 267.788 75.2421 233.903 52.3612 217.446L51.4258 267.788Z" fill="#91BE6A" fill-opacity="0.14"/>
<path d="M51.4256 267.788C51.4256 267.788 28.8865 233.057 52.361 217.446L51.4256 267.788Z" fill="#91BE6A" fill-opacity="0.14"/>
<path d="M35.8672 281.079C35.8672 281.079 88.8782 311.942 110.428 276.331L35.8672 281.079Z" fill="#91BE6A" fill-opacity="0.14"/>
<path d="M35.8672 281.079C35.8672 281.079 84.4891 243.723 110.428 276.331L35.8672 281.079Z" fill="#91BE6A" fill-opacity="0.14"/>
<path d="M76.7539 246.007C76.7539 246.007 114.763 271.493 132.499 245.971L76.7539 246.007Z" fill="#91BE6A" fill-opacity="0.14"/>
<path d="M76.7539 246.007C76.7539 246.007 114.745 220.468 132.499 245.971L76.7539 246.007Z" fill="#91BE6A" fill-opacity="0.14"/>
<path d="M78.2305 59.4783C78.2305 59.4783 108.433 21.5646 82.8534 0.737305L78.2305 59.4783Z" fill="#91BE6A" fill-opacity="0.14"/>
<path d="M78.2286 59.4783C78.2286 59.4783 54.3404 17.32 82.8515 0.737305L78.2286 59.4783Z" fill="#91BE6A" fill-opacity="0.14"/>
<path d="M11.8359 299.227C11.8359 299.227 49.9168 351.834 86.1449 326.511L11.8359 299.227Z" fill="#91BE6A" fill-opacity="0.14"/>
<path d="M11.8359 299.227C11.8359 299.227 75.0462 283.831 86.1449 326.511L11.8359 299.227Z" fill="#91BE6A" fill-opacity="0.14"/>
<path d="M48.4913 164.155C48.4913 164.155 47.0702 122.806 18.8828 123.381L48.4913 164.155Z" fill="#91BE6A" fill-opacity="0.14"/>
<path d="M48.492 164.155C48.492 164.155 9.52976 149.91 18.8836 123.381L48.492 164.155Z" fill="#91BE6A" fill-opacity="0.14"/>
<path d="M27.9327 256.223C27.9327 256.223 26.5116 214.874 -1.67578 215.45L27.9327 256.223Z" fill="#91BE6A" fill-opacity="0.14"/>
<path d="M27.9334 256.223C27.9334 256.223 -11.0288 241.978 -1.67501 215.45L27.9334 256.223Z" fill="#91BE6A" fill-opacity="0.14"/>
<path d="M68.9639 91.4746C68.9639 91.4746 67.5429 50.1257 39.3555 50.7013L68.9639 91.4746Z" fill="#91BE6A" fill-opacity="0.14"/>
<path d="M68.9647 91.4745C68.9647 91.4745 30.0024 77.2299 39.3562 50.7012L68.9647 91.4745Z" fill="#91BE6A" fill-opacity="0.14"/>
<path d="M46.2461 175.737C46.2461 175.737 91.9899 173.309 90.7667 142.284L46.2461 175.737Z" fill="#91BE6A" fill-opacity="0.14"/>
<path d="M46.2461 175.738C46.2461 175.738 61.1942 132.572 90.7667 142.284L46.2461 175.738Z" fill="#91BE6A" fill-opacity="0.14"/>
<path d="M36.1367 196.205C36.1367 196.205 81.5208 213.417 93.6987 182.824L36.1367 196.205Z" fill="#91BE6A" fill-opacity="0.14"/>
<path d="M36.1367 196.205C36.1367 196.205 69.2169 160.756 93.6987 182.824L36.1367 196.205Z" fill="#91BE6A" fill-opacity="0.14"/>
<path d="M295.507 -18.7769C295.507 -18.7769 246.795 18.2015 238.035 84.7483" stroke="#5B6A89" stroke-opacity="0.14" stroke-width="3.0702" stroke-miterlimit="10" stroke-linecap="round"/>
<path d="M359.546 21.9604C359.546 21.9604 248.919 72.7878 223.16 95.4676C197.401 118.147 151.262 200.378 151.262 200.378" stroke="#5B6A89" stroke-opacity="0.14" stroke-width="3.0702" stroke-miterlimit="10" stroke-linecap="round"/>
<path d="M395.972 147.284C395.972 147.284 186.573 179.46 130.396 209.263C74.2187 239.065 -33.8359 339.442 -33.8359 339.442" stroke="#5B6A89" stroke-opacity="0.14" stroke-width="3.0702" stroke-miterlimit="10" stroke-linecap="round"/>
<path d="M79.401 53.4712C79.401 53.4712 25.1488 225.683 24.1055 286.439" stroke="#5B6A89" stroke-opacity="0.14" stroke-width="3.0702" stroke-miterlimit="10" stroke-linecap="round"/>
<path d="M100.427 110.18L52.4883 147.824" stroke="#5B6A89" stroke-opacity="0.14" stroke-width="3.0702" stroke-miterlimit="10" stroke-linecap="round"/>
<path d="M26.0117 3.43547C26.0117 3.43547 73.6263 12.9858 80.5877 -19.1904L26.0117 3.43547Z" fill="#91BE6A" fill-opacity="0.14"/>
<path d="M26.0117 3.43569C26.0117 3.43569 52.796 -36.96 80.5877 -19.1902L26.0117 3.43569Z" fill="#91BE6A" fill-opacity="0.14"/>
<path d="M-0.160156 12.1047C-0.160156 12.1047 37.6869 -4.87375 26.4623 -30.6831L-0.160156 12.1047Z" fill="#91BE6A" fill-opacity="0.14"/>
<path d="M-0.16063 12.1047C-0.16063 12.1047 -1.70761 -29.2263 26.4618 -30.6831L-0.16063 12.1047Z" fill="#91BE6A" fill-opacity="0.14"/>
<path d="M-11.7617 14.4067C-11.7617 14.4067 7.84534 55.6837 36.1766 42.806L-11.7617 14.4067Z" fill="#91BE6A" fill-opacity="0.14"/>
<path d="M-11.7617 14.4067C-11.7617 14.4067 33.9821 11.8347 36.1766 42.806L-11.7617 14.4067Z" fill="#91BE6A" fill-opacity="0.14"/>
<path d="M-43.6016 11.8707C-43.6016 11.8707 1.80047 -5.32354 -9.49607 -36.2588L-43.6016 11.8707Z" fill="#91BE6A" fill-opacity="0.14"/>
<path d="M-34.5898 12.8423C-34.5898 12.8423 10.8482 29.9106 -0.35844 60.8639L-34.5898 12.8423Z" fill="#91BE6A" fill-opacity="0.14"/>
<path d="M27.7033 2.73433C27.7033 2.73433 -24.7501 32.7343 -73.2461 -3.36279" stroke="#5B6A89" stroke-opacity="0.14" stroke-width="3.0702" stroke-miterlimit="10" stroke-linecap="round" stroke-linejoin="round"/>
<path d="M446.914 67.3926C446.914 67.3926 471.216 109.317 500.015 93.2559L446.914 67.3926Z" fill="#91BE6A" fill-opacity="0.14"/>
<path d="M446.914 67.3927C446.914 67.3927 495.014 60.72 500.015 93.256L446.914 67.3927Z" fill="#91BE6A" fill-opacity="0.14"/>
<path d="M423.082 53.5434C423.082 53.5434 460.875 70.6117 472.873 45.1621L423.082 53.5434Z" fill="#91BE6A" fill-opacity="0.14"/>
<path d="M423.082 53.5434C423.082 53.5434 453.158 25.0542 472.873 45.1621L423.082 53.5434Z" fill="#91BE6A" fill-opacity="0.14"/>
<path d="M413.674 46.3853C413.674 46.3853 395.578 88.3457 424.018 101.008L413.674 46.3853Z" fill="#91BE6A" fill-opacity="0.14"/>
<path d="M413.676 46.3853C413.676 46.3853 445.857 78.8852 424.019 101.008L413.676 46.3853Z" fill="#91BE6A" fill-opacity="0.14"/>
<path d="M394.535 20.8999C394.535 20.8999 437.491 43.4718 453.302 14.5869L394.535 20.8999Z" fill="#91BE6A" fill-opacity="0.14"/>
<path d="M394.535 20.8998C394.535 20.8998 431.681 -10.2873 453.302 14.5868L394.535 20.8998Z" fill="#91BE6A" fill-opacity="0.14"/>
<path d="M399.751 28.292C399.751 28.292 364.134 61.2237 386.26 85.6661L399.751 28.292Z" fill="#91BE6A" fill-opacity="0.14"/>
<path d="M399.749 28.292C399.749 28.292 416.964 73.5618 386.258 85.6661L399.749 28.292Z" fill="#91BE6A" fill-opacity="0.14"/>
<path d="M448.57 68.2019C448.57 68.2019 366.419 35.4501 361.508 -24.6758" stroke="#5B6A89" stroke-opacity="0.14" stroke-width="3.0702" stroke-miterlimit="10" stroke-linecap="round" stroke-linejoin="round"/>
<path d="M730.172 41.2411C730.172 41.2411 774.603 60.7914 788.345 30.8813L730.172 41.2411Z" fill="#91BE6A" fill-opacity="0.14"/>
<path d="M730.172 41.2413C730.172 41.2413 765.051 7.55424 788.345 30.8816L730.172 41.2413Z" fill="#91BE6A" fill-opacity="0.14"/>
<path d="M930.633 99.6942C930.633 99.6942 975.064 119.245 988.806 89.3345L930.633 99.6942Z" fill="#91BE6A" fill-opacity="0.14"/>
<path d="M930.633 99.6944C930.633 99.6944 965.512 66.0074 988.806 89.3347L930.633 99.6944Z" fill="#91BE6A" fill-opacity="0.14"/>
<path d="M789.141 60.6475C789.141 60.6475 815.943 101.025 843.735 83.2374L789.141 60.6475Z" fill="#91BE6A" fill-opacity="0.14"/>
<path d="M789.141 60.6475C789.141 60.6475 836.755 51.0612 843.735 83.2374L789.141 60.6475Z" fill="#91BE6A" fill-opacity="0.14"/>
<path d="M618.215 12.3022C618.215 12.3022 622.82 53.4174 650.881 50.6836L618.215 12.3022Z" fill="#91BE6A" fill-opacity="0.14"/>
<path d="M618.215 12.3022C618.215 12.3022 658.148 23.5253 650.881 50.6836L618.215 12.3022Z" fill="#91BE6A" fill-opacity="0.14"/>
<path d="M666.137 53.3097C666.137 53.3097 706.754 44.8565 701.375 17.2485L666.137 53.3097Z" fill="#91BE6A" fill-opacity="0.14"/>
<path d="M666.137 53.3097C666.137 53.3097 673.566 12.6082 701.375 17.2485L666.137 53.3097Z" fill="#91BE6A" fill-opacity="0.14"/>
<path d="M517.984 86.6367C517.984 86.6367 528.202 131.151 558.656 124.658L517.984 86.6367Z" fill="#91BE6A" fill-opacity="0.14"/>
<path d="M517.984 86.6367C517.984 86.6367 563.207 93.9389 558.656 124.658L517.984 86.6367Z" fill="#91BE6A" fill-opacity="0.14"/>
<path d="M676.191 57.3022C676.191 57.3022 686.409 101.817 716.863 95.3238L676.191 57.3022Z" fill="#91BE6A" fill-opacity="0.14"/>
<path d="M676.191 57.3022C676.191 57.3022 721.414 64.6044 716.863 95.3238L676.191 57.3022Z" fill="#91BE6A" fill-opacity="0.14"/>
<path d="M574.863 20.2881C574.863 20.2881 622.91 13.2558 618.574 -19.3701L574.863 20.2881Z" fill="#91BE6A" fill-opacity="0.14"/>
<path d="M574.863 20.2881C574.863 20.2881 586.394 -26.7443 618.574 -19.3702L574.863 20.2881Z" fill="#91BE6A" fill-opacity="0.14"/>
<path d="M474.852 142.824C474.852 142.824 490.285 169.155 508.399 158.957L474.852 142.824Z" fill="#91BE6A" fill-opacity="0.14"/>
<path d="M474.852 142.824C474.852 142.824 505.144 138.472 508.399 158.957L474.852 142.824Z" fill="#91BE6A" fill-opacity="0.14"/>
<path d="M600.622 44.7485C600.622 44.7485 564.124 76.691 585.566 101.727L600.622 44.7485Z" fill="#91BE6A" fill-opacity="0.14"/>
<path d="M600.622 44.7485C600.622 44.7485 616.596 90.4679 585.566 101.727L600.622 44.7485Z" fill="#91BE6A" fill-opacity="0.14"/>
<path d="M522.085 -1.79834C522.085 -1.79834 512.821 45.7376 545.146 52.4642L522.085 -1.79834Z" fill="#91BE6A" fill-opacity="0.14"/>
<path d="M522.086 -1.79834C522.086 -1.79834 562.775 24.6405 545.147 52.4642L522.086 -1.79834Z" fill="#91BE6A" fill-opacity="0.14"/>
<path d="M462.618 -21.8164C462.618 -21.8164 449.523 45.3598 495.195 54.8562L462.618 -21.8164Z" fill="#91BE6A" fill-opacity="0.14"/>
<path d="M462.617 -21.8164C462.617 -21.8164 520.125 15.5397 495.194 54.8562L462.617 -21.8164Z" fill="#91BE6A" fill-opacity="0.14"/>
<path d="M2155.35 34.8384C2155.35 34.8384 2140.71 92.6262 2101.16 83.2557L2155.35 34.8384Z" fill="#91BE6A" fill-opacity="0.14"/>
<path d="M2155.36 34.8384C2155.36 34.8384 2096.14 43.0398 2101.16 83.2557L2155.36 34.8384Z" fill="#91BE6A" fill-opacity="0.14"/>
<path d="M2178.92 10.4497C2178.92 10.4497 2139.9 43.3274 2117.11 17.1943L2178.92 10.4497Z" fill="#91BE6A" fill-opacity="0.14"/>
<path d="M2178.92 10.4495C2178.92 10.4495 2133.68 -13.2196 2117.11 17.1941L2178.92 10.4495Z" fill="#91BE6A" fill-opacity="0.14"/>
<path d="M2187.64 -1.16895C2187.64 -1.16895 2223.22 42.4641 2193.81 66.9785L2187.64 -1.16895Z" fill="#91BE6A" fill-opacity="0.14"/>
<path d="M2187.64 -1.16895C2187.64 -1.16895 2160.46 48.1116 2193.81 66.9785L2187.64 -1.16895Z" fill="#91BE6A" fill-opacity="0.14"/>
<path d="M2201.73 -37.7695C2201.73 -37.7695 2158.45 3.36356 2129.99 -25.5753L2201.73 -37.7695Z" fill="#91BE6A" fill-opacity="0.14"/>
<path d="M2153.68 36.3489C2153.68 36.3489 2239.95 -29.964 2225.51 -102.824" stroke="#5B6A89" stroke-opacity="0.14" stroke-width="3.7799" stroke-miterlimit="10" stroke-linecap="round" stroke-linejoin="round"/>
<path d="M2570.22 137.608C2570.22 137.608 2523.16 174.388 2497.64 142.842L2570.22 137.608Z" fill="#91BE6A" fill-opacity="0.14"/>
<path d="M2570.22 137.608C2570.22 137.608 2518.34 107.968 2497.64 142.842L2570.22 137.608Z" fill="#91BE6A" fill-opacity="0.14"/>
<path d="M2603.8 132.68C2603.8 132.68 2552.77 134.892 2550.77 100.324L2603.8 132.68Z" fill="#91BE6A" fill-opacity="0.14"/>
<path d="M2603.8 132.68C2603.8 132.68 2582.56 86.3671 2550.77 100.324L2603.8 132.68Z" fill="#91BE6A" fill-opacity="0.14"/>
<path d="M2617.85 128.813C2617.85 128.813 2619.22 185.036 2580.9 186.493L2617.85 128.813Z" fill="#91BE6A" fill-opacity="0.14"/>
<path d="M2617.85 128.813C2617.85 128.813 2566.12 151.223 2580.9 186.493L2617.85 128.813Z" fill="#91BE6A" fill-opacity="0.14"/>
<path d="M2651.45 108.453C2651.45 108.453 2591.98 114.604 2587.23 74.3525L2651.45 108.453Z" fill="#91BE6A" fill-opacity="0.14"/>
<path d="M2651.45 108.453C2651.45 108.453 2623.37 55.8276 2587.23 74.3528L2651.45 108.453Z" fill="#91BE6A" fill-opacity="0.14"/>
<path d="M2642.1 114.497C2642.1 114.497 2667.63 168.399 2631.11 186.205L2642.1 114.497Z" fill="#91BE6A" fill-opacity="0.14"/>
<path d="M2642.1 114.497C2642.1 114.497 2601.59 158.345 2631.11 186.205L2642.1 114.497Z" fill="#91BE6A" fill-opacity="0.14"/>
<path d="M2567.97 137.77C2567.97 137.77 2676.9 137.932 2710.18 71.4751" stroke="#5B6A89" stroke-opacity="0.14" stroke-width="3.7799" stroke-miterlimit="10" stroke-linecap="round" stroke-linejoin="round"/>
<path d="M2401.36 22.2664C2401.36 22.2664 2358.84 -5.97098 2377.69 -35.0537L2401.36 22.2664Z" fill="#91BE6A" fill-opacity="0.14"/>
<path d="M2401.36 22.2664C2401.36 22.2664 2411.62 -27.6257 2377.69 -35.0537L2401.36 22.2664Z" fill="#91BE6A" fill-opacity="0.14"/>
<path d="M2326.24 21.2054C2326.24 21.2054 2283.72 -7.03201 2302.57 -36.1147L2326.24 21.2054Z" fill="#91BE6A" fill-opacity="0.14"/>
<path d="M2326.24 21.2054C2326.24 21.2054 2336.5 -28.6867 2302.57 -36.1147L2326.24 21.2054Z" fill="#91BE6A" fill-opacity="0.14"/>
<path d="M2675.61 52.5902C2675.61 52.5902 2633.09 24.3528 2651.94 -4.72998L2675.61 52.5902Z" fill="#91BE6A" fill-opacity="0.14"/>
<path d="M2675.61 52.5902C2675.61 52.5902 2685.86 2.69808 2651.94 -4.72998L2675.61 52.5902Z" fill="#91BE6A" fill-opacity="0.14"/>
<path d="M2406.54 21.9248C2406.54 21.9248 2374.38 68.1119 2342.58 46.7629L2406.54 21.9248Z" fill="#91BE6A" fill-opacity="0.14"/>
<path d="M2406.54 21.9247C2406.54 21.9247 2351.52 9.58659 2342.58 46.7628L2406.54 21.9247Z" fill="#91BE6A" fill-opacity="0.14"/>
<path d="M2312.92 21.1875C2312.92 21.1875 2280.75 67.3745 2248.95 46.0256L2312.92 21.1875Z" fill="#91BE6A" fill-opacity="0.14"/>
<path d="M2312.92 21.1874C2312.92 21.1874 2257.89 8.84928 2248.95 46.0255L2312.92 21.1874Z" fill="#91BE6A" fill-opacity="0.14"/>
<path d="M2445.72 25.2521C2445.72 25.2521 2394.06 -4.76594 2414.05 -40.0537L2445.72 25.2521Z" fill="#91BE6A" fill-opacity="0.14"/>
<path d="M2445.72 25.2521C2445.72 25.2521 2454.2 -33.7587 2414.05 -40.0537L2445.72 25.2521Z" fill="#91BE6A" fill-opacity="0.14"/>
<path d="M2546.53 24.8385C2546.53 24.8385 2494.87 -5.17952 2514.85 -40.4673L2546.53 24.8385Z" fill="#91BE6A" fill-opacity="0.14"/>
<path d="M2546.53 24.8385C2546.53 24.8385 2555 -34.1723 2514.85 -40.4673L2546.53 24.8385Z" fill="#91BE6A" fill-opacity="0.14"/>
<path d="M2580.97 1.3309C2580.97 1.3309 2515.69 -36.6187 2540.95 -81.2051L2580.97 1.3309Z" fill="#91BE6A" fill-opacity="0.14"/>
<path d="M2580.97 1.3309C2580.97 1.3309 2591.69 -73.2375 2540.95 -81.2051L2580.97 1.3309Z" fill="#91BE6A" fill-opacity="0.14"/>
<path d="M2434.58 24.6226C2434.58 24.6226 2423.29 83.1657 2383.28 76.0614L2434.58 24.6226Z" fill="#91BE6A" fill-opacity="0.14"/>
<path d="M2434.58 24.6226C2434.58 24.6226 2375.93 36.2053 2383.28 76.0614L2434.58 24.6226Z" fill="#91BE6A" fill-opacity="0.14"/>
<path d="M2516.18 24.1729C2516.18 24.1729 2504.88 82.716 2464.88 75.6117L2516.18 24.1729Z" fill="#91BE6A" fill-opacity="0.14"/>
<path d="M2516.18 24.1729C2516.18 24.1729 2457.52 35.7556 2464.88 75.6117L2516.18 24.1729Z" fill="#91BE6A" fill-opacity="0.14"/>
<path d="M2593.33 28.5073C2593.33 28.5073 2577.37 111.241 2520.82 101.205L2593.33 28.5073Z" fill="#91BE6A" fill-opacity="0.14"/>
<path d="M2593.33 28.5073C2593.33 28.5073 2510.44 44.8742 2520.82 101.205L2593.33 28.5073Z" fill="#91BE6A" fill-opacity="0.14"/>
<path d="M2740.78 86.9605C2740.78 86.9605 2703.83 51.7986 2727.45 26.4209L2740.78 86.9605Z" fill="#91BE6A" fill-opacity="0.14"/>
<path d="M2740.78 86.9605C2740.78 86.9605 2759.58 39.6044 2727.45 26.4209L2740.78 86.9605Z" fill="#91BE6A" fill-opacity="0.14"/>
<path d="M2762.8 99.2627C2762.8 99.2627 2706.28 149.281 2671.63 111.457L2762.8 99.2627Z" fill="#91BE6A" fill-opacity="0.14"/>
<path d="M2762.8 99.2626C2762.8 99.2626 2695.05 65.8633 2671.63 111.457L2762.8 99.2626Z" fill="#91BE6A" fill-opacity="0.14"/>
<path d="M2704.93 66.7627C2704.93 66.7627 2665.21 106.691 2637.62 80.144L2704.93 66.7627Z" fill="#91BE6A" fill-opacity="0.14"/>
<path d="M2704.93 66.7625C2704.93 66.7625 2652.89 45.0719 2637.62 80.1438L2704.93 66.7625Z" fill="#91BE6A" fill-opacity="0.14"/>
<path d="M2796.2 115.378C2796.2 115.378 2762.96 188.058 2713.1 166.205L2796.2 115.378Z" fill="#91BE6A" fill-opacity="0.14"/>
<path d="M2796.2 115.378C2796.2 115.378 2716.16 111.997 2713.1 166.205L2796.2 115.378Z" fill="#91BE6A" fill-opacity="0.14"/>
<path d="M2766.36 67.3562C2766.36 67.3562 2758.05 17.1044 2792.24 11.0073L2766.36 67.3562Z" fill="#91BE6A" fill-opacity="0.14"/>
<path d="M2766.36 67.3562C2766.36 67.3562 2809.94 40.7915 2792.24 11.0073L2766.36 67.3562Z" fill="#91BE6A" fill-opacity="0.14"/>
<path d="M2741.91 -3.12948C2741.91 -3.12948 2691.28 28.5792 2669.19 -5.43164L2741.91 -3.12948Z" fill="#91BE6A" fill-opacity="0.14"/>
<path d="M2309.28 -135.665C2309.28 -135.665 2455.15 -100.917 2491.73 -79.7478C2528.34 -58.5607 2603.94 29.6047 2603.94 29.6047" stroke="#5B6A89" stroke-opacity="0.14" stroke-width="3.7799" stroke-miterlimit="10" stroke-linecap="round"/>
<path d="M2295.66 24.425C2295.66 24.425 2556.26 12.8783 2631.29 35.3423C2706.33 57.8063 2861.08 152.986 2861.08 152.986" stroke="#5B6A89" stroke-opacity="0.14" stroke-width="3.7799" stroke-miterlimit="10" stroke-linecap="round"/>
<path d="M2655.14 -165.036C2655.14 -165.036 2762.35 29.8204 2778.32 102.914" stroke="#5B6A89" stroke-opacity="0.14" stroke-width="3.7799" stroke-miterlimit="10" stroke-linecap="round"/>
</g>
</svg>
