<svg width="3157" height="1758" viewBox="0 0 3157 1758" fill="none" xmlns="http://www.w3.org/2000/svg">
<path d="M3157 0H0V1571.21H3157V0Z" fill="url(#paint0_linear_528_5157)"/>
<g clip-path="url(#clip0_528_5157)">
<path d="M1185 0C1200.72 18.0006 1223.27 33.047 1255.44 36.3517C1247.3 51.0727 1240.94 74.7063 1253.91 106.426C1277.14 163.207 1370 129.66 1370 129.66C1370 129.66 1385.47 183.837 1444.82 186.44C1504.17 189.019 1529.95 124.502 1529.95 124.502C1529.95 124.502 1548 147.735 1581.54 134.817C1581.54 134.817 1563.5 183.837 1609.93 204.491C1656.36 225.146 1700.22 176.101 1705.4 142.553C1705.4 142.553 1777.64 170.943 1785.37 114.163C1785.37 114.163 1855.03 212.227 1973.7 121.899C1973.7 121.899 1950.48 235.435 2038.21 284.455C2125.92 333.475 2239.44 248.329 2239.44 248.329C2239.44 248.329 2260.09 289.612 2311.67 292.191C2311.67 292.191 2316.83 348.972 2368.45 356.708C2420.03 364.444 2448.42 299.927 2448.42 299.927C2448.42 299.927 2500.01 356.708 2551.62 333.475C2603.21 310.242 2608.39 248.329 2608.39 248.329C2608.39 248.329 2623.86 336.053 2714.17 338.632C2714.17 338.632 2616.13 367.022 2634.2 454.747C2652.25 542.472 2765.79 555.391 2765.79 555.391C2765.79 555.391 2719.36 637.958 2796.75 676.663C2874.15 715.368 2902.53 663.77 2902.53 663.77C2902.53 663.77 2923.18 730.865 2979.93 717.947C2979.93 717.947 2969.62 787.621 3034.12 803.093C3034.12 803.093 3010.89 846.956 3049.59 862.453C3049.59 862.453 3013.47 939.863 3103.78 960.517C3103.78 960.517 3054.77 1009.54 3083.13 1081.79C3083.13 1081.79 3013.47 1058.56 2969.62 1105.02C2925.76 1151.46 2954.15 1200.51 2954.15 1200.51C2954.15 1200.51 2887.06 1161.8 2825.14 1231.48C2763.21 1301.15 2846.21 1390.88 2846.21 1390.88C2846.21 1390.88 2778.7 1363.09 2740.01 1445.66C2740.01 1445.66 2711.62 1412.11 2636.8 1450.82C2561.99 1489.52 2626.49 1618.55 2626.49 1618.55C2626.49 1618.55 2556.83 1623.71 2556.83 1688.23C2556.83 1688.23 2621.33 1972.08 2629.07 1966.93C2634.05 1963.6 2940.03 1962.42 3157.05 1961.99V0H1185Z" fill="url(#paint1_linear_528_5157)"/>
</g>
<defs>
<linearGradient id="paint0_linear_528_5157" x1="1816.05" y1="391.601" x2="1097.64" y2="2389.46" gradientUnits="userSpaceOnUse">
<stop stop-color="#ECFBFF"/>
<stop offset="0.2724" stop-color="#F4FDFF"/>
<stop offset="0.556" stop-color="white"/>
<stop offset="0.8078" stop-color="white"/>
<stop offset="1" stop-color="white"/>
</linearGradient>
<linearGradient id="paint1_linear_528_5157" x1="3681.61" y1="819.648" x2="2118.4" y2="986.564" gradientUnits="userSpaceOnUse">
<stop stop-color="#E3FAFF"/>
<stop offset="0.2724" stop-color="#F1FCFF"/>
<stop offset="0.556" stop-color="white"/>
<stop offset="0.8078" stop-color="white"/>
<stop offset="1" stop-color="white"/>
</linearGradient>
<clipPath id="clip0_528_5157">
<rect width="1972" height="1758" fill="white" transform="translate(1185)"/>
</clipPath>
</defs>
</svg>
