<svg width="3154" height="590" viewBox="0 0 3154 590" fill="none" xmlns="http://www.w3.org/2000/svg">
<g clip-path="url(#clip0_324_1133)">
<g opacity="0.25">
<path d="M343.263 223.898V193.806H299.975V137.722H285.043V193.806H241.755V223.898H204.889V296.104L153.665 265.116L102.448 234.128L59.3527 260.205V226.257H20.4724V283.717L0 296.104V590H204.881H380.13V418.802V223.898H343.263ZM64.5711 541.822H27.4255V504.677H64.5711V541.822ZM64.5711 471.302H27.4255V433.174H64.5711V471.302ZM64.5711 399.132H27.4255V361.987H64.5711V399.132ZM121.014 541.822H83.8679V504.677H121.014V541.822ZM121.014 470.312H83.8679V433.167H121.014V470.312ZM121.014 399.132H83.8679V361.987H121.014V399.132ZM102.441 329.529C89.4304 329.529 78.8788 318.977 78.8788 305.967C78.8788 292.957 89.4304 282.405 102.441 282.405C115.451 282.405 126.003 292.95 126.003 305.967C126.003 318.985 115.451 329.529 102.441 329.529ZM177.456 541.822H140.31V504.677H177.456V541.822ZM177.456 470.312H140.31V433.167H177.456V470.312ZM177.456 399.132H140.31V361.987H177.456V399.132ZM264.628 551.413H238.371V525.156H264.628V551.413ZM264.628 501.559H238.371V474.606H264.628V501.559ZM264.628 450.535H238.371V424.278H264.628V450.535ZM264.628 399.849H238.371V373.592H264.628V399.849ZM264.628 349.987H238.371V323.035H264.628V349.987ZM264.628 298.971H238.371V272.714H264.628V298.971ZM304.527 551.413H278.269V525.156H304.527V551.413ZM304.527 500.863H278.269V474.606H304.527V500.863ZM304.527 450.535H278.269V424.278H304.527V450.535ZM304.527 399.849H278.269V373.592H304.527V399.849ZM304.527 349.292H278.269V323.035H304.527V349.292ZM304.527 298.971H278.269V272.714H304.527V298.971ZM344.432 551.413H318.175V525.156H344.432V551.413ZM344.432 500.863H318.175V474.606H344.432V500.863ZM344.432 450.535H318.175V424.278H344.432V450.535ZM344.432 399.849H318.175V373.592H344.432V399.849ZM344.432 349.292H318.175V323.035H344.432V349.292ZM344.432 298.971H318.175V272.714H344.432V298.971Z" fill="#E3E3E3"/>
<path d="M1525.77 265.116L1474.56 234.128L1423.33 265.116L1372.12 296.104V137.722H1354.55V117.587H1372.12V98.6558H1217.24V117.587H1234.81V137.722H1217.24V386.717L1171.79 337.722H1088.94L1049.24 386.717V418.802V590H1217.24H1372.12H1577V296.104L1525.77 265.116ZM1121.01 380.559H1144.3V403.856H1121.01V380.559ZM1091.85 565.965H1068.56V542.668H1091.85V565.965ZM1091.85 521.723H1068.56V497.803H1091.85V521.723ZM1091.85 476.456H1068.56V453.159H1091.85V476.456ZM1127.26 565.965H1103.96V542.668H1127.26V565.965ZM1127.26 521.106H1103.96V497.81H1127.26V521.106ZM1127.26 476.456H1103.96V453.159H1127.26V476.456ZM1163.46 565.965H1140.17V542.668H1163.46V565.965ZM1163.46 521.106H1140.17V497.81H1163.46V521.106ZM1163.46 476.456H1140.17V453.159H1163.46V476.456ZM1197.84 565.9H1174.54V542.604H1197.84V565.9ZM1197.84 521.192H1174.54V497.896H1197.84V521.192ZM1197.84 476.542H1174.54V453.245H1197.84V476.542ZM1282.4 181.577H1308.66V207.835H1282.4V181.577ZM1282.4 231.898H1308.66V258.155H1282.4V231.898ZM1282.4 282.456H1308.66V308.713H1282.4V282.456ZM1282.4 333.149H1308.66V359.406H1282.4V333.149ZM1282.4 383.47H1308.66V409.727H1282.4V383.47ZM1282.4 434.02H1308.66V460.277H1282.4V434.02ZM1242.49 181.577H1268.75V207.835H1242.49V181.577ZM1242.49 231.898H1268.75V258.851H1242.49V231.898ZM1242.49 282.456H1268.75V308.713H1242.49V282.456ZM1242.49 333.149H1268.75V359.406H1242.49V333.149ZM1242.49 383.47H1268.75V410.422H1242.49V383.47ZM1242.49 434.02H1268.75V460.277H1242.49V434.02ZM1322.76 580.23H1268.29V492.075H1322.76V580.23ZM1348.55 460.284H1322.3V434.02H1348.55V460.284ZM1348.55 409.727H1322.3V383.47H1348.55V409.727ZM1348.55 359.406H1322.3V333.149H1348.55V359.406ZM1348.55 308.713H1322.3V282.456H1348.55V308.713ZM1348.55 258.163H1322.3V231.905H1348.55V258.163ZM1348.55 207.835H1322.3V181.577H1348.55V207.835ZM1436.69 541.822H1399.54V504.677H1436.69V541.822ZM1436.69 471.302H1399.54V433.174H1436.69V471.302ZM1436.69 399.132H1399.54V361.987H1436.69V399.132ZM1493.13 541.822H1455.98V504.677H1493.13V541.822ZM1493.13 470.312H1455.98V433.167H1493.13V470.312ZM1493.13 399.132H1455.98V361.987H1493.13V399.132ZM1549.57 541.822H1512.43V504.677H1549.57V541.822ZM1549.57 470.312H1512.43V433.167H1549.57V470.312ZM1549.57 399.132H1512.43V361.987H1549.57V399.132Z" fill="#E3E3E3"/>
<path d="M1021.42 223.898V83.8175H970.409V0.773926H952.818V83.8175H901.809V223.898H873.989V343.442L831.245 312.454L788.501 281.466L752.538 307.544V273.596H720.102V331.056L703.013 343.442V137.722H548.13V418.802L502.676 385.212H419.834L380.129 418.802V590H548.13H703.006H873.982H1049.23V386.717V223.898H1021.42ZM422.744 565.965H399.447V542.668H422.744V565.965ZM422.744 521.723H399.447V497.802H422.744V521.723ZM422.744 476.456H399.447V453.159H422.744V476.456ZM458.155 565.965H434.858V542.668H458.155V565.965ZM458.155 521.106H434.858V497.81H458.155V521.106ZM458.155 476.456H434.858V453.159H458.155V476.456ZM494.361 565.965H471.065V542.668H494.361V565.965ZM494.361 521.106H471.065V497.81H494.361V521.106ZM494.361 476.456H471.065V453.159H494.361V476.456ZM528.726 565.9H505.429V542.604H528.726V565.9ZM528.726 521.192H505.429V497.896H528.726V521.192ZM528.726 476.542H505.429V453.245H528.726V476.542ZM611.382 181.957H637.639V208.214H611.382V181.957ZM611.382 232.278H637.639V258.535H611.382V232.278ZM611.382 282.835H637.639V309.092H611.382V282.835ZM611.382 332.153H637.639V358.41H611.382V332.153ZM611.382 382.48H637.639V408.738H611.382V382.48ZM611.382 433.031H637.639V459.288H611.382V433.031ZM571.484 181.957H597.741V208.214H571.484V181.957ZM571.484 232.278H597.741V259.23H571.484V232.278ZM571.484 282.835H597.741V309.092H571.484V282.835ZM571.484 332.153H597.741V358.41H571.484V332.153ZM571.484 382.48H597.741V409.433H571.484V382.48ZM571.484 433.031H597.741V459.288H571.484V433.031ZM620.199 579.764H574.509V505.816H620.199V579.764ZM674.548 579.764H628.858V505.816H674.548V579.764ZM677.545 459.295H651.288V433.038H677.545V459.295ZM677.545 408.738H651.288V382.48H677.545V408.738ZM677.545 358.417H651.288V332.16H677.545V358.417ZM677.545 309.092H651.288V282.835H677.545V309.092ZM677.545 258.535H651.288V232.278H677.545V258.535ZM677.545 208.214H651.288V181.957H677.545V208.214ZM749.248 475.352H727.127V453.231H749.248V475.352ZM749.248 433.353H727.127V410.651H749.248V433.353ZM749.248 390.38H727.127V368.259H749.248V390.38ZM795.11 368.259H817.231V390.38H795.11V368.259ZM795.11 410.651H817.231V432.772H795.11V410.651ZM795.11 453.231H817.231V475.352H795.11V453.231ZM760.739 368.259H782.86V390.38H760.739V368.259ZM760.739 410.651H782.86V432.772H760.739V410.651ZM760.739 453.231H782.86V475.352H760.739V453.231ZM821.769 579.893H755.355V501.315H821.769V579.893ZM849.854 475.294H827.733V453.173H849.854V475.294ZM849.854 432.851H827.733V410.73H849.854V432.851ZM849.854 390.459H827.733V368.338H849.854V390.459ZM968.057 111.372H992.909V136.224H968.057V111.372ZM968.057 149.815H992.909V174.667H968.057V149.815ZM968.057 188.265H992.909V213.117H968.057V188.265ZM930.31 111.372H955.162V136.224H930.31V111.372ZM930.31 149.815H955.162V174.667H930.31V149.815ZM930.31 188.265H955.162V213.117H930.31V188.265ZM933.729 531.565H907.472V505.307H933.729V531.565ZM933.729 481.703H907.472V454.75H933.729V481.703ZM933.729 430.687H907.472V404.429H933.729V430.687ZM933.729 379.993H907.472V353.736H933.729V379.993ZM933.729 330.138H907.472V303.186H933.729V330.138ZM933.729 279.115H907.472V252.858H933.729V279.115ZM973.634 531.565H947.377V505.307H973.634V531.565ZM973.634 481.007H947.377V454.75H973.634V481.007ZM973.634 430.687H947.377V404.429H973.634V430.687ZM973.634 379.993H947.377V353.736H973.634V379.993ZM973.634 329.436H947.377V303.179H973.634V329.436ZM973.634 279.115H947.377V252.858H973.634V279.115ZM1013.53 531.565H987.275V505.307H1013.53V531.565ZM1013.53 481.007H987.275V454.75H1013.53V481.007ZM1013.53 430.687H987.275V404.429H1013.53V430.687ZM1013.53 379.993H987.275V353.736H1013.53V379.993ZM1013.53 329.436H987.275V303.179H1013.53V329.436ZM1013.53 279.115H987.275V252.858H1013.53V279.115Z" fill="#E3E3E3"/>
</g>
</g>
<g clip-path="url(#clip1_324_1133)">
<g opacity="0.25">
<path d="M1920.27 223.898V193.806H1876.98V137.722H1862.05V193.806H1818.76V223.898H1781.89V296.104L1730.67 265.116L1679.45 234.128L1636.36 260.205V226.257H1597.48V283.717L1577 296.104V590H1781.89H1957.13V418.802V223.898H1920.27ZM1641.58 541.822H1604.43V504.677H1641.58V541.822ZM1641.58 471.302H1604.43V433.174H1641.58V471.302ZM1641.58 399.132H1604.43V361.987H1641.58V399.132ZM1698.02 541.822H1660.87V504.677H1698.02V541.822ZM1698.02 470.312H1660.87V433.167H1698.02V470.312ZM1698.02 399.132H1660.87V361.987H1698.02V399.132ZM1679.44 329.529C1666.43 329.529 1655.88 318.977 1655.88 305.967C1655.88 292.957 1666.43 282.405 1679.44 282.405C1692.45 282.405 1703.01 292.95 1703.01 305.967C1703.01 318.985 1692.45 329.529 1679.44 329.529ZM1754.46 541.822H1717.31V504.677H1754.46V541.822ZM1754.46 470.312H1717.31V433.167H1754.46V470.312ZM1754.46 399.132H1717.31V361.987H1754.46V399.132ZM1841.63 551.413H1815.38V525.156H1841.63V551.413ZM1841.63 501.559H1815.38V474.606H1841.63V501.559ZM1841.63 450.535H1815.38V424.278H1841.63V450.535ZM1841.63 399.849H1815.38V373.592H1841.63V399.849ZM1841.63 349.987H1815.38V323.035H1841.63V349.987ZM1841.63 298.971H1815.38V272.714H1841.63V298.971ZM1881.53 551.413H1855.27V525.156H1881.53V551.413ZM1881.53 500.863H1855.27V474.606H1881.53V500.863ZM1881.53 450.535H1855.27V424.278H1881.53V450.535ZM1881.53 399.849H1855.27V373.592H1881.53V399.849ZM1881.53 349.292H1855.27V323.035H1881.53V349.292ZM1881.53 298.971H1855.27V272.714H1881.53V298.971ZM1921.44 551.413H1895.18V525.156H1921.44V551.413ZM1921.44 500.863H1895.18V474.606H1921.44V500.863ZM1921.44 450.535H1895.18V424.278H1921.44V450.535ZM1921.44 399.849H1895.18V373.592H1921.44V399.849ZM1921.44 349.292H1895.18V323.035H1921.44V349.292ZM1921.44 298.971H1895.18V272.714H1921.44V298.971Z" fill="#E3E3E3"/>
<path d="M3102.78 265.116L3051.56 234.128L3000.34 265.116L2949.12 296.104V137.722H2931.55V117.587H2949.12V98.6558H2794.24V117.587H2811.81V137.722H2794.24V386.717L2748.79 337.722H2665.95L2626.24 386.717V418.802V590H2794.24H2949.12H3154V296.104L3102.78 265.116ZM2698.01 380.559H2721.31V403.856H2698.01V380.559ZM2668.86 565.965H2645.56V542.668H2668.86V565.965ZM2668.86 521.723H2645.56V497.803H2668.86V521.723ZM2668.86 476.456H2645.56V453.159H2668.86V476.456ZM2704.26 565.965H2680.96V542.668H2704.26V565.965ZM2704.26 521.106H2680.96V497.81H2704.26V521.106ZM2704.26 476.456H2680.96V453.159H2704.26V476.456ZM2740.47 565.965H2717.17V542.668H2740.47V565.965ZM2740.47 521.106H2717.17V497.81H2740.47V521.106ZM2740.47 476.456H2717.17V453.159H2740.47V476.456ZM2774.84 565.9H2751.54V542.604H2774.84V565.9ZM2774.84 521.192H2751.54V497.896H2774.84V521.192ZM2774.84 476.542H2751.54V453.245H2774.84V476.542ZM2859.4 181.577H2885.66V207.835H2859.4V181.577ZM2859.4 231.898H2885.66V258.155H2859.4V231.898ZM2859.4 282.456H2885.66V308.713H2859.4V282.456ZM2859.4 333.149H2885.66V359.406H2859.4V333.149ZM2859.4 383.47H2885.66V409.727H2859.4V383.47ZM2859.4 434.02H2885.66V460.277H2859.4V434.02ZM2819.5 181.577H2845.75V207.835H2819.5V181.577ZM2819.5 231.898H2845.75V258.851H2819.5V231.898ZM2819.5 282.456H2845.75V308.713H2819.5V282.456ZM2819.5 333.149H2845.75V359.406H2819.5V333.149ZM2819.5 383.47H2845.75V410.422H2819.5V383.47ZM2819.5 434.02H2845.75V460.277H2819.5V434.02ZM2899.77 580.23H2845.3V492.075H2899.77V580.23ZM2925.56 460.284H2899.3V434.02H2925.56V460.284ZM2925.56 409.727H2899.3V383.47H2925.56V409.727ZM2925.56 359.406H2899.3V333.149H2925.56V359.406ZM2925.56 308.713H2899.3V282.456H2925.56V308.713ZM2925.56 258.163H2899.3V231.905H2925.56V258.163ZM2925.56 207.835H2899.3V181.577H2925.56V207.835ZM3013.69 541.822H2976.54V504.677H3013.69V541.822ZM3013.69 471.302H2976.54V433.174H3013.69V471.302ZM3013.69 399.132H2976.54V361.987H3013.69V399.132ZM3070.13 541.822H3032.99V504.677H3070.13V541.822ZM3070.13 470.312H3032.99V433.167H3070.13V470.312ZM3070.13 399.132H3032.99V361.987H3070.13V399.132ZM3126.58 541.822H3089.43V504.677H3126.58V541.822ZM3126.58 470.312H3089.43V433.167H3126.58V470.312ZM3126.58 399.132H3089.43V361.987H3126.58V399.132Z" fill="#E3E3E3"/>
<path d="M2598.42 223.898V83.8175H2547.41V0.773926H2529.82V83.8175H2478.81V223.898H2450.99V343.442L2408.25 312.454L2365.51 281.466L2329.54 307.544V273.596H2297.11V331.056L2280.02 343.442V137.722H2125.13V418.802L2079.68 385.212H1996.84L1957.13 418.802V590H2125.13H2280.01H2450.99H2626.23V386.717V223.898H2598.42ZM1999.75 565.965H1976.45V542.668H1999.75V565.965ZM1999.75 521.723H1976.45V497.802H1999.75V521.723ZM1999.75 476.456H1976.45V453.159H1999.75V476.456ZM2035.16 565.965H2011.86V542.668H2035.16V565.965ZM2035.16 521.106H2011.86V497.81H2035.16V521.106ZM2035.16 476.456H2011.86V453.159H2035.16V476.456ZM2071.37 565.965H2048.07V542.668H2071.37V565.965ZM2071.37 521.106H2048.07V497.81H2071.37V521.106ZM2071.37 476.456H2048.07V453.159H2071.37V476.456ZM2105.73 565.9H2082.43V542.604H2105.73V565.9ZM2105.73 521.192H2082.43V497.896H2105.73V521.192ZM2105.73 476.542H2082.43V453.245H2105.73V476.542ZM2188.39 181.957H2214.64V208.214H2188.39V181.957ZM2188.39 232.278H2214.64V258.535H2188.39V232.278ZM2188.39 282.835H2214.64V309.092H2188.39V282.835ZM2188.39 332.153H2214.64V358.41H2188.39V332.153ZM2188.39 382.48H2214.64V408.738H2188.39V382.48ZM2188.39 433.031H2214.64V459.288H2188.39V433.031ZM2148.49 181.957H2174.74V208.214H2148.49V181.957ZM2148.49 232.278H2174.74V259.23H2148.49V232.278ZM2148.49 282.835H2174.74V309.092H2148.49V282.835ZM2148.49 332.153H2174.74V358.41H2148.49V332.153ZM2148.49 382.48H2174.74V409.433H2148.49V382.48ZM2148.49 433.031H2174.74V459.288H2148.49V433.031ZM2197.2 579.764H2151.51V505.816H2197.2V579.764ZM2251.55 579.764H2205.86V505.816H2251.55V579.764ZM2254.55 459.295H2228.29V433.038H2254.55V459.295ZM2254.55 408.738H2228.29V382.48H2254.55V408.738ZM2254.55 358.417H2228.29V332.16H2254.55V358.417ZM2254.55 309.092H2228.29V282.835H2254.55V309.092ZM2254.55 258.535H2228.29V232.278H2254.55V258.535ZM2254.55 208.214H2228.29V181.957H2254.55V208.214ZM2326.25 475.352H2304.13V453.231H2326.25V475.352ZM2326.25 433.353H2304.13V410.651H2326.25V433.353ZM2326.25 390.38H2304.13V368.259H2326.25V390.38ZM2372.11 368.259H2394.24V390.38H2372.11V368.259ZM2372.11 410.651H2394.24V432.772H2372.11V410.651ZM2372.11 453.231H2394.24V475.352H2372.11V453.231ZM2337.74 368.259H2359.86V390.38H2337.74V368.259ZM2337.74 410.651H2359.86V432.772H2337.74V410.651ZM2337.74 453.231H2359.86V475.352H2337.74V453.231ZM2398.77 579.893H2332.36V501.315H2398.77V579.893ZM2426.86 475.294H2404.74V453.173H2426.86V475.294ZM2426.86 432.851H2404.74V410.73H2426.86V432.851ZM2426.86 390.459H2404.74V368.338H2426.86V390.459ZM2545.06 111.372H2569.91V136.224H2545.06V111.372ZM2545.06 149.815H2569.91V174.667H2545.06V149.815ZM2545.06 188.265H2569.91V213.117H2545.06V188.265ZM2507.31 111.372H2532.17V136.224H2507.31V111.372ZM2507.31 149.815H2532.17V174.667H2507.31V149.815ZM2507.31 188.265H2532.17V213.117H2507.31V188.265ZM2510.73 531.565H2484.48V505.307H2510.73V531.565ZM2510.73 481.703H2484.48V454.75H2510.73V481.703ZM2510.73 430.687H2484.48V404.429H2510.73V430.687ZM2510.73 379.993H2484.48V353.736H2510.73V379.993ZM2510.73 330.138H2484.48V303.186H2510.73V330.138ZM2510.73 279.115H2484.48V252.858H2510.73V279.115ZM2550.64 531.565H2524.38V505.307H2550.64V531.565ZM2550.64 481.007H2524.38V454.75H2550.64V481.007ZM2550.64 430.687H2524.38V404.429H2550.64V430.687ZM2550.64 379.993H2524.38V353.736H2550.64V379.993ZM2550.64 329.436H2524.38V303.179H2550.64V329.436ZM2550.64 279.115H2524.38V252.858H2550.64V279.115ZM2590.54 531.565H2564.28V505.307H2590.54V531.565ZM2590.54 481.007H2564.28V454.75H2590.54V481.007ZM2590.54 430.687H2564.28V404.429H2590.54V430.687ZM2590.54 379.993H2564.28V353.736H2590.54V379.993ZM2590.54 329.436H2564.28V303.179H2590.54V329.436ZM2590.54 279.115H2564.28V252.858H2590.54V279.115Z" fill="#E3E3E3"/>
</g>
</g>
<defs>
<clipPath id="clip0_324_1133">
<rect width="1577" height="589.226" fill="white" transform="translate(0 0.773926)"/>
</clipPath>
<clipPath id="clip1_324_1133">
<rect width="1577" height="589.226" fill="white" transform="translate(1577 0.773926)"/>
</clipPath>
</defs>
</svg>
