<svg width="1554" height="674" viewBox="0 0 1554 674" fill="none" xmlns="http://www.w3.org/2000/svg">
<g clip-path="url(#clip0_526_26)">
<path d="M-62.4769 631C26.0569 602.638 110.633 567.057 195.542 529.908C230.314 514.694 264.085 489.223 300.393 478.24C340.026 466.256 382.297 449.716 423.616 448.182C465.319 446.632 506.855 444.693 548.125 438.249C628.608 425.683 707.672 397.386 766.294 340.727C790.996 316.839 806.344 283.809 833.484 262.877C869.375 235.193 911.897 217.491 955.053 203.262C1013.09 184.106 1095.41 177.727 1142.79 138.123C1180.64 106.483 1217.18 78.5569 1261.54 58.9006C1273.73 53.506 1286.52 48.7252 1300.09 44.6712C1363.97 25.5802 1430.27 13.7735 1496.23 3.54968C1553.18 -5.28514 1612.08 -4.75214 1665.6 -27.8971C1682.21 -35.0845 1714.25 -46.5843 1716 -66.176C1666.8 -88.8041 1598.66 -79.3717 1546.21 -80.7123C1454.01 -83.0865 1361.8 -85.6707 1269.56 -87.189C1226.2 -87.8996 1180.09 -83.9102 1137.21 -90.8392C1110.73 -95.1193 1086.54 -105.908 1059.52 -108.121C874.703 -123.32 689.101 -104.067 504.183 -128.02C380.076 -144.09 256.218 -150.616 133.263 -123.772C74.6746 -110.98 28.7626 -81.7621 -16.3812 -43.3379C-51.9217 -13.1024 -97.6834 16.8261 -107.955 63.8591C-129.717 163.465 -105.583 266.931 -103.963 367.409C-103.562 391.684 -90.1678 409.193 -84.8233 431.546C-78.4434 458.244 -74.2347 488.367 -69.8589 515.711C-63.6961 554.216 -62.5437 592.188 -62.4602 631" fill="#9ADBC2"/>
</g>
<defs>
<clipPath id="clip0_526_26">
<rect width="1554" height="674" fill="white"/>
</clipPath>
</defs>
</svg>
