<svg width="338" height="174" viewBox="0 0 338 174" fill="none" xmlns="http://www.w3.org/2000/svg">
<path d="M246.201 0.85713C233.196 1.01929 220.308 1.10774 207.14 1.41732C162.15 2.46399 117.16 -0.852927 72.1853 1.38784C54.3133 2.27235 49.0933 12.6064 37.8717 25.8299C33.964 30.4441 22.8309 39.8494 27.0629 45.7462C31.1033 51.3481 48.8426 50.4193 54.7705 50.7289C61.0522 51.068 70.6223 54.09 76.7713 52.3947C57.0708 57.805 50.7153 78.0456 35.704 88.7924C29.1716 93.4656 24.6446 93.8194 17.6403 96.6646C10.5181 99.554 9.13196 105.642 6.8316 113.117C4.20684 121.667 2.65853 131.824 3.70548 140.787C5.37177 154.954 11.7715 154.807 23.7009 154.718C58.103 154.468 92.5199 155.087 126.922 154.718C154.069 154.423 182.204 155.44 209.233 153.052C229.804 151.239 250.773 152.463 271.491 152.212C284.836 152.05 293.049 150.06 294.111 135.627C295.217 120.635 293.477 104.758 294.465 90.2961C295.467 75.6869 293.904 61.4315 293.197 46.6307C292.651 35.4416 296.455 21.8938 290.763 11.5302C284.334 -0.160063 268.232 0.473834 257.261 0.665479C253.545 0.724446 249.858 0.783414 246.172 0.82764L246.201 0.85713Z" fill="white"/>
<path d="M97.104 54.6643C100.54 56.0353 99.6698 63.7158 99.5371 66.6053C99.2717 72.3693 99.6846 78.2513 98.9473 83.9565C98.5344 87.0965 59.6053 87.4798 55.4322 87.3618C53.8691 87.3176 39.4182 86.7869 39.0938 87.3618C41.3056 83.3078 45.3165 80.4479 48.2067 76.9688C50.9347 73.6814 53.6037 70.2465 56.4644 67.0623C62.3038 60.5611 69.0574 56.8019 77.61 56.1533C81.9895 55.8289 86.3396 55.1951 90.7043 54.856C92.7835 54.6938 95.4378 53.9715 97.104 54.6349V54.6643Z" fill="#AFAFAF"/>
<path d="M72.1523 52.1447C78.906 49.9335 88.0337 50.5084 95.1264 49.8008C104.991 48.8131 106.201 61.4321 106.496 69.0389C107.085 84.1641 107.513 99.304 107.13 114.429C106.79 127.992 106.392 141.775 105.154 155.294" stroke="#919191" stroke-width="0.55" stroke-linecap="round" stroke-linejoin="round"/>
<path d="M11.37 103.165C15.4546 102.973 19.7751 100.806 23.4763 99.4648C23.9482 106.821 23.3731 111.406 17.6665 115.961C14.5846 118.423 11.5322 121.032 8.2291 123.17C5.3979 124.998 4.12975 126.546 3.48093 123.052C2.49296 117.818 7.37385 106.968 10.9718 103.578" fill="#FFDB06"/>
<path d="M246.14 134.713H232.102L247.703 101.16H261.726L246.14 134.713Z" fill="#575A5B"/>
<path d="M263.288 117.377H249.25L264.851 83.8242H278.874L263.288 117.377Z" fill="#FFBA7B"/>
<path d="M13.4644 158.492C7.28592 156.605 2.68523 146.05 0.8125 140.242C7.05001 139.858 12.9631 139.755 19.2448 139.755C27.7237 139.755 36.3795 140.183 44.8142 139.652C44.5045 139.667 49.8868 132.193 50.8452 131.485C56.4192 127.357 62.9516 125.514 69.4988 127.578C72.2268 128.433 74.7041 129.849 76.68 132.06C77.2404 132.679 81.2512 140.153 80.6171 140.212C124.737 135.878 169.682 139.475 214.082 136.88C213.566 136.91 217.857 131.146 218.314 130.718C223.46 125.868 231.158 124.674 237.734 126.222C241.686 127.151 244.503 132.104 247.349 134.772C251.537 138.694 254.132 137.234 259.514 136.718C266.238 136.07 272.903 134.728 279.657 134.404C285.069 134.138 290.879 132.561 296.261 133.564C296.91 133.681 294.329 142.659 293.975 143.441C292.456 146.905 289.419 149.293 285.983 150.296C274.186 153.73 259.485 153.612 247.172 153.612C230.597 153.612 213.625 153.76 197.036 154.703C156.47 157.018 115.314 155.706 74.822 159.126C59.2356 160.438 43.841 161.072 28.1808 160.261C23.4622 160.025 18.0357 159.863 13.4939 158.477L13.4644 158.492Z" fill="#FFBA7B"/>
<path d="M79.5407 161.279C83.4926 149.588 77.3436 128.508 63.2318 128.625C49.4739 128.743 41.3784 151.21 46.6132 163.195C53.0571 177.937 74.2912 176.743 79.5407 161.279Z" fill="#252A2D"/>
<path d="M247.792 161.116C252.039 146.595 245.447 125.087 229.242 128.359C209.231 132.399 208.804 166.865 227.959 172.791C238.708 176.123 245.226 169.902 247.792 161.116Z" fill="#252A2D"/>
<path d="M40.4492 85.9763C51.8183 86.1532 61.2262 87.3916 72.6837 86.4039C80.499 85.7405 90.4377 83.8388 98.2678 84.2221C98.1498 73.947 98.0908 65.8537 98.0908 55.1953" stroke="#969696" stroke-width="1.65" stroke-linecap="round" stroke-linejoin="round"/>
<path d="M84.0969 8.77321C83.4039 7.57912 82.4307 7.8887 79.6437 8.02138C74.0403 8.28673 67.3014 8.67002 61.9486 10.5717C55.7701 12.7683 51.6265 17.6626 48.176 23.3087C45.5217 27.6576 46.377 29.8541 51.0662 30.0457C59.9137 30.3995 69.41 29.8983 78.2576 29.5445C82.1357 29.3824 83.2859 29.4413 84.5246 25.6969C85.837 21.7018 85.9844 15.009 84.8785 10.9698C84.5983 9.95257 84.3771 9.25969 84.0969 8.78795V8.77321Z" fill="#AFAFAF"/>
<path d="M130.799 54.5182C126.641 54.7836 122.468 54.4297 118.457 56.0808C114.107 57.8646 115.243 64.528 115.051 68.3314C114.874 72.1642 114.889 78.577 119.814 78.8718C128.042 79.3583 136.329 78.7686 144.498 77.7219C150.279 76.9848 150.751 73.8448 150.456 67.9333C150.235 63.4223 151.458 54.872 145.457 54.0465C140.753 53.4126 136.256 54.0612 131.581 54.474C131.316 54.5035 131.05 54.5182 130.799 54.533V54.5182Z" fill="#AFAFAF"/>
<path d="M236.91 48.208C228.874 48.4292 220.823 48.1049 212.816 48.9746C209.114 49.3727 202.862 48.6945 199.957 51.7019C196.846 54.9303 198.011 62.0949 197.686 66.1784C197.436 69.4216 197.509 77.1906 200.341 79.2987C202.405 80.8318 207.758 80.7876 210.279 80.8761C214.644 81.0235 218.994 80.5222 223.359 80.5665C239.476 80.7434 255.579 80.1684 271.666 79.2102C275.397 78.9891 280.543 80.139 284.082 79.0333C287.857 77.854 287.061 73.2545 286.987 69.8639C286.899 66.0605 286.884 62.1244 286.973 58.2915C287.032 55.7854 287.076 52.4537 285.542 50.3604C284.082 48.385 282.873 48.724 280.676 48.4734C274.674 47.7805 268.879 47.5004 262.819 47.4562C254.827 47.3972 246.849 47.869 238.871 48.1638C238.208 48.1933 237.559 48.2081 236.896 48.2228L236.91 48.208Z" fill="#AFAFAF"/>
<path d="M164.64 136.438C164.64 127.917 163.991 120.428 163.519 111.804C163.121 104.757 162.929 97.6959 162.944 90.6345C162.959 84.5166 162.295 77.9417 164.035 72.0008C165.584 66.7232 169.727 64.8952 174.564 64.5856C177.956 64.3645 184.149 63.7011 187.319 65.249C192.348 67.7109 193.601 73.755 194.088 79.0474C195.798 97.5927 196.462 116.964 196.462 135.582" stroke="#C4C4C4" stroke-width="2.74" stroke-linecap="round" stroke-linejoin="round"/>
<path d="M64.1627 159.229C73.7181 154.939 65.5636 139.194 59.1344 145.872C55.271 149.882 57.1289 162.383 64.1627 159.229Z" fill="#CAD5C8"/>
<path d="M233.397 158.109C242.952 153.82 234.798 138.075 228.369 144.753C224.505 148.763 226.363 161.264 233.397 158.109Z" fill="#CAD5C8"/>
<path d="M167.395 101.825C167.97 102.223 169.474 102.002 170.197 102.031C171.465 102.09 174.208 102.09 172.999 100.056C172.733 99.6137 172.394 99.5842 171.834 99.4958C170.801 99.3336 169.519 99.3189 168.516 99.658C167.97 99.8496 167.528 100.085 167.307 100.601C167.026 101.25 167.085 101.619 167.38 101.825H167.395Z" fill="#C4C4C4"/>
<path d="M118.266 77.3665C123.825 78.826 130.269 79.4894 135.975 78.8407C139.795 78.3985 145.56 78.7965 148.347 75.3911C152.343 70.5263 149.202 62.492 148.922 56.9785" stroke="#969696" stroke-width="1.65" stroke-linecap="round" stroke-linejoin="round"/>
<path d="M274.23 67.0335C273.537 67.004 270.543 73.8737 270.307 74.7435C269.201 78.9449 269.718 79.6231 273.065 80.3307C277.076 81.1709 282.65 80.0948 285.761 77.1906C289.875 73.3577 286.189 67.8001 287.413 62.8615C287.914 60.8566 287.855 59.5593 287.413 57.5102C287.265 56.8468 286.484 48.4735 285.82 48.5177C284.375 48.5914 282.945 48.2228 281.529 48.0607C273.08 47.1762 264.365 47.412 255.856 47.9133C255.547 54.0606 255.768 58.3358 260.811 62.036C264.512 64.7632 269.673 66.8861 274.215 67.0482L274.23 67.0335Z" fill="#9DC4BD"/>
<path d="M201.18 78.2085C210.204 80.98 219.538 81.0979 228.858 80.8768C237.263 80.6704 245.683 80.6852 254.103 80.6999C261.623 80.6999 268.598 80.066 275.927 79.2847C281.206 78.7245 286.101 79.7122 286.455 72.3855C286.794 65.4421 286.927 56.7296 285.659 49.9336" stroke="#969696" stroke-width="1.65" stroke-linecap="round" stroke-linejoin="round"/>
<path d="M272.666 45.1114C259.601 45.0967 246.241 46.4677 233.648 47.4406C226.792 47.9714 220.038 48.9591 213.225 49.7551C208.064 50.3595 201.93 48.3399 197.742 51.76C205.248 58.4676 213.8 63.1997 222.751 67.5928C230.906 71.5879 238.456 76.6296 246.492 80.8163C251.506 83.4256 256.652 87.8629 262.521 87.2437C276.824 85.7253 291.157 84.2659 305.328 81.804C308.056 81.3322 337.651 75.3175 337.961 75.7598C332.564 68.0056 322.684 64.9393 314.692 60.6346C303.013 54.3399 291.895 45.6864 277.916 45.2146C276.175 45.1557 274.421 45.1262 272.666 45.1262V45.1114Z" fill="#FF859C"/>
<path d="M259.957 84.6501C262.066 95.9719 279.761 90.6943 275.927 82.6895L259.957 84.6501Z" fill="#FF6F0D"/>
<path d="M308.059 78.1774C309.179 89.4696 325.208 84.5901 322.333 76.541L308.059 78.1774Z" fill="#F9F2A0"/>
<path d="M322.82 76.4829C323.941 87.7752 339.985 82.9104 337.109 74.8613L322.82 76.4829Z" fill="#FF6F0D"/>
<path d="M275.941 81.17C276.325 93.0814 297.205 90.7522 292.398 78.0742L275.941 81.17Z" fill="#F9F2A0"/>
<path d="M292.531 79.3284C293.873 90.6796 310.86 86.0212 307.69 77.8984L292.531 79.3284Z" fill="#FF6F0D"/>
<path d="M55.375 73.6676C60.3001 69.7463 65.4317 66.0018 70.6517 62.4785" stroke="white" stroke-width="0.69" stroke-linecap="round" stroke-linejoin="round"/>
<path d="M62.5078 76.2035C64.7934 74.2428 67.2117 72.4001 69.6301 70.6016" stroke="white" stroke-width="0.69" stroke-linecap="round" stroke-linejoin="round"/>
<path d="M117.469 70.0996C120.949 66.2225 125.505 63.5985 129.177 59.9277" stroke="white" stroke-width="0.69" stroke-linecap="round" stroke-linejoin="round"/>
<path d="M122.055 71.116C123.603 69.2585 125.623 67.7991 127.658 66.5312" stroke="white" stroke-width="0.69" stroke-linecap="round" stroke-linejoin="round"/>
<mask id="mask0_526_1652" style="mask-type:luminance" maskUnits="userSpaceOnUse" x="197" y="45" width="141" height="43">
<path d="M272.666 45.1114C259.601 45.0967 246.241 46.4677 233.648 47.4406C226.792 47.9714 220.038 48.9591 213.225 49.7551C208.064 50.3595 201.93 48.3399 197.742 51.76C205.248 58.4676 213.8 63.1997 222.751 67.5928C230.906 71.5879 238.456 76.6296 246.492 80.8163C251.506 83.4256 256.652 87.8629 262.521 87.2437C276.824 85.7253 291.157 84.2659 305.328 81.804C308.056 81.3322 337.651 75.3175 337.961 75.7598C332.564 68.0056 322.684 64.9393 314.692 60.6346C303.013 54.3399 291.895 45.6864 277.916 45.2146C276.175 45.1557 274.421 45.1262 272.666 45.1262V45.1114Z" fill="white"/>
</mask>
<g mask="url(#mask0_526_1652)">
<path d="M277.501 82.0247C262.357 76.4965 248.909 64.5556 235.52 55.681C231.583 53.0717 226.82 48.0594 222.131 46.7621C215.303 44.8604 208.24 49.7547 201.191 48.6491C206.529 52.2903 211.838 56.0937 217.338 59.4844C229.71 67.1059 242.598 74.1673 254.336 82.6881C260.706 87.317 264.717 86.8306 272.016 83.9854" fill="#FF6F0D"/>
<path d="M270.497 84.972C255.353 79.4438 241.919 67.5028 228.515 58.6282C224.578 56.0189 219.815 51.0067 215.126 49.7094C208.298 47.8077 201.235 52.702 194.172 51.5964C199.51 55.2376 204.818 59.0263 210.319 62.4316C222.69 70.0532 235.578 77.1146 247.316 85.6501C253.686 90.2791 257.697 89.7926 264.996 86.9474" fill="#FF6F0D"/>
<path d="M268.654 83.4993C253.51 77.9711 240.076 66.0302 226.672 57.1556C222.72 54.5463 217.972 49.534 213.283 48.2367C206.456 46.335 199.392 51.2293 192.344 50.1237C197.682 53.7797 202.975 57.5684 208.49 60.959C220.862 68.5805 233.75 75.6419 245.488 84.1774C251.858 88.8064 255.869 88.3199 263.168 85.4747" fill="#FF6F0D"/>
<path d="M280.983 50.4327C291.187 56.7275 301.656 62.5653 311.625 69.2286C314.854 71.3809 318.511 75.5971 322.315 76.629C327.255 77.9558 334.554 76.4521 339.509 75.4792C337.636 71.9706 332.932 71.0566 329.968 68.6537C327.049 66.295 324.055 64.1427 320.826 61.9461C313.497 56.9781 306.552 51.5089 299.164 46.6146C295.227 44.0052 290.464 38.993 285.775 37.6957C278.948 35.794 271.884 40.6883 264.836 39.5827C270.174 43.2239 275.482 47.0273 280.983 50.418V50.4327Z" fill="#FF6F0D"/>
<path d="M300.635 76.2302C303.983 78.6626 307.448 80.0483 311.621 79.5323C313.391 79.3112 315.116 78.4562 316.826 77.9844C317.829 77.7043 318.861 77.4243 319.894 77.3506C320.469 77.3063 322.164 77.7191 322.607 77.38C324.539 75.9648 315.662 72.3088 314.511 71.5275C310.795 69.0361 306.888 66.8691 303.186 64.3482C295.976 59.4392 289.089 54.0436 281.82 49.2083C277.883 46.599 273.12 41.5868 268.43 40.2895C261.603 38.3878 254.54 43.2821 247.477 42.1764C252.815 45.8177 258.123 49.6063 263.623 53.0117C275.995 60.6333 288.883 67.6946 300.621 76.2154L300.635 76.2302Z" fill="#F9F2A0"/>
<path d="M249.247 53.3809C259.452 59.6756 269.921 65.5134 279.889 72.1768C283.782 74.7861 286.835 78.8843 291.657 79.813C295.579 80.5796 299.958 80.7565 303.955 81.2135C306.638 81.5231 309.455 81.1103 307.449 77.7787C305.503 74.5502 301.02 73.8573 298.233 71.6018C295.314 69.2431 292.32 67.0908 289.091 64.909C281.762 59.941 274.817 54.4718 267.429 49.5775C263.492 46.9681 258.729 41.9559 254.04 40.6586C247.212 38.7569 240.149 43.6512 233.086 42.5456C238.424 46.1868 243.732 49.9902 249.233 53.3809H249.247Z" fill="#FF6F0D"/>
<path d="M270.379 79.5485C273.727 81.9809 277.207 83.3667 281.365 82.8507C283.135 82.6296 284.86 81.7745 286.57 81.3028C287.573 81.0227 288.605 80.7426 289.652 80.6689C290.227 80.6247 291.923 81.0375 292.365 80.6984C294.312 79.2832 285.42 75.6272 284.27 74.8459C280.554 72.3545 276.646 70.1874 272.945 67.6666C265.734 62.7575 258.848 57.362 251.578 52.5267C247.627 49.9174 242.878 44.9051 238.189 43.6078C231.362 41.7061 224.299 46.6004 217.25 45.4948C222.588 49.136 227.882 52.9247 233.397 56.3301C245.769 63.9516 258.656 71.013 270.394 79.5338L270.379 79.5485Z" fill="#F9F2A0"/>
</g>
<path d="M257.609 86.1384C265.307 85.8878 273.638 84.1041 281.173 82.6594C289.313 81.0967 297.423 80.507 305.651 79.4161C311.727 78.6053 317.935 77.5587 324.025 77.2933C328.67 77.0869 332.872 76.4973 337.311 75.082" stroke="#936A74" stroke-width="0.69" stroke-linecap="round" stroke-linejoin="round"/>
</svg>
