<svg width="729" height="708" viewBox="0 0 729 708" fill="none" xmlns="http://www.w3.org/2000/svg">
<g clip-path="url(#clip0_526_28)">
<mask id="mask0_526_28" style="mask-type:luminance" maskUnits="userSpaceOnUse" x="-1" y="131" width="1923" height="895">
<path d="M1921.91 131.168H-0.863281V1026H1921.91V131.168Z" fill="white"/>
</mask>
<g mask="url(#mask0_526_28)">
<path d="M164.404 668.729C184.163 670.322 203.982 671.25 223.8 671.398C240.389 671.53 262.272 677.103 268.23 661.005C274.01 645.393 270.265 601.02 254.693 591.349C242.882 584.008 224.125 587.369 210.809 579.733C195.886 571.182 186.449 561.438 169.005 558.416C143.73 554.038 120.52 545.355 95.467 540.74C91.928 529.699 69.8977 533.06 60.0327 532.146C-0.735054 526.5 -55.8551 543.232 -68.8168 613.374C-78.1362 663.776 -30.4333 660.562 5.07481 658.793C58.7056 656.125 110.891 664.425 164.419 668.729H164.404Z" fill="#E2E2E2"/>
<path d="M260.297 610.278C251.509 640.631 181.083 597.6 164.125 591.438C143.835 584.082 118.634 581.575 96.9574 576.696C68.8665 570.372 41.6456 566.362 12.8027 561.91C3.61602 560.495 -5.92455 558.151 -15.2734 558.667" stroke="#A8A8A8" stroke-miterlimit="10"/>
<path d="M323.96 668.584C318.651 686.937 276.08 660.918 265.831 657.203C223.26 641.753 168.877 655.493 124.492 657.453" stroke="#E5E5E5" stroke-width="0.6" stroke-miterlimit="10"/>
<path fill-rule="evenodd" clip-rule="evenodd" d="M-76.5538 457.479C-79.9896 447.734 -82.3047 436.958 -87.3183 436.501C-86.1534 429.911 -88.6307 426.388 -94.8092 424.87C-94.6028 423.72 -94.4406 422.747 -94.2341 421.597C-95.9152 420.934 -95.9446 419.607 -95.1189 417.882C-94.824 417.263 -94.6028 416.025 -94.8682 415.774C-96.2691 414.506 -95.0746 413.504 -94.6323 412.383C-94.5143 412.074 -94.647 411.661 -94.6765 411.307C-93.8802 409.818 -93.0692 408.329 -92.2582 406.84C-91.3882 407.15 -90.5034 407.46 -88.9109 408.035C-89.2648 406.413 -89.4712 405.44 -89.7661 404.098C-88.6159 402.418 -87.2888 400.457 -85.8585 398.379C-84.4281 399.396 -83.1895 400.266 -82.0393 401.076C-81.2725 398.614 -80.5647 396.315 -79.8569 394.015C-76.5391 393.588 -76.5538 393.573 -74.6958 389.961C-74.5189 389.622 -74.2092 389.298 -73.8996 389.091C-72.5134 388.148 -71.0978 387.249 -69.4463 386.187C-69.4168 385.951 -69.2988 385.244 -69.1514 384.315C-67.4851 384.521 -65.9663 384.801 -64.418 384.875C-63.7691 384.905 -62.6485 384.698 -62.4863 384.285C-61.3066 381.396 -59.9057 381.838 -58.2689 383.386C-57.9003 383.74 -57.3842 383.887 -56.9271 384.138C-55.9686 382.988 -55.0691 381.927 -54.3613 381.086C-52.4148 380.968 -50.6896 380.865 -48.7136 380.747C-48.5072 380.497 -48.0648 379.937 -47.2538 378.934C-45.0566 381.75 -50.3357 382.87 -48.3597 385.391C-46.2953 383.209 -48.3597 380.32 -45.558 380.644C-45.1009 380.688 -44.5848 380.246 -44.0687 380.054C-42.9037 379.597 -48.9643 377.091 -47.9321 377.283C-46.0741 377.637 -44.6143 377.357 -43.4198 375.676C-41.5029 377.062 -39.7039 378.05 -37.5952 376C-37.3888 375.794 -36.9464 375.853 -36.6072 375.824C-35.6193 375.765 -34.6313 375.72 -33.4369 375.676C-33.142 375.809 -32.272 376.443 -32.095 376.251C-30.4582 374.482 -29.6472 376.163 -28.9394 376.796C-27.2141 375.868 -25.7838 375.086 -24.3092 374.29C-20.9324 375.101 -24.7516 374.438 -21.2273 375.263C-20.9029 375.337 -20.49 375.337 -20.1803 375.204C-18.9269 374.659 -17.6735 374.04 -16.4201 373.435C-16.4644 373.273 -16.5086 373.111 -16.5528 372.934C-16.0073 373.14 -15.4617 373.362 -14.9456 373.568C-14.5769 372.728 -14.2377 371.991 -13.6627 370.693C-9.54856 372.875 -5.1248 374.615 -2.39681 378.138C-3.26682 377.696 -5.65565 376.516 -5.99481 376.295C-3.72395 381.013 9.31142 389.769 14.4872 390.713C13.3813 391.479 12.0247 392.806 10.6386 393.676C14.3398 398.732 26.6526 393.72 33.4504 395.032C40.9413 396.477 47.5327 400.413 52.9002 405.735C64.343 417.101 69.3271 434.658 67.5134 450.462C65.3752 469.007 61.3791 498.152 39.7322 503.193C19.5745 507.881 4.59274 490.044 -12.4977 484.014C-32.213 477.071 -51.7807 486.049 -69.1956 470.688C-72.4102 467.857 -74.6369 462.83 -76.5243 457.479H-76.5538Z" fill="#66870C"/>
<path fill-rule="evenodd" clip-rule="evenodd" d="M20.5488 453.985C20.2981 453.823 20.0327 453.661 19.782 453.513C19.1922 451.965 18.6318 450.417 17.9977 448.914C17.865 448.604 17.4374 448.427 17.113 448.294C15.7711 447.764 14.4145 447.263 12.9694 446.732C13.2643 445.921 13.515 445.243 13.7362 444.653C11.2589 443.621 8.91428 442.648 6.58443 441.631C6.11256 441.425 5.30154 441.056 5.31629 440.747C5.46374 438.167 3.06017 438.226 2.32287 436.707C1.43812 437.268 0.715565 437.71 0.0225086 438.137C-1.27513 436.648 -2.88243 435.351 -0.301902 433.464C-1.52581 432.123 -3.33954 431.238 -1.89445 428.717C-1.73224 428.437 -2.80869 426.875 -3.57548 426.55C-5.18278 425.872 -6.95229 425.636 -8.7218 425.209C-8.5301 424.059 -8.35315 423.086 -8.14671 421.936C-9.82774 421.273 -9.84248 419.946 -9.03146 418.221C-8.73654 417.602 -8.51535 416.364 -8.78078 416.113C-10.1816 414.845 -8.98722 413.843 -8.54484 412.722C-8.42687 412.413 -8.55959 412 -8.58908 411.646C-7.77805 410.157 -6.98178 408.668 -6.17075 407.194C-5.30075 407.504 -4.416 407.813 -2.82345 408.388C-3.17735 406.767 -3.38379 405.808 -3.67871 404.452C-2.52853 402.772 -1.20139 400.811 0.214212 398.732C1.65931 399.749 2.88321 400.619 4.03339 401.43C4.78543 398.968 5.50798 396.654 6.21578 394.369C8.42767 394.084 10.1431 392.732 11.3621 390.315C11.539 389.976 11.8487 389.651 12.1731 389.445C13.5592 388.501 14.9748 387.602 16.6116 386.526C16.6559 386.29 16.7738 385.597 16.9213 384.654C18.5876 384.86 20.1064 385.14 21.6547 385.214C22.3035 385.243 23.4242 385.037 23.5864 384.61C24.7661 381.705 26.167 382.162 27.8037 383.71C28.1724 384.064 28.7032 384.212 29.1604 384.462C30.1336 383.312 31.0036 382.251 31.7114 381.411C33.6578 381.293 35.3831 381.189 37.3591 381.072C37.5655 380.821 38.0226 380.261 38.8189 379.258C41.0161 382.074 35.7223 383.194 37.713 385.715C39.7774 383.548 37.713 380.644 40.5294 380.968C40.9866 381.013 41.5174 380.57 42.0188 380.379C43.1837 379.922 37.1231 377.416 38.1701 377.607C40.0281 377.961 41.4879 377.681 42.6823 376C44.5993 377.386 46.3983 378.374 48.507 376.325C48.7134 376.118 49.1558 376.177 49.4949 376.148C50.4829 376.089 51.4709 376.059 52.68 376C52.9749 376.133 53.845 376.767 54.0219 376.575C55.6587 374.806 56.4697 376.487 57.1775 377.121C58.9028 376.177 60.3331 375.411 61.8077 374.615C65.1845 375.425 61.3654 374.747 64.9044 375.588C65.2288 375.661 65.6417 375.661 65.9513 375.529C67.2047 374.983 68.4581 374.364 69.7115 373.76C69.6673 373.583 69.6231 373.42 69.5788 373.258C70.1244 373.479 70.67 373.686 71.1861 373.892C71.5548 373.052 71.8939 372.315 72.469 371.018C76.008 372.905 79.4291 374.688 82.8059 376.546C83.1893 376.767 83.381 377.371 83.6316 377.828C84.6933 379.73 78.8982 378.226 79.8567 376.354C80.3728 376.678 80.8889 377.003 81.405 377.312C81.405 377.533 81.346 377.828 81.464 377.976C82.452 379.332 83.4989 380.629 84.4721 381.986C85.2979 383.121 87.2444 382.958 88.3503 381.587C88.601 381.75 88.8664 381.912 89.1171 382.059C89.3088 382.428 89.4857 382.811 89.6774 383.18C90.5179 384.816 93.2312 385.126 92.3317 388.089C92.2874 388.251 94.057 389.445 94.4404 389.165C96.8882 387.381 98.348 389.519 100.147 390.27C100.353 390.359 100.486 390.742 100.575 391.008C101.12 392.614 95.856 393.307 96.7407 394.605C97.5222 395.74 99.4982 397.288 100.118 396.89C102.492 395.386 103.288 397.848 104.703 398.437C105.411 398.732 105.632 400.295 105.927 401.003C107.844 401.961 110.602 402.359 111.487 404.054C112.371 405.764 113.654 406.988 114.509 408.639C114.76 409.14 114.908 410.172 114.657 410.511C113.507 411.971 110.853 412.634 111.295 413.194C112.43 414.624 114.111 415.523 115.571 416.644C115.807 416.821 116.205 417.027 116.205 417.248C116.205 419.887 119.199 420.152 120.423 421.818C119.449 422.865 117.886 422.776 117.061 424.236C117.311 423.779 118.786 427.066 118.712 427.789C118.565 429.351 116.456 431.843 115.586 433.007C114.288 432.447 113.05 431.71 111.796 431.032C110.764 432.948 110.071 434.231 109.437 435.41C107.977 434.909 110.351 435.218 109.098 434.791C108.154 436.25 107.476 438.27 106.502 438.535C105.411 438.845 104.069 437.459 102.772 437.046C102.329 436.899 101.666 437.444 100.516 437.901C102.049 438.329 102.845 438.55 103.73 438.801C103.052 442.383 102.388 445.788 101.74 449.179C98.3628 448.781 97.7877 449.253 96.9324 452.894C95.7085 452.776 94.4698 452.643 93.2607 452.525C93.1575 452.717 93.0395 452.864 92.9952 453.012C91.9925 457.508 91.8746 457.39 88.2176 455.164C87.0969 454.486 85.4896 452.393 83.5874 455.135C82.7764 456.299 86.5071 458.009 85.062 456.742C84.6638 456.388 83.9413 456.226 83.3957 456.314C81.1101 456.638 79.7387 455.135 78.2199 453.764C77.3057 452.938 76.126 452.422 75.0938 451.788C74.3417 452.953 73.8109 453.749 73.2948 454.545C67.883 452.098 67.2932 451.464 67.8093 448C66.9098 448.619 66.261 449.061 65.6122 449.503C65.1698 449.798 64.521 450.447 64.344 450.329C62.2501 448.766 68.8858 452.702 67.6176 453.675C67.131 454.044 66.084 454.206 65.7154 453.882C63.2381 451.626 63.2676 451.582 60.7608 454.162C60.4953 454.442 60.2447 454.722 59.9645 455.017C59.6106 454.737 59.3894 454.56 59.1535 454.368C57.5019 452.982 55.8651 451.685 54.0809 454.604C53.8744 454.943 53.1519 455.076 52.6948 455.046C51.7953 455.002 50.9105 454.781 50.011 454.619C49.9668 454.781 49.9226 454.958 49.8783 455.135C49.2885 454.471 48.6986 453.808 48.3005 453.336C47.3273 454.059 46.4868 455.135 45.6905 455.149C44.5108 455.164 43.3311 454.486 42.2105 453.97C40.7211 453.292 39.3498 452.378 37.7277 454.162C37.4475 454.457 43.744 455.577 43.1394 455.312C42.3432 454.943 41.7091 454.162 40.8981 453.926C39.394 453.513 37.8162 453.351 35.5306 452.968C34.3951 453.027 32.2128 453.72 30.517 453.071C28.0544 452.127 26.1522 452.334 24.0435 454.589C22.8934 453.321 25.5476 452.614 24.2057 451.626C23.3357 450.992 25.1642 451.169 24.6776 451.685C22.8049 453.631 22.274 451.921 21.4778 450.801C20.9174 451.361 24.1025 452.629 23.8224 452.923C22.6574 452.437 25.4002 452.791 24.4417 452.452C23.8371 452.231 22.9671 452.378 22.5837 451.95C20.3718 449.518 24.0878 450.226 21.6547 452.717C21.2713 453.115 20.9174 453.572 20.534 453.985H20.5488Z" fill="#66870C"/>
<path fill-rule="evenodd" clip-rule="evenodd" d="M139.339 439.936C139.56 440.128 139.796 440.349 140.017 440.555C140.342 442.206 140.637 443.872 141.02 445.494C141.109 445.818 141.492 446.083 141.787 446.29C143.011 447.086 144.249 447.838 145.577 448.649C145.149 449.4 144.795 450.02 144.485 450.565C146.727 452.083 148.865 453.513 150.974 454.973C151.401 455.268 152.124 455.798 152.05 456.093C151.504 458.644 153.834 459.042 154.321 460.693C155.265 460.309 156.046 460 156.783 459.705C157.816 461.445 159.172 463.051 156.356 464.422C157.329 466 158.951 467.223 157.152 469.464C156.96 469.7 157.757 471.469 158.435 471.941C159.895 472.914 161.576 473.503 163.227 474.285C162.859 475.39 162.534 476.334 162.151 477.425C163.684 478.412 163.493 479.739 162.431 481.302C162.048 481.862 161.635 483.041 161.856 483.351C163.021 484.869 161.694 485.651 161.089 486.683C160.927 486.963 161.001 487.405 160.956 487.773C159.939 489.1 158.922 490.427 157.904 491.739C157.108 491.253 156.312 490.781 154.837 489.882C154.925 491.562 154.984 492.579 155.043 493.98C153.672 495.425 152.065 497.12 150.354 498.904C149.116 497.621 148.054 496.501 147.066 495.469C145.945 497.768 144.883 499.936 143.822 502.088C141.63 501.94 139.747 502.948 138.174 505.11C137.953 505.42 137.584 505.67 137.26 505.818C135.756 506.481 134.252 507.1 132.467 507.852C132.394 508.073 132.173 508.766 131.878 509.665C130.285 509.134 128.855 508.56 127.365 508.191C126.746 508.044 125.625 508.029 125.389 508.412C123.782 511.066 122.499 510.343 121.143 508.501C120.833 508.073 120.361 507.822 119.948 507.483C118.827 508.442 117.795 509.326 116.984 510.034C115.067 509.768 113.372 509.533 111.425 509.267C111.189 509.474 110.658 509.945 109.729 510.786C108.034 507.557 113.357 507.469 111.838 504.565C109.493 506.334 111.027 509.621 108.343 508.751C107.901 508.619 107.326 508.958 106.795 509.061C105.571 509.297 111.086 512.967 110.098 512.569C108.343 511.862 106.883 511.847 105.468 513.292C103.816 511.537 102.224 510.196 99.8496 511.847C99.6136 512.009 99.186 511.876 98.8616 511.832C97.8884 511.7 96.9151 511.537 95.7355 511.36C95.4848 511.169 94.718 510.388 94.5263 510.52C92.6536 511.965 92.1227 510.137 91.5476 509.356C89.7191 509.96 88.2151 510.432 86.6372 510.948C83.4816 509.488 87.0944 510.903 83.7913 509.385C83.4816 509.238 83.0983 509.164 82.7591 509.238C81.4467 509.547 80.1343 509.916 78.8219 510.27C78.8367 510.447 78.8514 510.623 78.8662 510.786C78.3796 510.461 77.8782 510.137 77.4063 509.827C76.9197 510.594 76.4773 511.257 75.7106 512.437C72.5697 509.872 69.5173 507.424 66.5239 504.918C66.1847 504.638 66.0962 503.975 65.9193 503.488C65.182 501.38 70.5937 504.004 69.3551 505.7C68.898 505.272 68.4556 504.859 67.9985 504.447C68.028 504.225 68.1312 503.931 68.0575 503.768C67.3054 502.235 66.4944 500.732 65.7571 499.184C65.1378 497.886 63.2208 497.68 61.9232 498.815C61.702 498.609 61.4808 498.402 61.2449 498.196C61.1269 497.783 61.0089 497.385 60.8762 496.972C60.3159 495.174 57.7353 494.348 59.0772 491.562C59.1509 491.415 57.6026 489.882 57.1897 490.088C54.5355 491.385 53.4443 488.982 51.8222 487.877C51.6305 487.744 51.5716 487.346 51.5126 487.051C51.2324 485.341 56.4819 485.665 55.8184 484.206C55.2285 482.909 53.5475 481.007 52.8839 481.272C50.3329 482.304 49.9495 479.71 48.6519 478.84C48.0031 478.412 48.0473 476.806 47.8556 476.039C46.1451 474.712 43.5203 473.783 42.9305 471.926C42.3406 470.054 41.2789 468.58 40.7186 466.781C40.5564 466.221 40.5564 465.174 40.8808 464.894C42.2374 463.671 44.9212 463.523 44.5673 462.874C43.6825 461.223 42.1932 460 40.9545 458.599C40.7628 458.378 40.3942 458.098 40.4384 457.877C40.8661 455.253 37.9906 454.398 37.0469 452.496C38.1676 451.641 39.6716 452.024 40.7039 450.742C40.3794 451.14 39.4652 447.587 39.6569 446.865C40.055 445.332 42.5028 443.253 43.5203 442.28C44.7 443.076 45.7764 444.064 46.8971 444.993C48.2095 443.283 49.0943 442.147 49.8905 441.101C51.2324 441.882 48.9763 441.101 50.1117 441.779C51.2619 440.511 52.2351 438.624 53.2379 438.55C54.3438 438.447 55.4202 440.084 56.6146 440.776C57.0275 440.998 57.7501 440.599 58.9593 440.349C57.5437 439.627 56.7916 439.243 55.9658 438.83C57.2045 435.41 58.3694 432.138 59.5343 428.88C62.7489 429.926 63.3978 429.573 64.7839 426.123C65.9635 426.477 67.1432 426.845 68.3081 427.199C68.4409 427.022 68.5736 426.919 68.6473 426.757C70.3431 422.482 70.4315 422.6 73.6314 425.533C74.6046 426.418 75.8433 428.821 78.1289 426.462C79.1021 425.46 75.7401 423.012 76.9492 424.575C77.2884 425.017 77.9519 425.312 78.4975 425.327C80.7684 425.445 81.8596 427.229 83.1277 428.88C83.8945 429.897 84.9562 430.619 85.8557 431.474C86.77 430.472 87.4188 429.749 88.0381 429.071C92.919 432.55 93.3909 433.317 92.3439 436.663C93.3171 436.221 94.0102 435.897 94.7032 435.587C95.1751 435.381 95.9124 434.85 96.0599 435.027C97.8589 436.988 92.0195 431.769 93.4056 431.047C93.9217 430.781 94.9834 430.826 95.2783 431.209C97.3428 433.936 97.2985 433.98 100.144 431.887C100.439 431.666 100.734 431.43 101.044 431.194C101.339 431.548 101.545 431.769 101.722 431.99C103.123 433.686 104.495 435.292 106.706 432.742C106.957 432.432 107.68 432.447 108.137 432.565C109.007 432.786 109.833 433.199 110.673 433.523C110.747 433.361 110.82 433.214 110.894 433.052C111.366 433.833 111.823 434.6 112.148 435.145C113.195 434.629 114.197 433.7 114.979 433.848C116.129 434.054 117.161 434.968 118.179 435.705C119.521 436.678 120.715 437.857 122.573 436.383C122.883 436.133 116.94 433.789 117.486 434.187C118.193 434.717 118.695 435.617 119.462 436C120.848 436.722 122.367 437.179 124.519 438.005C125.625 438.182 127.867 437.887 129.415 438.875C131.656 440.29 133.544 440.452 135.947 438.624C136.862 440.113 134.178 440.305 135.313 441.543C136.051 442.354 134.311 441.808 134.871 441.396C136.994 439.818 137.245 441.617 137.85 442.899C138.484 442.457 135.579 440.57 135.918 440.334C136.98 441.027 134.355 440.157 135.24 440.688C135.8 441.027 136.655 441.042 136.965 441.543C138.734 444.403 135.24 442.973 137.982 440.953C138.425 440.629 138.838 440.246 139.265 439.907L139.339 439.936Z" fill="#8EAD1C"/>
<path fill-rule="evenodd" clip-rule="evenodd" d="M34.6725 547.242C34.466 547.035 34.2596 546.8 34.0531 546.593C33.9352 544.986 33.8614 543.365 33.6845 541.773C33.655 541.448 33.2863 541.153 33.0062 540.947C31.8412 540.077 30.6616 539.237 29.4082 538.338C29.9538 537.66 30.3962 537.099 30.7943 536.598C28.6856 534.947 26.6802 533.384 24.6895 531.792C24.2914 531.468 23.613 530.893 23.7163 530.628C24.6305 528.225 22.2564 527.635 21.991 526.013C20.9588 526.294 20.1183 526.515 19.322 526.721C18.4962 524.967 17.2871 523.301 20.3837 522.24C19.6022 520.647 18.0833 519.321 20.251 517.345C20.4869 517.124 19.9118 515.37 19.263 514.869C17.8917 513.792 16.2254 513.085 14.6328 512.186C15.1784 511.154 15.6208 510.299 16.1664 509.281C14.7213 508.191 15.0899 506.952 16.4023 505.537C16.8742 505.036 17.4788 503.945 17.2723 503.635C16.2844 502.073 17.7442 501.454 18.511 500.525C18.7174 500.274 18.7027 499.847 18.7911 499.508C20.0151 498.328 21.2537 497.164 22.4776 495.984C23.2444 496.515 23.9964 497.046 25.3973 498.033C25.53 496.412 25.6185 495.439 25.7365 494.112C27.3585 492.844 29.246 491.37 31.2514 489.822C32.3573 491.164 33.3011 492.328 34.1858 493.404C35.6604 491.311 37.0465 489.336 38.4179 487.375C40.6691 487.709 42.7532 486.913 44.6702 484.987C44.9503 484.721 45.3485 484.5 45.7171 484.397C47.3539 483.896 49.0055 483.439 50.9372 482.893C51.0404 482.687 51.3648 482.053 51.7924 481.213C53.3555 481.862 54.7711 482.54 56.2604 483.026C56.8797 483.233 58.0447 483.336 58.3396 482.982C60.3598 480.594 61.5837 481.39 62.7339 483.292C62.9845 483.719 63.4564 483.999 63.825 484.368C65.1227 483.542 66.2876 482.805 67.2313 482.201C69.1778 482.628 70.8883 482.997 72.879 483.439C73.1592 483.262 73.7638 482.849 74.8402 482.142C76.1526 485.385 70.6524 484.987 71.8321 487.891C74.5011 486.417 73.3509 483.129 76.0051 484.205C76.4328 484.382 77.0816 484.102 77.6419 484.058C78.9248 483.94 73.7343 479.93 74.6928 480.402C76.418 481.242 77.9221 481.375 79.5884 480.137C81.063 481.965 82.5081 483.38 85.1771 482.024C85.4425 481.891 85.8554 482.053 86.1945 482.127C87.1825 482.348 88.1705 482.584 89.3502 482.864C89.6008 483.056 90.2644 483.896 90.4856 483.763C92.6237 482.554 92.9187 484.353 93.4053 485.134C95.3812 484.736 97.0033 484.397 98.6843 484.043C101.751 485.739 98.1977 484.058 101.412 485.798C101.707 485.96 102.105 486.078 102.459 486.033C103.86 485.871 105.261 485.635 106.662 485.414C106.662 485.252 106.662 485.09 106.677 484.913C107.148 485.267 107.62 485.621 108.063 485.96C108.667 485.282 109.228 484.662 110.171 483.616C113.076 486.343 115.893 488.967 118.65 491.635C118.96 491.945 118.975 492.579 119.078 493.065C119.55 495.144 114.315 492.151 115.819 490.648C116.232 491.09 116.63 491.532 117.043 491.974C116.984 492.181 116.836 492.446 116.895 492.608C117.471 494.156 118.105 495.66 118.65 497.208C119.122 498.505 121.083 498.874 122.558 497.915C122.764 498.122 122.971 498.343 123.177 498.564C123.251 498.977 123.325 499.375 123.398 499.773C123.738 501.542 126.303 502.559 124.534 505.109C124.445 505.242 125.831 506.849 126.274 506.702C129.208 505.699 130.005 508.087 131.523 509.311C131.7 509.444 131.715 509.842 131.73 510.122C131.789 511.773 126.421 510.991 126.908 512.451C127.336 513.733 128.81 515.709 129.547 515.517C132.32 514.765 132.364 517.286 133.588 518.23C134.192 518.701 133.942 520.235 134.03 520.972C135.623 522.402 138.203 523.537 138.572 525.35C138.911 527.208 139.825 528.711 140.15 530.48C140.253 531.026 140.091 532.028 139.737 532.264C138.174 533.311 135.387 533.222 135.667 533.871C136.36 535.522 137.731 536.819 138.808 538.279C138.985 538.515 139.324 538.824 139.25 539.016C138.454 541.478 141.315 542.554 142.022 544.47C140.754 545.178 139.25 544.677 137.997 545.812C138.38 545.458 138.837 548.937 138.557 549.6C137.938 551.03 135.136 552.785 133.956 553.625C132.836 552.755 131.863 551.723 130.83 550.736C129.238 552.254 128.176 553.271 127.218 554.185C125.935 553.315 128.161 554.259 127.07 553.507C125.713 554.613 124.445 556.323 123.398 556.308C122.233 556.308 121.349 554.642 120.199 553.876C119.8 553.625 119.004 553.949 117.736 554.067C119.107 554.878 119.83 555.32 120.611 555.792C118.871 558.962 117.22 561.969 115.568 564.976C112.383 563.694 111.675 563.959 109.773 567.143C108.608 566.701 107.429 566.244 106.278 565.802C106.101 565.964 105.954 566.052 105.88 566.2C103.55 570.136 103.477 570.003 100.557 566.907C99.6723 565.964 98.7285 563.561 96.0301 565.625C94.8946 566.495 98.0355 569.133 97.0033 567.527C96.7231 567.084 96.0595 566.745 95.4992 566.672C93.1546 566.362 92.2846 564.563 91.1934 562.853C90.5298 561.821 89.5419 561.025 88.7161 560.126C87.6396 561.011 86.8729 561.63 86.1356 562.219C81.5643 558.446 81.1809 557.679 82.7145 554.568C81.6528 554.893 80.886 555.158 80.134 555.379C79.6326 555.541 78.7774 555.969 78.6447 555.807C77.0521 553.772 82.3754 559.286 80.8565 559.846C80.2814 560.052 79.1902 559.92 78.9396 559.522C77.1848 556.736 77.2291 556.691 73.9997 558.431C73.6606 558.608 73.3362 558.814 72.9675 559.021C72.7021 558.667 72.5399 558.431 72.3777 558.195C71.1537 556.441 69.9593 554.775 67.3346 557.03C67.0249 557.296 66.2876 557.222 65.8305 557.075C64.9605 556.78 64.1642 556.323 63.3384 555.939C63.2352 556.087 63.1467 556.22 63.0583 556.367C62.6749 555.586 62.3062 554.804 62.0408 554.259C60.8906 554.657 59.7404 555.453 58.9442 555.247C57.7792 554.937 56.8355 553.979 55.9065 553.183C54.6531 552.136 53.5767 550.898 51.4533 552.136C51.0994 552.342 56.924 555.129 56.4226 554.701C55.7591 554.141 55.3609 553.227 54.6384 552.799C53.2965 551.989 51.7924 551.414 49.669 550.426C48.5483 550.175 46.189 550.234 44.7291 549.158C42.6057 547.596 40.674 547.271 37.946 548.819C37.194 547.315 39.9957 547.374 38.9782 546.092C38.3147 545.252 40.0547 545.93 39.4206 546.269C37.017 547.581 37.0023 545.841 36.5599 544.559C35.8374 544.927 38.5801 546.991 38.2115 547.183C37.2087 546.416 39.7893 547.492 38.9488 546.917C38.4179 546.549 37.5331 546.446 37.2972 545.944C35.8521 543.055 39.2732 544.736 36.1618 546.416C35.6604 546.682 35.1738 547.006 34.6872 547.301L34.6725 547.242Z" fill="#56A00E"/>
<path fill-rule="evenodd" clip-rule="evenodd" d="M202.614 521.739C202.776 521.989 202.953 522.24 203.115 522.476C202.982 524.083 202.806 525.689 202.747 527.296C202.732 527.621 203.056 527.96 203.307 528.21C204.31 529.257 205.357 530.245 206.463 531.336C205.828 531.925 205.298 532.412 204.826 532.839C206.654 534.8 208.409 536.643 210.119 538.53C210.473 538.913 211.048 539.576 210.901 539.842C209.633 542.053 211.874 543.011 211.889 544.662C212.951 544.544 213.821 544.456 214.646 544.367C215.192 546.225 216.121 548.053 212.892 548.613C213.423 550.323 214.72 551.856 212.272 553.478C211.992 553.655 212.302 555.483 212.877 556.087C214.071 557.355 215.59 558.313 217.05 559.448C216.357 560.377 215.767 561.173 215.089 562.087C216.357 563.384 215.797 564.564 214.278 565.743C213.732 566.171 212.98 567.158 213.128 567.497C213.865 569.193 212.317 569.576 211.417 570.387C211.166 570.608 211.107 571.035 210.975 571.345C209.574 572.318 208.188 573.291 206.787 574.264C206.123 573.615 205.445 572.967 204.206 571.787C203.823 573.365 203.602 574.308 203.277 575.62C201.478 576.608 199.384 577.787 197.158 579.011C196.273 577.507 195.521 576.21 194.813 575.031C193.044 576.873 191.363 578.598 189.696 580.338C187.524 579.659 185.341 580.126 183.149 581.738C182.825 581.959 182.397 582.107 182.029 582.166C180.333 582.401 178.637 582.608 176.632 582.858C176.499 583.05 176.086 583.625 175.526 584.377C174.066 583.492 172.783 582.608 171.397 581.9C170.807 581.605 169.686 581.311 169.347 581.62C166.973 583.669 165.897 582.696 165.056 580.647C164.864 580.19 164.452 579.822 164.142 579.409C162.741 580.028 161.458 580.573 160.426 581.03C158.583 580.308 156.946 579.674 155.044 578.937C154.749 579.07 154.085 579.379 152.905 579.925C152.109 576.505 157.491 577.758 156.769 574.706C153.908 575.753 154.542 579.173 152.08 577.714C151.682 577.478 150.989 577.64 150.443 577.61C149.16 577.522 153.672 582.284 152.788 581.679C151.224 580.588 149.75 580.22 147.907 581.193C146.727 579.158 145.518 577.537 142.672 578.465C142.392 578.554 142.008 578.333 141.684 578.2C140.74 577.846 139.811 577.448 138.676 576.991C138.469 576.755 137.924 575.827 137.688 575.915C135.402 576.8 135.373 574.957 135.019 574.117C133.013 574.205 131.362 574.293 129.637 574.367C126.879 572.23 130.108 574.426 127.203 572.215C126.938 572.008 126.569 571.832 126.215 571.817C124.8 571.773 123.384 571.787 121.969 571.787C121.924 571.949 121.895 572.126 121.88 572.289C121.467 571.861 121.054 571.448 120.671 571.05C119.963 571.625 119.329 572.141 118.223 573.04C115.775 569.9 113.387 566.878 111.071 563.797C110.806 563.458 110.909 562.824 110.865 562.323C110.703 560.2 115.421 563.959 113.696 565.212C113.357 564.711 113.033 564.21 112.679 563.724C112.767 563.517 112.959 563.281 112.929 563.104C112.605 561.497 112.207 559.905 111.897 558.299C111.632 556.957 109.759 556.279 108.137 557.001C107.975 556.751 107.813 556.5 107.636 556.264C107.636 555.851 107.636 555.439 107.606 555.041C107.547 553.257 105.173 551.842 107.311 549.601C107.429 549.483 106.309 547.684 105.837 547.773C102.784 548.304 102.371 545.827 101.059 544.382C100.897 544.22 100.956 543.837 100.985 543.557C101.177 541.906 106.367 543.512 106.102 541.994C105.881 540.652 104.731 538.471 103.979 538.559C101.118 538.883 101.472 536.377 100.41 535.257C99.8941 534.697 100.366 533.223 100.41 532.471C99.0535 530.82 96.6795 529.301 96.6057 527.444C96.532 525.572 95.8832 523.935 95.8242 522.137C95.8242 521.576 96.1191 520.604 96.5173 520.427C98.213 519.631 100.971 520.161 100.794 519.468C100.366 517.729 99.2157 516.225 98.3605 514.633C98.2278 514.368 97.9329 514.029 98.0361 513.837C99.201 511.523 96.5468 510.019 96.1339 508.029C97.5052 507.513 98.9061 508.25 100.307 507.321C99.8646 507.616 99.9531 504.093 100.336 503.488C101.162 502.176 104.2 500.864 105.512 500.215C106.471 501.247 107.282 502.412 108.152 503.562C109.951 502.309 111.16 501.469 112.251 500.702C113.372 501.763 111.322 500.481 112.281 501.38C113.799 500.496 115.304 499.007 116.336 499.169C117.486 499.36 118.105 501.129 119.123 502.058C119.477 502.368 120.317 502.176 121.585 502.25C120.361 501.233 119.713 500.702 119.005 500.112C121.202 497.238 123.311 494.525 125.404 491.813C128.339 493.582 129.091 493.405 131.465 490.56C132.556 491.193 133.633 491.827 134.709 492.432C134.901 492.314 135.063 492.24 135.166 492.107C138.086 488.569 138.13 488.702 140.534 492.225C141.271 493.287 141.846 495.808 144.81 494.201C146.078 493.508 143.365 490.427 144.146 492.166C144.368 492.653 144.957 493.095 145.503 493.257C147.759 493.935 148.364 495.852 149.175 497.68C149.661 498.8 150.517 499.744 151.21 500.746C152.404 500.053 153.259 499.552 154.07 499.08C158.008 503.503 158.258 504.328 156.282 507.159C157.388 506.982 158.17 506.864 158.966 506.761C159.497 506.687 160.396 506.392 160.5 506.569C161.768 508.825 157.344 502.559 158.951 502.235C159.556 502.102 160.603 502.412 160.795 502.854C162.107 505.876 162.048 505.906 165.513 504.697C165.882 504.579 166.236 504.432 166.619 504.284C166.811 504.668 166.944 504.933 167.076 505.198C168.005 507.115 168.949 508.943 171.883 507.129C172.237 506.908 172.96 507.1 173.358 507.321C174.169 507.749 174.892 508.309 175.658 508.839C175.776 508.707 175.894 508.574 176.012 508.456C176.263 509.282 176.514 510.122 176.691 510.697C177.9 510.476 179.153 509.871 179.89 510.196C180.996 510.682 181.778 511.773 182.589 512.702C183.665 513.94 184.535 515.326 186.821 514.427C187.204 514.265 181.866 510.638 182.309 511.139C182.884 511.788 183.135 512.746 183.783 513.306C184.993 514.309 186.379 515.105 188.325 516.417C189.402 516.844 191.731 517.154 193.014 518.436C194.872 520.309 196.73 520.928 199.665 519.822C200.166 521.429 197.409 520.943 198.205 522.358C198.736 523.287 197.128 522.358 197.792 522.122C200.372 521.208 200.122 522.918 200.372 524.259C201.139 523.994 198.75 521.532 199.134 521.414C200.004 522.328 197.615 520.869 198.352 521.562C198.809 522.004 199.679 522.24 199.856 522.785C200.83 525.866 197.703 523.67 201.051 522.49C201.582 522.299 202.112 522.048 202.643 521.842L202.614 521.739Z" fill="#087767"/>
<path fill-rule="evenodd" clip-rule="evenodd" d="M-36.9918 549.557C-37.2572 549.395 -37.5079 549.233 -37.7586 549.085C-38.3484 547.538 -38.894 545.99 -39.5428 544.471C-39.6755 544.162 -40.1031 543.985 -40.4423 543.852C-41.7842 543.321 -43.1555 542.835 -44.5859 542.289C-44.2762 541.479 -44.0403 540.8 -43.8044 540.196C-46.2817 539.164 -48.6263 538.191 -50.9561 537.174C-51.428 536.968 -52.2243 536.599 -52.2243 536.304C-52.0768 533.71 -54.4656 533.783 -55.2177 532.265C-56.1024 532.81 -56.825 533.267 -57.518 533.695C-58.8157 532.206 -60.4377 530.909 -57.8424 529.022C-59.0663 527.665 -60.8801 526.796 -59.435 524.275C-59.2728 523.995 -60.3492 522.432 -61.116 522.123C-62.7233 521.444 -64.4928 521.209 -66.2623 520.781C-66.0559 519.631 -65.8937 518.658 -65.6872 517.508C-67.3683 516.845 -67.3978 515.518 -66.572 513.779C-66.2771 513.159 -66.0559 511.921 -66.3213 511.671C-67.7222 510.417 -66.5278 509.4 -66.0854 508.28C-65.9674 507.97 -66.1001 507.558 -66.1296 507.204C-65.3333 505.715 -64.5223 504.226 -63.726 502.752C-62.856 503.061 -61.9713 503.371 -60.364 503.946C-60.7179 502.324 -60.9391 501.351 -61.2192 500.01C-60.0838 498.329 -58.7419 496.383 -57.3263 494.29C-55.8812 495.307 -54.6573 496.177 -53.5072 496.988C-52.7551 494.526 -52.0326 492.226 -51.3248 489.926C-49.1129 489.631 -47.3974 488.28 -46.1784 485.872C-46.0015 485.533 -45.6771 485.209 -45.3674 485.002C-43.9813 484.059 -42.5657 483.16 -40.9289 482.098C-40.8847 481.862 -40.7667 481.17 -40.6193 480.226C-38.953 480.432 -37.4194 480.713 -35.8858 480.786C-35.237 480.816 -34.1311 480.609 -33.9541 480.182C-32.7745 477.278 -31.3736 477.735 -29.7368 479.268C-29.3682 479.622 -28.8373 479.769 -28.3802 480.02C-27.4217 478.87 -26.5369 477.808 -25.8291 476.968C-23.8827 476.85 -22.1574 476.747 -20.1815 476.629C-19.975 476.378 -19.5327 475.818 -18.7364 474.816C-16.5392 477.632 -21.8183 478.752 -19.8423 481.273C-17.7779 479.106 -19.8423 476.202 -17.0258 476.526C-16.5687 476.585 -16.0379 476.128 -15.5365 475.936C-14.3568 475.479 -20.4321 472.958 -19.3852 473.165C-17.5272 473.519 -16.0674 473.224 -14.873 471.558C-12.956 472.944 -11.157 473.946 -9.04834 471.867C-8.84189 471.661 -8.39951 471.72 -8.06035 471.691C-7.07238 471.632 -6.08441 471.587 -4.87525 471.543C-4.58033 471.676 -3.71032 472.31 -3.53337 472.118C-1.89658 470.334 -1.07081 472.03 -0.377754 472.663C1.34751 471.735 2.76311 470.968 4.25245 470.157C7.62926 470.968 3.79533 470.29 7.33434 471.13C7.65874 471.204 8.07162 471.204 8.38129 471.071C9.63469 470.526 10.8881 469.907 12.1415 469.317C12.0973 469.14 12.053 468.978 12.0088 468.816C12.5544 469.037 13.1 469.243 13.6161 469.45C13.9847 468.609 14.3239 467.872 14.899 466.59C18.438 468.462 21.859 470.261 25.2506 472.118C25.634 472.324 25.8257 472.944 26.0763 473.401C27.138 475.302 21.3282 473.813 22.3014 471.926C22.8175 472.251 23.3336 472.56 23.8497 472.885C23.8645 473.106 23.8055 473.415 23.9087 473.548C24.9114 474.904 25.9436 476.202 26.9316 477.558C27.7426 478.693 29.7038 478.531 30.8098 477.175C31.0752 477.337 31.3259 477.484 31.5913 477.646C31.783 478.015 31.96 478.398 32.1516 478.767C32.9922 480.403 35.7054 480.713 34.8059 483.676C34.7617 483.838 36.5312 485.032 36.9146 484.752C39.3624 482.968 40.8222 485.091 42.6065 485.857C42.8129 485.946 42.9456 486.329 43.0341 486.595C43.5797 488.187 38.3154 488.909 39.2002 490.192C39.9817 491.341 41.9577 492.875 42.577 492.477C44.9658 490.973 45.7474 493.435 47.1777 494.025C47.8855 494.305 48.1067 495.882 48.4164 496.59C50.3333 497.533 53.0908 497.931 53.9755 499.626C54.8603 501.336 56.1579 502.56 56.9837 504.211C57.2344 504.712 57.3966 505.744 57.1312 506.083C55.981 507.543 53.3267 508.221 53.7838 508.781C54.9193 510.211 56.6003 511.11 58.0602 512.231C58.2961 512.408 58.6942 512.614 58.6942 512.835C58.6942 515.459 61.6876 515.739 62.9115 517.405C61.9383 518.467 60.3753 518.363 59.5495 519.823C59.8002 519.366 61.2747 522.653 61.201 523.39C61.0536 524.953 58.9449 527.444 58.0749 528.609C56.7773 528.049 55.5386 527.312 54.2852 526.619C53.2382 528.55 52.5599 529.818 51.9259 530.997C50.466 530.496 52.8401 530.806 51.5867 530.378C50.643 531.837 49.9647 533.857 48.9914 534.137C47.9002 534.447 46.5584 533.061 45.2607 532.633C44.8184 532.501 44.1548 533.032 42.9899 533.503C44.5234 533.931 45.3197 534.152 46.2045 534.402C45.5114 537.97 44.8626 541.375 44.2138 544.781C40.8517 544.383 40.2619 544.854 39.4214 548.496C38.1827 548.378 36.9588 548.26 35.7349 548.142C35.6317 548.334 35.5137 548.481 35.4695 548.628C34.452 553.125 34.3488 553.022 30.7066 550.781C29.6006 550.103 27.9786 548.009 26.0763 550.766C25.2653 551.931 28.996 553.641 27.5657 552.373C27.1675 552.004 26.445 551.857 25.8994 551.931C23.6138 552.255 22.2424 550.751 20.7236 549.38C19.8093 548.555 18.6444 548.039 17.5975 547.39C16.8454 548.555 16.3146 549.366 15.8132 550.147C10.4015 547.714 9.81165 547.066 10.313 543.601C9.41351 544.221 8.77943 544.663 8.13062 545.105C7.70298 545.4 7.03942 546.049 6.86246 545.931C4.75381 544.368 11.3895 548.304 10.1361 549.277C9.64944 549.646 8.60248 549.808 8.23383 549.483C5.75652 547.228 5.78602 547.184 3.27922 549.764C3.01379 550.044 2.76311 550.324 2.48294 550.619C2.12904 550.338 1.90786 550.162 1.67192 549.97C0.0203857 548.584 -1.61642 547.287 -3.41541 550.206C-3.62185 550.545 -4.34439 550.678 -4.80152 550.663C-5.70102 550.619 -6.58577 550.383 -7.48526 550.221C-7.5295 550.397 -7.57375 550.56 -7.61798 550.722C-8.20782 550.058 -8.78291 549.395 -9.19579 548.923C-10.169 549.631 -11.0095 550.722 -11.8058 550.737C-12.9855 550.737 -14.1504 550.073 -15.2711 549.557C-16.7604 548.864 -18.1318 547.965 -19.7538 549.749C-20.034 550.058 -13.7228 551.179 -14.3421 550.899C-15.1384 550.53 -15.7725 549.749 -16.5835 549.528C-18.0876 549.1 -19.6654 548.953 -21.951 548.555C-23.0864 548.614 -25.2688 549.321 -26.9646 548.658C-29.4271 547.714 -31.3293 547.921 -33.438 550.176C-34.5882 548.909 -31.9339 548.201 -33.2758 547.213C-34.1458 546.565 -32.3173 546.756 -32.8039 547.272C-34.6767 549.218 -35.2075 547.523 -36.0038 546.388C-36.5641 546.948 -33.379 548.216 -33.6592 548.51C-34.8241 548.024 -32.0814 548.378 -33.0399 548.039C-33.6445 547.818 -34.5145 547.965 -34.8979 547.538C-37.1097 545.105 -33.3938 545.827 -35.8268 548.319C-36.225 548.717 -36.5789 549.159 -36.9475 549.587L-36.9918 549.557Z" fill="#AFCC37"/>
</g>
<path d="M412.201 99.8571C399.196 100.019 386.308 100.108 373.14 100.417C328.15 101.464 283.16 98.1471 238.185 100.388C220.313 101.272 215.093 111.606 203.872 124.83C199.964 129.444 188.831 138.849 193.063 144.746C197.103 150.348 214.843 149.419 220.77 149.729C227.052 150.068 236.622 153.09 242.771 151.395C223.071 156.805 216.715 177.046 201.704 187.792C195.172 192.466 190.645 192.819 183.64 195.665C176.518 198.554 175.132 204.642 172.832 212.117C170.207 220.667 168.659 230.824 169.705 239.787C171.372 253.954 177.771 253.807 189.701 253.718C224.103 253.468 258.52 254.087 292.922 253.718C320.069 253.423 348.204 254.44 375.233 252.052C395.804 250.239 416.773 251.463 437.491 251.212C450.836 251.05 459.049 249.06 460.111 234.627C461.217 219.635 459.477 203.758 460.465 189.296C461.467 174.687 459.904 160.432 459.197 145.631C458.651 134.442 462.455 120.894 456.763 110.53C450.334 98.8399 434.232 99.4738 423.261 99.6655C419.545 99.7244 415.858 99.7834 412.172 99.8276L412.201 99.8571Z" fill="#F0F0F0"/>
<path d="M263.104 153.664C266.54 155.035 265.67 162.716 265.537 165.605C265.272 171.369 265.685 177.251 264.947 182.956C264.534 186.096 225.605 186.48 221.432 186.362C219.869 186.318 205.418 185.787 205.094 186.362C207.306 182.308 211.317 179.448 214.207 175.969C216.935 172.681 219.604 169.247 222.464 166.062C228.304 159.561 235.057 155.802 243.61 155.153C247.99 154.829 252.34 154.195 256.704 153.856C258.784 153.694 261.438 152.971 263.104 153.635V153.664Z" fill="#AFAFAF"/>
<path d="M238.152 151.145C244.906 148.933 254.034 149.508 261.126 148.801C270.991 147.813 272.201 160.432 272.496 168.039C273.085 183.164 273.513 198.304 273.13 213.429C272.79 226.992 272.392 240.775 271.154 254.294" stroke="#919191" stroke-width="0.55" stroke-linecap="round" stroke-linejoin="round"/>
<path d="M177.37 202.165C181.455 201.973 185.775 199.806 189.476 198.465C189.948 205.821 189.373 210.406 183.666 214.961C180.585 217.423 177.532 220.032 174.229 222.17C171.398 223.998 170.13 225.546 169.481 222.052C168.493 216.818 173.374 205.968 176.972 202.578" fill="#FFDB06"/>
<path d="M412.14 233.713H398.102L413.703 200.16H427.726L412.14 233.713Z" fill="#575A5B"/>
<path d="M429.288 216.377H415.25L430.851 182.824H444.874L429.288 216.377Z" fill="#FFBA7B"/>
<path d="M179.464 257.492C173.286 255.605 168.685 245.05 166.812 239.242C173.05 238.858 178.963 238.755 185.245 238.755C193.724 238.755 202.38 239.183 210.814 238.652C210.505 238.667 215.887 231.193 216.845 230.485C222.419 226.357 228.952 224.514 235.499 226.578C238.227 227.433 240.704 228.849 242.68 231.06C243.24 231.679 247.251 239.153 246.617 239.212C290.737 234.878 335.682 238.475 380.082 235.88C379.566 235.91 383.857 230.146 384.314 229.718C389.46 224.868 397.158 223.674 403.734 225.222C407.686 226.151 410.503 231.104 413.349 233.772C417.537 237.694 420.132 236.234 425.514 235.718C432.238 235.07 438.903 233.728 445.657 233.404C451.069 233.138 456.879 231.561 462.261 232.564C462.91 232.681 460.329 241.659 459.975 242.441C458.456 245.905 455.419 248.293 451.983 249.296C440.186 252.73 425.485 252.612 413.172 252.612C396.597 252.612 379.625 252.76 363.036 253.703C322.47 256.018 281.314 254.706 240.822 258.126C225.236 259.438 209.841 260.072 194.181 259.261C189.462 259.025 184.036 258.863 179.494 257.477L179.464 257.492Z" fill="#FFBA7B"/>
<path d="M245.541 260.279C249.493 248.588 243.344 227.508 229.232 227.625C215.474 227.743 207.378 250.21 212.613 262.195C219.057 276.937 240.291 275.743 245.541 260.279Z" fill="#252A2D"/>
<path d="M413.792 260.116C418.039 245.595 411.447 224.087 395.242 227.359C375.231 231.399 374.804 265.865 393.959 271.791C404.708 275.123 411.226 268.902 413.792 260.116Z" fill="#252A2D"/>
<path d="M206.449 184.976C217.818 185.153 227.226 186.392 238.684 185.404C246.499 184.74 256.438 182.839 264.268 183.222C264.15 172.947 264.091 164.854 264.091 154.195" stroke="#969696" stroke-width="1.65" stroke-linecap="round" stroke-linejoin="round"/>
<path d="M250.097 107.773C249.404 106.579 248.431 106.889 245.644 107.021C240.04 107.287 233.301 107.67 227.949 109.572C221.77 111.768 217.627 116.663 214.176 122.309C211.522 126.658 212.377 128.854 217.066 129.046C225.914 129.4 235.41 128.898 244.258 128.545C248.136 128.382 249.286 128.441 250.525 124.697C251.837 120.702 251.984 114.009 250.878 109.97C250.598 108.953 250.377 108.26 250.097 107.788V107.773Z" fill="#AFAFAF"/>
<path d="M296.799 153.518C292.641 153.784 288.468 153.43 284.457 155.081C280.107 156.865 281.243 163.528 281.051 167.331C280.874 171.164 280.889 177.577 285.814 177.872C294.042 178.358 302.329 177.769 310.498 176.722C316.279 175.985 316.751 172.845 316.456 166.933C316.235 162.422 317.458 153.872 311.457 153.046C306.753 152.413 302.256 153.061 297.581 153.474C297.316 153.503 297.05 153.518 296.799 153.533V153.518Z" fill="#AFAFAF"/>
<path d="M402.91 147.208C394.874 147.429 386.823 147.105 378.816 147.975C375.114 148.373 368.862 147.695 365.957 150.702C362.846 153.93 364.011 161.095 363.686 165.178C363.436 168.422 363.509 176.191 366.341 178.299C368.405 179.832 373.758 179.788 376.279 179.876C380.644 180.023 384.994 179.522 389.359 179.566C405.476 179.743 421.579 179.168 437.666 178.21C441.397 177.989 446.543 179.139 450.082 178.033C453.857 176.854 453.061 172.255 452.987 168.864C452.899 165.06 452.884 161.124 452.973 157.291C453.032 154.785 453.076 151.454 451.542 149.36C450.082 147.385 448.873 147.724 446.676 147.473C440.674 146.781 434.879 146.5 428.819 146.456C420.827 146.397 412.849 146.869 404.871 147.164C404.208 147.193 403.559 147.208 402.896 147.223L402.91 147.208Z" fill="#AFAFAF"/>
<path d="M330.64 235.438C330.64 226.917 329.991 219.428 329.519 210.804C329.121 203.757 328.929 196.696 328.944 189.635C328.959 183.517 328.295 176.942 330.035 171.001C331.584 165.723 335.727 163.895 340.564 163.586C343.956 163.364 350.149 162.701 353.319 164.249C358.348 166.711 359.601 172.755 360.088 178.047C361.798 196.593 362.462 215.964 362.462 234.582" stroke="#C4C4C4" stroke-width="2.74" stroke-linecap="round" stroke-linejoin="round"/>
<path d="M230.163 258.229C239.718 253.939 231.564 238.194 225.134 244.872C221.271 248.882 223.129 261.383 230.163 258.229Z" fill="#CAD5C8"/>
<path d="M399.397 257.109C408.952 252.82 400.798 237.075 394.369 243.753C390.505 247.763 392.363 260.264 399.397 257.109Z" fill="#CAD5C8"/>
<path d="M333.395 200.825C333.97 201.223 335.474 201.002 336.197 201.031C337.465 201.09 340.208 201.09 338.999 199.056C338.733 198.614 338.394 198.584 337.834 198.496C336.801 198.334 335.519 198.319 334.516 198.658C333.97 198.85 333.528 199.085 333.307 199.601C333.026 200.25 333.085 200.619 333.38 200.825H333.395Z" fill="#C4C4C4"/>
<path d="M284.266 176.367C289.825 177.826 296.269 178.489 301.975 177.841C305.795 177.398 311.56 177.797 314.347 174.391C318.343 169.526 315.202 161.492 314.922 155.979" stroke="#969696" stroke-width="1.65" stroke-linecap="round" stroke-linejoin="round"/>
<path d="M440.23 166.033C439.537 166.004 436.543 172.874 436.307 173.743C435.201 177.945 435.718 178.623 439.065 179.331C443.076 180.171 448.65 179.095 451.761 176.191C455.875 172.358 452.189 166.8 453.413 161.862C453.914 159.857 453.855 158.559 453.413 156.51C453.265 155.847 452.484 147.473 451.82 147.518C450.375 147.591 448.945 147.223 447.529 147.061C439.08 146.176 430.365 146.412 421.856 146.913C421.547 153.061 421.768 157.336 426.811 161.036C430.512 163.763 435.673 165.886 440.215 166.048L440.23 166.033Z" fill="#9DC4BD"/>
<path d="M367.18 177.209C376.204 179.98 385.538 180.098 394.858 179.877C403.263 179.67 411.683 179.685 420.103 179.7C427.623 179.7 434.598 179.066 441.927 178.285C447.206 177.724 452.101 178.712 452.455 171.385C452.794 164.442 452.927 155.73 451.659 148.934" stroke="#969696" stroke-width="1.65" stroke-linecap="round" stroke-linejoin="round"/>
<path d="M438.666 144.111C425.601 144.097 412.241 145.468 399.648 146.441C392.792 146.971 386.038 147.959 379.225 148.755C374.064 149.36 367.93 147.34 363.742 150.76C371.248 157.468 379.8 162.2 388.751 166.593C396.906 170.588 404.456 175.63 412.492 179.816C417.506 182.426 422.652 186.863 428.521 186.244C442.824 184.725 457.157 183.266 471.328 180.804C474.056 180.332 503.651 174.318 503.961 174.76C498.564 167.006 488.684 163.939 480.692 159.635C469.013 153.34 457.895 144.686 443.916 144.215C442.175 144.156 440.421 144.126 438.666 144.126V144.111Z" fill="#FF859C"/>
<path d="M425.957 183.65C428.066 194.972 445.761 189.694 441.927 181.689L425.957 183.65Z" fill="#FF6F0D"/>
<path d="M474.059 177.177C475.179 188.47 491.208 183.59 488.333 175.541L474.059 177.177Z" fill="#F9F2A0"/>
<path d="M488.82 175.483C489.941 186.775 505.985 181.91 503.109 173.861L488.82 175.483Z" fill="#FF6F0D"/>
<path d="M441.941 180.17C442.325 192.081 463.205 189.752 458.398 177.074L441.941 180.17Z" fill="#F9F2A0"/>
<path d="M458.531 178.328C459.873 189.68 476.86 185.021 473.69 176.898L458.531 178.328Z" fill="#FF6F0D"/>
<path d="M221.375 172.668C226.3 168.746 231.432 165.002 236.652 161.479" stroke="white" stroke-width="0.69" stroke-linecap="round" stroke-linejoin="round"/>
<path d="M228.508 175.203C230.793 173.243 233.212 171.4 235.63 169.602" stroke="white" stroke-width="0.69" stroke-linecap="round" stroke-linejoin="round"/>
<path d="M283.469 169.1C286.949 165.223 291.505 162.598 295.177 158.928" stroke="white" stroke-width="0.69" stroke-linecap="round" stroke-linejoin="round"/>
<path d="M288.055 170.116C289.603 168.258 291.623 166.799 293.658 165.531" stroke="white" stroke-width="0.69" stroke-linecap="round" stroke-linejoin="round"/>
<mask id="mask1_526_28" style="mask-type:luminance" maskUnits="userSpaceOnUse" x="363" y="144" width="141" height="43">
<path d="M438.666 144.111C425.601 144.097 412.241 145.468 399.648 146.441C392.792 146.971 386.038 147.959 379.225 148.755C374.064 149.36 367.93 147.34 363.742 150.76C371.248 157.468 379.8 162.2 388.751 166.593C396.906 170.588 404.456 175.63 412.492 179.816C417.506 182.426 422.652 186.863 428.521 186.244C442.824 184.725 457.157 183.266 471.328 180.804C474.056 180.332 503.651 174.318 503.961 174.76C498.564 167.006 488.684 163.939 480.692 159.635C469.013 153.34 457.895 144.686 443.916 144.215C442.175 144.156 440.421 144.126 438.666 144.126V144.111Z" fill="white"/>
</mask>
<g mask="url(#mask1_526_28)">
<path d="M443.501 181.025C428.357 175.496 414.909 163.556 401.52 154.681C397.583 152.072 392.82 147.059 388.131 145.762C381.303 143.86 374.24 148.755 367.191 147.649C372.529 151.29 377.838 155.094 383.338 158.484C395.71 166.106 408.598 173.167 420.336 181.688C426.706 186.317 430.717 185.831 438.016 182.985" fill="#FF6F0D"/>
<path d="M436.497 183.972C421.353 178.444 407.919 166.503 394.515 157.628C390.578 155.019 385.815 150.007 381.126 148.709C374.298 146.808 367.235 151.702 360.172 150.596C365.51 154.238 370.818 158.026 376.319 161.432C388.69 169.053 401.578 176.115 413.316 184.65C419.686 189.279 423.697 188.793 430.996 185.947" fill="#FF6F0D"/>
<path d="M434.654 182.499C419.51 176.971 406.076 165.03 392.672 156.156C388.72 153.546 383.972 148.534 379.283 147.237C372.456 145.335 365.392 150.229 358.344 149.124C363.682 152.78 368.975 156.568 374.49 159.959C386.862 167.581 399.75 174.642 411.488 183.177C417.858 187.806 421.869 187.32 429.168 184.475" fill="#FF6F0D"/>
<path d="M446.983 149.433C457.187 155.727 467.656 161.565 477.625 168.229C480.854 170.381 484.511 174.597 488.315 175.629C493.255 176.956 500.554 175.452 505.509 174.479C503.636 170.971 498.932 170.057 495.968 167.654C493.049 165.295 490.055 163.143 486.826 160.946C479.497 155.978 472.552 150.509 465.164 145.615C461.227 143.005 456.464 137.993 451.775 136.696C444.948 134.794 437.884 139.688 430.836 138.583C436.174 142.224 441.482 146.027 446.983 149.418V149.433Z" fill="#FF6F0D"/>
<path d="M466.635 175.23C469.983 177.663 473.448 179.048 477.621 178.532C479.391 178.311 481.116 177.456 482.826 176.984C483.829 176.704 484.861 176.424 485.894 176.351C486.469 176.306 488.164 176.719 488.607 176.38C490.539 174.965 481.662 171.309 480.511 170.528C476.795 168.036 472.888 165.869 469.186 163.348C461.976 158.439 455.089 153.044 447.82 148.208C443.883 145.599 439.12 140.587 434.43 139.289C427.603 137.388 420.54 142.282 413.477 141.176C418.815 144.818 424.123 148.606 429.623 152.012C441.995 159.633 454.883 166.695 466.621 175.215L466.635 175.23Z" fill="#F9F2A0"/>
<path d="M415.247 152.381C425.452 158.676 435.921 164.513 445.889 171.177C449.782 173.786 452.835 177.884 457.657 178.813C461.579 179.58 465.958 179.757 469.955 180.214C472.638 180.523 475.455 180.11 473.449 176.779C471.503 173.55 467.02 172.857 464.233 170.602C461.314 168.243 458.32 166.091 455.091 163.909C447.762 158.941 440.817 153.472 433.429 148.577C429.492 145.968 424.729 140.956 420.04 139.659C413.212 137.757 406.149 142.651 399.086 141.546C404.424 145.187 409.732 148.99 415.233 152.381H415.247Z" fill="#FF6F0D"/>
<path d="M436.379 178.549C439.727 180.981 443.207 182.367 447.365 181.851C449.135 181.63 450.86 180.775 452.57 180.303C453.573 180.023 454.605 179.743 455.652 179.669C456.227 179.625 457.923 180.037 458.365 179.698C460.312 178.283 451.42 174.627 450.27 173.846C446.554 171.354 442.646 169.187 438.945 166.667C431.734 161.758 424.848 156.362 417.578 151.527C413.627 148.917 408.878 143.905 404.189 142.608C397.362 140.706 390.299 145.6 383.25 144.495C388.588 148.136 393.882 151.925 399.397 155.33C411.769 162.952 424.656 170.013 436.394 178.534L436.379 178.549Z" fill="#F9F2A0"/>
</g>
<path d="M423.609 185.138C431.307 184.888 439.638 183.104 447.173 181.659C455.313 180.097 463.423 179.507 471.651 178.416C477.727 177.605 483.935 176.559 490.025 176.293C494.67 176.087 498.872 175.497 503.311 174.082" stroke="#936A74" stroke-width="0.69" stroke-linecap="round" stroke-linejoin="round"/>
<path d="M191.538 234.022C191.272 232.017 190.889 230.145 190.388 228.553C188.589 222.862 182.248 218.573 179.196 225.708C179.24 219.604 179.948 176.75 165.04 187.821C169.994 184.135 151.901 143.477 144.558 154.15C141.431 143.153 127.039 140.839 119.843 150.303C114.476 157.379 111.777 167.684 111.969 176.484C103.859 170.484 95.1589 186.465 92.7258 192.435C91.3987 195.708 87.9186 212.499 91.7526 214.946C86.4146 211.555 83.952 208.371 81.46 217.747C75.9155 238.607 75.0455 270.611 87.4763 289.569C98.1081 305.771 119.298 311.181 137.583 310.37C137.701 310.37 137.833 310.355 137.951 310.341C145.31 310.326 158.109 307.142 164.214 303.397C172.059 298.577 177.913 288.243 182.071 280.326C186.598 271.702 189.754 262.326 191.272 252.7C192.069 247.658 192.305 240.169 191.494 234.007L191.538 234.022Z" fill="#00827B"/>
<path d="M143.45 282.331C143.361 281.21 143.155 280.562 142.816 280.576C141.813 280.65 128.556 282.802 128.615 281.726C128.321 286.709 127.524 291.53 127.333 296.483C127.111 302.129 127.023 307.76 127.215 313.392C127.436 320.04 128.217 326.601 128.291 333.22C132.302 333.323 136.313 332.999 140.309 332.468C141.312 332.335 142.019 311.166 142.226 308.586C142.919 299.859 144.143 291.028 143.45 282.331Z" fill="#906D61"/>
<path d="M129.367 171.781V177.855" stroke="#12A095" stroke-width="3" stroke-linecap="round" stroke-linejoin="round"/>
<path d="M114.341 189.412C114.061 191.196 114.311 193.481 114.916 194.616" stroke="#12A095" stroke-width="3" stroke-linecap="round" stroke-linejoin="round"/>
<path d="M151.34 177.281C152.048 179.728 152.003 182.249 151.915 184.8" stroke="#12A095" stroke-width="3" stroke-linecap="round" stroke-linejoin="round"/>
<path d="M142.672 194.027V199.806" stroke="#12A095" stroke-width="3" stroke-linecap="round" stroke-linejoin="round"/>
<path d="M130.535 217.717V223.496" stroke="#12A095" stroke-width="3" stroke-linecap="round" stroke-linejoin="round"/>
<path d="M102.208 210.215C102.179 212.47 102.724 214.682 103.948 216.569" stroke="#12A095" stroke-width="3" stroke-linecap="round" stroke-linejoin="round"/>
<path d="M97.0043 235.055C96.8864 238.062 97.2698 241.187 98.7443 243.723" stroke="#12A095" stroke-width="3" stroke-linecap="round" stroke-linejoin="round"/>
<path d="M124.755 201.545C124.504 203.52 124.696 205.496 125.33 207.324" stroke="#12A095" stroke-width="3" stroke-linecap="round" stroke-linejoin="round"/>
<path d="M161.162 202.695C160.94 204.862 161.117 207 161.737 209.049" stroke="#12A095" stroke-width="3" stroke-linecap="round" stroke-linejoin="round"/>
<path d="M150.177 222.922C150.398 225.62 149.882 228.347 149.602 231.015" stroke="#12A095" stroke-width="3" stroke-linecap="round" stroke-linejoin="round"/>
<path d="M116.659 228.125C116.659 230.852 116.261 233.801 117.234 236.218" stroke="#12A095" stroke-width="3" stroke-linecap="round" stroke-linejoin="round"/>
<path d="M92.3711 257.594C93.2706 259.893 94.1111 262.311 95.2613 264.537" stroke="#12A095" stroke-width="3" stroke-linecap="round" stroke-linejoin="round"/>
<path d="M164.627 230.439C164.406 232.562 164.716 234.774 165.202 236.793" stroke="#12A095" stroke-width="3" stroke-linecap="round" stroke-linejoin="round"/>
<path d="M133.422 239.107C134.159 241.923 134.631 244.827 134.572 247.776" stroke="#12A095" stroke-width="3" stroke-linecap="round" stroke-linejoin="round"/>
<path d="M116.656 253.555C116.686 255.884 117.541 258.066 118.971 259.908" stroke="#12A095" stroke-width="3" stroke-linecap="round" stroke-linejoin="round"/>
<path d="M154.805 252.98V258.759" stroke="#12A095" stroke-width="3" stroke-linecap="round" stroke-linejoin="round"/>
<path d="M170.408 261.633C170.6 264.021 169.951 266.394 169.258 268.576" stroke="#12A095" stroke-width="3" stroke-linecap="round" stroke-linejoin="round"/>
<path d="M180.817 240.832C181.068 242.955 180.758 245.196 180.242 247.186" stroke="#12A095" stroke-width="3" stroke-linecap="round" stroke-linejoin="round"/>
<path d="M138.041 263.373C137.732 265.245 138.115 267.059 139.191 268.577" stroke="#12A095" stroke-width="3" stroke-linecap="round" stroke-linejoin="round"/>
<path d="M113.766 276.08C114.916 278.055 116.184 280.783 117.806 282.434" stroke="#12A095" stroke-width="3" stroke-linecap="round" stroke-linejoin="round"/>
<path d="M154.23 291.692C156.029 289.348 157.357 286.709 158.861 284.174" stroke="#12A095" stroke-width="3" stroke-linecap="round" stroke-linejoin="round"/>
<path d="M102.781 289.953C104.359 291.988 106.158 293.757 108.562 294.582" stroke="#12A095" stroke-width="3" stroke-linecap="round" stroke-linejoin="round"/>
<mask id="mask2_526_28" style="mask-type:luminance" maskUnits="userSpaceOnUse" x="555" y="-2" width="247" height="172">
<path d="M801.651 -1.50977H555.395V169.496H801.651V-1.50977Z" fill="white"/>
</mask>
<g mask="url(#mask2_526_28)">
<path d="M660.356 55.3196C654.398 81.5601 623.063 120.641 595.887 94.6509C576.806 76.4005 573.075 60.892 574.785 36.0519C575.242 29.4181 577.631 -5.22533 590.652 9.85561C599.794 1.01049 608.701 -54.1684 629.05 -44.9547C640.345 -39.8393 630.761 -24.5372 647.306 -21.7068C679.776 -16.1491 663.954 31.6441 661.004 51.8847C660.842 53.0051 660.621 54.155 660.356 55.3196Z" fill="#00A268"/>
<path d="M618.198 82.3125C618.124 81.4575 617.977 80.9563 617.711 80.971C616.945 81.03 606.785 82.6663 606.844 81.8555C606.622 85.6737 606.018 89.3592 605.856 93.1626C605.679 97.4819 605.62 101.801 605.767 106.106C605.929 111.207 606.534 116.219 606.593 121.29C609.66 121.364 612.742 121.113 615.794 120.715C616.561 120.612 617.107 104.411 617.269 102.42C617.8 95.7424 618.744 88.9759 618.198 82.3125Z" fill="#906D61"/>
<path d="M610.41 -2.39453C610.601 0.288491 609.805 2.88306 609.967 5.56608" stroke="#2CC68B" stroke-width="2.3" stroke-linecap="round" stroke-linejoin="round"/>
<path d="M633.855 3.79688V12.642" stroke="#2CC68B" stroke-width="2.3" stroke-linecap="round" stroke-linejoin="round"/>
<path d="M655.989 21.0586C656.063 23.6237 655.812 26.0708 655.547 28.577" stroke="#2CC68B" stroke-width="2.3" stroke-linecap="round" stroke-linejoin="round"/>
<path d="M620.586 19.7324V29.9043" stroke="#2CC68B" stroke-width="2.3" stroke-linecap="round" stroke-linejoin="round"/>
<path d="M598.451 18.8477C598.275 21.2358 598.658 23.5798 598.894 25.9238" stroke="#2CC68B" stroke-width="2.3" stroke-linecap="round" stroke-linejoin="round"/>
<path d="M586.951 29.9043C586.863 33.3539 585.757 36.8477 587.393 40.0762" stroke="#2CC68B" stroke-width="2.3" stroke-linecap="round" stroke-linejoin="round"/>
<path d="M639.626 31.2461C639.095 33.8701 638.505 36.4942 638.741 39.2067" stroke="#2CC68B" stroke-width="2.3" stroke-linecap="round" stroke-linejoin="round"/>
<path d="M608.641 38.7637C608.331 41.373 609.334 43.7464 609.526 46.282" stroke="#2CC68B" stroke-width="2.3" stroke-linecap="round" stroke-linejoin="round"/>
<path d="M626.338 48.9355C626.441 51.9281 625.807 54.8176 625.895 57.7807" stroke="#2CC68B" stroke-width="2.3" stroke-linecap="round" stroke-linejoin="round"/>
<path d="M649.355 48.9355C649.649 52.5178 648.234 55.6284 648.027 59.1074" stroke="#2CC68B" stroke-width="2.3" stroke-linecap="round" stroke-linejoin="round"/>
<path d="M597.123 52.916C597.02 56.4246 598.244 59.712 598.008 63.0879" stroke="#2CC68B" stroke-width="2.3" stroke-linecap="round" stroke-linejoin="round"/>
<path d="M613.511 67.5254C613.407 70.3411 613.496 73.3779 614.395 75.9283" stroke="#2CC68B" stroke-width="2.3" stroke-linecap="round" stroke-linejoin="round"/>
<path d="M636.527 71.9492C635.982 74.1458 635.303 76.3865 634.758 78.5831" stroke="#2CC68B" stroke-width="2.3" stroke-linecap="round" stroke-linejoin="round"/>
<path d="M590.492 75.0449C591.421 77.7132 593.707 79.6886 595.358 81.6788" stroke="#2CC68B" stroke-width="2.3" stroke-linecap="round" stroke-linejoin="round"/>
<path d="M723.453 70.6369C716.581 55.1579 726.903 37.8657 714.93 26.5734C707.749 19.8069 705.33 17.802 704.283 6.6129C703.295 -4.08971 707.822 -39.6029 689.936 -40.1041C673.907 -40.5611 659.751 -11.0921 654.251 0.229664C650.417 8.13131 640.655 20.1459 644.061 29.3154C645.742 33.8559 651.242 34.4898 652.23 39.6052C653.779 47.6985 642.528 60.7303 639.49 68.2634C625.658 102.509 649.547 104.101 677.18 104.145C689.198 104.16 706.775 106.445 718.189 102.892C734.719 97.7619 728.658 82.4009 723.438 70.6369H723.453Z" fill="#5BD0A1"/>
<path d="M685.819 88.4746C685.745 87.6196 685.598 87.1184 685.332 87.1331C684.566 87.1921 674.406 88.8285 674.465 88.0177C674.243 91.8358 673.639 95.5213 673.477 99.3247C673.3 103.644 673.241 107.963 673.388 112.268C673.55 117.369 674.155 122.381 674.214 127.452C677.281 127.526 680.363 127.275 683.415 126.877C684.182 126.774 684.728 110.573 684.89 108.597C685.421 101.919 686.365 95.1527 685.819 88.4894V88.4746Z" fill="#906D61"/>
<path d="M665.694 2.16016C665.281 4.15031 664.499 6.22892 664.809 8.35175" stroke="#88E2BB" stroke-width="2.3" stroke-linecap="round" stroke-linejoin="round"/>
<path d="M653.733 17.1973C653.438 20.4847 653.733 22.7844 653.733 26.0424" stroke="#88E2BB" stroke-width="2.3" stroke-linecap="round" stroke-linejoin="round"/>
<path d="M694.461 -0.0507812V8.35209" stroke="#88E2BB" stroke-width="2.3" stroke-linecap="round" stroke-linejoin="round"/>
<path d="M678.08 10.5645C677.977 13.1148 677.225 15.5325 677.195 18.0828" stroke="#88E2BB" stroke-width="2.3" stroke-linecap="round" stroke-linejoin="round"/>
<path d="M665.693 23.8457C665.604 26.5582 665.988 29.138 666.135 31.8063" stroke="#88E2BB" stroke-width="2.3" stroke-linecap="round" stroke-linejoin="round"/>
<path d="M690.039 22.0625V30.4654" stroke="#88E2BB" stroke-width="2.3" stroke-linecap="round" stroke-linejoin="round"/>
<path d="M679.404 34.0176C679.404 36.5237 678.726 40.1649 680.289 41.9782" stroke="#88E2BB" stroke-width="2.3" stroke-linecap="round" stroke-linejoin="round"/>
<path d="M705.523 31.8066C706.099 34.3128 705.509 37.8213 706.851 39.7673" stroke="#88E2BB" stroke-width="2.3" stroke-linecap="round" stroke-linejoin="round"/>
<path d="M695.348 42.8633C695.26 45.3841 695.157 48.1261 696.233 50.3816" stroke="#88E2BB" stroke-width="2.3" stroke-linecap="round" stroke-linejoin="round"/>
<path d="M664.808 51.2656C664.572 53.4474 664.189 55.6734 664.366 57.8995" stroke="#88E2BB" stroke-width="2.3" stroke-linecap="round" stroke-linejoin="round"/>
<path d="M679.406 56.1465C679.952 58.6821 680.276 61.7042 679.406 64.1071" stroke="#88E2BB" stroke-width="2.3" stroke-linecap="round" stroke-linejoin="round"/>
<path d="M652.85 66.7598C652.599 68.8089 652.746 71.1381 654.177 72.5091" stroke="#88E2BB" stroke-width="2.3" stroke-linecap="round" stroke-linejoin="round"/>
<path d="M694.462 67.2012C694.462 69.1766 694.152 72.7441 694.904 73.3928" stroke="#88E2BB" stroke-width="2.3" stroke-linecap="round" stroke-linejoin="round"/>
<path d="M705.523 55.7031C706.393 57.4574 706.29 59.6687 706.851 61.4525" stroke="#88E2BB" stroke-width="2.3" stroke-linecap="round" stroke-linejoin="round"/>
<path d="M666.578 78.2578C667.301 80.4101 666.74 83.1963 667.463 84.8917" stroke="#88E2BB" stroke-width="2.3" stroke-linecap="round" stroke-linejoin="round"/>
<path d="M653.293 88.002C653.44 89.4909 653.588 90.9356 653.735 92.4245" stroke="#88E2BB" stroke-width="2.3" stroke-linecap="round" stroke-linejoin="round"/>
<path d="M696.674 86.2344C695.966 88.8732 695.185 92.426 696.232 94.6373" stroke="#88E2BB" stroke-width="2.3" stroke-linecap="round" stroke-linejoin="round"/>
<path d="M708.617 77.373C708.868 79.5991 709.664 81.7219 709.502 84.0069" stroke="#88E2BB" stroke-width="2.3" stroke-linecap="round" stroke-linejoin="round"/>
<path d="M717.469 94.1941C718.442 91.7912 719.327 89.3146 719.238 86.6758" stroke="#88E2BB" stroke-width="2.3" stroke-linecap="round" stroke-linejoin="round"/>
</g>
</g>
<defs>
<clipPath id="clip0_526_28">
<rect width="729" height="708" fill="white"/>
</clipPath>
</defs>
</svg>
