<svg width="1081" height="785" viewBox="0 0 1081 785" fill="none" xmlns="http://www.w3.org/2000/svg">
<g clip-path="url(#clip0_526_3)">
<path d="M1003.72 855.972C1041.56 857.581 1077.82 848.944 1114.9 850.701C1114.39 754.747 1130.64 664.592 1148.68 571.156C1165.75 482.758 1135.56 400.648 1162.98 311.255C1179.22 258.25 1211.29 208.781 1218.65 153.32C1226.16 96.8016 1221.15 -0.148007 1151.73 0.000169655C1081.88 0.148346 998.939 34.3559 935.988 61.1335C818.971 110.942 695.925 149.849 584.027 209.627C530.13 238.416 445.244 269.914 415.482 327.978C384.62 388.18 452.118 394.615 459.31 441.29C464.979 478.059 414.107 516.585 387.645 534.133C319.131 579.539 234.583 591.541 159.935 623.272C87.4446 654.093 -57.9385 727.143 24.6631 822.336C88.7983 896.234 177.852 839.207 251.336 822.823C354.287 799.856 461.362 815.329 565.18 822.611C711.43 832.878 857.194 849.791 1003.72 855.993V855.972Z" fill="#9ADBC2"/>
<g clip-path="url(#clip1_526_3)">
<path d="M390.337 756.476C404.474 753.496 416.045 747.279 420.111 736.827C425.905 721.977 416.674 699.235 414.318 684.337C410.17 658.133 402.65 633.216 396.889 607.398C389.336 573.527 368.97 533.552 341.809 580.244C321.588 614.984 311.389 662.272 308.145 702.102C306.919 717.145 303.772 737.31 318.554 747.473C332.256 756.879 365.306 761.743 390.337 756.46V756.476Z" fill="#009288"/>
<path d="M374.411 729.37C374.314 728.146 374.088 727.437 373.717 727.469C372.619 727.55 358.111 729.885 358.176 728.726C357.853 734.169 356.981 739.436 356.772 744.848C356.53 751.016 356.433 757.169 356.643 763.305C356.885 770.585 357.74 777.736 357.821 784.984C362.21 785.097 366.6 784.742 370.973 784.163C372.071 784.018 372.845 760.905 373.071 758.071C373.83 748.536 375.169 738.889 374.411 729.386V729.37Z" fill="#906D61"/>
<path d="M366.726 575.992C365.096 579.922 365.79 584.818 365.774 589.247" stroke="#1AAD9F" stroke-width="3" stroke-linecap="round" stroke-linejoin="round"/>
<path d="M349.959 601.568C349.378 604.5 348.458 607.383 348.7 610.411" stroke="#1AAD9F" stroke-width="3" stroke-linecap="round" stroke-linejoin="round"/>
<path d="M379.688 604.097V614.823" stroke="#1AAD9F" stroke-width="3" stroke-linecap="round" stroke-linejoin="round"/>
<path d="M363.241 618.608C363.532 622.86 362.321 626.967 362.612 631.236" stroke="#1AAD9F" stroke-width="3" stroke-linecap="round" stroke-linejoin="round"/>
<path d="M336.049 631.864C336.081 636.196 334.241 640.191 334.145 644.491" stroke="#1AAD9F" stroke-width="3" stroke-linecap="round" stroke-linejoin="round"/>
<path d="M384.125 639.45C384.303 643.09 385.803 646.472 386.029 650.176" stroke="#1AAD9F" stroke-width="3" stroke-linecap="round" stroke-linejoin="round"/>
<path d="M353.754 652.705C353.947 657.021 352.285 661.032 352.495 665.332" stroke="#1AAD9F" stroke-width="3" stroke-linecap="round" stroke-linejoin="round"/>
<path d="M374.635 663.432C374.522 666.798 375.135 670.309 375.893 673.53" stroke="#1AAD9F" stroke-width="3" stroke-linecap="round" stroke-linejoin="round"/>
<path d="M332.256 674.802C330.368 678.056 328.786 681.712 329.093 685.529" stroke="#1AAD9F" stroke-width="3" stroke-linecap="round" stroke-linejoin="round"/>
<path d="M399.938 673.53C400.712 676.832 401.713 680.375 403.73 683.001" stroke="#1AAD9F" stroke-width="3" stroke-linecap="round" stroke-linejoin="round"/>
<path d="M363.242 693.743C363.533 688.895 363.872 684.063 363.872 679.215" stroke="#1AAD9F" stroke-width="3" stroke-linecap="round" stroke-linejoin="round"/>
<path d="M346.795 695.627C345.972 699.59 345.262 703.552 345.537 707.626" stroke="#1AAD9F" stroke-width="3" stroke-linecap="round" stroke-linejoin="round"/>
<path d="M388.547 698.784C390.032 701.957 390.661 706 391.081 709.511" stroke="#1AAD9F" stroke-width="3" stroke-linecap="round" stroke-linejoin="round"/>
<path d="M327.188 717.097C327.188 720.35 326.688 724.731 327.818 727.195" stroke="#1AAD9F" stroke-width="3" stroke-linecap="round" stroke-linejoin="round"/>
<path d="M408.152 715.841V730.997" stroke="#1AAD9F" stroke-width="3" stroke-linecap="round" stroke-linejoin="round"/>
<path d="M389.176 733.509V742.979" stroke="#1AAD9F" stroke-width="3" stroke-linecap="round" stroke-linejoin="round"/>
<path d="M367.68 708.255C367.68 711.428 367.228 714.891 368.309 717.725" stroke="#1AAD9F" stroke-width="3" stroke-linecap="round" stroke-linejoin="round"/>
<path d="M344.262 732.253V743.624" stroke="#1AAD9F" stroke-width="3" stroke-linecap="round" stroke-linejoin="round"/>
</g>
</g>
<defs>
<clipPath id="clip0_526_3">
<rect width="1083" height="785" fill="white"/>
</clipPath>
<clipPath id="clip1_526_3">
<rect width="115" height="226" fill="white" transform="translate(307 559)"/>
</clipPath>
</defs>
</svg>
