<svg width="139" height="156" viewBox="0 0 139 156" fill="none" xmlns="http://www.w3.org/2000/svg">
<g clip-path="url(#clip0_526_354)">
<path d="M77.288 91.111C71.9372 114.703 43.7514 149.848 19.3121 126.479C2.15289 110.064 -1.20789 96.1259 0.335428 73.7721C0.741564 67.8131 2.90424 36.6577 14.601 50.2203C22.8252 42.2614 30.8261 -7.35972 49.1225 0.934159C59.2861 5.53284 50.6557 19.2883 65.5406 21.8465C94.7417 26.8513 80.5067 69.8231 77.8566 88.0351C77.7145 89.0401 77.5114 90.0654 77.2779 91.1212L77.288 91.111Z" fill="#00A268"/>
<path d="M39.3646 115.394C39.3037 114.622 39.1616 114.176 38.9281 114.196C38.2376 114.247 29.1097 115.719 29.1503 114.988C28.9473 118.419 28.399 121.739 28.267 125.15C28.1147 129.038 28.0538 132.916 28.1858 136.783C28.3381 141.372 28.8762 145.879 28.927 150.447C31.6887 150.518 34.4504 150.295 37.202 149.93C37.8924 149.838 38.3798 135.271 38.5219 133.484C38.9991 127.474 39.8419 121.393 39.3646 115.404V115.394Z" fill="#906D61"/>
<path d="M42.7154 33.2468C41.7204 31.2165 42.3194 27.1152 42.3194 24.4961" stroke="#2CC68B" stroke-width="3" stroke-linecap="round" stroke-linejoin="round"/>
<path d="M32.3587 39.2158C32.5313 41.6319 31.8104 43.9566 31.9627 46.3829" stroke="#2CC68B" stroke-width="3" stroke-linecap="round" stroke-linejoin="round"/>
<path d="M63.8047 34.0488V40.018" stroke="#2CC68B" stroke-width="3" stroke-linecap="round" stroke-linejoin="round"/>
<path d="M53.457 44.7891V52.7479" stroke="#2CC68B" stroke-width="3" stroke-linecap="round" stroke-linejoin="round"/>
<path d="M73.3569 60.311C73.428 62.6155 73.2046 64.8184 72.9609 67.072" stroke="#2CC68B" stroke-width="3" stroke-linecap="round" stroke-linejoin="round"/>
<path d="M41.5195 59.1133V68.27" stroke="#2CC68B" stroke-width="3" stroke-linecap="round" stroke-linejoin="round"/>
<path d="M21.6155 58.3213C21.4531 60.4633 21.8084 62.585 22.0115 64.6864" stroke="#2CC68B" stroke-width="3" stroke-linecap="round" stroke-linejoin="round"/>
<path d="M11.2711 68.27C11.1898 71.3764 10.1948 74.5133 11.667 77.4166" stroke="#2CC68B" stroke-width="3" stroke-linecap="round" stroke-linejoin="round"/>
<path d="M58.6365 69.4575C58.1491 71.8228 57.6313 74.178 57.8343 76.6246" stroke="#2CC68B" stroke-width="3" stroke-linecap="round" stroke-linejoin="round"/>
<path d="M30.7745 76.2285C30.5004 78.5837 31.3939 80.7054 31.5665 82.9895" stroke="#2CC68B" stroke-width="3" stroke-linecap="round" stroke-linejoin="round"/>
<path d="M46.6969 85.3755C46.7883 88.0657 46.2197 90.6645 46.3009 93.3344" stroke="#2CC68B" stroke-width="3" stroke-linecap="round" stroke-linejoin="round"/>
<path d="M67.3895 85.3755C67.6535 88.6037 66.3843 91.3954 66.1914 94.5323" stroke="#2CC68B" stroke-width="3" stroke-linecap="round" stroke-linejoin="round"/>
<path d="M20.4273 88.959C20.3359 92.106 21.4426 95.0601 21.2192 98.1158" stroke="#2CC68B" stroke-width="3" stroke-linecap="round" stroke-linejoin="round"/>
<path d="M35.1508 102.095C35.0594 104.633 35.1407 107.364 35.9428 109.658" stroke="#2CC68B" stroke-width="3" stroke-linecap="round" stroke-linejoin="round"/>
<path d="M55.8441 106.075C55.3466 108.054 54.7475 110.064 54.25 112.044" stroke="#2CC68B" stroke-width="3" stroke-linecap="round" stroke-linejoin="round"/>
<path d="M14.457 108.856C15.2896 111.262 17.3406 113.038 18.8331 114.825" stroke="#2CC68B" stroke-width="3" stroke-linecap="round" stroke-linejoin="round"/>
<path d="M49.082 10.9639C50.2192 13.2886 50.4426 15.9382 50.2801 18.5268" stroke="#2CC68B" stroke-width="3" stroke-linecap="round" stroke-linejoin="round"/>
<path d="M134.016 104.897C127.832 90.9687 137.122 75.4164 126.36 65.2648C119.912 59.184 117.719 57.377 116.785 47.3167C115.892 37.6828 119.963 5.75597 103.88 5.3093C89.4624 4.90324 76.7402 31.399 71.7955 41.5912C68.3434 48.6973 59.5607 59.4987 62.6372 67.7418C64.1602 71.8227 69.0947 72.3912 69.9882 76.9899C71.3792 84.2686 61.2665 95.9836 58.5352 102.755C46.0973 133.555 67.5819 134.986 92.4272 135.027C103.23 135.047 119.039 137.088 129.304 133.9C144.169 129.291 138.727 115.475 134.026 104.887L134.016 104.897Z" fill="#5BD0A1"/>
<path d="M100.173 120.936C100.112 120.165 99.9702 119.718 99.7366 119.738C99.0564 119.789 89.9183 121.261 89.9589 120.53C89.7559 123.962 89.2076 127.281 89.0756 130.692C88.9233 134.58 88.8624 138.458 88.9943 142.326C89.1466 146.914 89.6848 151.422 89.7355 155.98C92.4973 156.051 95.2691 155.827 98.0106 155.462C98.701 155.371 99.1884 140.793 99.3305 139.016C99.8077 133.007 100.65 126.926 100.173 120.926V120.936Z" fill="#906D61"/>
<path d="M96.4059 37.7335C96.0403 35.1854 97.9492 33.0536 97.9999 30.5664" stroke="#88E2BB" stroke-width="3" stroke-linecap="round" stroke-linejoin="round"/>
<path d="M108.348 19.8364C108.358 22.283 108.49 24.6077 108.744 27.0035" stroke="#88E2BB" stroke-width="3" stroke-linecap="round" stroke-linejoin="round"/>
<path d="M92.0228 19.4302C91.4643 21.5417 90.2764 23.6126 89.6367 25.7952" stroke="#88E2BB" stroke-width="3" stroke-linecap="round" stroke-linejoin="round"/>
<path d="M82.0813 43.3066C81.7056 45.0933 81.0152 46.9714 81.2893 48.8799" stroke="#88E2BB" stroke-width="3" stroke-linecap="round" stroke-linejoin="round"/>
<path d="M71.3277 56.8389C71.0738 59.793 71.3277 61.8639 71.3277 64.7977" stroke="#88E2BB" stroke-width="3" stroke-linecap="round" stroke-linejoin="round"/>
<path d="M107.941 41.3169V48.8799" stroke="#88E2BB" stroke-width="3" stroke-linecap="round" stroke-linejoin="round"/>
<path d="M93.2177 50.8696C93.1264 53.1537 92.4461 55.3363 92.4258 57.6306" stroke="#88E2BB" stroke-width="3" stroke-linecap="round" stroke-linejoin="round"/>
<path d="M82.0825 62.8081C82.0013 65.2445 82.3465 67.5692 82.4785 69.9752" stroke="#88E2BB" stroke-width="3" stroke-linecap="round" stroke-linejoin="round"/>
<path d="M103.961 61.2144V68.7773" stroke="#88E2BB" stroke-width="3" stroke-linecap="round" stroke-linejoin="round"/>
<path d="M94.4159 71.9546C94.4159 74.2083 93.8067 77.4872 95.2181 79.1216" stroke="#88E2BB" stroke-width="3" stroke-linecap="round" stroke-linejoin="round"/>
<path d="M117.891 69.9648C118.408 72.2185 117.87 75.3757 119.089 77.1319" stroke="#88E2BB" stroke-width="3" stroke-linecap="round" stroke-linejoin="round"/>
<path d="M108.742 79.9136C108.661 82.1774 108.57 84.6544 109.544 86.6746" stroke="#88E2BB" stroke-width="3" stroke-linecap="round" stroke-linejoin="round"/>
<path d="M81.2774 87.4766C81.0744 89.446 80.7291 91.4459 80.8814 93.4457" stroke="#88E2BB" stroke-width="3" stroke-linecap="round" stroke-linejoin="round"/>
<path d="M94.418 91.8521C94.9053 94.1362 95.2099 96.8466 94.418 99.0191" stroke="#88E2BB" stroke-width="3" stroke-linecap="round" stroke-linejoin="round"/>
<path d="M70.5355 101.405C70.302 103.252 70.434 105.344 71.7336 106.582" stroke="#88E2BB" stroke-width="3" stroke-linecap="round" stroke-linejoin="round"/>
<path d="M107.942 101.8C107.942 103.577 107.668 106.785 108.338 107.374" stroke="#88E2BB" stroke-width="3" stroke-linecap="round" stroke-linejoin="round"/>
<path d="M117.891 91.4561C118.672 93.0296 118.581 95.0294 119.089 96.6334" stroke="#88E2BB" stroke-width="3" stroke-linecap="round" stroke-linejoin="round"/>
<path d="M82.8711 111.749C83.5108 113.678 83.0234 116.195 83.6732 117.718" stroke="#88E2BB" stroke-width="3" stroke-linecap="round" stroke-linejoin="round"/>
<path d="M70.9336 120.5C71.0656 121.84 71.1976 123.139 71.3296 124.479" stroke="#88E2BB" stroke-width="3" stroke-linecap="round" stroke-linejoin="round"/>
<path d="M109.93 118.916C109.291 121.291 108.59 124.489 109.534 126.479" stroke="#88E2BB" stroke-width="3" stroke-linecap="round" stroke-linejoin="round"/>
<path d="M120.684 110.957C120.907 112.957 121.628 114.876 121.476 116.926" stroke="#88E2BB" stroke-width="3" stroke-linecap="round" stroke-linejoin="round"/>
<path d="M128.645 126.073C129.518 123.911 130.32 121.687 130.239 119.312" stroke="#88E2BB" stroke-width="3" stroke-linecap="round" stroke-linejoin="round"/>
</g>
<defs>
<clipPath id="clip0_526_354">
<rect width="139" height="156" fill="white"/>
</clipPath>
</defs>
</svg>
