<svg width="115" height="226" viewBox="0 0 115 226" fill="none" xmlns="http://www.w3.org/2000/svg">
<g clip-path="url(#clip0_526_5)">
<path d="M83.3366 197.476C97.4736 194.496 109.045 188.279 113.111 177.827C118.905 162.977 109.674 140.235 107.318 125.337C103.17 99.1325 95.65 74.2165 89.8887 48.3985C82.3361 14.5275 61.9698 -25.4477 34.8094 21.2437C14.5884 55.9844 4.38911 103.272 1.14536 143.102C-0.0811387 158.145 -3.22806 178.31 11.5544 188.473C25.2557 197.879 58.3064 202.743 83.3366 197.46V197.476Z" fill="#009288"/>
<path d="M67.4106 170.37C67.3137 169.146 67.0878 168.437 66.7166 168.469C65.6192 168.55 51.1111 170.885 51.1757 169.726C50.8529 175.169 49.9814 180.436 49.7716 185.848C49.5296 192.016 49.4327 198.169 49.6425 204.305C49.8846 211.585 50.7399 218.736 50.8206 225.984C55.2102 226.097 59.5997 225.742 63.9732 225.163C65.0705 225.018 65.8452 201.905 66.0711 199.071C66.8296 189.536 68.1691 179.889 67.4106 170.386V170.37Z" fill="#906D61"/>
<path d="M59.726 16.9917C58.096 20.9216 58.79 25.8178 58.7738 30.247" stroke="#1AAD9F" stroke-width="3" stroke-linecap="round" stroke-linejoin="round"/>
<path d="M42.9586 42.5684C42.3777 45.4997 41.4578 48.3826 41.6999 51.4106" stroke="#1AAD9F" stroke-width="3" stroke-linecap="round" stroke-linejoin="round"/>
<path d="M72.6875 45.0967V55.8233" stroke="#1AAD9F" stroke-width="3" stroke-linecap="round" stroke-linejoin="round"/>
<path d="M56.2412 59.6084C56.5317 63.8604 55.3213 67.9674 55.6118 72.2355" stroke="#1AAD9F" stroke-width="3" stroke-linecap="round" stroke-linejoin="round"/>
<path d="M29.0488 72.8638C29.0811 77.1963 27.2414 81.1906 27.1445 85.4909" stroke="#1AAD9F" stroke-width="3" stroke-linecap="round" stroke-linejoin="round"/>
<path d="M77.125 80.4497C77.3025 84.0897 78.8034 87.4719 79.0293 91.1763" stroke="#1AAD9F" stroke-width="3" stroke-linecap="round" stroke-linejoin="round"/>
<path d="M46.7537 93.7051C46.9473 98.0215 45.2851 102.032 45.4949 106.332" stroke="#1AAD9F" stroke-width="3" stroke-linecap="round" stroke-linejoin="round"/>
<path d="M67.6346 104.432C67.5216 107.798 68.1348 111.309 68.8933 114.53" stroke="#1AAD9F" stroke-width="3" stroke-linecap="round" stroke-linejoin="round"/>
<path d="M25.256 115.802C23.3678 119.056 21.7863 122.712 22.0929 126.529" stroke="#1AAD9F" stroke-width="3" stroke-linecap="round" stroke-linejoin="round"/>
<path d="M92.9375 114.53C93.7121 117.832 94.7127 121.375 96.7299 124.001" stroke="#1AAD9F" stroke-width="3" stroke-linecap="round" stroke-linejoin="round"/>
<path d="M56.2422 134.743C56.5327 129.895 56.8716 125.063 56.8716 120.215" stroke="#1AAD9F" stroke-width="3" stroke-linecap="round" stroke-linejoin="round"/>
<path d="M39.7953 136.627C38.9722 140.59 38.2622 144.552 38.5365 148.626" stroke="#1AAD9F" stroke-width="3" stroke-linecap="round" stroke-linejoin="round"/>
<path d="M81.5469 139.784C83.0316 142.957 83.661 147 84.0806 150.511" stroke="#1AAD9F" stroke-width="3" stroke-linecap="round" stroke-linejoin="round"/>
<path d="M20.1885 158.097C20.1885 161.35 19.6882 165.731 20.8179 168.195" stroke="#1AAD9F" stroke-width="3" stroke-linecap="round" stroke-linejoin="round"/>
<path d="M101.152 156.841V171.997" stroke="#1AAD9F" stroke-width="3" stroke-linecap="round" stroke-linejoin="round"/>
<path d="M82.1758 174.509V183.979" stroke="#1AAD9F" stroke-width="3" stroke-linecap="round" stroke-linejoin="round"/>
<path d="M60.6796 149.255C60.6796 152.428 60.2277 155.891 61.309 158.725" stroke="#1AAD9F" stroke-width="3" stroke-linecap="round" stroke-linejoin="round"/>
<path d="M37.2617 173.253V184.624" stroke="#1AAD9F" stroke-width="3" stroke-linecap="round" stroke-linejoin="round"/>
</g>
<defs>
<clipPath id="clip0_526_5">
<rect width="115" height="226" fill="white"/>
</clipPath>
</defs>
</svg>
