<svg width="115" height="190" viewBox="0 0 115 190" fill="none" xmlns="http://www.w3.org/2000/svg">
<path d="M114.538 90.022C114.272 88.0171 113.889 86.1449 113.388 84.5528C111.589 78.8624 105.248 74.5725 102.196 81.7076C102.24 75.6044 102.948 32.7498 88.0396 43.8209C92.9942 40.1355 74.901 -0.522621 67.5575 10.1505C64.4314 -0.846943 50.0395 -3.16142 42.8435 6.30287C37.476 13.379 34.7775 23.6835 34.9692 32.4844C26.8589 26.4845 18.1589 42.4647 15.7258 48.4352C14.3987 51.7079 10.9186 68.4988 14.7526 70.946C9.41456 67.5554 6.95201 64.3711 4.45995 73.747C-1.08449 94.6067 -1.9545 126.611 10.4763 145.569C21.1081 161.771 42.2979 167.181 60.5828 166.37C60.7007 166.37 60.8334 166.355 60.9514 166.341C68.3096 166.326 81.109 163.142 87.2138 159.397C95.0586 154.577 100.913 144.243 105.071 136.326C109.598 127.702 112.754 118.326 114.272 108.7C115.069 103.658 115.305 96.1694 114.494 90.0073L114.538 90.022Z" fill="#00827B"/>
<path d="M66.4498 138.331C66.3614 137.21 66.1549 136.562 65.8158 136.576C64.813 136.65 51.5565 138.802 51.6155 137.726C51.3206 142.709 50.5243 147.53 50.3326 152.483C50.1114 158.129 50.0229 163.76 50.2146 169.392C50.4358 176.04 51.2173 182.601 51.2911 189.22C55.3019 189.323 59.3128 188.999 63.309 188.468C64.3117 188.335 65.0195 167.166 65.2259 164.586C65.919 155.859 67.1429 147.028 66.4498 138.331Z" fill="#906D61"/>
<path d="M52.3672 27.7812V33.8549" stroke="#12A095" stroke-width="3" stroke-linecap="round" stroke-linejoin="round"/>
<path d="M37.341 45.4121C37.0608 47.1959 37.3115 49.4809 37.916 50.616" stroke="#12A095" stroke-width="3" stroke-linecap="round" stroke-linejoin="round"/>
<path d="M74.3398 33.2812C75.0476 35.7284 75.0034 38.2492 74.9149 40.7996" stroke="#12A095" stroke-width="3" stroke-linecap="round" stroke-linejoin="round"/>
<path d="M65.6719 50.0273V55.8062" stroke="#12A095" stroke-width="3" stroke-linecap="round" stroke-linejoin="round"/>
<path d="M53.5352 73.7168V79.4956" stroke="#12A095" stroke-width="3" stroke-linecap="round" stroke-linejoin="round"/>
<path d="M25.2082 66.2148C25.1787 68.4704 25.7243 70.6816 26.9482 72.5686" stroke="#12A095" stroke-width="3" stroke-linecap="round" stroke-linejoin="round"/>
<path d="M20.0043 91.0547C19.8864 94.062 20.2698 97.1873 21.7443 99.7229" stroke="#12A095" stroke-width="3" stroke-linecap="round" stroke-linejoin="round"/>
<path d="M47.755 57.5449C47.5043 59.5203 47.696 61.4957 48.3301 63.3237" stroke="#12A095" stroke-width="3" stroke-linecap="round" stroke-linejoin="round"/>
<path d="M84.1615 58.6953C83.9404 60.8624 84.1173 62.9999 84.7366 65.0491" stroke="#12A095" stroke-width="3" stroke-linecap="round" stroke-linejoin="round"/>
<path d="M73.1767 78.9219C73.3978 81.6196 72.8817 84.3469 72.6016 87.0152" stroke="#12A095" stroke-width="3" stroke-linecap="round" stroke-linejoin="round"/>
<path d="M39.6587 84.125C39.6587 86.8522 39.2606 89.8006 40.2338 92.2183" stroke="#12A095" stroke-width="3" stroke-linecap="round" stroke-linejoin="round"/>
<path d="M15.3711 113.594C16.2706 115.893 17.1111 118.311 18.2613 120.537" stroke="#12A095" stroke-width="3" stroke-linecap="round" stroke-linejoin="round"/>
<path d="M87.6274 86.4395C87.4062 88.5623 87.7159 90.7736 88.2025 92.7932" stroke="#12A095" stroke-width="3" stroke-linecap="round" stroke-linejoin="round"/>
<path d="M56.4219 95.1074C57.1592 97.9231 57.631 100.827 57.5721 103.776" stroke="#12A095" stroke-width="3" stroke-linecap="round" stroke-linejoin="round"/>
<path d="M39.6562 109.555C39.6857 111.884 40.541 114.066 41.9714 115.908" stroke="#12A095" stroke-width="3" stroke-linecap="round" stroke-linejoin="round"/>
<path d="M77.8047 108.98V114.759" stroke="#12A095" stroke-width="3" stroke-linecap="round" stroke-linejoin="round"/>
<path d="M93.408 117.633C93.5997 120.021 92.9509 122.394 92.2578 124.576" stroke="#12A095" stroke-width="3" stroke-linecap="round" stroke-linejoin="round"/>
<path d="M103.817 96.832C104.068 98.9549 103.758 101.196 103.242 103.186" stroke="#12A095" stroke-width="3" stroke-linecap="round" stroke-linejoin="round"/>
<path d="M61.0413 119.373C60.7316 121.245 61.115 123.059 62.1914 124.577" stroke="#12A095" stroke-width="3" stroke-linecap="round" stroke-linejoin="round"/>
<path d="M36.7656 132.08C37.9158 134.055 39.1839 136.783 40.806 138.434" stroke="#12A095" stroke-width="3" stroke-linecap="round" stroke-linejoin="round"/>
<path d="M77.2305 147.692C79.0295 145.348 80.3566 142.709 81.8607 140.174" stroke="#12A095" stroke-width="3" stroke-linecap="round" stroke-linejoin="round"/>
<path d="M25.7812 145.953C27.3591 147.988 29.1581 149.757 31.5617 150.582" stroke="#12A095" stroke-width="3" stroke-linecap="round" stroke-linejoin="round"/>
</svg>
