<svg width="729" height="577" viewBox="0 0 729 577" fill="none" xmlns="http://www.w3.org/2000/svg">
<mask id="mask0_526_1637" style="mask-type:luminance" maskUnits="userSpaceOnUse" x="-1" y="0" width="1923" height="895">
<path d="M1921.91 0.167969H-0.863281V895H1921.91V0.167969Z" fill="white"/>
</mask>
<g mask="url(#mask0_526_1637)">
<path d="M164.404 537.729C184.163 539.322 203.982 540.25 223.8 540.398C240.389 540.53 262.272 546.103 268.23 530.005C274.01 514.393 270.265 470.02 254.693 460.349C242.882 453.008 224.125 456.369 210.809 448.733C195.886 440.182 186.449 430.438 169.005 427.416C143.73 423.038 120.52 414.355 95.467 409.74C91.928 398.699 69.8977 402.06 60.0327 401.146C-0.735054 395.5 -55.8551 412.232 -68.8168 482.374C-78.1362 532.776 -30.4333 529.562 5.07481 527.793C58.7056 525.125 110.891 533.425 164.419 537.729H164.404Z" fill="#E2E2E2"/>
<path d="M260.297 479.278C251.509 509.631 181.083 466.6 164.125 460.438C143.835 453.082 118.634 450.575 96.9574 445.696C68.8665 439.372 41.6456 435.362 12.8027 430.91C3.61602 429.495 -5.92455 427.151 -15.2734 427.667" stroke="#A8A8A8" stroke-miterlimit="10"/>
<path d="M323.96 537.584C318.651 555.937 276.08 529.918 265.831 526.203C223.26 510.753 168.877 524.493 124.492 526.453" stroke="#E5E5E5" stroke-width="0.6" stroke-miterlimit="10"/>
<path fill-rule="evenodd" clip-rule="evenodd" d="M-76.5538 326.479C-79.9896 316.734 -82.3047 305.958 -87.3183 305.501C-86.1534 298.911 -88.6307 295.388 -94.8092 293.87C-94.6028 292.72 -94.4406 291.747 -94.2341 290.597C-95.9152 289.934 -95.9446 288.607 -95.1189 286.882C-94.824 286.263 -94.6028 285.025 -94.8682 284.774C-96.2691 283.506 -95.0746 282.504 -94.6323 281.383C-94.5143 281.074 -94.647 280.661 -94.6765 280.307C-93.8802 278.818 -93.0692 277.329 -92.2582 275.84C-91.3882 276.15 -90.5034 276.46 -88.9109 277.035C-89.2648 275.413 -89.4712 274.44 -89.7661 273.098C-88.6159 271.418 -87.2888 269.457 -85.8585 267.379C-84.4281 268.396 -83.1895 269.266 -82.0393 270.076C-81.2725 267.614 -80.5647 265.315 -79.8569 263.015C-76.5391 262.588 -76.5538 262.573 -74.6958 258.961C-74.5189 258.622 -74.2092 258.298 -73.8996 258.091C-72.5134 257.148 -71.0978 256.249 -69.4463 255.187C-69.4168 254.951 -69.2988 254.244 -69.1514 253.315C-67.4851 253.521 -65.9663 253.801 -64.418 253.875C-63.7691 253.905 -62.6485 253.698 -62.4863 253.285C-61.3066 250.396 -59.9057 250.838 -58.2689 252.386C-57.9003 252.74 -57.3842 252.887 -56.9271 253.138C-55.9686 251.988 -55.0691 250.927 -54.3613 250.086C-52.4148 249.968 -50.6896 249.865 -48.7136 249.747C-48.5072 249.497 -48.0648 248.937 -47.2538 247.934C-45.0566 250.75 -50.3357 251.87 -48.3597 254.391C-46.2953 252.209 -48.3597 249.32 -45.558 249.644C-45.1009 249.688 -44.5848 249.246 -44.0687 249.054C-42.9037 248.597 -48.9643 246.091 -47.9321 246.283C-46.0741 246.637 -44.6143 246.357 -43.4198 244.676C-41.5029 246.062 -39.7039 247.05 -37.5952 245C-37.3888 244.794 -36.9464 244.853 -36.6072 244.824C-35.6193 244.765 -34.6313 244.72 -33.4369 244.676C-33.142 244.809 -32.272 245.443 -32.095 245.251C-30.4582 243.482 -29.6472 245.163 -28.9394 245.796C-27.2141 244.868 -25.7838 244.086 -24.3092 243.29C-20.9324 244.101 -24.7516 243.438 -21.2273 244.263C-20.9029 244.337 -20.49 244.337 -20.1803 244.204C-18.9269 243.659 -17.6735 243.04 -16.4201 242.435C-16.4644 242.273 -16.5086 242.111 -16.5528 241.934C-16.0073 242.14 -15.4617 242.362 -14.9456 242.568C-14.5769 241.728 -14.2377 240.991 -13.6627 239.693C-9.54856 241.875 -5.1248 243.615 -2.39681 247.138C-3.26682 246.696 -5.65565 245.516 -5.99481 245.295C-3.72395 250.013 9.31142 258.769 14.4872 259.713C13.3813 260.479 12.0247 261.806 10.6386 262.676C14.3398 267.732 26.6526 262.72 33.4504 264.032C40.9413 265.477 47.5327 269.413 52.9002 274.735C64.343 286.101 69.3271 303.658 67.5134 319.462C65.3752 338.007 61.3791 367.152 39.7322 372.193C19.5745 376.881 4.59274 359.044 -12.4977 353.014C-32.213 346.071 -51.7807 355.049 -69.1956 339.688C-72.4102 336.857 -74.6369 331.83 -76.5243 326.479H-76.5538Z" fill="#66870C"/>
<path fill-rule="evenodd" clip-rule="evenodd" d="M20.5488 322.985C20.2981 322.823 20.0327 322.661 19.782 322.513C19.1922 320.965 18.6318 319.417 17.9977 317.914C17.865 317.604 17.4374 317.427 17.113 317.294C15.7711 316.764 14.4145 316.263 12.9694 315.732C13.2643 314.921 13.515 314.243 13.7362 313.653C11.2589 312.621 8.91428 311.648 6.58443 310.631C6.11256 310.425 5.30154 310.056 5.31629 309.747C5.46374 307.167 3.06017 307.226 2.32287 305.707C1.43812 306.268 0.715565 306.71 0.0225086 307.137C-1.27513 305.648 -2.88243 304.351 -0.301902 302.464C-1.52581 301.123 -3.33954 300.238 -1.89445 297.717C-1.73224 297.437 -2.80869 295.875 -3.57548 295.55C-5.18278 294.872 -6.95229 294.636 -8.7218 294.209C-8.5301 293.059 -8.35315 292.086 -8.14671 290.936C-9.82774 290.273 -9.84248 288.946 -9.03146 287.221C-8.73654 286.602 -8.51535 285.364 -8.78078 285.113C-10.1816 283.845 -8.98722 282.843 -8.54484 281.722C-8.42687 281.413 -8.55959 281 -8.58908 280.646C-7.77805 279.157 -6.98178 277.668 -6.17075 276.194C-5.30075 276.504 -4.416 276.813 -2.82345 277.388C-3.17735 275.767 -3.38379 274.808 -3.67871 273.452C-2.52853 271.772 -1.20139 269.811 0.214212 267.732C1.65931 268.749 2.88321 269.619 4.03339 270.43C4.78543 267.968 5.50798 265.654 6.21578 263.369C8.42767 263.084 10.1431 261.732 11.3621 259.315C11.539 258.976 11.8487 258.651 12.1731 258.445C13.5592 257.501 14.9748 256.602 16.6116 255.526C16.6559 255.29 16.7738 254.597 16.9213 253.654C18.5876 253.86 20.1064 254.14 21.6547 254.214C22.3035 254.243 23.4242 254.037 23.5864 253.61C24.7661 250.705 26.167 251.162 27.8037 252.71C28.1724 253.064 28.7032 253.212 29.1604 253.462C30.1336 252.312 31.0036 251.251 31.7114 250.411C33.6578 250.293 35.3831 250.189 37.3591 250.072C37.5655 249.821 38.0226 249.261 38.8189 248.258C41.0161 251.074 35.7223 252.194 37.713 254.715C39.7774 252.548 37.713 249.644 40.5294 249.968C40.9866 250.013 41.5174 249.57 42.0188 249.379C43.1837 248.922 37.1231 246.416 38.1701 246.607C40.0281 246.961 41.4879 246.681 42.6823 245C44.5993 246.386 46.3983 247.374 48.507 245.325C48.7134 245.118 49.1558 245.177 49.4949 245.148C50.4829 245.089 51.4709 245.059 52.68 245C52.9749 245.133 53.845 245.767 54.0219 245.575C55.6587 243.806 56.4697 245.487 57.1775 246.121C58.9028 245.177 60.3331 244.411 61.8077 243.615C65.1845 244.425 61.3654 243.747 64.9044 244.588C65.2288 244.661 65.6417 244.661 65.9513 244.529C67.2047 243.983 68.4581 243.364 69.7115 242.76C69.6673 242.583 69.6231 242.42 69.5788 242.258C70.1244 242.479 70.67 242.686 71.1861 242.892C71.5548 242.052 71.8939 241.315 72.469 240.018C76.008 241.905 79.4291 243.688 82.8059 245.546C83.1893 245.767 83.381 246.371 83.6316 246.828C84.6933 248.73 78.8982 247.226 79.8567 245.354C80.3728 245.678 80.8889 246.003 81.405 246.312C81.405 246.533 81.346 246.828 81.464 246.976C82.452 248.332 83.4989 249.629 84.4721 250.986C85.2979 252.121 87.2444 251.958 88.3503 250.587C88.601 250.75 88.8664 250.912 89.1171 251.059C89.3088 251.428 89.4857 251.811 89.6774 252.18C90.5179 253.816 93.2312 254.126 92.3317 257.089C92.2874 257.251 94.057 258.445 94.4404 258.165C96.8882 256.381 98.348 258.519 100.147 259.27C100.353 259.359 100.486 259.742 100.575 260.008C101.12 261.614 95.856 262.307 96.7407 263.605C97.5222 264.74 99.4982 266.288 100.118 265.89C102.492 264.386 103.288 266.848 104.703 267.437C105.411 267.732 105.632 269.295 105.927 270.003C107.844 270.961 110.602 271.359 111.487 273.054C112.371 274.764 113.654 275.988 114.509 277.639C114.76 278.14 114.908 279.172 114.657 279.511C113.507 280.971 110.853 281.634 111.295 282.194C112.43 283.624 114.111 284.523 115.571 285.644C115.807 285.821 116.205 286.027 116.205 286.248C116.205 288.887 119.199 289.152 120.423 290.818C119.449 291.865 117.886 291.776 117.061 293.236C117.311 292.779 118.786 296.066 118.712 296.789C118.565 298.351 116.456 300.843 115.586 302.007C114.288 301.447 113.05 300.71 111.796 300.032C110.764 301.948 110.071 303.231 109.437 304.41C107.977 303.909 110.351 304.218 109.098 303.791C108.154 305.25 107.476 307.27 106.502 307.535C105.411 307.845 104.069 306.459 102.772 306.046C102.329 305.899 101.666 306.444 100.516 306.901C102.049 307.329 102.845 307.55 103.73 307.801C103.052 311.383 102.388 314.788 101.74 318.179C98.3628 317.781 97.7877 318.253 96.9324 321.894C95.7085 321.776 94.4698 321.643 93.2607 321.525C93.1575 321.717 93.0395 321.864 92.9952 322.012C91.9925 326.508 91.8746 326.39 88.2176 324.164C87.0969 323.486 85.4896 321.393 83.5874 324.135C82.7764 325.299 86.5071 327.009 85.062 325.742C84.6638 325.388 83.9413 325.226 83.3957 325.314C81.1101 325.638 79.7387 324.135 78.2199 322.764C77.3057 321.938 76.126 321.422 75.0938 320.788C74.3417 321.953 73.8109 322.749 73.2948 323.545C67.883 321.098 67.2932 320.464 67.8093 317C66.9098 317.619 66.261 318.061 65.6122 318.503C65.1698 318.798 64.521 319.447 64.344 319.329C62.2501 317.766 68.8858 321.702 67.6176 322.675C67.131 323.044 66.084 323.206 65.7154 322.882C63.2381 320.626 63.2676 320.582 60.7608 323.162C60.4953 323.442 60.2447 323.722 59.9645 324.017C59.6106 323.737 59.3894 323.56 59.1535 323.368C57.5019 321.982 55.8651 320.685 54.0809 323.604C53.8744 323.943 53.1519 324.076 52.6948 324.046C51.7953 324.002 50.9105 323.781 50.011 323.619C49.9668 323.781 49.9226 323.958 49.8783 324.135C49.2885 323.471 48.6986 322.808 48.3005 322.336C47.3273 323.059 46.4868 324.135 45.6905 324.149C44.5108 324.164 43.3311 323.486 42.2105 322.97C40.7211 322.292 39.3498 321.378 37.7277 323.162C37.4475 323.457 43.744 324.577 43.1394 324.312C42.3432 323.943 41.7091 323.162 40.8981 322.926C39.394 322.513 37.8162 322.351 35.5306 321.968C34.3951 322.027 32.2128 322.72 30.517 322.071C28.0544 321.127 26.1522 321.334 24.0435 323.589C22.8934 322.321 25.5476 321.614 24.2057 320.626C23.3357 319.992 25.1642 320.169 24.6776 320.685C22.8049 322.631 22.274 320.921 21.4778 319.801C20.9174 320.361 24.1025 321.629 23.8224 321.923C22.6574 321.437 25.4002 321.791 24.4417 321.452C23.8371 321.231 22.9671 321.378 22.5837 320.95C20.3718 318.518 24.0878 319.226 21.6547 321.717C21.2713 322.115 20.9174 322.572 20.534 322.985H20.5488Z" fill="#66870C"/>
<path fill-rule="evenodd" clip-rule="evenodd" d="M139.339 308.936C139.56 309.128 139.796 309.349 140.017 309.555C140.342 311.206 140.637 312.872 141.02 314.494C141.109 314.818 141.492 315.083 141.787 315.29C143.011 316.086 144.249 316.838 145.577 317.649C145.149 318.4 144.795 319.02 144.485 319.565C146.727 321.083 148.865 322.513 150.974 323.973C151.401 324.268 152.124 324.798 152.05 325.093C151.504 327.644 153.834 328.042 154.321 329.693C155.265 329.309 156.046 329 156.783 328.705C157.816 330.445 159.172 332.051 156.356 333.422C157.329 335 158.951 336.223 157.152 338.464C156.96 338.7 157.757 340.469 158.435 340.941C159.895 341.914 161.576 342.503 163.227 343.285C162.859 344.39 162.534 345.334 162.151 346.425C163.684 347.412 163.493 348.739 162.431 350.302C162.048 350.862 161.635 352.041 161.856 352.351C163.021 353.869 161.694 354.651 161.089 355.683C160.927 355.963 161.001 356.405 160.956 356.773C159.939 358.1 158.922 359.427 157.904 360.739C157.108 360.253 156.312 359.781 154.837 358.882C154.925 360.562 154.984 361.579 155.043 362.98C153.672 364.425 152.065 366.12 150.354 367.904C149.116 366.621 148.054 365.501 147.066 364.469C145.945 366.768 144.883 368.936 143.822 371.088C141.63 370.94 139.747 371.948 138.174 374.11C137.953 374.42 137.584 374.67 137.26 374.818C135.756 375.481 134.252 376.1 132.467 376.852C132.394 377.073 132.173 377.766 131.878 378.665C130.285 378.134 128.855 377.56 127.365 377.191C126.746 377.044 125.625 377.029 125.389 377.412C123.782 380.066 122.499 379.343 121.143 377.501C120.833 377.073 120.361 376.822 119.948 376.483C118.827 377.442 117.795 378.326 116.984 379.034C115.067 378.768 113.372 378.533 111.425 378.267C111.189 378.474 110.658 378.945 109.729 379.786C108.034 376.557 113.357 376.469 111.838 373.565C109.493 375.334 111.027 378.621 108.343 377.751C107.901 377.619 107.326 377.958 106.795 378.061C105.571 378.297 111.086 381.967 110.098 381.569C108.343 380.862 106.883 380.847 105.468 382.292C103.816 380.537 102.224 379.196 99.8496 380.847C99.6136 381.009 99.186 380.876 98.8616 380.832C97.8884 380.7 96.9151 380.537 95.7355 380.36C95.4848 380.169 94.718 379.388 94.5263 379.52C92.6536 380.965 92.1227 379.137 91.5476 378.356C89.7191 378.96 88.2151 379.432 86.6372 379.948C83.4816 378.488 87.0944 379.903 83.7913 378.385C83.4816 378.238 83.0983 378.164 82.7591 378.238C81.4467 378.547 80.1343 378.916 78.8219 379.27C78.8367 379.447 78.8514 379.623 78.8662 379.786C78.3796 379.461 77.8782 379.137 77.4063 378.827C76.9197 379.594 76.4773 380.257 75.7106 381.437C72.5697 378.872 69.5173 376.424 66.5239 373.918C66.1847 373.638 66.0962 372.975 65.9193 372.488C65.182 370.38 70.5937 373.004 69.3551 374.7C68.898 374.272 68.4556 373.859 67.9985 373.447C68.028 373.225 68.1312 372.931 68.0575 372.768C67.3054 371.235 66.4944 369.732 65.7571 368.184C65.1378 366.886 63.2208 366.68 61.9232 367.815C61.702 367.609 61.4808 367.402 61.2449 367.196C61.1269 366.783 61.0089 366.385 60.8762 365.972C60.3159 364.174 57.7353 363.348 59.0772 360.562C59.1509 360.415 57.6026 358.882 57.1897 359.088C54.5355 360.385 53.4443 357.982 51.8222 356.877C51.6305 356.744 51.5716 356.346 51.5126 356.051C51.2324 354.341 56.4819 354.665 55.8184 353.206C55.2285 351.909 53.5475 350.007 52.8839 350.272C50.3329 351.304 49.9495 348.71 48.6519 347.84C48.0031 347.412 48.0473 345.806 47.8556 345.039C46.1451 343.712 43.5203 342.783 42.9305 340.926C42.3406 339.054 41.2789 337.58 40.7186 335.781C40.5564 335.221 40.5564 334.174 40.8808 333.894C42.2374 332.671 44.9212 332.523 44.5673 331.874C43.6825 330.223 42.1932 329 40.9545 327.599C40.7628 327.378 40.3942 327.098 40.4384 326.877C40.8661 324.253 37.9906 323.398 37.0469 321.496C38.1676 320.641 39.6716 321.024 40.7039 319.742C40.3794 320.14 39.4652 316.587 39.6569 315.865C40.055 314.332 42.5028 312.253 43.5203 311.28C44.7 312.076 45.7764 313.064 46.8971 313.993C48.2095 312.283 49.0943 311.147 49.8905 310.101C51.2324 310.882 48.9763 310.101 50.1117 310.779C51.2619 309.511 52.2351 307.624 53.2379 307.55C54.3438 307.447 55.4202 309.084 56.6146 309.776C57.0275 309.998 57.7501 309.599 58.9593 309.349C57.5437 308.627 56.7916 308.243 55.9658 307.83C57.2045 304.41 58.3694 301.138 59.5343 297.88C62.7489 298.926 63.3978 298.573 64.7839 295.123C65.9635 295.477 67.1432 295.845 68.3081 296.199C68.4409 296.022 68.5736 295.919 68.6473 295.757C70.3431 291.482 70.4315 291.6 73.6314 294.533C74.6046 295.418 75.8433 297.821 78.1289 295.462C79.1021 294.46 75.7401 292.012 76.9492 293.575C77.2884 294.017 77.9519 294.312 78.4975 294.327C80.7684 294.445 81.8596 296.229 83.1277 297.88C83.8945 298.897 84.9562 299.619 85.8557 300.474C86.77 299.472 87.4188 298.749 88.0381 298.071C92.919 301.55 93.3909 302.317 92.3439 305.663C93.3171 305.221 94.0102 304.897 94.7032 304.587C95.1751 304.381 95.9124 303.85 96.0599 304.027C97.8589 305.988 92.0195 300.769 93.4056 300.047C93.9217 299.781 94.9834 299.826 95.2783 300.209C97.3428 302.936 97.2985 302.98 100.144 300.887C100.439 300.666 100.734 300.43 101.044 300.194C101.339 300.548 101.545 300.769 101.722 300.99C103.123 302.686 104.495 304.292 106.706 301.742C106.957 301.432 107.68 301.447 108.137 301.565C109.007 301.786 109.833 302.199 110.673 302.523C110.747 302.361 110.82 302.214 110.894 302.052C111.366 302.833 111.823 303.6 112.148 304.145C113.195 303.629 114.197 302.7 114.979 302.848C116.129 303.054 117.161 303.968 118.179 304.705C119.521 305.678 120.715 306.857 122.573 305.383C122.883 305.133 116.94 302.789 117.486 303.187C118.193 303.717 118.695 304.617 119.462 305C120.848 305.722 122.367 306.179 124.519 307.005C125.625 307.182 127.867 306.887 129.415 307.875C131.656 309.29 133.544 309.452 135.947 307.624C136.862 309.113 134.178 309.305 135.313 310.543C136.051 311.354 134.311 310.808 134.871 310.396C136.994 308.818 137.245 310.617 137.85 311.899C138.484 311.457 135.579 309.57 135.918 309.334C136.98 310.027 134.355 309.157 135.24 309.688C135.8 310.027 136.655 310.042 136.965 310.543C138.734 313.403 135.24 311.973 137.982 309.953C138.425 309.629 138.838 309.246 139.265 308.907L139.339 308.936Z" fill="#8EAD1C"/>
<path fill-rule="evenodd" clip-rule="evenodd" d="M34.6725 416.242C34.466 416.035 34.2596 415.8 34.0531 415.593C33.9352 413.986 33.8614 412.365 33.6845 410.773C33.655 410.448 33.2863 410.153 33.0062 409.947C31.8412 409.077 30.6616 408.237 29.4082 407.338C29.9538 406.66 30.3962 406.099 30.7943 405.598C28.6856 403.947 26.6802 402.384 24.6895 400.792C24.2914 400.468 23.613 399.893 23.7163 399.628C24.6305 397.225 22.2564 396.635 21.991 395.013C20.9588 395.294 20.1183 395.515 19.322 395.721C18.4962 393.967 17.2871 392.301 20.3837 391.24C19.6022 389.647 18.0833 388.321 20.251 386.345C20.4869 386.124 19.9118 384.37 19.263 383.869C17.8917 382.792 16.2254 382.085 14.6328 381.186C15.1784 380.154 15.6208 379.299 16.1664 378.281C14.7213 377.191 15.0899 375.952 16.4023 374.537C16.8742 374.036 17.4788 372.945 17.2723 372.635C16.2844 371.073 17.7442 370.454 18.511 369.525C18.7174 369.274 18.7027 368.847 18.7911 368.508C20.0151 367.328 21.2537 366.164 22.4776 364.984C23.2444 365.515 23.9964 366.046 25.3973 367.033C25.53 365.412 25.6185 364.439 25.7365 363.112C27.3585 361.844 29.246 360.37 31.2514 358.822C32.3573 360.164 33.3011 361.328 34.1858 362.404C35.6604 360.311 37.0465 358.336 38.4179 356.375C40.6691 356.709 42.7532 355.913 44.6702 353.987C44.9503 353.721 45.3485 353.5 45.7171 353.397C47.3539 352.896 49.0055 352.439 50.9372 351.893C51.0404 351.687 51.3648 351.053 51.7924 350.213C53.3555 350.862 54.7711 351.54 56.2604 352.026C56.8797 352.233 58.0447 352.336 58.3396 351.982C60.3598 349.594 61.5837 350.39 62.7339 352.292C62.9845 352.719 63.4564 352.999 63.825 353.368C65.1227 352.542 66.2876 351.805 67.2313 351.201C69.1778 351.628 70.8883 351.997 72.879 352.439C73.1592 352.262 73.7638 351.849 74.8402 351.142C76.1526 354.385 70.6524 353.987 71.8321 356.891C74.5011 355.417 73.3509 352.129 76.0051 353.205C76.4328 353.382 77.0816 353.102 77.6419 353.058C78.9248 352.94 73.7343 348.93 74.6928 349.402C76.418 350.242 77.9221 350.375 79.5884 349.137C81.063 350.965 82.5081 352.38 85.1771 351.024C85.4425 350.891 85.8554 351.053 86.1945 351.127C87.1825 351.348 88.1705 351.584 89.3502 351.864C89.6008 352.056 90.2644 352.896 90.4856 352.763C92.6237 351.554 92.9187 353.353 93.4053 354.134C95.3812 353.736 97.0033 353.397 98.6843 353.043C101.751 354.739 98.1977 353.058 101.412 354.798C101.707 354.96 102.105 355.078 102.459 355.033C103.86 354.871 105.261 354.635 106.662 354.414C106.662 354.252 106.662 354.09 106.677 353.913C107.148 354.267 107.62 354.621 108.063 354.96C108.667 354.282 109.228 353.662 110.171 352.616C113.076 355.343 115.893 357.967 118.65 360.635C118.96 360.945 118.975 361.579 119.078 362.065C119.55 364.144 114.315 361.151 115.819 359.648C116.232 360.09 116.63 360.532 117.043 360.974C116.984 361.181 116.836 361.446 116.895 361.608C117.471 363.156 118.105 364.66 118.65 366.208C119.122 367.505 121.083 367.874 122.558 366.915C122.764 367.122 122.971 367.343 123.177 367.564C123.251 367.977 123.325 368.375 123.398 368.773C123.738 370.542 126.303 371.559 124.534 374.109C124.445 374.242 125.831 375.849 126.274 375.702C129.208 374.699 130.005 377.087 131.523 378.311C131.7 378.444 131.715 378.842 131.73 379.122C131.789 380.773 126.421 379.991 126.908 381.451C127.336 382.733 128.81 384.709 129.547 384.517C132.32 383.765 132.364 386.286 133.588 387.23C134.192 387.701 133.942 389.235 134.03 389.972C135.623 391.402 138.203 392.537 138.572 394.35C138.911 396.208 139.825 397.711 140.15 399.48C140.253 400.026 140.091 401.028 139.737 401.264C138.174 402.311 135.387 402.222 135.667 402.871C136.36 404.522 137.731 405.819 138.808 407.279C138.985 407.515 139.324 407.824 139.25 408.016C138.454 410.478 141.315 411.554 142.022 413.47C140.754 414.178 139.25 413.677 137.997 414.812C138.38 414.458 138.837 417.937 138.557 418.6C137.938 420.03 135.136 421.785 133.956 422.625C132.836 421.755 131.863 420.723 130.83 419.736C129.238 421.254 128.176 422.271 127.218 423.185C125.935 422.315 128.161 423.259 127.07 422.507C125.713 423.613 124.445 425.323 123.398 425.308C122.233 425.308 121.349 423.642 120.199 422.876C119.8 422.625 119.004 422.949 117.736 423.067C119.107 423.878 119.83 424.32 120.611 424.792C118.871 427.962 117.22 430.969 115.568 433.976C112.383 432.694 111.675 432.959 109.773 436.143C108.608 435.701 107.429 435.244 106.278 434.802C106.101 434.964 105.954 435.052 105.88 435.2C103.55 439.136 103.477 439.003 100.557 435.907C99.6723 434.964 98.7285 432.561 96.0301 434.625C94.8946 435.495 98.0355 438.133 97.0033 436.527C96.7231 436.084 96.0595 435.745 95.4992 435.672C93.1546 435.362 92.2846 433.563 91.1934 431.853C90.5298 430.821 89.5419 430.025 88.7161 429.126C87.6396 430.011 86.8729 430.63 86.1356 431.219C81.5643 427.446 81.1809 426.679 82.7145 423.568C81.6528 423.893 80.886 424.158 80.134 424.379C79.6326 424.541 78.7774 424.969 78.6447 424.807C77.0521 422.772 82.3754 428.286 80.8565 428.846C80.2814 429.052 79.1902 428.92 78.9396 428.522C77.1848 425.736 77.2291 425.691 73.9997 427.431C73.6606 427.608 73.3362 427.814 72.9675 428.021C72.7021 427.667 72.5399 427.431 72.3777 427.195C71.1537 425.441 69.9593 423.775 67.3346 426.03C67.0249 426.296 66.2876 426.222 65.8305 426.075C64.9605 425.78 64.1642 425.323 63.3384 424.939C63.2352 425.087 63.1467 425.22 63.0583 425.367C62.6749 424.586 62.3062 423.804 62.0408 423.259C60.8906 423.657 59.7404 424.453 58.9442 424.247C57.7792 423.937 56.8355 422.979 55.9065 422.183C54.6531 421.136 53.5767 419.898 51.4533 421.136C51.0994 421.342 56.924 424.129 56.4226 423.701C55.7591 423.141 55.3609 422.227 54.6384 421.799C53.2965 420.989 51.7924 420.414 49.669 419.426C48.5483 419.175 46.189 419.234 44.7291 418.158C42.6057 416.596 40.674 416.271 37.946 417.819C37.194 416.315 39.9957 416.374 38.9782 415.092C38.3147 414.252 40.0547 414.93 39.4206 415.269C37.017 416.581 37.0023 414.841 36.5599 413.559C35.8374 413.927 38.5801 415.991 38.2115 416.183C37.2087 415.416 39.7893 416.492 38.9488 415.917C38.4179 415.549 37.5331 415.446 37.2972 414.944C35.8521 412.055 39.2732 413.736 36.1618 415.416C35.6604 415.682 35.1738 416.006 34.6872 416.301L34.6725 416.242Z" fill="#56A00E"/>
<path fill-rule="evenodd" clip-rule="evenodd" d="M202.614 390.739C202.776 390.989 202.953 391.24 203.115 391.476C202.982 393.083 202.806 394.689 202.747 396.296C202.732 396.621 203.056 396.96 203.307 397.21C204.31 398.257 205.357 399.245 206.463 400.336C205.828 400.925 205.298 401.412 204.826 401.839C206.654 403.8 208.409 405.643 210.119 407.53C210.473 407.913 211.048 408.576 210.901 408.842C209.633 411.053 211.874 412.011 211.889 413.662C212.951 413.544 213.821 413.456 214.646 413.367C215.192 415.225 216.121 417.053 212.892 417.613C213.423 419.323 214.72 420.856 212.272 422.478C211.992 422.655 212.302 424.483 212.877 425.087C214.071 426.355 215.59 427.313 217.05 428.448C216.357 429.377 215.767 430.173 215.089 431.087C216.357 432.384 215.797 433.564 214.278 434.743C213.732 435.171 212.98 436.158 213.128 436.497C213.865 438.193 212.317 438.576 211.417 439.387C211.166 439.608 211.107 440.035 210.975 440.345C209.574 441.318 208.188 442.291 206.787 443.264C206.123 442.615 205.445 441.967 204.206 440.787C203.823 442.365 203.602 443.308 203.277 444.62C201.478 445.608 199.384 446.787 197.158 448.011C196.273 446.507 195.521 445.21 194.813 444.031C193.044 445.873 191.363 447.598 189.696 449.338C187.524 448.659 185.341 449.126 183.149 450.738C182.825 450.959 182.397 451.107 182.029 451.166C180.333 451.401 178.637 451.608 176.632 451.858C176.499 452.05 176.086 452.625 175.526 453.377C174.066 452.492 172.783 451.608 171.397 450.9C170.807 450.605 169.686 450.311 169.347 450.62C166.973 452.669 165.897 451.696 165.056 449.647C164.864 449.19 164.452 448.822 164.142 448.409C162.741 449.028 161.458 449.573 160.426 450.03C158.583 449.308 156.946 448.674 155.044 447.937C154.749 448.07 154.085 448.379 152.905 448.925C152.109 445.505 157.491 446.758 156.769 443.706C153.908 444.753 154.542 448.173 152.08 446.714C151.682 446.478 150.989 446.64 150.443 446.61C149.16 446.522 153.672 451.284 152.788 450.679C151.224 449.588 149.75 449.22 147.907 450.193C146.727 448.158 145.518 446.537 142.672 447.465C142.392 447.554 142.008 447.333 141.684 447.2C140.74 446.846 139.811 446.448 138.676 445.991C138.469 445.755 137.924 444.827 137.688 444.915C135.402 445.8 135.373 443.957 135.019 443.117C133.013 443.205 131.362 443.293 129.637 443.367C126.879 441.23 130.108 443.426 127.203 441.215C126.938 441.008 126.569 440.832 126.215 440.817C124.8 440.773 123.384 440.787 121.969 440.787C121.924 440.949 121.895 441.126 121.88 441.289C121.467 440.861 121.054 440.448 120.671 440.05C119.963 440.625 119.329 441.141 118.223 442.04C115.775 438.9 113.387 435.878 111.071 432.797C110.806 432.458 110.909 431.824 110.865 431.323C110.703 429.2 115.421 432.959 113.696 434.212C113.357 433.711 113.033 433.21 112.679 432.724C112.767 432.517 112.959 432.281 112.929 432.104C112.605 430.497 112.207 428.905 111.897 427.299C111.632 425.957 109.759 425.279 108.137 426.001C107.975 425.751 107.813 425.5 107.636 425.264C107.636 424.851 107.636 424.439 107.606 424.041C107.547 422.257 105.173 420.842 107.311 418.601C107.429 418.483 106.309 416.684 105.837 416.773C102.784 417.304 102.371 414.827 101.059 413.382C100.897 413.22 100.956 412.837 100.985 412.557C101.177 410.906 106.367 412.512 106.102 410.994C105.881 409.652 104.731 407.471 103.979 407.559C101.118 407.883 101.472 405.377 100.41 404.257C99.8941 403.697 100.366 402.223 100.41 401.471C99.0535 399.82 96.6795 398.301 96.6057 396.444C96.532 394.572 95.8832 392.935 95.8242 391.137C95.8242 390.576 96.1191 389.604 96.5173 389.427C98.213 388.631 100.971 389.161 100.794 388.468C100.366 386.729 99.2157 385.225 98.3605 383.633C98.2278 383.368 97.9329 383.029 98.0361 382.837C99.201 380.523 96.5468 379.019 96.1339 377.029C97.5052 376.513 98.9061 377.25 100.307 376.321C99.8646 376.616 99.9531 373.093 100.336 372.488C101.162 371.176 104.2 369.864 105.512 369.215C106.471 370.247 107.282 371.412 108.152 372.562C109.951 371.309 111.16 370.469 112.251 369.702C113.372 370.763 111.322 369.481 112.281 370.38C113.799 369.496 115.304 368.007 116.336 368.169C117.486 368.36 118.105 370.129 119.123 371.058C119.477 371.368 120.317 371.176 121.585 371.25C120.361 370.233 119.713 369.702 119.005 369.112C121.202 366.238 123.311 363.525 125.404 360.813C128.339 362.582 129.091 362.405 131.465 359.56C132.556 360.193 133.633 360.827 134.709 361.432C134.901 361.314 135.063 361.24 135.166 361.107C138.086 357.569 138.13 357.702 140.534 361.225C141.271 362.287 141.846 364.808 144.81 363.201C146.078 362.508 143.365 359.427 144.146 361.166C144.368 361.653 144.957 362.095 145.503 362.257C147.759 362.935 148.364 364.852 149.175 366.68C149.661 367.8 150.517 368.744 151.21 369.746C152.404 369.053 153.259 368.552 154.07 368.08C158.008 372.503 158.258 373.328 156.282 376.159C157.388 375.982 158.17 375.864 158.966 375.761C159.497 375.687 160.396 375.392 160.5 375.569C161.768 377.825 157.344 371.559 158.951 371.235C159.556 371.102 160.603 371.412 160.795 371.854C162.107 374.876 162.048 374.906 165.513 373.697C165.882 373.579 166.236 373.432 166.619 373.284C166.811 373.668 166.944 373.933 167.076 374.198C168.005 376.115 168.949 377.943 171.883 376.129C172.237 375.908 172.96 376.1 173.358 376.321C174.169 376.749 174.892 377.309 175.658 377.839C175.776 377.707 175.894 377.574 176.012 377.456C176.263 378.282 176.514 379.122 176.691 379.697C177.9 379.476 179.153 378.871 179.89 379.196C180.996 379.682 181.778 380.773 182.589 381.702C183.665 382.94 184.535 384.326 186.821 383.427C187.204 383.265 181.866 379.638 182.309 380.139C182.884 380.788 183.135 381.746 183.783 382.306C184.993 383.309 186.379 384.105 188.325 385.417C189.402 385.844 191.731 386.154 193.014 387.436C194.872 389.309 196.73 389.928 199.665 388.822C200.166 390.429 197.409 389.943 198.205 391.358C198.736 392.287 197.128 391.358 197.792 391.122C200.372 390.208 200.122 391.918 200.372 393.259C201.139 392.994 198.75 390.532 199.134 390.414C200.004 391.328 197.615 389.869 198.352 390.562C198.809 391.004 199.679 391.24 199.856 391.785C200.83 394.866 197.703 392.67 201.051 391.49C201.582 391.299 202.112 391.048 202.643 390.842L202.614 390.739Z" fill="#087767"/>
<path fill-rule="evenodd" clip-rule="evenodd" d="M-36.9918 418.557C-37.2572 418.395 -37.5079 418.233 -37.7586 418.085C-38.3484 416.538 -38.894 414.99 -39.5428 413.471C-39.6755 413.162 -40.1031 412.985 -40.4423 412.852C-41.7842 412.321 -43.1555 411.835 -44.5859 411.289C-44.2762 410.479 -44.0403 409.8 -43.8044 409.196C-46.2817 408.164 -48.6263 407.191 -50.9561 406.174C-51.428 405.968 -52.2243 405.599 -52.2243 405.304C-52.0768 402.71 -54.4656 402.783 -55.2177 401.265C-56.1024 401.81 -56.825 402.267 -57.518 402.695C-58.8157 401.206 -60.4377 399.909 -57.8424 398.022C-59.0663 396.665 -60.8801 395.796 -59.435 393.275C-59.2728 392.995 -60.3492 391.432 -61.116 391.123C-62.7233 390.444 -64.4928 390.209 -66.2623 389.781C-66.0559 388.631 -65.8937 387.658 -65.6872 386.508C-67.3683 385.845 -67.3978 384.518 -66.572 382.779C-66.2771 382.159 -66.0559 380.921 -66.3213 380.671C-67.7222 379.417 -66.5278 378.4 -66.0854 377.28C-65.9674 376.97 -66.1001 376.558 -66.1296 376.204C-65.3333 374.715 -64.5223 373.226 -63.726 371.752C-62.856 372.061 -61.9713 372.371 -60.364 372.946C-60.7179 371.324 -60.9391 370.351 -61.2192 369.01C-60.0838 367.329 -58.7419 365.383 -57.3263 363.29C-55.8812 364.307 -54.6573 365.177 -53.5072 365.988C-52.7551 363.526 -52.0326 361.226 -51.3248 358.926C-49.1129 358.631 -47.3974 357.28 -46.1784 354.872C-46.0015 354.533 -45.6771 354.209 -45.3674 354.002C-43.9813 353.059 -42.5657 352.16 -40.9289 351.098C-40.8847 350.862 -40.7667 350.17 -40.6193 349.226C-38.953 349.432 -37.4194 349.713 -35.8858 349.786C-35.237 349.816 -34.1311 349.609 -33.9541 349.182C-32.7745 346.278 -31.3736 346.735 -29.7368 348.268C-29.3682 348.622 -28.8373 348.769 -28.3802 349.02C-27.4217 347.87 -26.5369 346.808 -25.8291 345.968C-23.8827 345.85 -22.1574 345.747 -20.1815 345.629C-19.975 345.378 -19.5327 344.818 -18.7364 343.816C-16.5392 346.632 -21.8183 347.752 -19.8423 350.273C-17.7779 348.106 -19.8423 345.202 -17.0258 345.526C-16.5687 345.585 -16.0379 345.128 -15.5365 344.936C-14.3568 344.479 -20.4321 341.958 -19.3852 342.165C-17.5272 342.519 -16.0674 342.224 -14.873 340.558C-12.956 341.944 -11.157 342.946 -9.04834 340.867C-8.84189 340.661 -8.39951 340.72 -8.06035 340.691C-7.07238 340.632 -6.08441 340.587 -4.87525 340.543C-4.58033 340.676 -3.71032 341.31 -3.53337 341.118C-1.89658 339.334 -1.07081 341.03 -0.377754 341.663C1.34751 340.735 2.76311 339.968 4.25245 339.157C7.62926 339.968 3.79533 339.29 7.33434 340.13C7.65874 340.204 8.07162 340.204 8.38129 340.071C9.63469 339.526 10.8881 338.907 12.1415 338.317C12.0973 338.14 12.053 337.978 12.0088 337.816C12.5544 338.037 13.1 338.243 13.6161 338.45C13.9847 337.609 14.3239 336.872 14.899 335.59C18.438 337.462 21.859 339.261 25.2506 341.118C25.634 341.324 25.8257 341.944 26.0763 342.401C27.138 344.302 21.3282 342.813 22.3014 340.926C22.8175 341.251 23.3336 341.56 23.8497 341.885C23.8645 342.106 23.8055 342.415 23.9087 342.548C24.9114 343.904 25.9436 345.202 26.9316 346.558C27.7426 347.693 29.7038 347.531 30.8098 346.175C31.0752 346.337 31.3259 346.484 31.5913 346.646C31.783 347.015 31.96 347.398 32.1516 347.767C32.9922 349.403 35.7054 349.713 34.8059 352.676C34.7617 352.838 36.5312 354.032 36.9146 353.752C39.3624 351.968 40.8222 354.091 42.6065 354.857C42.8129 354.946 42.9456 355.329 43.0341 355.595C43.5797 357.187 38.3154 357.909 39.2002 359.192C39.9817 360.341 41.9577 361.875 42.577 361.477C44.9658 359.973 45.7474 362.435 47.1777 363.025C47.8855 363.305 48.1067 364.882 48.4164 365.59C50.3333 366.533 53.0908 366.931 53.9755 368.626C54.8603 370.336 56.1579 371.56 56.9837 373.211C57.2344 373.712 57.3966 374.744 57.1312 375.083C55.981 376.543 53.3267 377.221 53.7838 377.781C54.9193 379.211 56.6003 380.11 58.0602 381.231C58.2961 381.408 58.6942 381.614 58.6942 381.835C58.6942 384.459 61.6876 384.739 62.9115 386.405C61.9383 387.467 60.3753 387.363 59.5495 388.823C59.8002 388.366 61.2747 391.653 61.201 392.39C61.0536 393.953 58.9449 396.444 58.0749 397.609C56.7773 397.049 55.5386 396.312 54.2852 395.619C53.2382 397.55 52.5599 398.818 51.9259 399.997C50.466 399.496 52.8401 399.806 51.5867 399.378C50.643 400.837 49.9647 402.857 48.9914 403.137C47.9002 403.447 46.5584 402.061 45.2607 401.633C44.8184 401.501 44.1548 402.032 42.9899 402.503C44.5234 402.931 45.3197 403.152 46.2045 403.402C45.5114 406.97 44.8626 410.375 44.2138 413.781C40.8517 413.383 40.2619 413.854 39.4214 417.496C38.1827 417.378 36.9588 417.26 35.7349 417.142C35.6317 417.334 35.5137 417.481 35.4695 417.628C34.452 422.125 34.3488 422.022 30.7066 419.781C29.6006 419.103 27.9786 417.009 26.0763 419.766C25.2653 420.931 28.996 422.641 27.5657 421.373C27.1675 421.004 26.445 420.857 25.8994 420.931C23.6138 421.255 22.2424 419.751 20.7236 418.38C19.8093 417.555 18.6444 417.039 17.5975 416.39C16.8454 417.555 16.3146 418.366 15.8132 419.147C10.4015 416.714 9.81165 416.066 10.313 412.601C9.41351 413.221 8.77943 413.663 8.13062 414.105C7.70298 414.4 7.03942 415.049 6.86246 414.931C4.75381 413.368 11.3895 417.304 10.1361 418.277C9.64944 418.646 8.60248 418.808 8.23383 418.483C5.75652 416.228 5.78602 416.184 3.27922 418.764C3.01379 419.044 2.76311 419.324 2.48294 419.619C2.12904 419.338 1.90786 419.162 1.67192 418.97C0.0203857 417.584 -1.61642 416.287 -3.41541 419.206C-3.62185 419.545 -4.34439 419.678 -4.80152 419.663C-5.70102 419.619 -6.58577 419.383 -7.48526 419.221C-7.5295 419.397 -7.57375 419.56 -7.61798 419.722C-8.20782 419.058 -8.78291 418.395 -9.19579 417.923C-10.169 418.631 -11.0095 419.722 -11.8058 419.737C-12.9855 419.737 -14.1504 419.073 -15.2711 418.557C-16.7604 417.864 -18.1318 416.965 -19.7538 418.749C-20.034 419.058 -13.7228 420.179 -14.3421 419.899C-15.1384 419.53 -15.7725 418.749 -16.5835 418.528C-18.0876 418.1 -19.6654 417.953 -21.951 417.555C-23.0864 417.614 -25.2688 418.321 -26.9646 417.658C-29.4271 416.714 -31.3293 416.921 -33.438 419.176C-34.5882 417.909 -31.9339 417.201 -33.2758 416.213C-34.1458 415.565 -32.3173 415.756 -32.8039 416.272C-34.6767 418.218 -35.2075 416.523 -36.0038 415.388C-36.5641 415.948 -33.379 417.216 -33.6592 417.51C-34.8241 417.024 -32.0814 417.378 -33.0399 417.039C-33.6445 416.818 -34.5145 416.965 -34.8979 416.538C-37.1097 414.105 -33.3938 414.827 -35.8268 417.319C-36.225 417.717 -36.5789 418.159 -36.9475 418.587L-36.9918 418.557Z" fill="#AFCC37"/>
</g>
</svg>
