<svg width="584" height="491" viewBox="0 0 584 491" fill="none" xmlns="http://www.w3.org/2000/svg">
<g clip-path="url(#clip0_268_3)">
<path d="M538.234 -158.103C530.204 -171.116 526.172 -173.238 510.08 -176.925C434.376 -191.729 353.278 -180.429 281.3 -138.873C122.606 -47.2509 68.5637 156.148 160.5 315.386C252.436 474.625 455.606 529.522 614.3 437.9C686.278 396.344 736.668 331.729 761.722 258.678C767.292 240.556 766.605 237.319 755.582 218.098L656.292 46.1232L570.084 284.408C553.35 328.108 503.956 355.291 454.753 338.017C405.461 320.719 381.909 267.129 398.933 220.22C399.105 219.75 418.229 166.883 418.322 166.533C417.917 166.47 362.57 156.599 362.133 156.481C312.997 147.769 278.418 100.545 288.028 49.2411C297.693 -2.09525 345.875 -31.2484 392.12 -23.8344L641.553 20.5939L538.345 -158.167L538.234 -158.103Z" fill="#F6F8F9"/>
</g>
<defs>
<clipPath id="clip0_268_3">
<rect width="584" height="491" fill="white"/>
</clipPath>
</defs>
</svg>
