<svg width="936" height="786" viewBox="0 0 936 786" fill="none" xmlns="http://www.w3.org/2000/svg">
<g clip-path="url(#clip0_428_7828)">
<path d="M294.472 -172.103C269.996 -171.36 263.825 -167.458 245.828 -148.064C164.687 -54.7926 115.426 66.8421 115.426 200.01C115.426 493.614 354.223 731.304 648.657 730.997C943.091 730.691 1181.89 492.504 1181.89 198.9C1181.89 65.7321 1132.63 -55.9025 1051.38 -149.107C1030.71 -171.331 1025.67 -172.966 990.192 -173.032L672.208 -172.701L933.63 137.546C980.834 195.726 978.983 286.044 915.633 340.546C852.18 395.15 759.006 384.995 707.585 323.847C707.071 323.233 649.068 254.403 648.657 253.993C648.246 254.506 590.243 323.457 589.729 323.97C538.308 385.225 445.134 395.471 381.681 341.101C318.228 286.629 316.377 196.418 363.684 138.14L625.004 -172.652L294.472 -172.308L294.472 -172.103Z" fill="#F6F8F9"/>
</g>
<defs>
<clipPath id="clip0_428_7828">
<rect width="936" height="786" fill="white"/>
</clipPath>
</defs>
</svg>
