<svg width="342" height="566" viewBox="0 0 342 566" fill="none" xmlns="http://www.w3.org/2000/svg">
<path d="M-16.7994 544.082C-9.98575 555.134 -6.5645 556.936 7.08916 560.068C71.3219 572.641 140.131 563.044 201.202 527.749C335.85 449.932 381.703 277.18 303.698 141.934C225.693 6.68902 53.3082 -39.9367 -81.3394 37.8803C-142.41 73.1752 -185.165 128.054 -206.423 190.099C-211.149 205.49 -210.566 208.239 -201.213 224.564L-116.968 370.627L-43.8227 168.245C-29.6248 131.129 12.2848 108.042 54.0327 122.714C95.8548 137.405 115.838 182.921 101.394 222.762C101.248 223.161 85.0218 268.062 84.9427 268.36C85.2868 268.413 132.247 276.797 132.618 276.898C174.308 284.296 203.648 324.405 195.494 367.979C187.294 411.58 146.412 436.341 107.175 430.044L-104.462 392.31L-16.8935 544.136L-16.7994 544.082Z" fill="#F8FAFB"/>
</svg>
