<svg width="1191" height="1001" viewBox="0 0 1191 1001" fill="none" xmlns="http://www.w3.org/2000/svg">
<g clip-path="url(#clip0_324_400)">
<path d="M1097.67 -322.323C1081.29 -348.854 1073.07 -353.179 1040.25 -360.696C885.858 -390.877 720.469 -367.84 573.679 -283.12C250.041 -96.3302 139.828 318.339 327.321 642.977C514.814 967.616 929.156 1079.53 1252.79 892.745C1399.58 808.025 1502.35 676.295 1553.44 527.366C1564.8 490.421 1563.4 483.822 1540.92 444.637L1338.43 94.0315L1162.62 579.822C1128.49 668.914 1027.76 724.331 927.415 689.114C826.891 653.849 778.859 544.594 813.577 448.963C813.928 448.004 852.93 340.224 853.12 339.51C852.293 339.382 739.42 319.257 738.527 319.017C638.321 301.257 567.801 204.982 587.399 100.388C607.11 -4.27144 705.373 -63.7059 799.683 -48.5909L1308.37 41.985L1097.89 -322.454L1097.67 -322.323Z" fill="#F6F8F9"/>
</g>
<defs>
<clipPath id="clip0_324_400">
<rect width="1191" height="1001" fill="white"/>
</clipPath>
</defs>
</svg>
