<svg width="848" height="713" viewBox="0 0 848 713" fill="none" xmlns="http://www.w3.org/2000/svg">
<g clip-path="url(#clip0_274_4)">
<path d="M781.546 -229.587C769.885 -248.484 764.03 -251.565 740.664 -256.919C630.738 -278.417 512.979 -262.008 408.464 -201.663C178.032 -68.6149 99.5587 226.749 233.055 457.985C366.552 689.221 661.566 768.939 891.998 635.891C996.513 575.546 1069.68 481.716 1106.06 375.636C1114.15 349.321 1113.15 344.62 1097.15 316.709L952.972 66.9775L827.793 413C803.495 476.459 731.772 515.932 660.326 490.847C588.753 465.728 554.553 387.908 579.273 319.791C579.522 319.108 607.292 242.337 607.427 241.829C606.839 241.738 526.472 227.403 525.837 227.232C454.489 214.582 404.279 146.006 418.232 71.5049C432.267 -3.04255 502.231 -45.377 569.38 -34.6107L931.57 29.9054L781.707 -229.68L781.546 -229.587Z" fill="#F5F8F9"/>
</g>
<defs>
<clipPath id="clip0_274_4">
<rect width="848" height="713" fill="white"/>
</clipPath>
</defs>
</svg>
