<svg width="751" height="729" viewBox="0 0 751 729" fill="none" xmlns="http://www.w3.org/2000/svg">
<path d="M-246.009 71.2348C-266.258 83.7344 -269.559 90.0106 -275.296 115.058C-298.331 232.892 -280.749 359.121 -216.087 471.154C-73.5224 718.162 242.968 802.28 490.744 659.181C738.52 516.081 823.941 199.846 681.376 -47.1626C616.714 -159.196 516.173 -237.628 402.505 -276.626C374.308 -285.295 369.271 -284.226 339.363 -267.068L71.7686 -112.523L442.542 21.6609C510.54 47.7067 552.836 124.589 525.957 201.175C499.042 277.897 415.655 314.556 342.665 288.058C341.934 287.791 259.672 258.024 259.127 257.879C259.029 258.51 243.669 344.657 243.485 345.338C229.931 421.818 156.45 475.64 76.62 460.683C-3.25978 445.639 -48.6223 370.643 -37.086 298.663L32.0448 -89.5809L-246.108 71.0623L-246.009 71.2348Z" fill="#F6F8F9"/>
</svg>
