<svg width="359" height="470" viewBox="0 0 359 470" fill="none" xmlns="http://www.w3.org/2000/svg">
<g clip-path="url(#clip0_429_491)">
<path d="M229.109 119.572L354.326 50.106L268.449 0L143.285 69.6238L229.109 119.572Z" fill="white"/>
<path d="M342.299 49.739L268.188 5.98145L154.736 68.2074L228.9 111.755L342.299 49.739Z" fill="#ECECEC"/>
<path d="M143.496 69.2563L229.109 119.572L228.952 312.231L141.92 262.335L143.496 69.2563Z" fill="#F7F1F1"/>
<path d="M228.848 312.179L353.907 242.87L354.327 50.106L229.11 119.52L228.848 312.179Z" fill="#CAC4C4"/>
<path d="M319.66 99.7925L339.462 89.2466V79.2778L319.66 89.7713V99.7925Z" fill="url(#paint0_linear_429_491)"/>
<path d="M319.66 120.727L339.462 110.234V100.212L319.66 110.758V120.727Z" fill="url(#paint1_linear_429_491)"/>
<path d="M319.66 139.405L339.462 128.912V118.891L319.66 129.437V139.405Z" fill="url(#paint2_linear_429_491)"/>
<path d="M319.66 159.343L339.462 148.849V138.828L319.66 149.374V159.343Z" fill="url(#paint3_linear_429_491)"/>
<path d="M319.66 178.755L339.462 168.262V158.241L319.66 168.787V178.755Z" fill="url(#paint4_linear_429_491)"/>
<path d="M319.66 199.742L339.462 189.196V179.228L319.66 189.721V199.742Z" fill="url(#paint5_linear_429_491)"/>
<path d="M319.66 218.42L339.462 207.874V197.906L319.66 208.399V218.42Z" fill="url(#paint6_linear_429_491)"/>
<path d="M319.66 238.358L339.462 227.812V217.843L319.66 228.337V238.358Z" fill="url(#paint7_linear_429_491)"/>
<path d="M288.041 118.313L307.895 107.82V97.7988L288.041 108.345V118.313Z" fill="url(#paint8_linear_429_491)"/>
<path d="M288.041 139.3L307.895 128.807V118.786L288.041 129.279V139.3Z" fill="url(#paint9_linear_429_491)"/>
<path d="M288.041 157.978L307.895 147.433V137.464L288.041 147.957V157.978Z" fill="url(#paint10_linear_429_491)"/>
<path d="M288.041 177.916L307.895 167.423V157.401L288.041 167.895V177.916Z" fill="url(#paint11_linear_429_491)"/>
<path d="M288.041 196.804L307.895 186.258V176.29L288.041 186.783V196.804Z" fill="url(#paint12_linear_429_491)"/>
<path d="M288.041 217.739L307.895 207.245V197.224L288.041 207.77V217.739Z" fill="url(#paint13_linear_429_491)"/>
<path d="M288.041 236.417L307.895 225.924V215.902L288.041 226.448V236.417Z" fill="url(#paint14_linear_429_491)"/>
<path d="M288.041 256.354L307.895 245.861V235.892L288.041 246.386V256.354Z" fill="url(#paint15_linear_429_491)"/>
<path d="M278.744 144.127V113.276L267.819 119.1L229.057 139.615V170.413L234.677 167.422L278.744 144.127Z" fill="url(#paint16_linear_429_491)"/>
<path d="M267.819 157.401L229.057 177.916V208.662L234.677 205.671L278.744 182.376V151.63L267.819 157.401Z" fill="url(#paint17_linear_429_491)"/>
<path d="M267.819 194.915L229.057 215.43V246.28L234.677 243.29L278.744 219.942V189.144L267.819 194.915Z" fill="url(#paint18_linear_429_491)"/>
<path d="M267.819 233.268L229.057 253.731V284.476L234.677 281.486L278.744 258.243V227.497L267.819 233.268Z" fill="url(#paint19_linear_429_491)"/>
<path d="M178.582 110.968L167.92 104.934V135.68L195.547 151.367L229.058 170.413V139.667L178.582 110.968Z" fill="url(#paint20_linear_429_491)"/>
<path d="M229.005 208.662V177.916L178.582 149.216L167.92 143.183V173.928L195.547 189.616L229.005 208.662Z" fill="url(#paint21_linear_429_491)"/>
<path d="M167.92 180.749V211.495L195.547 227.235L229.058 246.28V215.482L178.582 186.783L167.92 180.749Z" fill="url(#paint22_linear_429_491)"/>
<path d="M167.92 218.998V249.743L195.547 265.483L229.005 284.529V253.783L178.582 225.084L167.92 218.998Z" fill="url(#paint23_linear_429_491)"/>
<path opacity="0.33" d="M275.961 25.1316L273.02 37.4614L287.411 37.6713L294.344 34.1035L275.698 23.5576L275.961 25.1316Z" fill="url(#paint24_linear_429_491)"/>
<path d="M273.019 33.7363L251.379 21.1966L262.356 15.3203L283.996 27.8075L273.019 33.7363Z" fill="white"/>
<path d="M283.997 31.6377L273.02 37.514V33.7364L283.997 27.8076V31.6377Z" fill="#787371"/>
<path d="M273.019 37.514L251.379 25.0269V21.1968L273.019 33.7364V37.514Z" fill="#D6CCC2"/>
<path opacity="0.33" d="M310.469 46.3809L307.527 58.7631L321.919 58.9205L328.852 55.3528L310.206 44.8594L310.469 46.3809Z" fill="url(#paint25_linear_429_491)"/>
<path d="M307.527 54.9853L285.887 42.4981L296.864 36.5693L318.504 49.0565L307.527 54.9853Z" fill="white"/>
<path d="M318.505 52.8867L307.527 58.8155V54.9854L318.505 49.0566V52.8867Z" fill="#787371"/>
<path d="M307.527 58.8153L285.887 46.2757V42.498L307.527 54.9852V58.8153Z" fill="#D6CCC2"/>
<path opacity="0.33" d="M201.641 70.2539L198.699 82.5836L206.368 82.2164L226.904 71.4081L212.408 62.9609L201.641 70.2539Z" fill="url(#paint26_linear_429_491)"/>
<path d="M221.861 69.8338L198.488 82.4784V79.3304L221.861 66.7383V69.8338Z" fill="#787371"/>
<path d="M198.488 82.4784L175.641 69.2567V66.1611L198.488 79.3304V82.4784Z" fill="#D6CCC2"/>
<path d="M186.355 61.9639L206.209 73.4541L207.26 72.877L187.406 61.3867L186.355 61.9639Z" fill="#D0D0D2"/>
<path d="M190.242 59.8128L210.096 71.303L211.147 70.7259L191.293 59.2881L190.242 59.8128Z" fill="#D0D0D2"/>
<path d="M182.521 64.1152L202.375 75.553L203.426 75.0284L183.572 63.5381L182.521 64.1152Z" fill="#D0D0D2"/>
<path d="M194.076 57.7139L213.93 69.1517L214.981 68.627L195.127 57.1367L194.076 57.7139Z" fill="#D0D0D2"/>
<path d="M197.963 55.563L217.817 67.0533L218.867 66.4761L199.013 54.9858L197.963 55.563Z" fill="#D0D0D2"/>
<path d="M178.635 66.2136L198.489 77.7039L199.539 77.1793L179.685 65.689L178.635 66.2136Z" fill="#D0D0D2"/>
<path d="M175.641 66.2137L198.488 79.4354L221.862 66.8433L199.014 53.6216L175.641 66.2137ZM198.488 77.704L178.634 66.2137L179.685 65.6365L199.539 77.1268L198.488 77.704ZM202.375 75.5528L182.521 64.0625L183.572 63.4854L203.426 74.9757L202.375 75.5528ZM206.209 73.4541L186.355 61.9638L187.406 61.3867L207.26 72.877L206.209 73.4541ZM210.096 71.303L190.242 59.8127L191.293 59.2356L211.147 70.7258L210.096 71.303ZM213.93 69.1518L194.076 57.714L195.127 57.1369L214.981 68.6272L213.93 69.1518ZM217.817 67.0531L197.963 55.5629L199.014 54.9857L218.868 66.476L217.817 67.0531Z" fill="white"/>
<path d="M87.1891 279.755L212.458 210.288L126.529 160.182L1.36523 229.806L87.1891 279.755Z" fill="white"/>
<path d="M200.379 209.974L126.268 166.164L12.8164 228.39L86.98 271.99L200.379 209.974Z" fill="#ECECEC"/>
<path d="M1.57571 229.491L87.1895 279.755L87.0319 383.22L0 333.376L1.57571 229.491Z" fill="#F7F1F1"/>
<path d="M86.9277 383.22L212.039 313.911L212.46 210.288L87.1904 279.754L86.9277 383.22Z" fill="#CAC4C4"/>
<path d="M177.74 259.975L197.594 249.429V239.46L177.74 249.953V259.975Z" fill="url(#paint27_linear_429_491)"/>
<path d="M177.74 280.909L197.594 270.416V260.447L177.74 270.94V280.909Z" fill="url(#paint28_linear_429_491)"/>
<path d="M177.74 299.587L197.594 289.094V279.125L177.74 289.618V299.587Z" fill="url(#paint29_linear_429_491)"/>
<path d="M177.74 319.577L197.594 309.031V299.062L177.74 309.556V319.577Z" fill="url(#paint30_linear_429_491)"/>
<path d="M146.121 278.495L165.975 268.002V258.033L146.121 268.527V278.495Z" fill="url(#paint31_linear_429_491)"/>
<path d="M146.121 299.482L165.975 288.989V278.968L146.121 289.514V299.482Z" fill="url(#paint32_linear_429_491)"/>
<path d="M146.121 318.161L165.975 307.667V297.646L146.121 308.192V318.161Z" fill="url(#paint33_linear_429_491)"/>
<path d="M146.121 338.098L165.975 327.605V317.583L146.121 328.129V338.098Z" fill="url(#paint34_linear_429_491)"/>
<path d="M136.824 304.309V273.511L125.899 279.283L87.1367 299.797V330.648L92.7568 327.657L136.824 304.309Z" fill="url(#paint35_linear_429_491)"/>
<path d="M125.899 317.636L87.1367 338.098V368.844L92.7568 365.853L136.824 342.61V311.864L125.899 317.636Z" fill="url(#paint36_linear_429_491)"/>
<path d="M36.6623 271.15L26.0525 265.116L26 295.862L53.6275 311.602L87.1377 330.648V299.849L36.6623 271.15Z" fill="url(#paint37_linear_429_491)"/>
<path d="M87.0852 368.896V338.15L36.6623 309.451L26 303.365V334.11L53.6275 349.851L87.0852 368.896Z" fill="url(#paint38_linear_429_491)"/>
<path opacity="0.33" d="M134.041 185.314L131.1 197.643L145.544 197.853L152.424 194.285L133.778 183.792L134.041 185.314Z" fill="url(#paint39_linear_429_491)"/>
<path d="M131.099 193.918L109.459 181.431L120.436 175.502L142.076 187.99L131.099 193.918Z" fill="white"/>
<path d="M142.077 191.82L131.1 197.749V193.919L142.077 187.99V191.82Z" fill="#787371"/>
<path d="M131.099 197.748L109.459 185.209V181.431L131.099 193.918V197.748Z" fill="#D6CCC2"/>
<path opacity="0.33" d="M168.549 206.616L165.607 218.945L180.051 219.155L186.932 215.587L168.286 205.042L168.549 206.616Z" fill="url(#paint40_linear_429_491)"/>
<path d="M165.607 215.167L144.02 202.68L154.944 196.751L176.584 209.291L165.607 215.167Z" fill="white"/>
<path d="M176.585 213.121L165.607 218.997V215.167L176.585 209.291V213.121Z" fill="#787371"/>
<path d="M165.607 218.997L144.02 206.51V202.68L165.607 215.167V218.997Z" fill="#D6CCC2"/>
<path opacity="0.33" d="M59.7206 230.436L56.7793 242.766L64.4478 242.398L84.9846 231.59L70.488 223.143L59.7206 230.436Z" fill="url(#paint41_linear_429_491)"/>
<path d="M79.9414 230.068L56.5684 242.66V239.565L79.9414 226.973V230.068Z" fill="#787371"/>
<path d="M56.5685 242.661L33.7207 229.439V226.343L56.5685 239.565V242.661Z" fill="#D6CCC2"/>
<path d="M44.4883 222.146L64.2897 233.636L65.3402 233.059L45.5388 221.621L44.4883 222.146Z" fill="#D0D0D2"/>
<path d="M48.3223 220.047L68.1763 231.485L69.2267 230.96L49.3727 219.47L48.3223 220.047Z" fill="#D0D0D2"/>
<path d="M40.6016 224.297L60.4556 235.788L61.506 235.211L41.652 223.72L40.6016 224.297Z" fill="#D0D0D2"/>
<path d="M52.209 217.896L72.0105 229.386L73.0609 228.809L53.2069 217.319L52.209 217.896Z" fill="#D0D0D2"/>
<path d="M56.043 215.745L75.897 227.235L76.9474 226.658L57.0934 215.168L56.043 215.745Z" fill="#D0D0D2"/>
<path d="M36.7148 226.448L56.5688 237.886L57.6193 237.361L37.8178 225.871L36.7148 226.448Z" fill="#D0D0D2"/>
<path d="M33.7207 226.396L56.5685 239.617L79.9416 227.025L57.0938 213.804L33.7207 226.396ZM56.5685 237.886L36.7146 226.396L37.765 225.819L57.619 237.309L56.5685 237.886ZM60.4553 235.787L40.6013 224.297L41.6518 223.72L61.5058 235.21L60.4553 235.787ZM64.2895 233.636L44.4356 222.146L45.486 221.569L65.34 233.059L64.2895 233.636ZM68.1763 231.485L48.3223 220.047L49.3728 219.47L69.2268 230.96L68.1763 231.485ZM72.0105 229.386L52.1565 217.896L53.207 217.319L73.061 228.809L72.0105 229.386ZM75.8973 227.235L56.0433 215.745L57.0938 215.168L76.9478 226.658L75.8973 227.235Z" fill="white"/>
<path d="M233.783 366.535L359 297.068L273.123 246.962L147.959 316.586L233.783 366.535Z" fill="white"/>
<path d="M346.972 296.701L272.809 252.944L159.357 315.17L233.574 358.77L346.972 296.701Z" fill="#ECECEC"/>
<path d="M148.169 316.271L233.783 366.535L233.573 470L146.594 420.156L148.169 316.271Z" fill="#F7F1F1"/>
<path d="M233.521 469.947L358.581 400.638L359.001 297.068L233.784 366.535L233.521 469.947Z" fill="#CAC4C4"/>
<path d="M324.281 346.755L344.135 336.209V326.24L324.281 336.734V346.755Z" fill="url(#paint42_linear_429_491)"/>
<path d="M324.281 367.689L344.135 357.196V347.227L324.281 357.72V367.689Z" fill="url(#paint43_linear_429_491)"/>
<path d="M324.281 386.368L344.135 375.874V365.853L324.281 376.399V386.368Z" fill="url(#paint44_linear_429_491)"/>
<path d="M324.281 406.305L344.135 395.812V385.843L324.281 396.336V406.305Z" fill="url(#paint45_linear_429_491)"/>
<path d="M292.715 365.276L312.516 354.782V344.813L292.715 355.307V365.276Z" fill="url(#paint46_linear_429_491)"/>
<path d="M292.715 386.263L312.516 375.769V365.748L292.715 376.294V386.263Z" fill="url(#paint47_linear_429_491)"/>
<path d="M292.715 404.941L312.516 394.395V384.426L292.715 394.92V404.941Z" fill="url(#paint48_linear_429_491)"/>
<path d="M292.715 424.878L312.516 414.385V404.364L292.715 414.91V424.878Z" fill="url(#paint49_linear_429_491)"/>
<path d="M283.418 391.089V360.239L272.493 366.063L233.73 386.577V417.375L239.351 414.385L283.418 391.089Z" fill="url(#paint50_linear_429_491)"/>
<path d="M272.493 404.364L233.73 424.878V455.624L239.351 452.633L283.418 429.39V398.592L272.493 404.364Z" fill="url(#paint51_linear_429_491)"/>
<path d="M183.256 357.93L172.594 351.896V382.642L200.221 398.33L233.679 417.375V386.63L183.256 357.93Z" fill="url(#paint52_linear_429_491)"/>
<path d="M233.679 455.624V424.878L183.256 396.179L172.594 390.145V420.891L200.221 436.578L233.679 455.624Z" fill="url(#paint53_linear_429_491)"/>
<path opacity="0.33" d="M280.635 272.094L277.693 284.424L292.085 284.634L299.018 281.066L280.372 270.52L280.635 272.094Z" fill="url(#paint54_linear_429_491)"/>
<path d="M277.693 280.699L256.053 268.159L267.03 262.283L288.617 274.77L277.693 280.699Z" fill="white"/>
<path d="M288.618 278.6L277.693 284.476V280.699L288.618 274.77V278.6Z" fill="#787371"/>
<path d="M277.693 284.476L256.053 271.989V268.159L277.693 280.699V284.476Z" fill="#D6CCC2"/>
<path opacity="0.33" d="M315.143 293.395L312.201 305.725L326.593 305.882L333.526 302.315L314.88 291.821L315.143 293.395Z" fill="url(#paint55_linear_429_491)"/>
<path d="M312.2 301.948L290.561 289.461L301.538 283.532L323.178 296.071L312.2 301.948Z" fill="white"/>
<path d="M323.179 299.849L312.201 305.778V301.948L323.179 296.071V299.849Z" fill="#787371"/>
<path d="M312.2 305.778L290.561 293.238V289.46L312.2 301.948V305.778Z" fill="#D6CCC2"/>
<path opacity="0.33" d="M206.314 317.216L203.373 329.546L210.989 329.179L231.578 318.371L217.082 309.923L206.314 317.216Z" fill="url(#paint56_linear_429_491)"/>
<path d="M226.483 316.849L203.162 329.441V326.345L226.483 313.701V316.849Z" fill="#787371"/>
<path d="M203.162 329.441L180.314 316.219V313.124L203.162 326.345V329.441Z" fill="#D6CCC2"/>
<path d="M191.029 308.926L210.883 320.417L211.934 319.839L192.08 308.349L191.029 308.926Z" fill="#D0D0D2"/>
<path d="M194.916 306.775L214.77 318.265L215.82 317.688L195.966 306.25L194.916 306.775Z" fill="#D0D0D2"/>
<path d="M187.195 311.078L207.049 322.568L208.1 321.991L188.246 310.5L187.195 311.078Z" fill="#D0D0D2"/>
<path d="M198.75 304.676L218.604 316.114L219.654 315.589L199.8 304.099L198.75 304.676Z" fill="#D0D0D2"/>
<path d="M202.637 302.525L222.491 314.016L223.541 313.439L203.687 301.948L202.637 302.525Z" fill="#D0D0D2"/>
<path d="M183.309 313.229L203.163 324.666L204.213 324.142L184.359 312.651L183.309 313.229Z" fill="#D0D0D2"/>
<path d="M180.314 313.176L203.162 326.398L226.535 313.806L203.688 300.584L180.314 313.176ZM203.162 324.666L183.308 313.229L184.359 312.651L204.213 324.142L203.162 324.666ZM207.049 322.568L187.195 311.077L188.246 310.5L208.1 321.991L207.049 322.568ZM210.883 320.417L191.029 308.926L192.08 308.349L211.934 319.839L210.883 320.417ZM214.77 318.265L194.916 306.775L195.967 306.198L215.821 317.688L214.77 318.265ZM218.604 316.114L198.75 304.624L199.801 304.047L219.655 315.537L218.604 316.114ZM222.491 314.016L202.637 302.525L203.688 301.948L223.542 313.438L222.491 314.016Z" fill="white"/>
</g>
<defs>
<linearGradient id="paint0_linear_429_491" x1="329.561" y1="102.553" x2="329.561" y2="272.71" gradientUnits="userSpaceOnUse">
<stop stop-color="#4F748F"/>
<stop offset="1" stop-color="#283640"/>
</linearGradient>
<linearGradient id="paint1_linear_429_491" x1="329.561" y1="102.551" x2="329.561" y2="272.691" gradientUnits="userSpaceOnUse">
<stop stop-color="#4F748F"/>
<stop offset="1" stop-color="#283640"/>
</linearGradient>
<linearGradient id="paint2_linear_429_491" x1="329.561" y1="102.554" x2="329.561" y2="272.693" gradientUnits="userSpaceOnUse">
<stop stop-color="#4F748F"/>
<stop offset="1" stop-color="#283640"/>
</linearGradient>
<linearGradient id="paint3_linear_429_491" x1="329.561" y1="102.549" x2="329.561" y2="272.716" gradientUnits="userSpaceOnUse">
<stop stop-color="#4F748F"/>
<stop offset="1" stop-color="#283640"/>
</linearGradient>
<linearGradient id="paint4_linear_429_491" x1="329.561" y1="102.546" x2="329.561" y2="272.72" gradientUnits="userSpaceOnUse">
<stop stop-color="#4F748F"/>
<stop offset="1" stop-color="#283640"/>
</linearGradient>
<linearGradient id="paint5_linear_429_491" x1="329.561" y1="102.553" x2="329.561" y2="272.71" gradientUnits="userSpaceOnUse">
<stop stop-color="#4F748F"/>
<stop offset="1" stop-color="#283640"/>
</linearGradient>
<linearGradient id="paint6_linear_429_491" x1="329.561" y1="102.552" x2="329.561" y2="272.708" gradientUnits="userSpaceOnUse">
<stop stop-color="#4F748F"/>
<stop offset="1" stop-color="#283640"/>
</linearGradient>
<linearGradient id="paint7_linear_429_491" x1="329.561" y1="102.543" x2="329.561" y2="272.71" gradientUnits="userSpaceOnUse">
<stop stop-color="#4F748F"/>
<stop offset="1" stop-color="#283640"/>
</linearGradient>
<linearGradient id="paint8_linear_429_491" x1="297.95" y1="102.552" x2="297.95" y2="272.719" gradientUnits="userSpaceOnUse">
<stop stop-color="#4F748F"/>
<stop offset="1" stop-color="#283640"/>
</linearGradient>
<linearGradient id="paint9_linear_429_491" x1="297.95" y1="102.549" x2="297.95" y2="272.727" gradientUnits="userSpaceOnUse">
<stop stop-color="#4F748F"/>
<stop offset="1" stop-color="#283640"/>
</linearGradient>
<linearGradient id="paint10_linear_429_491" x1="297.95" y1="102.553" x2="297.95" y2="272.706" gradientUnits="userSpaceOnUse">
<stop stop-color="#4F748F"/>
<stop offset="1" stop-color="#283640"/>
</linearGradient>
<linearGradient id="paint11_linear_429_491" x1="297.95" y1="102.553" x2="297.95" y2="272.706" gradientUnits="userSpaceOnUse">
<stop stop-color="#4F748F"/>
<stop offset="1" stop-color="#283640"/>
</linearGradient>
<linearGradient id="paint12_linear_429_491" x1="297.95" y1="102.554" x2="297.95" y2="272.707" gradientUnits="userSpaceOnUse">
<stop stop-color="#4F748F"/>
<stop offset="1" stop-color="#283640"/>
</linearGradient>
<linearGradient id="paint13_linear_429_491" x1="297.95" y1="102.539" x2="297.95" y2="272.717" gradientUnits="userSpaceOnUse">
<stop stop-color="#4F748F"/>
<stop offset="1" stop-color="#283640"/>
</linearGradient>
<linearGradient id="paint14_linear_429_491" x1="297.95" y1="102.569" x2="297.95" y2="272.704" gradientUnits="userSpaceOnUse">
<stop stop-color="#4F748F"/>
<stop offset="1" stop-color="#283640"/>
</linearGradient>
<linearGradient id="paint15_linear_429_491" x1="297.95" y1="102.548" x2="297.95" y2="272.711" gradientUnits="userSpaceOnUse">
<stop stop-color="#4F748F"/>
<stop offset="1" stop-color="#283640"/>
</linearGradient>
<linearGradient id="paint16_linear_429_491" x1="253.897" y1="102.552" x2="253.897" y2="272.71" gradientUnits="userSpaceOnUse">
<stop stop-color="#4F748F"/>
<stop offset="1" stop-color="#283640"/>
</linearGradient>
<linearGradient id="paint17_linear_429_491" x1="253.895" y1="102.553" x2="253.895" y2="272.709" gradientUnits="userSpaceOnUse">
<stop stop-color="#4F748F"/>
<stop offset="1" stop-color="#283640"/>
</linearGradient>
<linearGradient id="paint18_linear_429_491" x1="253.897" y1="102.555" x2="253.897" y2="272.707" gradientUnits="userSpaceOnUse">
<stop stop-color="#4F748F"/>
<stop offset="1" stop-color="#283640"/>
</linearGradient>
<linearGradient id="paint19_linear_429_491" x1="253.895" y1="102.554" x2="253.895" y2="272.71" gradientUnits="userSpaceOnUse">
<stop stop-color="#4F748F"/>
<stop offset="1" stop-color="#283640"/>
</linearGradient>
<linearGradient id="paint20_linear_429_491" x1="198.481" y1="103.286" x2="198.481" y2="295.813" gradientUnits="userSpaceOnUse">
<stop stop-color="#74A5C5"/>
<stop offset="0.9835" stop-color="#617A91"/>
</linearGradient>
<linearGradient id="paint21_linear_429_491" x1="198.469" y1="103.287" x2="198.469" y2="295.814" gradientUnits="userSpaceOnUse">
<stop stop-color="#74A5C5"/>
<stop offset="0.9835" stop-color="#617A91"/>
</linearGradient>
<linearGradient id="paint22_linear_429_491" x1="198.481" y1="103.285" x2="198.481" y2="295.814" gradientUnits="userSpaceOnUse">
<stop stop-color="#74A5C5"/>
<stop offset="0.9835" stop-color="#617A91"/>
</linearGradient>
<linearGradient id="paint23_linear_429_491" x1="198.469" y1="103.291" x2="198.469" y2="295.811" gradientUnits="userSpaceOnUse">
<stop stop-color="#74A5C5"/>
<stop offset="0.9835" stop-color="#617A91"/>
</linearGradient>
<linearGradient id="paint24_linear_429_491" x1="271.962" y1="35.2772" x2="294.178" y2="24.479" gradientUnits="userSpaceOnUse">
<stop stop-color="#333333"/>
<stop offset="1" stop-color="#CCCCCC"/>
</linearGradient>
<linearGradient id="paint25_linear_429_491" x1="306.471" y1="56.5459" x2="328.685" y2="45.7492" gradientUnits="userSpaceOnUse">
<stop stop-color="#333333"/>
<stop offset="1" stop-color="#CCCCCC"/>
</linearGradient>
<linearGradient id="paint26_linear_429_491" x1="196.789" y1="78.6743" x2="229.345" y2="62.8509" gradientUnits="userSpaceOnUse">
<stop stop-color="#333333"/>
<stop offset="1" stop-color="#CCCCCC"/>
</linearGradient>
<linearGradient id="paint27_linear_429_491" x1="187.649" y1="262.752" x2="187.649" y2="432.909" gradientUnits="userSpaceOnUse">
<stop stop-color="#4F748F"/>
<stop offset="1" stop-color="#283640"/>
</linearGradient>
<linearGradient id="paint28_linear_429_491" x1="187.649" y1="262.75" x2="187.649" y2="432.89" gradientUnits="userSpaceOnUse">
<stop stop-color="#4F748F"/>
<stop offset="1" stop-color="#283640"/>
</linearGradient>
<linearGradient id="paint29_linear_429_491" x1="187.649" y1="262.751" x2="187.649" y2="432.911" gradientUnits="userSpaceOnUse">
<stop stop-color="#4F748F"/>
<stop offset="1" stop-color="#283640"/>
</linearGradient>
<linearGradient id="paint30_linear_429_491" x1="187.649" y1="262.748" x2="187.649" y2="432.915" gradientUnits="userSpaceOnUse">
<stop stop-color="#4F748F"/>
<stop offset="1" stop-color="#283640"/>
</linearGradient>
<linearGradient id="paint31_linear_429_491" x1="156.038" y1="262.751" x2="156.038" y2="432.918" gradientUnits="userSpaceOnUse">
<stop stop-color="#4F748F"/>
<stop offset="1" stop-color="#283640"/>
</linearGradient>
<linearGradient id="paint32_linear_429_491" x1="156.038" y1="262.752" x2="156.038" y2="432.909" gradientUnits="userSpaceOnUse">
<stop stop-color="#4F748F"/>
<stop offset="1" stop-color="#283640"/>
</linearGradient>
<linearGradient id="paint33_linear_429_491" x1="156.038" y1="262.759" x2="156.038" y2="432.89" gradientUnits="userSpaceOnUse">
<stop stop-color="#4F748F"/>
<stop offset="1" stop-color="#283640"/>
</linearGradient>
<linearGradient id="paint34_linear_429_491" x1="156.038" y1="262.76" x2="156.038" y2="432.89" gradientUnits="userSpaceOnUse">
<stop stop-color="#4F748F"/>
<stop offset="1" stop-color="#283640"/>
</linearGradient>
<linearGradient id="paint35_linear_429_491" x1="111.985" y1="262.752" x2="111.985" y2="432.903" gradientUnits="userSpaceOnUse">
<stop stop-color="#4F748F"/>
<stop offset="1" stop-color="#283640"/>
</linearGradient>
<linearGradient id="paint36_linear_429_491" x1="111.982" y1="262.754" x2="111.982" y2="432.91" gradientUnits="userSpaceOnUse">
<stop stop-color="#4F748F"/>
<stop offset="1" stop-color="#283640"/>
</linearGradient>
<linearGradient id="paint37_linear_429_491" x1="56.5694" y1="263.485" x2="56.5694" y2="456.02" gradientUnits="userSpaceOnUse">
<stop stop-color="#74A5C5"/>
<stop offset="0.9835" stop-color="#617A91"/>
</linearGradient>
<linearGradient id="paint38_linear_429_491" x1="56.5562" y1="263.486" x2="56.5562" y2="456.012" gradientUnits="userSpaceOnUse">
<stop stop-color="#74A5C5"/>
<stop offset="0.9835" stop-color="#617A91"/>
</linearGradient>
<linearGradient id="paint39_linear_429_491" x1="130.049" y1="195.476" x2="152.266" y2="184.678" gradientUnits="userSpaceOnUse">
<stop stop-color="#333333"/>
<stop offset="1" stop-color="#CCCCCC"/>
</linearGradient>
<linearGradient id="paint40_linear_429_491" x1="164.559" y1="216.745" x2="186.773" y2="205.948" gradientUnits="userSpaceOnUse">
<stop stop-color="#333333"/>
<stop offset="1" stop-color="#CCCCCC"/>
</linearGradient>
<linearGradient id="paint41_linear_429_491" x1="54.8764" y1="238.873" x2="87.4329" y2="223.05" gradientUnits="userSpaceOnUse">
<stop stop-color="#333333"/>
<stop offset="1" stop-color="#CCCCCC"/>
</linearGradient>
<linearGradient id="paint42_linear_429_491" x1="334.229" y1="349.521" x2="334.229" y2="519.651" gradientUnits="userSpaceOnUse">
<stop stop-color="#4F748F"/>
<stop offset="1" stop-color="#283640"/>
</linearGradient>
<linearGradient id="paint43_linear_429_491" x1="334.229" y1="349.523" x2="334.229" y2="519.636" gradientUnits="userSpaceOnUse">
<stop stop-color="#4F748F"/>
<stop offset="1" stop-color="#283640"/>
</linearGradient>
<linearGradient id="paint44_linear_429_491" x1="334.229" y1="349.525" x2="334.229" y2="519.642" gradientUnits="userSpaceOnUse">
<stop stop-color="#4F748F"/>
<stop offset="1" stop-color="#283640"/>
</linearGradient>
<linearGradient id="paint45_linear_429_491" x1="334.229" y1="349.518" x2="334.229" y2="519.685" gradientUnits="userSpaceOnUse">
<stop stop-color="#4F748F"/>
<stop offset="1" stop-color="#283640"/>
</linearGradient>
<linearGradient id="paint46_linear_429_491" x1="302.617" y1="349.521" x2="302.617" y2="519.688" gradientUnits="userSpaceOnUse">
<stop stop-color="#4F748F"/>
<stop offset="1" stop-color="#283640"/>
</linearGradient>
<linearGradient id="paint47_linear_429_491" x1="302.617" y1="349.514" x2="302.617" y2="519.714" gradientUnits="userSpaceOnUse">
<stop stop-color="#4F748F"/>
<stop offset="1" stop-color="#283640"/>
</linearGradient>
<linearGradient id="paint48_linear_429_491" x1="302.617" y1="349.515" x2="302.617" y2="519.69" gradientUnits="userSpaceOnUse">
<stop stop-color="#4F748F"/>
<stop offset="1" stop-color="#283640"/>
</linearGradient>
<linearGradient id="paint49_linear_429_491" x1="302.617" y1="349.516" x2="302.617" y2="519.69" gradientUnits="userSpaceOnUse">
<stop stop-color="#4F748F"/>
<stop offset="1" stop-color="#283640"/>
</linearGradient>
<linearGradient id="paint50_linear_429_491" x1="258.564" y1="349.518" x2="258.564" y2="519.691" gradientUnits="userSpaceOnUse">
<stop stop-color="#4F748F"/>
<stop offset="1" stop-color="#283640"/>
</linearGradient>
<linearGradient id="paint51_linear_429_491" x1="258.562" y1="349.519" x2="258.562" y2="519.675" gradientUnits="userSpaceOnUse">
<stop stop-color="#4F748F"/>
<stop offset="1" stop-color="#283640"/>
</linearGradient>
<linearGradient id="paint52_linear_429_491" x1="203.148" y1="350.253" x2="203.148" y2="542.78" gradientUnits="userSpaceOnUse">
<stop stop-color="#74A5C5"/>
<stop offset="0.9835" stop-color="#617A91"/>
</linearGradient>
<linearGradient id="paint53_linear_429_491" x1="203.135" y1="350.256" x2="203.135" y2="542.783" gradientUnits="userSpaceOnUse">
<stop stop-color="#74A5C5"/>
<stop offset="0.9835" stop-color="#617A91"/>
</linearGradient>
<linearGradient id="paint54_linear_429_491" x1="276.629" y1="282.246" x2="298.846" y2="271.448" gradientUnits="userSpaceOnUse">
<stop stop-color="#333333"/>
<stop offset="1" stop-color="#CCCCCC"/>
</linearGradient>
<linearGradient id="paint55_linear_429_491" x1="311.138" y1="303.515" x2="333.353" y2="292.717" gradientUnits="userSpaceOnUse">
<stop stop-color="#333333"/>
<stop offset="1" stop-color="#CCCCCC"/>
</linearGradient>
<linearGradient id="paint56_linear_429_491" x1="201.456" y1="325.645" x2="234.012" y2="309.821" gradientUnits="userSpaceOnUse">
<stop stop-color="#333333"/>
<stop offset="1" stop-color="#CCCCCC"/>
</linearGradient>
<clipPath id="clip0_429_491">
<rect width="359" height="470" fill="white"/>
</clipPath>
</defs>
</svg>
