<svg width="56" height="92" viewBox="0 0 56 92" fill="none" xmlns="http://www.w3.org/2000/svg">
<path d="M55.491 43.6811C55.3618 42.7041 55.1751 41.7918 54.9309 41.016C54.0549 38.2431 50.9671 36.1527 49.4807 39.6295C49.5023 36.6556 49.8469 15.773 42.5872 21.1678C44.9999 19.372 36.1891 -0.440255 32.6131 4.76063C31.0907 -0.598293 24.0823 -1.72611 20.5781 2.88572C17.9643 6.33383 16.6502 11.3551 16.7436 15.6437C12.7941 12.72 8.55746 20.507 7.37264 23.4163C6.72637 25.011 5.0317 33.1931 6.8987 34.3856C4.29926 32.7333 3.10008 31.1817 1.88652 35.7504C-0.813448 45.9151 -1.23711 61.5106 4.81628 70.7487C9.99362 78.6434 20.3124 81.2797 29.2166 80.8846C29.274 80.8846 29.3386 80.8775 29.3961 80.8703C32.9793 80.8631 39.2122 79.3114 42.185 77.4868C46.0052 75.1378 48.856 70.1021 50.881 66.2446C53.0855 62.0422 54.6221 57.4735 55.3618 52.7826C55.7495 50.3258 55.8644 46.6766 55.4695 43.6739L55.491 43.6811Z" fill="#00827B"/>
<path d="M32.0745 67.2212C32.0314 66.6752 31.9309 66.3591 31.7657 66.3663C31.2774 66.4022 24.8219 67.451 24.8506 66.9266C24.707 69.3547 24.3192 71.7037 24.2259 74.1174C24.1182 76.8687 24.0751 79.6128 24.1684 82.3569C24.2762 85.5967 24.6567 88.7933 24.6926 92.0188C26.6458 92.069 28.599 91.911 30.545 91.6524C31.0333 91.5878 31.3779 81.2722 31.4785 80.0151C31.816 75.7624 32.412 71.4595 32.0745 67.2212Z" fill="#906D61"/>
<path d="M25.2148 13.3516V16.3112" stroke="#12A095" stroke-width="3" stroke-linecap="round" stroke-linejoin="round"/>
<path d="M17.8995 21.9434C17.763 22.8126 17.8851 23.926 18.1795 24.4791" stroke="#12A095" stroke-width="3" stroke-linecap="round" stroke-linejoin="round"/>
<path d="M35.9141 16.0322C36.2587 17.2247 36.2372 18.4531 36.1941 19.6958" stroke="#12A095" stroke-width="3" stroke-linecap="round" stroke-linejoin="round"/>
<path d="M31.6953 24.1924V27.0083" stroke="#12A095" stroke-width="3" stroke-linecap="round" stroke-linejoin="round"/>
<path d="M25.7852 35.7354V38.5513" stroke="#12A095" stroke-width="3" stroke-linecap="round" stroke-linejoin="round"/>
<path d="M11.9888 32.0801C11.9745 33.1792 12.2402 34.2567 12.8362 35.1762" stroke="#12A095" stroke-width="3" stroke-linecap="round" stroke-linejoin="round"/>
<path d="M9.45502 44.1846C9.39758 45.65 9.58428 47.1729 10.3024 48.4085" stroke="#12A095" stroke-width="3" stroke-linecap="round" stroke-linejoin="round"/>
<path d="M22.9698 27.8555C22.8478 28.8181 22.9411 29.7807 23.2499 30.6714" stroke="#12A095" stroke-width="3" stroke-linecap="round" stroke-linejoin="round"/>
<path d="M40.6968 28.416C40.5891 29.472 40.6752 30.5136 40.9768 31.5121" stroke="#12A095" stroke-width="3" stroke-linecap="round" stroke-linejoin="round"/>
<path d="M35.3504 38.2725C35.4581 39.587 35.2067 40.916 35.0703 42.2162" stroke="#12A095" stroke-width="3" stroke-linecap="round" stroke-linejoin="round"/>
<path d="M19.0275 40.8076C19.0275 42.1366 18.8337 43.5733 19.3076 44.7514" stroke="#12A095" stroke-width="3" stroke-linecap="round" stroke-linejoin="round"/>
<path d="M7.19922 55.167C7.63725 56.2876 8.04656 57.4657 8.60666 58.5504" stroke="#12A095" stroke-width="3" stroke-linecap="round" stroke-linejoin="round"/>
<path d="M42.387 41.9355C42.2793 42.97 42.4301 44.0475 42.667 45.0317" stroke="#12A095" stroke-width="3" stroke-linecap="round" stroke-linejoin="round"/>
<path d="M27.1914 46.1592C27.5504 47.5312 27.7802 48.9464 27.7515 50.3831" stroke="#12A095" stroke-width="3" stroke-linecap="round" stroke-linejoin="round"/>
<path d="M19.0273 53.1992C19.0417 54.3342 19.4582 55.3974 20.1547 56.2953" stroke="#12A095" stroke-width="3" stroke-linecap="round" stroke-linejoin="round"/>
<path d="M37.6055 52.9189V55.7349" stroke="#12A095" stroke-width="3" stroke-linecap="round" stroke-linejoin="round"/>
<path d="M45.2007 57.1357C45.2941 58.2995 44.9781 59.456 44.6406 60.5192" stroke="#12A095" stroke-width="3" stroke-linecap="round" stroke-linejoin="round"/>
<path d="M50.2722 47C50.3943 48.0344 50.2435 49.1263 49.9922 50.0961" stroke="#12A095" stroke-width="3" stroke-linecap="round" stroke-linejoin="round"/>
<path d="M29.4373 57.9834C29.2865 58.8957 29.4732 59.7793 29.9974 60.5192" stroke="#12A095" stroke-width="3" stroke-linecap="round" stroke-linejoin="round"/>
<path d="M17.6211 64.1758C18.1812 65.1384 18.7987 66.4673 19.5886 67.2719" stroke="#12A095" stroke-width="3" stroke-linecap="round" stroke-linejoin="round"/>
<path d="M37.3242 71.7828C38.2003 70.6406 38.8466 69.3547 39.579 68.1191" stroke="#12A095" stroke-width="3" stroke-linecap="round" stroke-linejoin="round"/>
<path d="M12.2695 70.9355C13.0379 71.9269 13.9139 72.7889 15.0844 73.1912" stroke="#12A095" stroke-width="3" stroke-linecap="round" stroke-linejoin="round"/>
</svg>
