<svg width="517" height="617" viewBox="0 0 517 617" fill="none" xmlns="http://www.w3.org/2000/svg">
<g clip-path="url(#clip0_718_163)">
<path d="M-57.1913 577.636C-25.743 551.673 4.29932 519.101 34.4603 485.094C46.8118 471.166 58.8074 447.849 71.7047 437.795C85.7826 426.824 100.798 411.684 115.475 410.279C130.288 408.86 145.043 407.086 159.702 401.186C188.291 389.683 216.375 363.779 237.198 311.911C245.973 290.044 251.425 259.807 261.065 240.645C273.814 215.303 288.918 199.098 304.248 186.072C324.863 168.536 354.105 162.696 370.935 126.442C384.379 97.4774 397.359 71.9132 413.116 53.9193C417.446 48.9809 421.991 44.6044 426.808 40.8933C449.5 23.4168 473.052 12.6086 496.479 3.24939C516.709 -4.83828 537.633 -4.35036 556.641 -25.538C562.544 -32.1175 573.923 -42.6448 574.546 -60.5796C557.068 -81.2941 532.864 -72.6594 514.236 -73.8866C481.482 -76.06 448.729 -78.4257 415.963 -79.8155C400.562 -80.4661 384.183 -76.8141 368.954 -83.1571C359.545 -87.0752 350.955 -96.9519 341.356 -98.9775C275.706 -112.891 209.778 -95.2664 144.093 -117.193C100.009 -131.905 56.0132 -137.878 12.3379 -113.305C-8.47341 -101.595 -24.7819 -74.8476 -40.8175 -39.6729C-53.442 -11.9945 -69.6971 15.4031 -73.3456 58.4584C-81.0757 149.641 -72.5032 244.357 -71.9277 336.337C-71.7853 358.56 -67.0274 374.587 -65.129 395.05C-62.8628 419.491 -61.3678 447.066 -59.8135 472.098C-57.6244 507.346 -57.215 542.107 -57.1854 577.636" fill="#9ADBC2"/>
<path d="M69.0575 418.23C78.6797 419.006 88.3307 419.458 97.9817 419.53C106.06 419.595 116.716 422.31 119.617 414.466C122.432 406.858 120.608 385.236 113.025 380.523C107.274 376.946 98.1396 378.584 91.6554 374.863C84.3885 370.696 79.7928 365.948 71.2979 364.475C58.9901 362.342 47.6875 358.111 35.4874 355.862C33.764 350.482 23.0359 352.12 18.232 351.674C-11.36 348.923 -38.2017 357.076 -44.5136 391.256C-49.0519 415.816 -25.8221 414.25 -8.53078 413.388C17.5857 412.088 42.9985 416.132 69.0647 418.23H69.0575Z" fill="#E2E2E2"/>
<path d="M115.757 389.747C111.477 404.538 77.1817 383.569 68.9238 380.566C59.0431 376.981 46.7711 375.76 36.2154 373.382C22.536 370.301 9.28029 368.347 -4.76531 366.177C-9.23893 365.488 -13.8849 364.346 -18.4375 364.597" stroke="#A8A8A8" stroke-miterlimit="10"/>
<path fill-rule="evenodd" clip-rule="evenodd" d="M-48.2836 315.29C-49.9567 310.541 -51.0841 305.29 -53.5255 305.067C-52.9582 301.856 -54.1646 300.139 -57.1734 299.4C-57.0728 298.839 -56.9938 298.365 -56.8933 297.805C-57.7119 297.482 -57.7263 296.835 -57.3242 295.995C-57.1805 295.693 -57.0728 295.089 -57.2021 294.967C-57.8843 294.349 -57.3026 293.861 -57.0872 293.315C-57.0297 293.164 -57.0944 292.963 -57.1087 292.791C-56.721 292.065 -56.326 291.34 -55.9311 290.614C-55.5074 290.765 -55.0766 290.916 -54.301 291.196C-54.4734 290.406 -54.5739 289.932 -54.7175 289.278C-54.1574 288.459 -53.5112 287.504 -52.8146 286.491C-52.1181 286.986 -51.5149 287.41 -50.9548 287.805C-50.5814 286.606 -50.2367 285.485 -49.892 284.364C-48.2764 284.156 -48.2836 284.149 -47.3788 282.389C-47.2926 282.224 -47.1418 282.066 -46.991 281.965C-46.316 281.505 -45.6267 281.067 -44.8224 280.55C-44.8081 280.435 -44.7506 280.09 -44.6788 279.638C-43.8674 279.738 -43.1278 279.875 -42.3738 279.911C-42.0578 279.925 -41.5121 279.824 -41.4331 279.623C-40.8586 278.215 -40.1765 278.431 -39.3794 279.185C-39.1999 279.357 -38.9485 279.429 -38.7259 279.551C-38.2592 278.991 -37.8212 278.474 -37.4765 278.064C-36.5286 278.007 -35.6885 277.957 -34.7262 277.899C-34.6257 277.777 -34.4103 277.504 -34.0154 277.016C-32.9454 278.388 -35.5161 278.934 -34.5539 280.162C-33.5486 279.099 -34.5539 277.691 -33.1896 277.849C-32.967 277.87 -32.7156 277.655 -32.4643 277.562C-31.897 277.339 -34.8483 276.118 -34.3457 276.211C-33.4409 276.383 -32.73 276.247 -32.1483 275.428C-31.2148 276.103 -30.3388 276.585 -29.3119 275.586C-29.2114 275.486 -28.996 275.514 -28.8308 275.5C-28.3497 275.471 -27.8686 275.45 -27.287 275.428C-27.1433 275.493 -26.7197 275.802 -26.6335 275.708C-25.8364 274.846 -25.4415 275.665 -25.0968 275.974C-24.2567 275.521 -23.5601 275.141 -22.8421 274.753C-21.1977 275.148 -23.0575 274.825 -21.3413 275.227C-21.1833 275.263 -20.9822 275.263 -20.8314 275.198C-20.2211 274.932 -19.6107 274.631 -19.0003 274.336C-19.0219 274.257 -19.0434 274.178 -19.065 274.092C-18.7993 274.192 -18.5336 274.3 -18.2823 274.401C-18.1028 273.991 -17.9376 273.632 -17.6575 273C-15.6541 274.063 -13.4999 274.911 -12.1714 276.628C-12.5951 276.412 -13.7584 275.837 -13.9235 275.73C-12.8177 278.028 -6.46989 282.295 -3.94943 282.755C-4.48799 283.129 -5.14862 283.775 -5.82362 284.199C-4.02124 286.663 1.9747 284.221 5.28504 284.86C8.93288 285.564 12.1427 287.482 14.7565 290.075C20.3288 295.614 22.7559 304.169 21.8726 311.87C20.8314 320.907 18.8854 335.109 8.34406 337.566C-1.47207 339.85 -8.76774 331.158 -17.0903 328.22C-26.691 324.836 -36.2198 329.211 -44.7003 321.726C-46.2658 320.347 -47.3501 317.897 -48.2692 315.29H-48.2836Z" fill="#66870C"/>
<path fill-rule="evenodd" clip-rule="evenodd" d="M-0.996819 313.587C-1.11889 313.508 -1.24814 313.429 -1.37022 313.357C-1.65745 312.603 -1.93032 311.849 -2.23909 311.116C-2.30372 310.965 -2.51196 310.879 -2.66994 310.814C-3.32339 310.556 -3.98402 310.311 -4.68774 310.053C-4.54412 309.658 -4.42204 309.327 -4.31433 309.04C-5.5207 308.537 -6.66245 308.063 -7.79701 307.567C-8.02679 307.467 -8.42174 307.287 -8.41456 307.136C-8.34275 305.879 -9.51321 305.908 -9.87225 305.168C-10.3031 305.441 -10.655 305.657 -10.9925 305.865C-11.6244 305.139 -12.4071 304.507 -11.1504 303.588C-11.7464 302.934 -12.6297 302.503 -11.926 301.275C-11.847 301.138 -12.3712 300.377 -12.7446 300.219C-13.5273 299.888 -14.389 299.773 -15.2507 299.565C-15.1573 299.005 -15.0711 298.53 -14.9706 297.97C-15.7892 297.647 -15.7964 297 -15.4015 296.16C-15.2578 295.858 -15.1501 295.255 -15.2794 295.133C-15.9616 294.515 -15.3799 294.026 -15.1645 293.48C-15.107 293.33 -15.1717 293.128 -15.186 292.956C-14.7911 292.231 -14.4033 291.505 -14.0084 290.787C-13.5847 290.937 -13.1539 291.088 -12.3783 291.368C-12.5507 290.578 -12.6512 290.111 -12.7948 289.45C-12.2347 288.632 -11.5885 287.676 -10.8991 286.663C-10.1954 287.159 -9.59939 287.583 -9.03929 287.978C-8.67307 286.778 -8.32121 285.65 -7.97653 284.537C-6.89941 284.398 -6.06405 283.74 -5.47044 282.561C-5.38427 282.396 -5.23348 282.238 -5.0755 282.138C-4.40051 281.678 -3.71115 281.24 -2.91408 280.715C-2.89254 280.6 -2.8351 280.263 -2.76329 279.803C-1.95186 279.904 -1.21224 280.04 -0.458261 280.076C-0.142306 280.09 0.403437 279.99 0.482426 279.781C1.05689 278.366 1.73906 278.589 2.53613 279.343C2.71565 279.516 2.97415 279.587 3.19676 279.71C3.67069 279.149 4.09435 278.632 4.43903 278.223C5.38689 278.165 6.22704 278.115 7.18927 278.057C7.2898 277.935 7.51241 277.662 7.90017 277.174C8.9701 278.546 6.3922 279.092 7.36161 280.32C8.36692 279.264 7.36161 277.849 8.73314 278.007C8.95574 278.029 9.21425 277.813 9.4584 277.72C10.0257 277.497 7.07438 276.276 7.58421 276.369C8.48899 276.542 9.19988 276.405 9.78153 275.586C10.715 276.261 11.5911 276.743 12.6179 275.744C12.7185 275.644 12.9339 275.672 13.099 275.658C13.5802 275.629 14.0613 275.615 14.6501 275.586C14.7937 275.651 15.2174 275.96 15.3035 275.866C16.1006 275.004 16.4956 275.823 16.8402 276.132C17.6804 275.672 18.3769 275.299 19.095 274.911C20.7394 275.306 18.8796 274.976 20.603 275.385C20.7609 275.421 20.962 275.421 21.1128 275.356C21.7232 275.091 22.3335 274.789 22.9439 274.494C22.9223 274.408 22.9008 274.329 22.8793 274.25C23.145 274.358 23.4106 274.458 23.662 274.559C23.8415 274.15 24.0066 273.79 24.2867 273.158C26.0101 274.078 27.676 274.947 29.3204 275.852C29.5071 275.96 29.6005 276.254 29.7225 276.477C30.2396 277.404 27.4175 276.671 27.8843 275.759C28.1356 275.917 28.3869 276.075 28.6382 276.226C28.6382 276.333 28.6095 276.477 28.667 276.549C29.1481 277.21 29.6579 277.842 30.1318 278.503C30.534 279.056 31.4818 278.977 32.0204 278.309C32.1425 278.388 32.2717 278.467 32.3938 278.539C32.4871 278.718 32.5733 278.905 32.6667 279.085C33.076 279.882 34.3972 280.033 33.9592 281.477C33.9377 281.556 34.7994 282.138 34.9861 282.001C36.1781 281.132 36.889 282.174 37.765 282.54C37.8655 282.583 37.9302 282.77 37.9732 282.899C38.2389 283.682 35.6754 284.02 36.1063 284.652C36.4868 285.205 37.4491 285.959 37.7506 285.765C38.9067 285.033 39.2945 286.232 39.9839 286.52C40.3285 286.663 40.4363 287.425 40.5799 287.77C41.5134 288.236 42.8562 288.43 43.287 289.257C43.7179 290.09 44.3426 290.686 44.7591 291.491C44.8812 291.735 44.953 292.238 44.8309 292.403C44.2708 293.114 42.9783 293.437 43.1937 293.71C43.7466 294.407 44.5652 294.845 45.2761 295.391C45.391 295.477 45.5849 295.578 45.5849 295.686C45.5849 296.972 47.0426 297.101 47.6386 297.913C47.1646 298.423 46.4035 298.38 46.0014 299.091C46.1234 298.868 46.8415 300.47 46.8056 300.822C46.7338 301.583 45.7069 302.797 45.2833 303.365C44.6514 303.092 44.0482 302.733 43.4378 302.402C42.9352 303.336 42.5977 303.961 42.2889 304.536C41.578 304.292 42.7341 304.443 42.1237 304.234C41.6642 304.945 41.3339 305.93 40.8599 306.059C40.3285 306.21 39.6751 305.534 39.0432 305.333C38.8278 305.261 38.5046 305.527 37.9445 305.75C38.6913 305.958 39.0791 306.066 39.5099 306.188C39.1796 307.934 38.8565 309.593 38.5405 311.245C36.8961 311.051 36.6161 311.281 36.1996 313.056C35.6036 312.998 35.0004 312.933 34.4116 312.876C34.3613 312.969 34.3039 313.041 34.2823 313.113C33.794 315.304 33.7366 315.247 31.9558 314.162C31.41 313.831 30.6273 312.811 29.701 314.147C29.3061 314.715 31.1228 315.548 30.4191 314.931C30.2252 314.758 29.8733 314.679 29.6077 314.722C28.4946 314.88 27.8268 314.148 27.0872 313.479C26.642 313.077 26.0675 312.826 25.5649 312.517C25.1987 313.084 24.9401 313.472 24.6888 313.86C22.0535 312.668 21.7663 312.359 22.0176 310.671C21.5795 310.972 21.2636 311.188 20.9476 311.403C20.7322 311.547 20.4163 311.863 20.3301 311.806C19.3104 311.044 22.5418 312.962 21.9242 313.436C21.6873 313.616 21.1774 313.695 20.9979 313.537C19.7915 312.438 19.8059 312.416 18.5852 313.673C18.4559 313.81 18.3338 313.946 18.1974 314.09C18.0251 313.954 17.9173 313.867 17.8025 313.774C16.9982 313.099 16.2011 312.467 15.3323 313.889C15.2317 314.054 14.8799 314.119 14.6573 314.104C14.2193 314.083 13.7884 313.975 13.3504 313.896C13.3288 313.975 13.3073 314.061 13.2857 314.147C12.9985 313.824 12.7113 313.501 12.5174 313.271C12.0435 313.623 11.6342 314.148 11.2464 314.155C10.6719 314.162 10.0975 313.831 9.55174 313.58C8.82648 313.25 8.15867 312.804 7.36879 313.673C7.23235 313.817 10.2985 314.363 10.0041 314.234C9.61637 314.054 9.3076 313.673 8.91265 313.558C8.18022 313.357 7.41187 313.278 6.29885 313.092C5.74593 313.12 4.68318 313.458 3.85739 313.142C2.6582 312.682 1.73188 312.783 0.705027 313.882C0.144927 313.264 1.43747 312.919 0.784016 312.438C0.360352 312.129 1.25077 312.215 1.0138 312.467C0.101843 313.415 -0.156664 312.581 -0.544426 312.036C-0.817295 312.309 0.733749 312.926 0.597315 313.07C0.0300331 312.833 1.36566 313.005 0.898912 312.84C0.6045 312.732 0.180832 312.804 -0.00586796 312.596C-1.08298 311.411 0.726568 311.755 -0.458261 312.969C-0.64496 313.163 -0.817295 313.386 -1.00399 313.587H-0.996819Z" fill="#66870C"/>
<path fill-rule="evenodd" clip-rule="evenodd" d="M56.8521 306.742C56.9598 306.835 57.0747 306.943 57.1824 307.043C57.3404 307.848 57.484 308.66 57.6707 309.45C57.7138 309.608 57.9005 309.737 58.0441 309.838C58.6401 310.226 59.2433 310.592 59.8896 310.987C59.6813 311.353 59.509 311.655 59.3582 311.921C60.4497 312.661 61.4909 313.358 62.5177 314.069C62.726 314.212 63.0778 314.471 63.0419 314.615C62.7762 315.857 63.9108 316.051 64.1478 316.856C64.6073 316.669 64.9879 316.518 65.347 316.375C65.8496 317.222 66.5102 318.005 65.1387 318.673C65.6126 319.442 66.4025 320.038 65.5265 321.13C65.4331 321.245 65.8209 322.107 66.1512 322.337C66.8621 322.811 67.6807 323.098 68.485 323.479C68.3054 324.018 68.1475 324.478 67.9608 325.009C68.7076 325.491 68.6142 326.137 68.0972 326.899C67.9105 327.172 67.7094 327.746 67.8172 327.897C68.3844 328.637 67.7382 329.018 67.4438 329.521C67.3648 329.657 67.4007 329.873 67.3791 330.052C66.8837 330.699 66.3882 331.345 65.8927 331.985C65.5049 331.747 65.1172 331.518 64.3991 331.079C64.4422 331.898 64.4709 332.394 64.4996 333.076C63.8318 333.78 63.0491 334.607 62.2161 335.476C61.613 334.851 61.096 334.305 60.6148 333.802C60.0691 334.923 59.5521 335.979 59.0351 337.027C57.9675 336.956 57.0508 337.446 56.2848 338.5C56.1771 338.651 55.9976 338.773 55.8396 338.845C55.1072 339.168 54.3747 339.47 53.5059 339.836C53.47 339.944 53.3623 340.282 53.2186 340.72C52.4431 340.461 51.7466 340.181 51.0213 340.001C50.7197 339.93 50.174 339.922 50.0591 340.109C49.2764 341.402 48.6517 341.05 47.991 340.152C47.8402 339.944 47.6104 339.822 47.4094 339.657C46.8636 340.124 46.361 340.555 45.966 340.899C45.0325 340.77 44.2068 340.655 43.2589 340.526C43.144 340.626 42.8855 340.856 42.4331 341.266C41.6073 339.692 44.1996 339.649 43.46 338.234C42.3182 339.096 43.065 340.698 41.7581 340.274C41.5427 340.21 41.2626 340.375 41.0041 340.425C40.4081 340.54 43.0937 342.329 42.6126 342.135C41.7581 341.79 41.0472 341.783 40.3579 342.487C39.5536 341.632 38.7781 340.978 37.622 341.783C37.5071 341.862 37.2989 341.797 37.1409 341.776C36.6669 341.711 36.193 341.632 35.6185 341.546C35.4965 341.452 35.1231 341.072 35.0297 341.136C34.1178 341.84 33.8593 340.95 33.5792 340.569C32.6888 340.863 31.9564 341.093 31.188 341.345C29.6513 340.634 31.4106 341.323 29.8021 340.583C29.6513 340.511 29.4646 340.475 29.2995 340.511C28.6604 340.662 28.0213 340.842 27.3822 341.014C27.3894 341.1 27.3966 341.187 27.4037 341.266C27.1668 341.108 26.9226 340.95 26.6928 340.799C26.4559 341.172 26.2405 341.496 25.8671 342.07C24.3375 340.82 22.8511 339.628 21.3934 338.407C21.2283 338.27 21.1852 337.947 21.099 337.71C20.74 336.683 23.3753 337.961 22.7721 338.787C22.5495 338.579 22.3341 338.378 22.1115 338.177C22.1259 338.069 22.1761 337.925 22.1402 337.846C21.774 337.099 21.3791 336.367 21.02 335.612C20.7184 334.98 19.7849 334.88 19.153 335.433C19.0453 335.332 18.9376 335.231 18.8227 335.131C18.7653 334.93 18.7078 334.736 18.6432 334.535C18.3703 333.658 17.1137 333.256 17.7671 331.898C17.803 331.826 17.0491 331.079 16.848 331.18C15.5555 331.812 15.0241 330.641 14.2342 330.102C14.1408 330.038 14.1121 329.844 14.0834 329.7C13.947 328.867 16.5033 329.025 16.1802 328.314C15.893 327.682 15.0743 326.755 14.7512 326.884C13.5089 327.387 13.3222 326.123 12.6903 325.699C12.3744 325.491 12.3959 324.708 12.3026 324.334C11.4696 323.688 10.1914 323.235 9.90419 322.33C9.61696 321.418 9.09994 320.699 8.82707 319.823C8.74809 319.55 8.74809 319.04 8.90606 318.903C9.56669 318.307 10.8736 318.235 10.7013 317.919C10.2704 317.115 9.54515 316.518 8.94197 315.836C8.84862 315.728 8.6691 315.592 8.69064 315.484C8.89889 314.205 7.49863 313.789 7.03906 312.862C7.5848 312.445 8.31724 312.632 8.8199 312.007C8.66192 312.201 8.21671 310.47 8.31006 310.118C8.50394 309.371 9.69595 308.358 10.1914 307.884C10.7659 308.272 11.2901 308.753 11.8358 309.206C12.4749 308.372 12.9058 307.819 13.2935 307.309C13.947 307.69 12.8483 307.309 13.4012 307.64C13.9613 307.022 14.4353 306.102 14.9236 306.066C15.4621 306.016 15.9863 306.813 16.568 307.151C16.769 307.259 17.1209 307.065 17.7097 306.943C17.0203 306.591 16.6541 306.404 16.252 306.203C16.8552 304.536 17.4225 302.941 17.9898 301.354C19.5552 301.864 19.8711 301.692 20.5461 300.011C21.1206 300.183 21.695 300.363 22.2623 300.535C22.3269 300.449 22.3916 300.399 22.4275 300.319C23.2533 298.236 23.2963 298.294 24.8546 299.723C25.3285 300.154 25.9317 301.325 27.0447 300.176C27.5186 299.687 25.8814 298.495 26.4702 299.256C26.6354 299.472 26.9585 299.615 27.2242 299.623C28.3301 299.68 28.8614 300.549 29.479 301.354C29.8524 301.85 30.3694 302.202 30.8074 302.618C31.2526 302.13 31.5686 301.778 31.8702 301.447C34.247 303.143 34.4768 303.516 33.967 305.147C34.4409 304.931 34.7784 304.773 35.1159 304.622C35.3457 304.522 35.7047 304.263 35.7765 304.349C36.6526 305.305 33.809 302.762 34.484 302.41C34.7353 302.281 35.2523 302.302 35.3959 302.489C36.4013 303.818 36.3797 303.839 37.7656 302.819C37.9092 302.712 38.0528 302.597 38.2036 302.482C38.3472 302.654 38.4478 302.762 38.534 302.87C39.2161 303.696 39.8839 304.479 40.961 303.236C41.0831 303.085 41.435 303.092 41.6576 303.15C42.0812 303.258 42.4834 303.459 42.8927 303.617C42.9286 303.538 42.9645 303.466 43.0004 303.387C43.2302 303.768 43.4528 304.141 43.6108 304.407C44.1206 304.155 44.6089 303.703 44.9895 303.775C45.5496 303.875 46.0522 304.321 46.5477 304.68C47.2011 305.154 47.7828 305.729 48.6876 305.01C48.8384 304.888 45.9445 303.746 46.2102 303.94C46.5549 304.199 46.799 304.637 47.1724 304.824C47.8474 305.176 48.587 305.398 49.6354 305.801C50.174 305.887 51.2655 305.743 52.0194 306.224C53.1109 306.914 54.0301 306.993 55.2005 306.102C55.6457 306.828 54.3388 306.921 54.8918 307.525C55.2508 307.92 54.4035 307.654 54.6763 307.453C55.7104 306.684 55.8324 307.561 56.1269 308.185C56.4356 307.97 55.021 307.05 55.1862 306.936C55.7032 307.273 54.425 306.849 54.8559 307.108C55.1287 307.273 55.5452 307.28 55.696 307.525C56.5577 308.918 54.8559 308.221 56.1915 307.237C56.4069 307.079 56.608 306.892 56.8162 306.727L56.8521 306.742Z" fill="#8EAD1C"/>
<path fill-rule="evenodd" clip-rule="evenodd" d="M5.88367 359.03C5.78314 358.929 5.68261 358.814 5.58208 358.714C5.52464 357.93 5.48873 357.14 5.40256 356.364C5.3882 356.206 5.20868 356.063 5.07225 355.962C4.50497 355.538 3.9305 355.129 3.32014 354.691C3.58582 354.36 3.80125 354.087 3.99513 353.843C2.96828 353.039 1.99169 352.277 1.02229 351.501C0.828408 351.343 0.49809 351.063 0.548356 350.934C0.993564 349.763 -0.16254 349.475 -0.291794 348.685C-0.794448 348.822 -1.20375 348.93 -1.59151 349.03C-1.99364 348.175 -2.58246 347.363 -1.0745 346.846C-1.45508 346.07 -2.1947 345.424 -1.13913 344.461C-1.02423 344.354 -1.30428 343.499 -1.62024 343.255C-2.28805 342.73 -3.09948 342.385 -3.875 341.947C-3.60931 341.444 -3.39389 341.028 -3.1282 340.532C-3.83191 340 -3.6524 339.397 -3.01331 338.707C-2.78352 338.463 -2.48911 337.932 -2.58964 337.781C-3.07075 337.019 -2.35986 336.717 -1.98646 336.265C-1.88593 336.143 -1.89311 335.934 -1.85002 335.769C-1.25402 335.195 -0.650831 334.627 -0.054827 334.052C0.318573 334.311 0.68479 334.57 1.36696 335.051C1.43159 334.261 1.47468 333.787 1.53212 333.14C2.32201 332.522 3.24115 331.804 4.21773 331.05C4.75629 331.703 5.21586 332.271 5.64671 332.795C6.36478 331.775 7.03978 330.813 7.70759 329.857C8.80386 330.02 9.81874 329.632 10.7522 328.693C10.8887 328.564 11.0826 328.456 11.2621 328.406C12.0591 328.162 12.8634 327.939 13.8041 327.673C13.8543 327.573 14.0123 327.264 14.2206 326.854C14.9817 327.171 15.6711 327.501 16.3963 327.738C16.6979 327.839 17.2652 327.889 17.4088 327.716C18.3926 326.553 18.9886 326.941 19.5487 327.867C19.6708 328.076 19.9005 328.212 20.0801 328.392C20.712 327.989 21.2793 327.63 21.7388 327.336C22.6867 327.544 23.5197 327.724 24.4891 327.939C24.6255 327.853 24.9199 327.652 25.4441 327.307C26.0832 328.887 23.4048 328.693 23.9792 330.109C25.279 329.39 24.7189 327.788 26.0114 328.313C26.2196 328.399 26.5356 328.262 26.8085 328.241C27.4332 328.183 24.9056 326.23 25.3723 326.459C26.2125 326.869 26.9449 326.933 27.7563 326.33C28.4744 327.221 29.1781 327.91 30.4778 327.25C30.6071 327.185 30.8081 327.264 30.9733 327.3C31.4544 327.408 31.9355 327.523 32.51 327.659C32.6321 327.752 32.9552 328.162 33.0629 328.097C34.1041 327.508 34.2477 328.385 34.4847 328.765C35.4469 328.571 36.2368 328.406 37.0554 328.234C38.549 329.06 36.8185 328.241 38.3839 329.089C38.5275 329.168 38.7214 329.225 38.8937 329.203C39.5759 329.124 40.258 329.01 40.9402 328.902C40.9402 328.823 40.9402 328.744 40.9474 328.658C41.1772 328.83 41.407 329.002 41.6224 329.168C41.9168 328.837 42.1897 328.535 42.6493 328.025C44.0639 329.354 45.4354 330.633 46.7782 331.933C46.929 332.084 46.9362 332.393 46.9864 332.63C47.2162 333.643 44.6671 332.185 45.3995 331.452C45.6006 331.667 45.7944 331.883 45.9955 332.098C45.9668 332.199 45.895 332.328 45.9237 332.407C46.2037 333.162 46.5125 333.894 46.7782 334.649C47.008 335.281 47.963 335.46 48.6811 334.993C48.7816 335.094 48.8822 335.202 48.9827 335.31C49.0186 335.511 49.0545 335.705 49.0904 335.899C49.2556 336.761 50.505 337.256 49.6433 338.499C49.6002 338.564 50.2752 339.347 50.4907 339.275C51.9196 338.786 52.3074 339.95 53.047 340.546C53.1332 340.611 53.1404 340.805 53.1475 340.941C53.1763 341.746 50.5625 341.365 50.7994 342.076C51.0077 342.701 51.7258 343.664 52.0848 343.571C53.4348 343.204 53.4563 344.433 54.0523 344.892C54.3467 345.122 54.2247 345.869 54.2677 346.229C55.0433 346.925 56.2999 347.478 56.4794 348.362C56.6446 349.267 57.0898 350 57.2478 350.862C57.298 351.128 57.2191 351.616 57.0467 351.731C56.2855 352.241 54.9284 352.198 55.0648 352.514C55.4023 353.319 56.0701 353.951 56.5943 354.662C56.6805 354.777 56.8456 354.928 56.8097 355.021C56.422 356.221 57.815 356.745 58.1597 357.679C57.5422 358.024 56.8097 357.78 56.1994 358.333C56.3861 358.16 56.6087 359.856 56.4722 360.179C56.1707 360.876 54.8063 361.731 54.2318 362.14C53.6861 361.716 53.2122 361.213 52.7095 360.732C51.934 361.472 51.417 361.968 50.9502 362.413C50.3255 361.989 51.4098 362.449 50.8784 362.083C50.2178 362.621 49.6002 363.455 49.0904 363.447C48.5231 363.447 48.0923 362.636 47.5322 362.262C47.3383 362.14 46.9505 362.298 46.333 362.356C47.0008 362.751 47.3527 362.966 47.7332 363.196C46.8859 364.74 46.0817 366.206 45.2774 367.671C43.7264 367.046 43.3817 367.176 42.4554 368.727C41.8881 368.512 41.3136 368.289 40.7535 368.074C40.6674 368.153 40.5955 368.196 40.5596 368.268C39.4251 370.186 39.3892 370.121 37.9674 368.612C37.5365 368.153 37.077 366.982 35.7629 367.987C35.21 368.411 36.7395 369.697 36.2368 368.914C36.1004 368.699 35.7773 368.533 35.5044 368.497C34.3626 368.347 33.939 367.47 33.4076 366.637C33.0844 366.134 32.6033 365.746 32.2012 365.308C31.677 365.739 31.3036 366.041 30.9446 366.328C28.7185 364.489 28.5318 364.116 29.2786 362.6C28.7616 362.758 28.3882 362.887 28.022 362.995C27.7779 363.074 27.3614 363.282 27.2967 363.203C26.5212 362.212 29.1135 364.899 28.3739 365.172C28.0938 365.272 27.5624 365.207 27.4404 365.013C26.5858 363.656 26.6074 363.634 25.0348 364.482C24.8696 364.568 24.7117 364.669 24.5322 364.769C24.4029 364.597 24.3239 364.482 24.2449 364.367C23.6489 363.512 23.0673 362.7 21.7891 363.799C21.6383 363.929 21.2793 363.893 21.0567 363.821C20.633 363.677 20.2452 363.455 19.8431 363.268C19.7928 363.34 19.7498 363.404 19.7067 363.476C19.52 363.095 19.3405 362.715 19.2112 362.449C18.6511 362.643 18.091 363.031 17.7032 362.93C17.1359 362.779 16.6764 362.312 16.224 361.925C15.6136 361.415 15.0894 360.811 14.0554 361.415C13.8831 361.515 16.7195 362.873 16.4753 362.664C16.1522 362.391 15.9583 361.946 15.6064 361.738C14.953 361.343 14.2206 361.063 13.1865 360.581C12.6408 360.459 11.4919 360.488 10.781 359.963C9.74693 359.202 8.80625 359.044 7.47781 359.798C7.11159 359.065 8.47593 359.094 7.98046 358.469C7.65732 358.06 8.50466 358.39 8.19588 358.555C7.02542 359.195 7.01823 358.347 6.80281 357.722C6.45095 357.902 7.78658 358.907 7.60706 359.001C7.11877 358.627 8.3754 359.152 7.9661 358.872C7.70759 358.692 7.27674 358.642 7.16185 358.397C6.45813 356.989 8.12408 357.808 6.60893 358.627C6.36479 358.757 6.12782 358.915 5.89085 359.058L5.88367 359.03Z" fill="#56A00E"/>
<path fill-rule="evenodd" clip-rule="evenodd" d="M87.6633 346.602C87.7423 346.724 87.8285 346.847 87.9075 346.961C87.8428 347.744 87.7567 348.528 87.728 349.311C87.7208 349.469 87.8788 349.634 88.0008 349.756C88.4891 350.266 88.999 350.747 89.5375 351.279C89.2287 351.566 88.9702 351.803 88.7405 352.012C89.6309 352.967 90.4854 353.865 91.3183 354.784C91.4907 354.971 91.7707 355.294 91.6989 355.424C91.0814 356.501 92.1729 356.968 92.18 357.773C92.6971 357.715 93.1207 357.672 93.5228 357.629C93.7885 358.534 94.2409 359.425 92.6683 359.698C92.9268 360.531 93.5587 361.278 92.3667 362.068C92.2303 362.155 92.3811 363.045 92.6611 363.34C93.2428 363.958 93.9824 364.425 94.6933 364.978C94.3558 365.43 94.0686 365.818 93.7383 366.264C94.3558 366.896 94.0829 367.471 93.3433 368.045C93.0776 368.254 92.7114 368.735 92.7832 368.9C93.1423 369.726 92.3883 369.913 91.9503 370.308C91.8282 370.416 91.7995 370.624 91.7348 370.775C91.0527 371.249 90.3777 371.723 89.6955 372.197C89.3724 371.881 89.042 371.565 88.4389 370.99C88.2522 371.759 88.1444 372.219 87.9865 372.858C87.1104 373.339 86.0907 373.914 85.0064 374.51C84.5756 373.778 84.2094 373.145 83.8647 372.571C83.003 373.469 82.1844 374.309 81.373 375.157C80.315 374.826 79.2522 375.054 78.1847 375.839C78.0267 375.947 77.8185 376.019 77.639 376.048C76.8132 376.163 75.9874 376.263 75.0108 376.385C74.9462 376.479 74.7451 376.759 74.4722 377.125C73.7613 376.694 73.1366 376.263 72.4616 375.918C72.1744 375.775 71.6287 375.631 71.4635 375.782C70.3074 376.78 69.7832 376.306 69.3739 375.308C69.2805 375.085 69.0795 374.905 68.9287 374.704C68.2465 375.006 67.6218 375.272 67.1191 375.495C66.2215 375.143 65.4245 374.834 64.4981 374.474C64.3545 374.539 64.0314 374.69 63.4569 374.956C63.0692 373.289 65.6902 373.9 65.3383 372.413C63.9452 372.923 64.254 374.589 63.0548 373.878C62.8609 373.763 62.5234 373.842 62.2577 373.828C61.633 373.785 63.8303 376.105 63.3995 375.811C62.6383 375.279 61.9202 375.099 61.0227 375.574C60.4482 374.582 59.8594 373.792 58.4735 374.245C58.337 374.288 58.1503 374.18 57.9924 374.115C57.5328 373.943 57.0804 373.749 56.5275 373.526C56.427 373.411 56.1613 372.959 56.0464 373.002C54.9334 373.433 54.919 372.535 54.7466 372.125C53.7701 372.169 52.9658 372.212 52.1257 372.248C50.7829 371.206 52.3555 372.276 50.9408 371.199C50.8116 371.098 50.6321 371.012 50.4597 371.005C49.7704 370.983 49.081 370.99 48.3917 370.99C48.3701 371.069 48.3558 371.156 48.3486 371.235C48.1475 371.026 47.9465 370.825 47.7598 370.631C47.4151 370.911 47.1063 371.163 46.5677 371.601C45.3757 370.071 44.2125 368.598 43.0851 367.097C42.9558 366.932 43.0061 366.623 42.9845 366.379C42.9056 365.344 45.2034 367.176 44.3633 367.787C44.1981 367.542 44.0401 367.298 43.8678 367.061C43.9109 366.96 44.0042 366.846 43.9899 366.759C43.8319 365.976 43.638 365.201 43.4872 364.418C43.3579 363.764 42.446 363.433 41.6561 363.785C41.5771 363.663 41.4981 363.541 41.412 363.426C41.412 363.225 41.412 363.024 41.3976 362.83C41.3689 361.961 40.2128 361.271 41.254 360.179C41.3114 360.122 40.7657 359.245 40.5359 359.288C39.0495 359.547 38.8484 358.34 38.2093 357.636C38.1303 357.557 38.1591 357.37 38.1734 357.234C38.2668 356.429 40.7944 357.212 40.6651 356.472C40.5574 355.819 39.9973 354.756 39.6311 354.799C38.2381 354.957 38.4104 353.736 37.8934 353.19C37.642 352.917 37.8718 352.198 37.8934 351.832C37.2327 351.027 36.0766 350.287 36.0407 349.382C36.0048 348.47 35.6889 347.673 35.6602 346.796C35.6602 346.523 35.8038 346.049 35.9976 345.963C36.8234 345.575 38.1662 345.834 38.0801 345.496C37.8718 344.648 37.3117 343.916 36.8952 343.14C36.8306 343.011 36.687 342.845 36.7373 342.752C37.3046 341.624 36.012 340.891 35.8109 339.922C36.4788 339.67 37.1609 340.029 37.8431 339.577C37.6277 339.72 37.6708 338.004 37.8575 337.709C38.2596 337.07 39.7388 336.43 40.3779 336.114C40.8447 336.617 41.2396 337.185 41.6633 337.745C42.5393 337.134 43.1282 336.725 43.6595 336.351C44.2053 336.869 43.2071 336.244 43.6739 336.682C44.4135 336.251 45.146 335.525 45.6486 335.604C46.2087 335.698 46.5103 336.56 47.0058 337.012C47.1781 337.163 47.5874 337.07 48.205 337.106C47.609 336.61 47.293 336.351 46.9483 336.064C48.0183 334.663 49.0451 333.341 50.0648 332.02C51.4938 332.882 51.86 332.796 53.0161 331.409C53.5475 331.718 54.0717 332.027 54.5959 332.321C54.6892 332.264 54.7682 332.228 54.8185 332.163C56.2403 330.439 56.2618 330.504 57.4323 332.221C57.7913 332.738 58.0713 333.966 59.5147 333.183C60.1322 332.846 58.811 331.344 59.1916 332.192C59.2993 332.429 59.5865 332.645 59.8522 332.724C60.9508 333.054 61.2453 333.988 61.6402 334.879C61.8772 335.425 62.2937 335.884 62.6311 336.373C63.2128 336.035 63.6293 335.791 64.0242 335.561C65.9415 337.716 66.0636 338.119 65.1013 339.498C65.6399 339.412 66.0205 339.354 66.4082 339.304C66.6667 339.268 67.1048 339.124 67.155 339.21C67.7726 340.31 65.6184 337.257 66.4011 337.098C66.6955 337.034 67.2053 337.185 67.2987 337.4C67.9377 338.873 67.909 338.887 69.5965 338.298C69.776 338.241 69.9484 338.169 70.1351 338.097C70.2284 338.284 70.293 338.413 70.3577 338.542C70.8101 339.476 71.2696 340.367 72.6986 339.483C72.8709 339.376 73.2228 339.469 73.4167 339.577C73.8116 339.785 74.1635 340.058 74.5369 340.317C74.5943 340.252 74.6518 340.187 74.7092 340.13C74.8313 340.532 74.9534 340.942 75.0395 341.222C75.6284 341.114 76.2387 340.82 76.5978 340.978C77.1363 341.215 77.5169 341.746 77.9118 342.199C78.436 342.802 78.8597 343.477 79.9727 343.039C80.1594 342.96 77.56 341.193 77.7754 341.437C78.0555 341.753 78.1775 342.22 78.4935 342.493C79.0823 342.982 79.7573 343.37 80.7052 344.009C81.2294 344.217 82.3639 344.368 82.9886 344.993C83.8934 345.906 84.7982 346.207 86.2272 345.668C86.4713 346.451 85.1285 346.214 85.5163 346.904C85.7748 347.357 84.9921 346.904 85.3152 346.789C86.5719 346.344 86.4498 347.177 86.5719 347.831C86.9453 347.701 85.782 346.502 85.9687 346.444C86.3923 346.89 85.2291 346.178 85.5881 346.516C85.8107 346.732 86.2344 346.847 86.3205 347.112C86.7945 348.614 85.2721 347.543 86.9022 346.969C87.1607 346.875 87.4192 346.753 87.6777 346.653L87.6633 346.602Z" fill="#087767"/>
<path fill-rule="evenodd" clip-rule="evenodd" d="M-29.0172 360.158C-29.1464 360.079 -29.2685 360 -29.3906 359.929C-29.6778 359.174 -29.9435 358.42 -30.2594 357.68C-30.3241 357.529 -30.5323 357.443 -30.6975 357.378C-31.3509 357.12 -32.0187 356.883 -32.7153 356.617C-32.5645 356.222 -32.4496 355.891 -32.3347 355.597C-33.5411 355.094 -34.6828 354.62 -35.8174 354.124C-36.0471 354.024 -36.4349 353.844 -36.4349 353.7C-36.3631 352.436 -37.5264 352.472 -37.8926 351.732C-38.3235 351.998 -38.6753 352.221 -39.0128 352.429C-39.6447 351.703 -40.4346 351.071 -39.1708 350.152C-39.7668 349.491 -40.65 349.067 -39.9463 347.839C-39.8673 347.702 -40.3915 346.941 -40.7649 346.79C-41.5476 346.459 -42.4093 346.345 -43.271 346.136C-43.1705 345.576 -43.0915 345.102 -42.991 344.541C-43.8096 344.218 -43.8239 343.572 -43.4218 342.724C-43.2782 342.422 -43.1705 341.819 -43.2997 341.697C-43.9819 341.086 -43.4003 340.591 -43.1848 340.045C-43.1274 339.894 -43.192 339.693 -43.2064 339.52C-42.8186 338.795 -42.4237 338.069 -42.0359 337.351C-41.6123 337.502 -41.1814 337.652 -40.3987 337.933C-40.571 337.142 -40.6787 336.668 -40.8152 336.015C-40.2623 335.196 -39.6088 334.247 -38.9195 333.227C-38.2157 333.723 -37.6197 334.147 -37.0596 334.542C-36.6934 333.342 -36.3416 332.222 -35.9969 331.101C-34.9198 330.957 -34.0844 330.299 -33.4908 329.126C-33.4046 328.96 -33.2466 328.802 -33.0958 328.702C-32.4209 328.242 -31.7315 327.804 -30.9344 327.287C-30.9129 327.172 -30.8554 326.834 -30.7836 326.374C-29.9722 326.475 -29.2254 326.611 -28.4786 326.647C-28.1627 326.662 -27.6241 326.561 -27.5379 326.353C-26.9635 324.938 -26.2813 325.16 -25.4842 325.907C-25.3047 326.08 -25.0462 326.152 -24.8236 326.274C-24.3568 325.713 -23.926 325.196 -23.5813 324.787C-22.6335 324.729 -21.7933 324.679 -20.8311 324.621C-20.7306 324.499 -20.5151 324.226 -20.1274 323.738C-19.0574 325.11 -21.6282 325.656 -20.6659 326.884C-19.6606 325.828 -20.6659 324.413 -19.2944 324.571C-19.0718 324.6 -18.8133 324.377 -18.5691 324.284C-17.9947 324.061 -20.9532 322.833 -20.4433 322.933C-19.5385 323.106 -18.8276 322.962 -18.246 322.15C-17.3125 322.826 -16.4364 323.314 -15.4096 322.301C-15.3091 322.201 -15.0936 322.229 -14.9285 322.215C-14.4474 322.186 -13.9663 322.165 -13.3774 322.143C-13.2338 322.208 -12.8102 322.517 -12.724 322.423C-11.9269 321.554 -11.5248 322.38 -11.1873 322.689C-10.3471 322.237 -9.65779 321.863 -8.93253 321.468C-7.28814 321.863 -9.15514 321.533 -7.43176 321.942C-7.27378 321.978 -7.07272 321.978 -6.92192 321.913C-6.31155 321.648 -5.70119 321.346 -5.09082 321.058C-5.11236 320.972 -5.1339 320.893 -5.15545 320.814C-4.88976 320.922 -4.62407 321.023 -4.37274 321.123C-4.19322 320.714 -4.02806 320.354 -3.74801 319.729C-2.02463 320.642 -0.358688 321.518 1.29289 322.423C1.47959 322.524 1.57294 322.826 1.69501 323.048C2.21203 323.975 -0.617195 323.249 -0.143265 322.33C0.108063 322.488 0.35939 322.639 0.610718 322.797C0.617901 322.905 0.589176 323.055 0.639442 323.12C1.12774 323.781 1.63039 324.413 2.1115 325.074C2.50644 325.627 3.46149 325.548 4.00005 324.887C4.1293 324.966 4.25137 325.038 4.38063 325.117C4.47398 325.297 4.56014 325.484 4.65349 325.663C5.0628 326.46 6.38406 326.611 5.94604 328.055C5.92449 328.134 6.78619 328.716 6.97289 328.58C8.16489 327.71 8.87579 328.745 9.74467 329.118C9.8452 329.161 9.90982 329.348 9.9529 329.478C10.2186 330.253 7.65506 330.605 8.0859 331.23C8.46648 331.791 9.42871 332.538 9.7303 332.344C10.8936 331.611 11.2742 332.811 11.9707 333.098C12.3154 333.235 12.4231 334.003 12.5739 334.348C13.5074 334.808 14.8502 335.002 15.281 335.828C15.7119 336.661 16.3438 337.257 16.7459 338.062C16.868 338.306 16.947 338.809 16.8177 338.974C16.2576 339.685 14.9651 340.016 15.1877 340.289C15.7406 340.986 16.5592 341.424 17.2701 341.97C17.385 342.056 17.5789 342.157 17.5789 342.264C17.5789 343.543 19.0366 343.679 19.6326 344.491C19.1587 345.008 18.3975 344.958 17.9954 345.669C18.1175 345.447 18.8355 347.049 18.7996 347.408C18.7278 348.169 17.701 349.383 17.2773 349.951C16.6454 349.678 16.0422 349.319 15.4318 348.981C14.922 349.922 14.5917 350.54 14.2829 351.114C13.572 350.87 14.7281 351.021 14.1178 350.813C13.6582 351.524 13.3279 352.508 12.8539 352.644C12.3226 352.795 11.6691 352.12 11.0372 351.912C10.8218 351.847 10.4986 352.106 9.93136 352.336C10.6782 352.544 11.0659 352.652 11.4968 352.774C11.1593 354.512 10.8433 356.172 10.5274 357.831C8.89015 357.637 8.60292 357.867 8.19361 359.641C7.59043 359.584 6.99443 359.526 6.39842 359.469C6.34816 359.562 6.29071 359.634 6.26917 359.706C5.77369 361.897 5.72343 361.847 3.94978 360.755C3.41122 360.424 2.62133 359.404 1.69501 360.748C1.30007 361.315 3.11681 362.148 2.42027 361.531C2.22639 361.351 1.87453 361.279 1.60884 361.315C0.495827 361.473 -0.171989 360.74 -0.91161 360.072C-1.35682 359.67 -1.9241 359.419 -2.43393 359.102C-2.80016 359.67 -3.05866 360.065 -3.30281 360.446C-5.93815 359.261 -6.22538 358.944 -5.98124 357.256C-6.41926 357.558 -6.72804 357.774 -7.04399 357.989C-7.25224 358.133 -7.57537 358.449 -7.66154 358.391C-8.68839 357.63 -5.45704 359.548 -6.06741 360.022C-6.30437 360.202 -6.81421 360.281 -6.99373 360.123C-8.2001 359.023 -8.18574 359.002 -9.40647 360.259C-9.53572 360.396 -9.65779 360.532 -9.79423 360.676C-9.96657 360.539 -10.0743 360.453 -10.1892 360.36C-10.9934 359.684 -11.7905 359.052 -12.6665 360.475C-12.7671 360.64 -13.1189 360.704 -13.3415 360.697C-13.7796 360.676 -14.2104 360.561 -14.6484 360.482C-14.67 360.568 -14.6915 360.647 -14.7131 360.726C-15.0003 360.403 -15.2803 360.079 -15.4814 359.85C-15.9553 360.194 -16.3646 360.726 -16.7524 360.733C-17.3269 360.733 -17.8941 360.41 -18.4399 360.158C-19.1651 359.821 -19.833 359.383 -20.6228 360.252C-20.7593 360.403 -17.6859 360.949 -17.9875 360.812C-18.3753 360.633 -18.684 360.252 -19.079 360.144C-19.8114 359.936 -20.5798 359.864 -21.6928 359.67C-22.2457 359.699 -23.3084 360.044 -24.1342 359.72C-25.3334 359.261 -26.2597 359.361 -27.2866 360.46C-27.8467 359.842 -26.5542 359.498 -27.2076 359.016C-27.6313 358.7 -26.7409 358.794 -26.9778 359.045C-27.8898 359.993 -28.1483 359.167 -28.5361 358.614C-28.8089 358.887 -27.2579 359.505 -27.3943 359.648C-27.9616 359.411 -26.626 359.584 -27.0927 359.419C-27.3871 359.311 -27.8108 359.383 -27.9975 359.174C-29.0746 357.989 -27.2651 358.341 -28.4499 359.555C-28.6438 359.749 -28.8161 359.965 -28.9956 360.173L-29.0172 360.158Z" fill="#AFCC37"/>
</g>
<defs>
<clipPath id="clip0_718_163">
<rect width="552" height="617" fill="white" transform="translate(-35)"/>
</clipPath>
</defs>
</svg>
