<svg width="165" height="85" viewBox="0 0 165 85" fill="none" xmlns="http://www.w3.org/2000/svg">
<path d="M119.495 0.129294C113.161 0.208313 106.885 0.251412 100.473 0.402266C78.5645 0.912298 56.6559 -0.703997 34.7546 0.387902C26.0515 0.818914 23.5095 5.85457 18.0449 12.2982C16.142 14.5467 10.7205 19.1298 12.7814 22.0032C14.7489 24.7329 23.3874 24.2804 26.2741 24.4312C29.3331 24.5964 33.9934 26.0691 36.9878 25.243C27.3943 27.8793 24.2993 37.7423 16.9893 42.9791C13.8082 45.2563 11.6037 45.4287 8.19286 46.8151C4.72455 48.2231 4.04955 51.1899 2.92935 54.832C1.65117 58.9984 0.897194 63.9479 1.40703 68.3155C2.21846 75.2189 5.33491 75.147 11.1442 75.1039C27.8969 74.9818 44.6569 75.2835 61.4096 75.1039C74.6294 74.9603 88.3303 75.4559 101.493 74.2922C111.51 73.4086 121.721 74.0048 131.81 73.8827C138.309 73.8037 142.308 72.8339 142.825 65.8012C143.364 58.4956 142.516 50.7589 142.998 43.7118C143.486 36.593 142.725 29.6465 142.38 22.4342C142.114 16.9819 143.967 10.3802 141.195 5.33018C138.064 -0.366372 130.223 -0.0574819 124.88 0.0359042C123.071 0.0646384 121.276 0.093373 119.481 0.114924L119.495 0.129294Z" fill="#F0F0F0"/>
<path d="M46.8898 26.3488C48.5629 27.0169 48.1393 30.7595 48.0746 32.1675C47.9454 34.9762 48.1464 37.8425 47.7874 40.6225C47.5863 42.1526 28.6291 42.3394 26.5969 42.2819C25.8358 42.2603 18.7986 42.0017 18.6406 42.2819C19.7177 40.3064 21.6709 38.9128 23.0784 37.2175C24.4068 35.6156 25.7065 33.9418 27.0996 32.3902C29.9432 29.2222 33.232 27.3904 37.3968 27.0743C39.5295 26.9163 41.6478 26.6074 43.7734 26.4422C44.7858 26.3632 46.0784 26.0112 46.8898 26.3344V26.3488Z" fill="#AFAFAF"/>
<path d="M34.7422 25.121C38.031 24.0435 42.4759 24.3236 45.9298 23.9788C50.7338 23.4975 51.3226 29.6466 51.4662 33.3533C51.7535 40.7236 51.9617 48.1011 51.775 55.4715C51.6098 62.0803 51.416 68.7969 50.8128 75.3842" stroke="#919191" stroke-width="0.55" stroke-linecap="round" stroke-linejoin="round"/>
<path d="M5.14299 49.9828C7.13206 49.8894 9.23604 48.8334 11.0384 48.1797C11.2682 51.7643 10.9881 53.9984 8.20918 56.2181C6.7084 57.4177 5.22198 58.6892 3.61349 59.7308C2.23478 60.6216 1.61723 61.3759 1.30128 59.6734C0.820168 57.1232 3.19701 51.8361 4.94912 50.1839" fill="#FFDB06"/>
<path d="M119.465 65.3556H112.629L120.226 49.0059H127.055L119.465 65.3556Z" fill="#575A5B"/>
<path d="M127.817 56.9083H120.98L128.578 40.5586H135.407L127.817 56.9083Z" fill="#FFBA7B"/>
<path d="M6.1611 76.943C3.15235 76.0235 0.911959 70.8801 0 68.0497C3.03747 67.863 5.91696 67.8127 8.97597 67.8127C13.1049 67.8127 17.32 68.021 21.4274 67.7624C21.2766 67.7696 23.8976 64.1275 24.3644 63.7827C27.0787 61.7713 30.2598 60.8734 33.448 61.8791C34.7765 62.2957 35.9829 62.9853 36.9451 64.0629C37.218 64.3646 39.1711 68.0066 38.8623 68.0354C60.3472 65.9234 82.2342 67.6762 103.856 66.4119C103.604 66.4263 105.694 63.6175 105.916 63.4092C108.423 61.0458 112.171 60.4639 115.374 61.2182C117.298 61.6707 118.67 64.0844 120.055 65.3846C122.095 67.2955 123.359 66.5843 125.98 66.3329C129.254 66.0168 132.5 65.3631 135.788 65.2051C138.424 65.0757 141.253 64.3071 143.874 64.7956C144.19 64.8531 142.933 69.2278 142.761 69.6086C142.021 71.2967 140.542 72.4604 138.869 72.9489C133.124 74.6227 125.965 74.5652 119.969 74.5652C111.898 74.5652 103.633 74.637 95.5546 75.0968C75.8003 76.2246 55.7587 75.5853 36.0403 77.2519C28.4502 77.8912 20.9535 78.2001 13.3275 77.805C11.0297 77.6901 8.38714 77.611 6.17546 76.9358L6.1611 76.943Z" fill="#FFBA7B"/>
<path d="M38.3399 78.3005C40.2643 72.6039 37.2699 62.3314 30.3979 62.3889C23.6983 62.4464 19.756 73.3941 22.3052 79.2343C25.4432 86.4179 35.7835 85.836 38.3399 78.3005Z" fill="#252A2D"/>
<path d="M120.271 78.2212C122.339 71.1454 119.129 60.6647 111.237 62.2594C101.493 64.2277 101.285 81.0228 110.613 83.9106C115.847 85.5341 119.021 82.5026 120.271 78.2212Z" fill="#252A2D"/>
<path d="M19.3008 41.6067C24.8372 41.6929 29.4185 42.2963 34.998 41.815C38.8038 41.4917 43.6436 40.565 47.4566 40.7518C47.3992 35.7449 47.3704 31.8011 47.3704 26.6074" stroke="#969696" stroke-width="1.65" stroke-linecap="round" stroke-linejoin="round"/>
<path d="M40.5571 3.98664C40.2196 3.40477 39.7456 3.55563 38.3885 3.62028C35.6598 3.74959 32.3781 3.93635 29.7715 4.86303C26.7628 5.93338 24.745 8.31832 23.0647 11.0696C21.7721 13.1888 22.1886 14.2591 24.4721 14.3525C28.7806 14.5249 33.405 14.2807 37.7135 14.1083C39.602 14.0292 40.1621 14.058 40.7653 12.2333C41.4044 10.2866 41.4762 7.02528 40.9376 5.05699C40.8012 4.56133 40.6935 4.2237 40.5571 3.99382V3.98664Z" fill="#AFAFAF"/>
<path d="M63.2993 26.2781C61.2743 26.4074 59.2422 26.235 57.289 27.0395C55.1707 27.9087 55.7236 31.1557 55.6303 33.009C55.5441 34.8768 55.5513 38.0016 57.9497 38.1453C61.9565 38.3823 65.9921 38.095 69.9703 37.585C72.7851 37.2258 73.0149 35.6957 72.8713 32.8151C72.7636 30.6169 73.3596 26.4505 70.437 26.0482C68.1463 25.7393 65.9562 26.0554 63.6799 26.2565C63.5507 26.2709 63.4214 26.2781 63.2993 26.2852V26.2781Z" fill="#AFAFAF"/>
<path d="M114.97 23.2028C111.057 23.3106 107.136 23.1525 103.237 23.5763C101.434 23.7703 98.3897 23.4399 96.9751 24.9053C95.46 26.4785 96.0273 29.9697 95.8693 31.9595C95.7472 33.5399 95.7831 37.3256 97.1618 38.3529C98.1671 39.1 100.774 39.0784 102.002 39.1215C104.127 39.1934 106.245 38.9491 108.371 38.9707C116.22 39.0569 124.061 38.7767 131.895 38.3098C133.712 38.202 136.218 38.7624 137.941 38.2236C139.78 37.6489 139.392 35.4076 139.356 33.7554C139.313 31.9021 139.306 29.9841 139.349 28.1163C139.378 26.8951 139.399 25.2717 138.652 24.2516C137.941 23.289 137.353 23.4542 136.283 23.3321C133.36 22.9945 130.538 22.858 127.587 22.8364C123.695 22.8077 119.81 23.0376 115.925 23.1812C115.602 23.1956 115.286 23.2028 114.963 23.21L114.97 23.2028Z" fill="#AFAFAF"/>
<path d="M79.7789 66.1957C79.7789 62.0436 79.4629 58.3944 79.2331 54.192C79.0392 50.7583 78.9459 47.3174 78.9531 43.8764C78.9603 40.8953 78.6371 37.6914 79.4845 34.7964C80.2384 32.2247 82.2562 31.334 84.6115 31.1831C86.2631 31.0754 89.279 30.7521 90.8229 31.5064C93.2715 32.706 93.8819 35.6513 94.1189 38.2302C94.9518 47.2671 95.275 56.7062 95.275 65.7791" stroke="#C4C4C4" stroke-width="2.74" stroke-linecap="round" stroke-linejoin="round"/>
<path d="M30.8494 77.3017C35.5026 75.2113 31.5316 67.5393 28.4008 70.7934C26.5194 72.7474 27.4242 78.839 30.8494 77.3017Z" fill="#CAD5C8"/>
<path d="M113.263 76.7568C117.917 74.6664 113.946 66.9944 110.815 70.2485C108.933 72.2024 109.838 78.2941 113.263 76.7568Z" fill="#CAD5C8"/>
<path d="M81.1198 49.3297C81.3999 49.5237 82.1323 49.4159 82.4842 49.4303C83.1017 49.459 84.4373 49.459 83.8485 48.4677C83.7193 48.2522 83.5541 48.2378 83.2812 48.1947C82.7786 48.1157 82.1539 48.1085 81.6656 48.2737C81.3999 48.3671 81.1844 48.4821 81.0767 48.7335C80.9403 49.0496 80.969 49.2291 81.1126 49.3297H81.1198Z" fill="#C4C4C4"/>
<path d="M57.1953 37.4114C59.9025 38.1226 63.0405 38.4458 65.8194 38.1298C67.6793 37.9143 70.4869 38.1082 71.8441 36.4488C73.7901 34.0782 72.2606 30.1632 72.1242 27.4766" stroke="#969696" stroke-width="1.65" stroke-linecap="round" stroke-linejoin="round"/>
<path d="M133.144 32.3764C132.806 32.362 131.349 35.7096 131.234 36.1334C130.695 38.1807 130.946 38.5112 132.577 38.856C134.53 39.2654 137.244 38.741 138.759 37.3259C140.763 35.4581 138.967 32.75 139.563 30.3435C139.808 29.3665 139.779 28.7343 139.563 27.7358C139.492 27.4126 139.111 23.3323 138.788 23.3539C138.084 23.3898 137.388 23.2102 136.698 23.1312C132.584 22.7002 128.34 22.8151 124.197 23.0594C124.046 26.0549 124.153 28.1381 126.609 29.9412C128.412 31.2701 130.925 32.3046 133.137 32.3836L133.144 32.3764Z" fill="#9DC4BD"/>
<path d="M97.5742 37.822C101.969 39.1725 106.514 39.23 111.053 39.1222C115.146 39.0216 119.246 39.0288 123.346 39.036C127.008 39.036 130.405 38.7271 133.974 38.3464C136.544 38.0734 138.928 38.5547 139.101 34.9845C139.266 31.601 139.33 27.3556 138.713 24.0439" stroke="#969696" stroke-width="1.65" stroke-linecap="round" stroke-linejoin="round"/>
<path d="M132.384 21.6934C126.022 21.6862 119.516 22.3543 113.384 22.8284C110.045 23.087 106.756 23.5683 103.438 23.9562C100.925 24.2508 97.9378 23.2666 95.8984 24.9332C99.5535 28.2017 103.718 30.5076 108.077 32.6483C112.048 34.5951 115.725 37.0518 119.638 39.0919C122.08 40.3634 124.586 42.5257 127.444 42.224C134.409 41.4841 141.389 40.7729 148.289 39.5733C149.618 39.3434 164.03 36.4125 164.18 36.628C161.552 32.8495 156.741 31.3553 152.849 29.2577C147.162 26.1903 141.748 21.9736 134.94 21.7437C134.093 21.715 133.238 21.7006 132.384 21.7006V21.6934Z" fill="#FF859C"/>
<path d="M126.195 40.9603C127.222 46.4773 135.839 43.9055 133.972 40.0049L126.195 40.9603Z" fill="#FF6F0D"/>
<path d="M149.621 37.8062C150.167 43.3088 157.972 40.931 156.572 37.0088L149.621 37.8062Z" fill="#F9F2A0"/>
<path d="M156.809 36.9806C157.354 42.4832 165.167 40.1126 163.767 36.1904L156.809 36.9806Z" fill="#FF6F0D"/>
<path d="M133.98 39.2644C134.167 45.0687 144.335 43.9337 141.994 37.7559L133.98 39.2644Z" fill="#F9F2A0"/>
<path d="M142.059 38.3667C142.712 43.8981 150.984 41.6281 149.44 37.6699L142.059 38.3667Z" fill="#FF6F0D"/>
<path d="M26.5703 35.6086C28.9687 33.6977 31.4676 31.8731 34.0096 30.1562" stroke="white" stroke-width="0.69" stroke-linecap="round" stroke-linejoin="round"/>
<path d="M30.043 36.845C31.156 35.8896 32.3336 34.9916 33.5113 34.1152" stroke="white" stroke-width="0.69" stroke-linecap="round" stroke-linejoin="round"/>
<path d="M56.8086 33.8707C58.5033 31.9814 60.7221 30.7028 62.5101 28.9141" stroke="white" stroke-width="0.69" stroke-linecap="round" stroke-linejoin="round"/>
<path d="M59.0391 34.3659C59.793 33.4608 60.7768 32.7496 61.7678 32.1318" stroke="white" stroke-width="0.69" stroke-linecap="round" stroke-linejoin="round"/>
<mask id="mask0_718_33" style="mask-type:luminance" maskUnits="userSpaceOnUse" x="95" y="21" width="70" height="22">
<path d="M132.384 21.6934C126.022 21.6862 119.516 22.3543 113.384 22.8284C110.045 23.087 106.756 23.5683 103.438 23.9562C100.925 24.2508 97.9378 23.2666 95.8984 24.9332C99.5535 28.2017 103.718 30.5076 108.077 32.6483C112.048 34.5951 115.725 37.0518 119.638 39.0919C122.08 40.3634 124.586 42.5257 127.444 42.224C134.409 41.4841 141.389 40.7729 148.289 39.5733C149.618 39.3434 164.03 36.4125 164.18 36.628C161.552 32.8495 156.741 31.3553 152.849 29.2577C147.162 26.1903 141.748 21.9736 134.94 21.7437C134.093 21.715 133.238 21.7006 132.384 21.7006V21.6934Z" fill="white"/>
</mask>
<g mask="url(#mask0_718_33)">
<path d="M134.739 39.6805C127.364 36.9867 120.815 31.168 114.295 26.8435C112.378 25.5721 110.058 23.1296 107.775 22.4975C104.45 21.5708 101.011 23.9558 97.5781 23.417C100.178 25.1913 102.763 27.0447 105.441 28.6969C111.466 32.4108 117.742 35.8517 123.458 40.0038C126.56 42.2594 128.513 42.0224 132.067 40.6359" fill="#FF6F0D"/>
<path d="M131.328 41.1171C123.953 38.4232 117.412 32.6046 110.884 28.2801C108.967 27.0086 106.648 24.5662 104.364 23.934C101.039 23.0073 97.5997 25.3923 94.1602 24.8535C96.7596 26.6278 99.3447 28.474 102.023 30.1334C108.048 33.8473 114.324 37.2882 120.04 41.4475C123.142 43.7031 125.095 43.4661 128.649 42.0796" fill="#FF6F0D"/>
<path d="M130.43 40.3993C123.055 37.7054 116.514 31.8868 109.986 27.5623C108.062 26.2908 105.75 23.8484 103.466 23.2162C100.142 22.2896 96.7019 24.6745 93.2695 24.1357C95.869 25.9173 98.4469 27.7634 101.132 29.4156C107.157 33.1295 113.433 36.5705 119.149 40.7297C122.251 42.9854 124.204 42.7483 127.759 41.3619" fill="#FF6F0D"/>
<path d="M136.433 24.2861C141.402 27.3535 146.501 30.1982 151.355 33.4451C152.927 34.4939 154.708 36.5484 156.561 37.0513C158.967 37.6978 162.521 36.9651 164.934 36.4909C164.022 34.7813 161.731 34.3359 160.288 33.165C158.866 32.0156 157.408 30.9668 155.836 29.8965C152.267 27.4756 148.885 24.8105 145.287 22.4256C143.37 21.1541 141.05 18.7117 138.767 18.0795C135.442 17.1528 132.003 19.5378 128.57 18.999C131.17 20.7734 133.755 22.6267 136.433 24.2789V24.2861Z" fill="#FF6F0D"/>
<path d="M146.004 36.8567C147.634 38.042 149.321 38.7172 151.354 38.4658C152.215 38.358 153.055 37.9414 153.888 37.7115C154.377 37.575 154.879 37.4385 155.382 37.4026C155.662 37.3811 156.488 37.5822 156.703 37.417C157.644 36.7274 153.321 34.9459 152.761 34.5651C150.951 33.3511 149.049 32.2951 147.246 31.0667C143.735 28.6746 140.381 26.0454 136.841 23.6892C134.924 22.4178 132.605 19.9753 130.321 19.3432C126.996 18.4165 123.557 20.8015 120.117 20.2627C122.717 22.037 125.302 23.8832 127.98 25.5426C134.005 29.2565 140.281 32.6974 145.997 36.8495L146.004 36.8567Z" fill="#F9F2A0"/>
<path d="M120.979 25.7223C125.949 28.7897 131.047 31.6343 135.901 34.8813C137.797 36.1528 139.283 38.1498 141.631 38.6024C143.542 38.9759 145.674 39.0621 147.62 39.2848C148.927 39.4357 150.299 39.2345 149.322 37.611C148.374 36.0378 146.191 35.7002 144.834 34.6011C143.412 33.4518 141.955 32.403 140.382 31.3398C136.813 28.919 133.431 26.2539 129.833 23.8689C127.916 22.5974 125.597 20.155 123.313 19.5229C119.989 18.5962 116.549 20.9811 113.109 20.4424C115.709 22.2167 118.294 24.0701 120.972 25.7223H120.979Z" fill="#FF6F0D"/>
<path d="M131.271 38.4739C132.901 39.6591 134.595 40.3344 136.62 40.083C137.482 39.9752 138.322 39.5586 139.155 39.3287C139.644 39.1922 140.146 39.0557 140.656 39.0198C140.936 38.9983 141.762 39.1994 141.977 39.0342C142.925 38.3446 138.595 36.563 138.035 36.1823C136.226 34.9683 134.323 33.9123 132.52 32.6839C129.009 30.2918 125.655 27.6626 122.115 25.3064C120.191 24.0349 117.879 21.5925 115.595 20.9604C112.27 20.0337 108.831 22.4186 105.398 21.8799C107.998 23.6542 110.576 25.5004 113.261 27.1598C119.286 30.8737 125.562 34.3146 131.278 38.4667L131.271 38.4739Z" fill="#F9F2A0"/>
</g>
<path d="M125.055 41.6855C128.803 41.5634 132.86 40.6942 136.53 39.9902C140.493 39.2287 144.443 38.9414 148.45 38.4098C151.408 38.0147 154.431 37.5047 157.397 37.3754C159.659 37.2748 161.705 36.9875 163.867 36.2979" stroke="#936A74" stroke-width="0.69" stroke-linecap="round" stroke-linejoin="round"/>
</svg>
