<svg width="76" height="63" viewBox="0 0 76 63" fill="none" xmlns="http://www.w3.org/2000/svg">
<path d="M42.1125 27.6923C39.2115 40.479 23.9524 59.5226 10.7182 46.858C1.42629 37.9648 -0.390445 30.4077 0.442525 18.3034C0.665129 15.0708 1.82842 -1.81052 8.16905 5.53824C12.6211 1.22812 16.9583 -25.6599 26.8678 -21.1702C32.3682 -18.6775 27.7007 -11.221 35.7576 -9.84173C51.5696 -7.13353 43.8647 16.1555 42.4285 26.0185C42.3495 26.5645 42.2418 27.1248 42.1125 27.6923Z" fill="#00A268"/>
<path d="M21.5824 40.8453C21.5465 40.4286 21.4746 40.1844 21.3454 40.1916C20.972 40.2203 16.0244 41.0177 16.0532 40.6226C15.9455 42.4831 15.6511 44.279 15.5721 46.1324C15.4859 48.2371 15.4572 50.3419 15.529 52.4395C15.608 54.925 15.9024 57.3674 15.9311 59.8386C17.4247 59.8745 18.9255 59.7523 20.4119 59.5584C20.7853 59.5081 21.051 51.6134 21.13 50.6436C21.3885 47.3895 21.8481 44.0922 21.5824 40.8453Z" fill="#906D61"/>
<path d="M17.7925 -0.430664C17.8859 0.876741 17.4981 2.14104 17.5771 3.44845" stroke="#2CC68B" stroke-width="2.3" stroke-linecap="round" stroke-linejoin="round"/>
<path d="M34.8164 -3.2334V-0.000804156" stroke="#2CC68B" stroke-width="2.3" stroke-linecap="round" stroke-linejoin="round"/>
<path d="M29.207 2.58594V6.89606" stroke="#2CC68B" stroke-width="2.3" stroke-linecap="round" stroke-linejoin="round"/>
<path d="M39.9889 10.9971C40.0248 12.247 39.9027 13.4395 39.7734 14.6607" stroke="#2CC68B" stroke-width="2.3" stroke-linecap="round" stroke-linejoin="round"/>
<path d="M22.7461 10.3516V15.3082" stroke="#2CC68B" stroke-width="2.3" stroke-linecap="round" stroke-linejoin="round"/>
<path d="M11.9673 9.91992C11.8812 11.0837 12.0679 12.2258 12.1828 13.368" stroke="#2CC68B" stroke-width="2.3" stroke-linecap="round" stroke-linejoin="round"/>
<path d="M6.36618 15.3076C6.32309 16.9886 5.78453 18.6911 6.58159 20.2643" stroke="#2CC68B" stroke-width="2.3" stroke-linecap="round" stroke-linejoin="round"/>
<path d="M32.0155 15.9619C31.757 17.2406 31.4697 18.5193 31.5846 19.841" stroke="#2CC68B" stroke-width="2.3" stroke-linecap="round" stroke-linejoin="round"/>
<path d="M16.931 19.625C16.7802 20.8965 17.2685 22.053 17.3619 23.2886" stroke="#2CC68B" stroke-width="2.3" stroke-linecap="round" stroke-linejoin="round"/>
<path d="M25.5477 24.5811C25.598 26.0393 25.2892 27.4473 25.3323 28.8912" stroke="#2CC68B" stroke-width="2.3" stroke-linecap="round" stroke-linejoin="round"/>
<path d="M36.7557 24.5811C36.8993 26.3267 36.2099 27.8424 36.1094 29.5377" stroke="#2CC68B" stroke-width="2.3" stroke-linecap="round" stroke-linejoin="round"/>
<path d="M11.3233 26.5215C11.2731 28.2312 11.8691 29.8331 11.7542 31.4781" stroke="#2CC68B" stroke-width="2.3" stroke-linecap="round" stroke-linejoin="round"/>
<path d="M19.2978 33.6396C19.2475 35.0117 19.2906 36.4915 19.7286 37.7343" stroke="#2CC68B" stroke-width="2.3" stroke-linecap="round" stroke-linejoin="round"/>
<path d="M30.5062 35.7959C30.2405 36.8662 29.9102 37.9581 29.6445 39.0285" stroke="#2CC68B" stroke-width="2.3" stroke-linecap="round" stroke-linejoin="round"/>
<path d="M8.08984 37.3047C8.54223 38.6049 9.65524 39.5675 10.4595 40.5373" stroke="#2CC68B" stroke-width="2.3" stroke-linecap="round" stroke-linejoin="round"/>
<path d="M72.8374 35.1558C69.4912 27.613 74.5177 19.1868 68.6869 13.6842C65.1899 10.3869 64.0122 9.40995 63.5024 3.95764C63.0213 -1.25761 65.2258 -18.5628 56.5155 -18.807C48.71 -19.0297 41.8165 -4.6698 39.138 0.847166C37.271 4.69755 32.5173 10.5521 34.1761 15.0203C34.9947 17.2328 37.6732 17.5417 38.1543 20.0344C38.9083 23.9782 33.4293 30.3284 31.9501 33.9992C25.2145 50.6866 36.8474 51.4624 50.3041 51.484C56.1565 51.4911 64.716 52.6046 70.2739 50.8734C78.3235 48.3735 75.3722 40.8882 72.8302 35.1558H72.8374Z" fill="#5BD0A1"/>
<path d="M54.5121 43.8482C54.4762 43.4315 54.4043 43.1873 54.2751 43.1945C53.9017 43.2232 48.9541 44.0206 48.9829 43.6255C48.8751 45.486 48.5807 47.2819 48.5018 49.1353C48.4156 51.2401 48.3869 53.3448 48.4587 55.4424C48.5377 57.9279 48.8321 60.3703 48.8608 62.8415C50.3544 62.8774 51.8552 62.7553 53.3416 62.5613C53.715 62.511 53.9807 54.6163 54.0597 53.6537C54.3182 50.3996 54.7777 47.1023 54.5121 43.8554V43.8482Z" fill="#906D61"/>
<path d="M44.7115 1.78809C44.5104 2.75786 44.1298 3.77074 44.2806 4.80517" stroke="#88E2BB" stroke-width="2.3" stroke-linecap="round" stroke-linejoin="round"/>
<path d="M38.888 9.11523C38.7444 10.7172 38.888 11.8378 38.888 13.4254" stroke="#88E2BB" stroke-width="2.3" stroke-linecap="round" stroke-linejoin="round"/>
<path d="M58.7188 0.710938V4.80556" stroke="#88E2BB" stroke-width="2.3" stroke-linecap="round" stroke-linejoin="round"/>
<path d="M50.7433 5.88281C50.6931 7.12557 50.3269 8.30367 50.3125 9.54642" stroke="#88E2BB" stroke-width="2.3" stroke-linecap="round" stroke-linejoin="round"/>
<path d="M44.7095 12.3555C44.6664 13.6772 44.8531 14.9344 44.9249 16.2346" stroke="#88E2BB" stroke-width="2.3" stroke-linecap="round" stroke-linejoin="round"/>
<path d="M56.5664 11.4863V15.5809" stroke="#88E2BB" stroke-width="2.3" stroke-linecap="round" stroke-linejoin="round"/>
<path d="M51.3877 17.3115C51.3877 18.5327 51.0574 20.3071 51.8186 21.1906" stroke="#88E2BB" stroke-width="2.3" stroke-linecap="round" stroke-linejoin="round"/>
<path d="M64.1055 16.2344C64.3855 17.4556 64.0983 19.1653 64.7518 20.1135" stroke="#88E2BB" stroke-width="2.3" stroke-linecap="round" stroke-linejoin="round"/>
<path d="M59.1501 21.6221C59.107 22.8505 59.0568 24.1866 59.581 25.2857" stroke="#88E2BB" stroke-width="2.3" stroke-linecap="round" stroke-linejoin="round"/>
<path d="M44.2804 25.7168C44.1655 26.78 43.9788 27.8647 44.065 28.9494" stroke="#88E2BB" stroke-width="2.3" stroke-linecap="round" stroke-linejoin="round"/>
<path d="M51.3867 28.0947C51.6524 29.3303 51.8104 30.8029 51.3867 31.9738" stroke="#88E2BB" stroke-width="2.3" stroke-linecap="round" stroke-linejoin="round"/>
<path d="M38.4547 33.2666C38.3327 34.2651 38.4044 35.4001 39.101 36.0682" stroke="#88E2BB" stroke-width="2.3" stroke-linecap="round" stroke-linejoin="round"/>
<path d="M58.7221 33.4814C58.7221 34.444 58.5714 36.1825 58.9376 36.4985" stroke="#88E2BB" stroke-width="2.3" stroke-linecap="round" stroke-linejoin="round"/>
<path d="M64.1055 27.8789C64.5291 28.7337 64.4789 29.8113 64.7518 30.6805" stroke="#88E2BB" stroke-width="2.3" stroke-linecap="round" stroke-linejoin="round"/>
<path d="M45.1406 38.8691C45.4925 39.9179 45.2196 41.2756 45.5715 42.1017" stroke="#88E2BB" stroke-width="2.3" stroke-linecap="round" stroke-linejoin="round"/>
<path d="M38.6719 43.6172C38.7437 44.3427 38.8155 45.0467 38.8873 45.7723" stroke="#88E2BB" stroke-width="2.3" stroke-linecap="round" stroke-linejoin="round"/>
<path d="M59.7953 42.7559C59.4506 44.0417 59.07 45.773 59.5798 46.8505" stroke="#88E2BB" stroke-width="2.3" stroke-linecap="round" stroke-linejoin="round"/>
<path d="M65.6133 38.4385C65.7354 39.5232 66.1231 40.5576 66.0441 41.6711" stroke="#88E2BB" stroke-width="2.3" stroke-linecap="round" stroke-linejoin="round"/>
<path d="M69.9219 46.6353C70.3958 45.4644 70.8267 44.2575 70.7836 42.9717" stroke="#88E2BB" stroke-width="2.3" stroke-linecap="round" stroke-linejoin="round"/>
</svg>
