<svg width="40" height="40" viewBox="0 0 40 40" fill="none" xmlns="http://www.w3.org/2000/svg">
<g clip-path="url(#clip0_526_312)">
<path d="M19.7673 4.80183C15.7634 4.80183 12.5655 7.99866 12.5655 12.0013C12.5655 16.0039 15.7634 19.2008 19.7673 19.2008C23.7713 19.2008 26.9692 15.9313 26.9692 12.0013C26.9692 8.07131 23.7713 4.80183 19.7673 4.80183ZM31.6339 12.9326C31.6339 17.0013 27.4317 23.6658 23.9629 28.4676C21.5645 31.8031 19.4964 34.2008 19.4964 34.2008L15.6973 28.5337L9.55921 19.2668C8.48885 17.4636 7.82812 15.2642 7.82812 12.9987C7.82812 6.33419 13.1601 0.865234 19.7013 0.865234C26.2424 0.865234 31.6405 6.26814 31.6405 12.9326H31.6339Z" fill="#EF727A"/>
<path d="M19.7669 19.9998C15.3666 19.9998 11.7656 16.4001 11.7656 12.0011C11.7656 7.60218 15.3666 4.00244 19.7669 4.00244C24.1673 4.00244 27.7683 7.60218 27.7683 12.0011C27.8343 16.4001 24.1673 19.9998 19.7669 19.9998ZM19.7669 5.60086C16.2321 5.60086 13.4306 8.46744 13.4306 11.9351C13.4306 15.4027 16.2982 18.2693 19.7669 18.2693C23.2357 18.2693 26.1033 15.4027 26.1033 11.9351C26.1693 8.46744 23.3018 5.60086 19.7669 5.60086Z" fill="black"/>
<path d="M19.4978 35C19.4538 35 19.4538 35 19.4978 35C19.1675 35 18.9627 34.8679 18.8305 34.5971L8.8272 19.6631V19.5971C7.62469 17.5958 7.02344 15.2642 7.02344 12.9326C7.03004 5.79921 12.7651 0 19.7687 0C23.1714 0 26.3693 1.33421 28.7743 3.79789C31.1728 6.26156 32.5074 9.46499 32.5074 12.9326C32.5074 14.8679 31.6419 17.5297 29.8381 20.7992C28.5695 23.1968 26.7724 25.9313 24.6382 28.93C22.2398 32.1995 20.1718 34.6631 20.1718 34.6631C19.9736 34.8613 19.7027 34.9934 19.5044 34.9934L19.4978 35ZM10.2279 18.7979L19.4978 32.8005C20.2973 31.8032 21.698 30.066 23.2309 27.9987C28.1004 21.3342 30.7697 15.9974 30.7697 12.9987C30.7697 6.79657 25.7681 1.73052 19.7027 1.73052C13.6372 1.73052 8.62899 6.79657 8.62899 12.9987C8.69506 15 9.23024 17.0013 10.2279 18.7979Z" fill="black"/>
<path d="M39.1736 40.0002H0.825392C0.561104 40.0002 0.35628 39.8681 0.158064 39.67C0.0259204 39.4718 -0.0401516 39.201 0.0259204 38.9368L4.2281 21.4005C4.29417 20.9976 4.63114 20.7334 5.02757 20.7334H7.55813C8.02724 20.7334 8.42367 21.1363 8.42367 21.5987C8.42367 22.061 8.02063 22.4639 7.55813 22.4639H5.62222L1.82308 38.3292H38.0372L34.3041 22.53H32.4342C31.9651 22.53 31.5687 22.1271 31.5687 21.6647C31.5687 21.2024 31.9717 20.7994 32.4342 20.7994H34.9714C35.3745 20.7994 35.7048 21.0636 35.7709 21.4666L39.9731 39.0029C40.0391 39.2671 39.9731 39.5379 39.8409 39.736C39.6427 39.8681 39.3718 40.0002 39.1736 40.0002Z" fill="black"/>
</g>
<defs>
<clipPath id="clip0_526_312">
<rect width="40" height="40" fill="white"/>
</clipPath>
</defs>
</svg>
