<svg width="34" height="40" viewBox="0 0 34 40" fill="none" xmlns="http://www.w3.org/2000/svg">
<g clip-path="url(#clip0_531_6518)">
<path d="M33.1895 8.97949H0.808594V34.2856H33.1895V8.97949Z" fill="#D5E1EF"/>
<path d="M31.5705 10.6123H0.808594V34.2858H31.5705V10.6123Z" fill="white"/>
<path d="M32.3112 3.26562H1.68693C1.20121 3.26562 0.808594 3.66154 0.808594 4.15134V8.97991H33.1895V4.15134C33.1895 3.66154 32.7969 3.26562 32.3112 3.26562Z" fill="#E23B3B"/>
<path d="M30.8298 3.26562H1.68693C1.20121 3.26562 0.808594 3.66154 0.808594 4.15134V8.97991H31.5705V4.01256C31.5705 3.60032 31.2386 3.26562 30.8298 3.26562Z" fill="#FF5F5F"/>
<path d="M8.48986 5.3062H7.69653C7.24319 5.3062 6.87891 4.93885 6.87891 4.48171V1.6409C6.87891 1.18375 7.24319 0.816406 7.69653 0.816406H8.48986C8.94319 0.816406 9.30748 1.18375 9.30748 1.6409V4.48171C9.30748 4.93885 8.94319 5.3062 8.48986 5.3062Z" fill="#D5E1EF"/>
<path d="M17.3961 5.3062H16.6028C16.1494 5.3062 15.7852 4.93885 15.7852 4.48171V1.6409C15.7852 1.18375 16.1494 0.816406 16.6028 0.816406H17.3961C17.8494 0.816406 18.2137 1.18375 18.2137 1.6409V4.48171C18.2137 4.93885 17.8494 5.3062 17.3961 5.3062Z" fill="#D5E1EF"/>
<path d="M26.3024 5.3062H25.509C25.0557 5.3062 24.6914 4.93885 24.6914 4.48171V1.6409C24.6914 1.18375 25.0557 0.816406 25.509 0.816406H26.3024C26.7557 0.816406 27.12 1.18375 27.12 1.6409V4.48171C27.12 4.93885 26.7557 5.3062 26.3024 5.3062Z" fill="#D5E1EF"/>
<path d="M33.1895 34.2856H0.808594V36.7346H33.1895V34.2856Z" fill="#EDF2F8"/>
<path d="M33.1895 36.7349H0.808594V39.1838H33.1895V36.7349Z" fill="#D5E1EF"/>
<path d="M33.3929 40.0002H0.607143C0.27119 40.0002 0 39.7268 0 39.388V4.13085C0 3.20432 0.74881 2.44922 1.66762 2.44922H6.27381C6.60976 2.44922 6.88095 2.72269 6.88095 3.06146C6.88095 3.40024 6.60976 3.67371 6.27381 3.67371H1.66762C1.41667 3.67371 1.21429 3.87779 1.21429 4.13085V38.7757H32.7857V4.13085C32.7857 3.87779 32.5833 3.67371 32.3324 3.67371H27.7262C27.3902 3.67371 27.119 3.40024 27.119 3.06146C27.119 2.72269 27.3902 2.44922 27.7262 2.44922H32.3324C33.2512 2.44922 34 3.20432 34 4.13085V39.388C34 39.7268 33.7288 40.0002 33.3929 40.0002Z" fill="#252D32"/>
<path d="M24.0839 3.67371H18.822C18.486 3.67371 18.2148 3.40024 18.2148 3.06146C18.2148 2.72269 18.486 2.44922 18.822 2.44922H24.0839C24.4198 2.44922 24.691 2.72269 24.691 3.06146C24.691 3.40024 24.4198 3.67371 24.0839 3.67371Z" fill="#252D32"/>
<path d="M15.1776 3.67371H9.91574C9.57978 3.67371 9.30859 3.40024 9.30859 3.06146C9.30859 2.72269 9.57978 2.44922 9.91574 2.44922H15.1776C15.5136 2.44922 15.7848 2.72269 15.7848 3.06146C15.7848 3.40024 15.5136 3.67371 15.1776 3.67371Z" fill="#252D32"/>
<path d="M33.192 9.38762H0.811012C0.588393 9.38762 0.40625 9.20394 0.40625 8.97945C0.40625 8.75496 0.588393 8.57129 0.811012 8.57129H33.192C33.4146 8.57129 33.5967 8.75496 33.5967 8.97945C33.5967 9.20394 33.4146 9.38762 33.192 9.38762Z" fill="#252D32"/>
<path d="M33.192 37.143H0.811012C0.588393 37.143 0.40625 36.9593 0.40625 36.7348C0.40625 36.5103 0.588393 36.3267 0.811012 36.3267H33.192C33.4146 36.3267 33.5967 36.5103 33.5967 36.7348C33.5967 36.9593 33.4146 37.143 33.192 37.143Z" fill="#252D32"/>
<path d="M33.192 34.6938H0.811012C0.588393 34.6938 0.40625 34.5101 0.40625 34.2856C0.40625 34.0611 0.588393 33.8774 0.811012 33.8774H33.192C33.4146 33.8774 33.5967 34.0611 33.5967 34.2856C33.5967 34.5101 33.4146 34.6938 33.192 34.6938Z" fill="#252D32"/>
<path d="M8.4746 6.12245H7.71365C6.80698 6.12245 6.07031 5.37959 6.07031 4.46531V1.65714C6.07031 0.742857 6.80698 0 7.71365 0H8.4746C9.38126 0 10.1179 0.742857 10.1179 1.65714V4.46531C10.1179 5.37959 9.38126 6.12245 8.4746 6.12245ZM7.71365 1.22449C7.47484 1.22449 7.2846 1.41633 7.2846 1.65714V4.46531C7.2846 4.70204 7.47484 4.89796 7.71365 4.89796H8.4746C8.70936 4.89796 8.90365 4.70612 8.90365 4.46531V1.65714C8.90365 1.41633 8.71341 1.22449 8.4746 1.22449H7.71365Z" fill="#252D32"/>
<path d="M26.2871 6.12245H25.5261C24.6195 6.12245 23.8828 5.37959 23.8828 4.46531V1.65714C23.8828 0.742857 24.6195 0 25.5261 0H26.2871C27.1938 0 27.9304 0.742857 27.9304 1.65714V4.46531C27.9304 5.37959 27.1938 6.12245 26.2871 6.12245ZM25.5261 1.22449C25.2873 1.22449 25.0971 1.41633 25.0971 1.65714V4.46531C25.0971 4.70204 25.2873 4.89796 25.5261 4.89796H26.2871C26.5219 4.89796 26.7161 4.70612 26.7161 4.46531V1.65714C26.7161 1.41633 26.5259 1.22449 26.2871 1.22449H25.5261Z" fill="#252D32"/>
<path d="M17.3808 6.12245H16.6199C15.7132 6.12245 14.9766 5.37959 14.9766 4.46531V1.65714C14.9766 0.742857 15.7132 0 16.6199 0H17.3808C18.2875 0 19.0242 0.742857 19.0242 1.65714V4.46531C19.0242 5.37959 18.2875 6.12245 17.3808 6.12245ZM16.6199 1.22449C16.3811 1.22449 16.1908 1.41633 16.1908 1.65714V4.46531C16.1908 4.70204 16.3811 4.89796 16.6199 4.89796H17.3808C17.6156 4.89796 17.8099 4.70612 17.8099 4.46531V1.65714C17.8099 1.41633 17.6197 1.22449 17.3808 1.22449H16.6199Z" fill="#252D32"/>
</g>
<defs>
<clipPath id="clip0_531_6518">
<rect width="34" height="40" fill="white"/>
</clipPath>
</defs>
</svg>
