<svg width="54" height="72" viewBox="0 0 54 72" fill="none" xmlns="http://www.w3.org/2000/svg">
<path d="M23.9981 0.161808C11.6873 1.46693 1.73229 11.1579 0.21244 23.279C-0.669074 30.2997 1.24594 36.8404 4.96958 42.0159L23.1622 70.0536C25.0468 72.6488 28.9528 72.6488 30.8375 70.0536L49.0301 42.0159C52.1458 37.6654 54 32.3699 54 26.6394C53.9848 10.9479 40.2453 -1.57836 23.9981 0.161808ZM26.9922 37.4254C20.3049 37.4254 14.879 32.0699 14.879 25.4693C14.879 18.8686 20.3049 13.5131 26.9922 13.5131C33.6796 13.5131 39.1055 18.8686 39.1055 25.4693C39.1055 32.0849 33.6796 37.4254 26.9922 37.4254Z" fill="#EE4564"/>
</svg>
