<svg width="52" height="52" viewBox="0 0 52 52" fill="none" xmlns="http://www.w3.org/2000/svg">
<circle cx="26" cy="26" r="26" fill="#434343"/>
<path d="M32.9657 15.3321C32.9657 17.7279 31.031 19.6641 28.6371 19.6641C26.2432 19.6641 24.3086 17.7279 24.3086 15.3321C24.3086 12.9362 26.2432 11 28.6371 11C31.031 11 32.9657 12.9362 32.9657 15.3321Z" fill="white"/>
<path d="M22.7254 28.9345C22.7254 28.9345 23.5755 27.5068 22.7254 26.832C22.7254 26.832 21.9144 26.3822 20.3608 26.9494C20.3608 26.9494 19.4716 27.3895 19.0515 26.4898C19.0515 26.4898 18.6118 25.7172 20.3022 24.798C20.3022 24.798 23.5168 22.9693 26.497 23.7419C26.497 23.7419 30.1318 24.3188 30.3272 28.2891C30.3272 28.2891 30.4152 30.0493 29.3599 31.9464C28.3046 33.8533 27.5132 35.6429 27.5034 35.7114C27.4936 35.77 26.7608 37.0804 27.4448 37.7649C27.4448 37.7649 27.904 38.2832 29.2524 37.8823C30.6008 37.4813 30.9623 37.7063 31.1089 37.9703C31.2555 38.2343 31.4313 38.8602 30.7767 39.31C30.122 39.7598 28.9691 40.9333 25.4124 41.1387C21.8558 41.344 20.4194 38.6743 20.2826 38.2441C20.1459 37.8236 19.3935 35.5255 20.478 33.5013C20.478 33.5013 21.9046 30.5578 22.2271 29.9906L22.7449 28.9345H22.7254Z" fill="white"/>
</svg>
