<svg width="18" height="18" viewBox="0 0 18 18" fill="none" xmlns="http://www.w3.org/2000/svg">
<g id="message-edit">
<g id="Group">
<path id="Union" fill-rule="evenodd" clip-rule="evenodd" d="M16.0845 1.93468C14.9515 0.793543 13.8068 0.276809 12.6466 0.387435C11.5279 0.494099 10.6031 1.16911 9.85424 1.91799L8.71081 3.06142C8.70183 3.07 8.69305 3.07877 8.68449 3.08774L1.73845 10.0338C1.50039 10.2718 1.30164 10.5842 1.1563 10.8796C1.01051 11.1759 0.886432 11.5202 0.839782 11.8468L0.839623 11.8479L0.401779 14.9441L0.401504 14.9461C0.29418 15.7188 0.503303 16.4586 1.02305 16.9783C1.5428 17.4981 2.28259 17.7072 3.05533 17.5999L3.05729 17.5996L6.15345 17.1618L6.15457 17.1616C6.48113 17.115 6.82548 16.9909 7.12179 16.8451C7.41716 16.6997 7.72954 16.501 7.96761 16.2629L16.0834 8.14714C16.8244 7.40618 17.498 6.4867 17.6097 5.37232C17.7256 4.21549 17.2192 3.06981 16.0845 1.93468ZM8.94741 5.08756L2.86982 11.1651C2.79514 11.2398 2.68896 11.3888 2.59192 11.586C2.49548 11.782 2.43975 11.9613 2.42376 12.0726L2.4237 12.0731L1.98629 15.1662L1.98617 15.167C1.93741 15.5197 2.04096 15.7335 2.15442 15.847C2.26791 15.9605 2.48178 16.064 2.83451 16.0152L2.83522 16.0151L5.9283 15.5777L5.92881 15.5776C6.04014 15.5616 6.21941 15.5059 6.4154 15.4095C6.61262 15.3124 6.76156 15.2062 6.83624 15.1316L12.9186 9.0492C11.1647 8.24171 9.75744 6.83141 8.94741 5.08756ZM14.1459 7.82194L14.952 7.01577C15.6028 6.365 15.9612 5.77548 16.0176 5.21275C16.0698 4.69283 15.8807 3.99366 14.952 3.065L14.9499 3.06286C14.0191 2.12499 13.3189 1.93059 12.7985 1.98021C12.2361 2.03383 11.6441 2.39088 10.9856 3.04936L10.1725 3.86247C10.8322 5.70639 12.2914 7.16906 14.1459 7.82194Z" fill="#292D32"/>
</g>
</g>
</svg>
