<svg width="45" height="45" viewBox="0 0 45 45" fill="none" xmlns="http://www.w3.org/2000/svg">
<circle cx="22.4413" cy="22.4413" r="22.4413" fill="#434343"/>
<path d="M28.4526 13.2342C28.4526 15.3022 26.7828 16.9734 24.7165 16.9734C22.6503 16.9734 20.9805 15.3022 20.9805 13.2342C20.9805 11.1663 22.6503 9.49512 24.7165 9.49512C26.7828 9.49512 28.4526 11.1663 28.4526 13.2342Z" fill="white"/>
<path d="M19.6139 24.9744C19.6139 24.9744 20.3476 23.742 19.6139 23.1596C19.6139 23.1596 18.9139 22.7714 17.573 23.2609C17.573 23.2609 16.8055 23.6408 16.4429 22.8642C16.4429 22.8642 16.0634 22.1974 17.5224 21.404C17.5224 21.404 20.297 19.8256 22.8693 20.4924C22.8693 20.4924 26.0066 20.9904 26.1753 24.4173C26.1753 24.4173 26.2512 25.9365 25.3403 27.574C24.4295 29.2199 23.7464 30.7645 23.7379 30.8236C23.7295 30.8742 23.097 32.0052 23.6873 32.5961C23.6873 32.5961 24.0837 33.0434 25.2476 32.6974C26.4114 32.3513 26.7234 32.5454 26.8499 32.7733C26.9764 33.0012 27.1283 33.5414 26.5632 33.9297C25.9982 34.3179 25.003 35.3308 21.9332 35.508C18.8633 35.6853 17.6236 33.381 17.5055 33.0096C17.3875 32.6467 16.738 30.6632 17.6742 28.916C17.6742 28.916 18.9055 26.3754 19.1838 25.8859L19.6308 24.9744H19.6139Z" fill="white"/>
</svg>
