<svg width="43" height="43" viewBox="0 0 43 43" fill="none" xmlns="http://www.w3.org/2000/svg">
<g clip-path="url(#clip0_528_6115)">
<path d="M21.5 43C33.3741 43 43 33.3741 43 21.5C43 9.62588 33.3741 0 21.5 0C9.62588 0 0 9.62588 0 21.5C0 33.3741 9.62588 43 21.5 43Z" fill="#33A3FF"/>
<path d="M23.5642 22.9815C21.247 22.2171 21.0798 21.4622 19.4315 19.9285C17.9265 18.5286 14.5964 19.0876 12.9576 18.5908C11.314 18.0939 6.77036 19.2166 6.77036 19.2166C6.77036 19.2166 6.14447 21.9113 6.77036 24.3241C7.39625 26.7369 11.5959 29.8615 12.6661 30.3106C13.7364 30.7598 13.464 33.335 14.324 35.4802C15.184 37.6254 16.9709 39.3215 16.9709 39.3215C18.2991 40.0716 20.7358 42.0066 21.0511 41.5719C22.0592 40.1863 23.9513 39.8519 22.0497 38.1749C21.2327 37.4534 23.2298 35.2891 24.8208 34.3335C26.6077 33.2633 27.8308 31.9494 27.8595 31.0273C27.9502 28.2896 30.0047 27.0952 29.9139 25.6666C29.8184 24.2333 25.3798 23.5835 23.5642 22.9815Z" fill="#A6DBFF"/>
<path d="M5.4166 16.5266C4.80982 15.4659 4.05015 14.2524 5.7176 13.9466C8.52215 13.4163 10.7247 12.8095 11.8618 11.0656C12.9989 9.3217 15.1967 9.24526 17.3993 7.57781C19.6018 5.91037 19.597 5.52815 18.4599 4.69681C17.3228 3.8607 15.1967 3.71259 15.1967 3.71259C15.1967 3.71259 15.1967 3.71259 15.1967 4.24293C15.1967 4.77326 13.5293 5.38004 13.2713 5.30359C13.0133 5.22715 13.0706 3.10581 11.1738 3.5597C10.7725 3.65526 10.1753 3.67915 9.49682 3.65526C5.23982 6.52193 2.09126 10.8793 0.734375 15.9676C3.25704 18.2944 4.65215 18.3469 4.65215 18.3469C6.07593 18.8629 6.02337 17.5873 5.4166 16.5266Z" fill="#A6DBFF"/>
<path d="M41.4219 13.4448C39.8166 11.5146 38.0058 10.1099 36.5342 9.95703C36.5342 9.95703 35.0722 12.6565 34.5992 13.182C34.1262 13.7076 33.5816 13.0769 32.6642 15.3989C31.7469 17.7209 30.906 18.7625 33.0512 21.5049C35.1965 24.2426 35.8462 23.3778 36.5342 23.3587C37.2222 23.3396 38.8419 22.1595 39.6924 22.1738C40.3087 22.1834 41.8041 24.0563 42.5686 25.7954C42.8505 24.4098 42.9986 22.9717 42.9986 21.5001C42.9986 18.6478 42.43 15.934 41.4219 13.4448Z" fill="#A6DBFF"/>
<path d="M24.2371 3.23456C24.6766 3.00044 26.0048 2.03056 27.0512 0.750111C25.2738 0.277111 23.4201 0 21.4994 0C20.7732 0 20.0517 0.0382222 19.3398 0.109889C20.1091 0.898222 20.7541 1.634 20.9738 2.09744C21.6571 3.54033 23.2528 3.76489 24.2371 3.23456Z" fill="#A6DBFF"/>
</g>
<defs>
<clipPath id="clip0_528_6115">
<rect width="43" height="43" fill="white"/>
</clipPath>
</defs>
</svg>
