<svg width="43" height="42" viewBox="0 0 43 42" fill="none" xmlns="http://www.w3.org/2000/svg">
<g clip-path="url(#clip0_528_6124)">
<path d="M26.641 41.9997C26.4694 41.9997 26.293 41.9668 26.1262 41.9009C20.5117 39.6002 15.0926 35.9681 10.46 31.395C6.06082 27.0478 2.49575 21.9666 0.155586 16.7018L0.141288 16.6736C-0.116083 16.1655 -0.0159941 15.5492 0.393893 15.1493C0.412957 15.1304 0.436788 15.1069 0.455852 15.0881C0.455852 15.0881 0.50828 15.041 0.513046 15.041C3.95419 12.0582 6.46117 9.86573 6.81863 9.52228C7.03787 9.27293 7.35244 9.11296 7.6956 9.07532C8.19604 9.02357 8.68695 9.26352 8.95862 9.68695L13.8058 17.2664C14.0155 17.5911 14.0679 17.991 13.9535 18.3579C13.8391 18.7249 13.5722 19.026 13.2148 19.1813L10.8937 20.1928C12.3664 22.2818 14.0345 24.2484 15.8695 26.0645C17.8951 28.064 20.0923 29.8518 22.4134 31.3856L23.5001 28.9579C23.6574 28.6051 23.9624 28.3369 24.3342 28.2287C24.7059 28.1158 25.111 28.1722 25.4399 28.3745L33.1229 33.1593C33.5518 33.4275 33.7901 33.9121 33.7425 34.4061C33.7091 34.7449 33.5423 35.0554 33.2897 35.2718C32.8465 35.7235 29.6198 39.3368 27.6514 41.5527C27.3892 41.8444 27.0175 41.9997 26.641 41.9997Z" fill="#7557F2"/>
<path d="M40.6147 22.7714C39.2992 22.7714 38.2316 21.7175 38.2316 20.419C38.2316 11.7527 31.092 4.70483 22.3128 4.70483C20.9973 4.70483 19.9297 3.65095 19.9297 2.35241C19.9297 1.05388 20.9973 0 22.3128 0C33.7181 0 42.9977 9.1603 42.9977 20.419C42.9977 21.7175 41.9301 22.7714 40.6147 22.7714Z" fill="#7557F2"/>
<path d="M32.7982 22.7713C31.4828 22.7713 30.4152 21.7174 30.4152 20.4189C30.4152 16.0104 26.7786 12.4206 22.3128 12.4206C20.9973 12.4206 19.9297 11.3668 19.9297 10.0682C19.9297 8.7697 20.9973 7.71582 22.3128 7.71582C29.4095 7.71582 35.1813 13.4134 35.1813 20.4189C35.1813 21.7174 34.1137 22.7713 32.7982 22.7713Z" fill="#7557F2"/>
</g>
<defs>
<clipPath id="clip0_528_6124">
<rect width="43" height="42" fill="white"/>
</clipPath>
</defs>
</svg>
