<svg width="43" height="42" viewBox="0 0 43 42" fill="none" xmlns="http://www.w3.org/2000/svg">
<g clip-path="url(#clip0_528_6130)">
<path d="M24.8359 2.10977L28.5971 9.87C29.1393 10.9884 30.1851 11.76 31.3989 11.9407L39.8089 13.186C42.8601 13.6354 44.0787 17.4544 41.8718 19.6423L35.7838 25.6835C34.9058 26.5528 34.5077 27.8079 34.714 29.0337L36.1532 37.5656C36.6761 40.657 33.4858 43.0158 30.756 41.5556L23.2335 37.5265C22.1493 36.9454 20.854 36.9454 19.7697 37.5265L12.2473 41.5556C9.51748 43.0158 6.33194 40.657 6.85007 37.5656L8.28932 29.0337C8.49561 27.8079 8.09742 26.5528 7.21947 25.6835L1.12665 19.6423C-1.0802 17.4495 0.138362 13.6354 3.18957 13.186L11.6044 11.9407C12.8134 11.76 13.864 10.9884 14.4061 9.87L18.1674 2.10977C19.5299 -0.703256 23.4686 -0.703256 24.8359 2.10977Z" fill="#FFAC27"/>
</g>
<defs>
<clipPath id="clip0_528_6130">
<rect width="43" height="42" fill="white"/>
</clipPath>
</defs>
</svg>
