<svg width="43" height="46" viewBox="0 0 43 46" fill="none" xmlns="http://www.w3.org/2000/svg">
<path d="M35.535 46H7.465C3.345 46 0 42.6727 0 36.5709V11.0878C0 8.9709 3.345 5.64355 7.465 5.64355H35.535C39.66 5.64355 43 8.97588 43 11.0878V36.5709C43 42.6727 39.655 46 35.535 46Z" fill="#FFD5D2"/>
<path d="M43 17.7326H0V13.0803C0 8.9709 3.345 5.64355 7.465 5.64355H35.535C39.66 5.64355 43 8.97588 43 13.0803V17.7326Z" fill="#FF6C61"/>
<path d="M9.19141 11.5062C7.81141 11.5062 6.69141 10.3905 6.69141 9.0157V2.49053C6.69141 1.11576 7.81141 0 9.19141 0C10.5714 0 11.6914 1.11576 11.6914 2.49053V9.0157C11.6914 10.3905 10.5714 11.5062 9.19141 11.5062Z" fill="#FF6C61"/>
<path d="M33.8125 11.5062C32.4325 11.5062 31.3125 10.3905 31.3125 9.0157V2.49053C31.3125 1.11576 32.4325 0 33.8125 0C35.1925 0 36.3125 1.11576 36.3125 2.49053V9.0157C36.3125 10.3905 35.1925 11.5062 33.8125 11.5062Z" fill="#FF6C61"/>
</svg>
