<svg width="45" height="43" viewBox="0 0 45 43" fill="none" xmlns="http://www.w3.org/2000/svg">
<g clip-path="url(#clip0_528_6102)">
<path d="M39.24 25.3975H30.3624H14.9976H5.76L0 42.9998H45L39.24 25.3975Z" fill="#A6F4C2"/>
<path d="M21.0835 0.0784709C15.2515 0.703534 10.5355 5.3448 9.81548 11.15C9.39788 14.5124 10.3051 17.6449 12.0691 20.1236L20.6875 33.5517C21.5803 34.7946 23.4307 34.7946 24.3235 33.5517L32.9419 20.1236C34.4179 18.04 35.2963 15.5039 35.2963 12.7593C35.2891 5.24422 28.7803 -0.754946 21.0835 0.0784709ZM22.5019 17.9251C19.3339 17.9251 16.7635 15.3602 16.7635 12.1989C16.7635 9.0377 19.3339 6.47279 22.5019 6.47279C25.6699 6.47279 28.2403 9.0377 28.2403 12.1989C28.2403 15.3674 25.6699 17.9251 22.5019 17.9251Z" fill="#00C18A"/>
</g>
<defs>
<clipPath id="clip0_528_6102">
<rect width="45" height="43" fill="white"/>
</clipPath>
</defs>
</svg>
