<svg width="36" height="43" viewBox="0 0 36 43" fill="none" xmlns="http://www.w3.org/2000/svg">
<path d="M0 37.7422V5.25784C0 2.3546 2.34091 0 5.22727 0H30.7727C33.6591 0 36 2.3546 36 5.25784V37.7467C36 40.65 33.6591 43.0046 30.7727 43.0046H5.22727C2.34091 43 0 40.6454 0 37.7422Z" fill="#FF6C61"/>
<path d="M25.271 25.5444H10.7255C10.2255 25.5444 9.81641 25.0324 9.81641 24.406V21.5028C9.81641 21.1598 9.93913 20.8352 10.1528 20.6203C10.2755 20.4923 13.2437 17.5205 17.9982 17.5205C22.7528 17.5205 25.721 20.4969 25.8437 20.6203C26.0573 20.8352 26.18 21.1598 26.18 21.5028V24.406C26.18 25.0369 25.7755 25.5444 25.271 25.5444Z" fill="#FFD5D2"/>
<path d="M22.8226 13.6721C23.4484 10.9928 21.7962 8.31042 19.1324 7.68096C16.4686 7.0515 13.8019 8.7133 13.1761 11.3927C12.5503 14.0721 14.2024 16.7544 16.8662 17.3839C19.53 18.0133 22.1968 16.3515 22.8226 13.6721Z" fill="#FFD5D2"/>
<path d="M25.3212 34.8298H10.6712C9.41662 34.8298 8.39844 33.8057 8.39844 32.5438C8.39844 31.2819 9.41662 30.2578 10.6712 30.2578H25.3212C26.5757 30.2578 27.5939 31.2819 27.5939 32.5438C27.5939 33.8057 26.5803 34.8298 25.3212 34.8298Z" fill="#FFD5D2"/>
</svg>
