<svg width="106" height="106" viewBox="0 0 106 106" fill="none" xmlns="http://www.w3.org/2000/svg">
<g clip-path="url(#clip0_528_6038)">
<path d="M76.3122 49.2914C92.9594 51.1082 106 40.7967 106 40.7967C106 40.7967 96.3068 34.468 84.9098 34.0088C84.043 33.9789 83.1663 34.0088 82.2896 34.0887C93.9855 28.918 101.417 8.82397 101.417 8.82397C101.417 8.82397 82.6981 14.0446 74.7083 20.1537C73.5725 21.0221 72.3472 22.8388 71.2513 23.9269C71.331 22.8987 71.341 21.8706 71.2513 20.8524C70.3547 9.46282 63.6599 0.00976562 63.6599 0.00976562C63.6599 0.00976562 53.7972 13.5954 56.3874 30.2955C47.74 30.006 37.2695 35.2766 37.2695 35.2766L46.4349 40.597C52.5519 43.8512 57.8319 44.52 61.5878 44.3603C61.6475 44.3902 61.6974 44.4301 61.7571 44.4601C61.787 44.51 61.8169 44.5599 61.8568 44.6098C62.046 48.3132 63.1419 53.2743 66.6188 58.8443L72.5564 67.6086C72.5564 67.6086 76.7505 57.6964 76.3222 49.3014L76.3122 49.2914Z" fill="#D3D3D3"/>
<path d="M95.2802 14.7632C95.2802 14.7632 47.3311 54.2823 46.7234 57.5565C46.1157 60.8306 48.6661 61.4794 51.336 57.8759C54.0059 54.2724 95.2802 14.7732 95.2802 14.7732V14.7632Z" fill="#9A9A9A"/>
<path d="M68.2333 38.7705C70.3951 39.3195 72.6367 39.7787 74.8682 40.148C77.1098 40.5273 79.3613 40.8168 81.6228 41.0364C83.8842 41.266 86.1556 41.3858 88.437 41.4257C90.7184 41.4856 92.9998 41.3758 95.2712 41.2261C93.0098 41.5156 90.7284 41.7651 88.437 41.845C86.1457 41.9448 83.8543 41.9548 81.563 41.8649C79.2716 41.7851 76.9803 41.6254 74.6889 41.3758C72.3976 41.1263 70.1361 40.8168 67.8348 40.3776C67.3865 40.2878 67.0976 39.8585 67.1773 39.4094C67.2669 38.9602 67.6953 38.6707 68.1436 38.7505C68.1635 38.7505 68.1735 38.7505 68.1934 38.7605H68.2134L68.2333 38.7705Z" fill="#9A9A9A"/>
<path d="M68.3007 38.7203C67.5137 37.5125 66.9658 36.3346 66.4278 35.0868C65.8998 33.859 65.4714 32.5913 65.0829 31.3236C64.3257 28.7781 63.8276 26.1728 63.4988 23.5475C63.3693 22.2299 63.2199 20.9222 63.19 19.6046C63.1004 18.2869 63.1302 16.9793 63.1502 15.6616C63.1502 14.344 63.2896 13.0363 63.3594 11.7287C63.4889 10.421 63.6582 9.12336 63.8077 7.82568C63.728 9.13334 63.6284 10.441 63.5686 11.7387C63.5686 13.0463 63.4988 14.354 63.5686 15.6517C63.6284 16.9593 63.6582 18.257 63.8176 19.5547C63.9173 20.8523 64.1265 22.14 64.3257 23.4177C64.784 25.9732 65.4017 28.4986 66.2684 30.9243C66.7067 32.1321 67.1849 33.33 67.7528 34.4779C68.3007 35.6159 68.9483 36.7738 69.6357 37.7221L69.6656 37.762C69.9346 38.1314 69.8549 38.6504 69.4863 38.9199C69.1176 39.1895 68.5996 39.1096 68.3306 38.7403C68.3306 38.7303 68.3107 38.7203 68.3107 38.7003L68.3007 38.7203Z" fill="#9A9A9A"/>
<path d="M67.604 40.138C68.4209 41.4956 68.9788 42.8232 69.4869 44.2307C69.9751 45.6282 70.3736 47.0457 70.6525 48.4731C70.9215 49.9105 71.1407 51.3579 71.2204 52.8053C71.3299 54.2527 71.3001 55.7101 71.2303 57.1475C71.1606 55.7001 71.051 54.2627 70.8019 52.8453C70.5927 51.4278 70.244 50.0303 69.8455 48.6628C69.4371 47.2952 68.919 45.9676 68.3313 44.6899C67.7435 43.4221 67.0362 42.1444 66.2591 41.0963L66.2292 41.0564C65.9602 40.6871 66.0299 40.168 66.3986 39.8985C66.7672 39.6289 67.2852 39.6988 67.5542 40.0682C67.5741 40.0881 67.5841 40.1081 67.594 40.138H67.604Z" fill="#9A9A9A"/>
<path d="M65.055 41.5653C63.9492 40.6669 62.674 39.8284 61.3888 39.0997C60.0937 38.371 58.7488 37.7122 57.3441 37.2131C55.9394 36.724 54.4849 36.3646 52.9905 36.2249C51.4961 36.125 49.9819 36.2748 48.5273 36.714C49.932 36.135 51.4563 35.8256 53.0005 35.7856C54.5446 35.7856 56.0888 36.0053 57.5931 36.3746C59.0975 36.7539 60.552 37.3029 61.9766 37.9318C63.4012 38.5806 64.7561 39.2894 66.101 40.1778C66.4995 40.4473 66.6191 40.9863 66.3501 41.3856C66.0811 41.7849 65.5431 41.9047 65.1446 41.6352C65.1247 41.6152 65.0948 41.6052 65.0749 41.5853L65.055 41.5653Z" fill="#9A9A9A"/>
<path d="M69.3396 96.1179C76.2336 104.722 87.0926 106 87.0926 106C87.0926 106 85.5285 98.5335 80.4377 93.0134C80.0492 92.5942 79.6208 92.2049 79.1825 91.8256C87.0229 94.8701 99.8046 88.9906 99.8046 88.9906C99.8046 88.9906 88.6766 82.7019 82.1214 81.8135C81.1949 81.6837 79.7802 81.9632 78.764 81.9533C79.2821 81.514 79.7603 81.0349 80.1887 80.5258C85.0603 74.8061 86.3355 67.2896 86.3355 67.2896C86.3355 67.2896 75.4366 69.0065 68.8913 77.9804C65.006 73.8178 57.6836 71.3822 57.6836 71.3822L59.4768 78.1201C60.8118 82.4823 62.9537 85.2573 64.7768 86.9343C64.7868 86.9743 64.7968 87.0142 64.8067 87.0541C64.8067 87.094 64.7868 87.134 64.7868 87.1639C63.153 88.9707 61.3597 91.7956 60.3934 96.0081L59.0883 102.846C59.0883 102.846 65.6436 100.191 69.3396 96.0879V96.1179Z" fill="#CFCFCF"/>
<path d="M94.184 88.9007C94.184 88.9007 53.5374 84.9279 51.7342 86.1756C49.931 87.4134 50.8177 88.9107 53.7267 88.4715C56.6457 88.0323 94.1741 88.9007 94.1741 88.9007H94.184Z" fill="#9A9A9A"/>
<path d="M70.4625 87.4633C71.2097 88.7311 72.0465 89.9788 72.9132 91.1966C73.78 92.4145 74.6965 93.6023 75.6429 94.7603C76.5894 95.9182 77.5856 97.0362 78.6317 98.1142C79.6578 99.2023 80.7736 100.21 81.9093 101.209C80.7238 100.29 79.5482 99.342 78.4424 98.3139C77.3266 97.2957 76.2606 96.2276 75.2345 95.1196C74.2084 94.0116 73.2121 92.8736 72.2657 91.6957C71.3193 90.5179 70.4027 89.31 69.5459 88.0323C69.3766 87.7828 69.4463 87.4434 69.6954 87.2737C69.9444 87.104 70.2832 87.1738 70.4525 87.4234C70.4525 87.4234 70.4625 87.4434 70.4725 87.4533L70.4625 87.4633Z" fill="#9A9A9A"/>
<path d="M70.5215 87.4735C70.7207 86.5451 71.0097 85.7366 71.3384 84.918C71.6672 84.0995 72.0457 83.3109 72.4642 82.5423C73.291 81.0051 74.2674 79.5577 75.3333 78.1901C75.8813 77.5213 76.4192 76.8425 77.017 76.2136C77.5848 75.5648 78.2125 74.9659 78.8301 74.357C79.4378 73.7481 80.1153 73.209 80.7529 72.6301C81.4204 72.0811 82.0978 71.562 82.7753 71.0229C82.1277 71.5919 81.4801 72.1509 80.8426 72.7299C80.2348 73.3388 79.5972 73.9178 79.0194 74.5466C78.4416 75.1755 77.8538 75.8044 77.3258 76.4732C76.7679 77.122 76.2698 77.8208 75.7617 78.5095C74.7854 79.907 73.9087 81.3744 73.1815 82.9116C72.8228 83.6803 72.4841 84.4589 72.2251 85.2574C71.9561 86.046 71.717 86.8845 71.5875 87.6432V87.6831C71.5377 87.9825 71.2587 88.1822 70.9598 88.1323C70.661 88.0824 70.4617 87.8029 70.5115 87.5134C70.5115 87.5134 70.5115 87.4934 70.5115 87.4834L70.5215 87.4735Z" fill="#9A9A9A"/>
<path d="M69.5369 87.8026C69.2878 88.8108 68.9291 89.6892 68.5107 90.5776C68.0923 91.4561 67.6141 92.2946 67.0861 93.1031C66.5382 93.9017 65.9803 94.6703 65.3327 95.379C64.7051 96.1077 64.0177 96.7666 63.3203 97.4054C63.9579 96.6967 64.5756 95.978 65.1235 95.2093C65.6914 94.4507 66.1696 93.6422 66.6179 92.8236C67.0662 91.9951 67.4447 91.1366 67.7635 90.2682C68.0724 89.3998 68.3414 88.4814 68.4709 87.6229V87.593C68.5207 87.2935 68.7996 87.0839 69.0885 87.1338C69.3874 87.1738 69.5966 87.4533 69.5468 87.7527C69.5468 87.7727 69.5468 87.7926 69.5369 87.8026Z" fill="#9A9A9A"/>
<path d="M67.6951 87.2837C67.5955 86.3454 67.3963 85.3671 67.1372 84.4288C66.8782 83.4905 66.5594 82.5522 66.131 81.6638C65.7027 80.7853 65.1946 79.9369 64.5669 79.1782C63.9194 78.4396 63.1423 77.8007 62.2656 77.3315C63.1921 77.7208 64.0389 78.2898 64.7761 78.9886C65.4934 79.7073 66.1111 80.5258 66.6391 81.4042C67.1671 82.2827 67.5855 83.211 67.9542 84.1693C68.3128 85.1375 68.6216 86.0958 68.8308 87.134C68.8906 87.4434 68.6914 87.7529 68.3825 87.8128C68.0737 87.8726 67.7649 87.673 67.7051 87.3636C67.7051 87.3436 67.7051 87.3236 67.7051 87.3137V87.2937L67.6951 87.2837Z" fill="#9A9A9A"/>
<path d="M9.86278 37.453C1.27519 30.5354 0 19.6649 0 19.6649C0 19.6649 7.45188 21.2321 12.9611 26.3329C13.3795 26.7222 13.768 27.1515 14.1466 27.5907C11.1081 19.7348 16.9759 6.92773 16.9759 6.92773C16.9759 6.92773 23.2523 18.0777 24.1389 24.646C24.2684 25.5743 23.9895 26.9918 23.9994 28.0099C24.4378 27.4909 24.916 27.0117 25.4241 26.5725C31.1325 21.6913 38.6342 20.4136 38.6342 20.4136C38.6342 20.4136 36.9207 31.334 27.9645 37.8922C32.1188 41.7852 34.5496 49.1221 34.5496 49.1221L27.815 47.3253C23.4615 45.9877 20.6919 43.8416 19.0182 42.0148C18.9784 42.0049 18.9385 41.9949 18.8987 41.9849C18.8588 41.9849 18.819 42.0049 18.7891 42.0049C16.9859 43.6419 14.1665 45.4387 9.96241 46.407L3.13816 47.7146C3.13816 47.7146 5.78816 41.1464 9.88271 37.443L9.86278 37.453Z" fill="#CFCFCF"/>
<path d="M17.0664 12.5479C17.0664 12.5479 21.0314 53.2748 19.7861 55.0816C18.5508 56.8884 17.0564 56 17.4948 53.0852C17.9331 50.1604 17.0664 12.5578 17.0664 12.5578V12.5479Z" fill="#9A9A9A"/>
<path d="M18.4995 36.3249C17.2343 35.5763 15.989 34.7378 14.7735 33.8693C13.5581 33.0009 12.3726 32.0825 11.217 31.1342C10.0613 30.1859 8.94554 29.1877 7.8696 28.1396C6.78369 27.1114 5.77749 25.9934 4.78125 24.8555C5.69779 26.0433 6.64422 27.2212 7.67035 28.3292C8.68651 29.4472 9.75249 30.5153 10.8583 31.5435C11.9641 32.5716 13.0999 33.5699 14.2754 34.5182C15.451 35.4665 16.6564 36.3848 17.9316 37.2433C18.1807 37.413 18.5194 37.3431 18.6888 37.0935C18.8581 36.844 18.7884 36.5046 18.5393 36.3349C18.5393 36.3349 18.5194 36.3249 18.5094 36.3149H18.4995V36.3249Z" fill="#9A9A9A"/>
<path d="M18.4894 36.2653C19.4159 36.0657 20.2228 35.7762 21.0397 35.4468C21.8567 35.1174 22.6437 34.738 23.4108 34.3188C24.945 33.4903 26.3896 32.512 27.7544 31.4439C28.4219 30.8949 29.0993 30.3559 29.727 29.757C30.3745 29.188 30.9723 28.5591 31.58 27.9402C32.1877 27.3313 32.7256 26.6525 33.3035 26.0137C33.8514 25.3449 34.3694 24.6661 34.9074 23.9873C34.3396 24.6361 33.7817 25.285 33.2038 25.9238C32.5961 26.5327 32.0183 27.1716 31.3907 27.7506C30.7631 28.3295 30.1354 28.9185 29.4679 29.4475C28.8204 30.0065 28.123 30.5056 27.4356 31.0047C26.0409 31.983 24.5764 32.8614 23.0422 33.5901C22.2751 33.9494 21.498 34.2888 20.701 34.5484C19.914 34.8179 19.0771 35.0575 18.32 35.1872H18.2802C17.9813 35.2371 17.782 35.5166 17.8318 35.8161C17.8817 36.1156 18.1606 36.3152 18.4495 36.2653C18.4495 36.2653 18.4694 36.2653 18.4794 36.2653H18.4894Z" fill="#9A9A9A"/>
<path d="M18.162 37.2434C17.1558 37.493 16.2791 37.8523 15.3924 38.2716C14.5157 38.6908 13.6789 39.17 12.8719 39.699C12.0749 40.248 11.3078 40.807 10.6005 41.4559C9.87324 42.0847 9.21572 42.7735 8.57812 43.4722C9.28546 42.8334 10.0027 42.2145 10.7699 41.6655C11.527 41.0965 12.334 40.6174 13.1509 40.1682C13.9777 39.719 14.8345 39.3397 15.7012 39.0202C16.568 38.7108 17.4845 38.4413 18.3413 38.3115H18.3712C18.67 38.2616 18.8793 37.9821 18.8294 37.6926C18.7896 37.3931 18.5106 37.1835 18.2118 37.2334C18.1918 37.2334 18.1719 37.2334 18.162 37.2434Z" fill="#9A9A9A"/>
<path d="M18.6909 39.1002C19.6274 39.2 20.6037 39.3997 21.5402 39.6592C22.4767 39.9188 23.4131 40.2382 24.2998 40.6674C25.1765 41.0967 26.0233 41.6057 26.7804 42.2346C27.5176 42.8835 28.1552 43.6621 28.6235 44.5405C28.2349 43.6121 27.6671 42.7637 26.9697 42.025C26.2524 41.3063 25.4355 40.6874 24.5588 40.1583C23.6821 39.6293 22.7556 39.21 21.7992 38.8407C20.8329 38.4813 19.8765 38.1719 18.8404 37.9623C18.5315 37.9024 18.2227 38.102 18.1629 38.4115C18.1032 38.7209 18.3024 39.0304 18.6112 39.0902C18.6312 39.0902 18.6511 39.0902 18.6611 39.0902H18.681L18.6909 39.1002Z" fill="#9A9A9A"/>
</g>
<defs>
<clipPath id="clip0_528_6038">
<rect width="106" height="106" fill="white"/>
</clipPath>
</defs>
</svg>
