<svg width="106" height="106" viewBox="0 0 106 106" fill="none" xmlns="http://www.w3.org/2000/svg">
<path d="M76.3122 49.2817C92.9594 51.0984 106 40.7869 106 40.7869C106 40.7869 96.3068 34.4582 84.9098 33.9991C84.043 33.9691 83.1663 33.9991 82.2896 34.0789C93.9855 28.9082 101.417 8.8142 101.417 8.8142C101.417 8.8142 82.6981 14.0348 74.7083 20.1439C73.5725 21.0123 72.3472 22.8291 71.2513 23.9171C71.331 22.889 71.341 21.8608 71.2513 20.8426C70.3547 9.45306 63.6599 0 63.6599 0C63.6599 0 53.7972 13.5856 56.3874 30.2857C47.74 29.9962 37.2695 35.2668 37.2695 35.2668L46.4349 40.5872C52.5519 43.8414 57.8319 44.5102 61.5878 44.3505C61.6475 44.3804 61.6974 44.4204 61.7571 44.4503C61.787 44.5002 61.8169 44.5501 61.8568 44.6001C62.046 48.3034 63.1419 53.2645 66.6188 58.8345L72.5564 67.5988C72.5564 67.5988 76.7505 57.6866 76.3222 49.2916L76.3122 49.2817Z" fill="#F7A31C"/>
<path d="M95.2802 14.7534C95.2802 14.7534 47.3311 54.2726 46.7234 57.5467C46.1157 60.8208 48.6661 61.4697 51.336 57.8661C54.0059 54.2626 95.2802 14.7634 95.2802 14.7634V14.7534Z" fill="#DB8200"/>
<path d="M68.2333 38.7607C70.3951 39.3097 72.6367 39.7689 74.8682 40.1383C77.1098 40.5176 79.3613 40.8071 81.6228 41.0267C83.8842 41.2563 86.1556 41.376 88.437 41.416C90.7184 41.4759 92.9998 41.3661 95.2712 41.2163C93.0098 41.5058 90.7284 41.7554 88.437 41.8352C86.1457 41.935 83.8543 41.945 81.563 41.8552C79.2716 41.7753 76.9803 41.6156 74.6889 41.3661C72.3976 41.1165 70.1361 40.8071 67.8348 40.3679C67.3865 40.278 67.0976 39.8488 67.1773 39.3996C67.2669 38.9504 67.6953 38.6609 68.1436 38.7408C68.1635 38.7408 68.1735 38.7408 68.1934 38.7508H68.2134L68.2333 38.7607Z" fill="#DB8200"/>
<path d="M68.3007 38.7105C67.5137 37.5027 66.9658 36.3248 66.4278 35.0771C65.8998 33.8493 65.4714 32.5815 65.0829 31.3138C64.3257 28.7684 63.8276 26.163 63.4988 23.5377C63.3693 22.2201 63.2199 20.9124 63.19 19.5948C63.1004 18.2772 63.1302 16.9695 63.1502 15.6519C63.1502 14.3342 63.2896 13.0266 63.3594 11.7189C63.4889 10.4113 63.6582 9.11359 63.8077 7.81592C63.728 9.12357 63.6284 10.4312 63.5686 11.7289C63.5686 13.0366 63.4988 14.3442 63.5686 15.6419C63.6284 16.9495 63.6582 18.2472 63.8176 19.5449C63.9173 20.8426 64.1265 22.1303 64.3257 23.408C64.784 25.9634 65.4017 28.4889 66.2684 30.9145C66.7067 32.1223 67.1849 33.3202 67.7528 34.4681C68.3007 35.6061 68.9483 36.764 69.6357 37.7123L69.6656 37.7523C69.9346 38.1216 69.8549 38.6407 69.4863 38.9102C69.1176 39.1797 68.5996 39.0998 68.3306 38.7305C68.3306 38.7205 68.3107 38.7105 68.3107 38.6906L68.3007 38.7105Z" fill="#DB8200"/>
<path d="M67.604 40.1283C68.4209 41.4858 68.9788 42.8135 69.4869 44.2209C69.9751 45.6184 70.3736 47.0359 70.6525 48.4633C70.9215 49.9008 71.1407 51.3482 71.2204 52.7956C71.3299 54.243 71.3001 55.7004 71.2303 57.1378C71.1606 55.6904 71.051 54.2529 70.8019 52.8355C70.5927 51.418 70.244 50.0205 69.8455 48.653C69.4371 47.2854 68.919 45.9578 68.3313 44.6801C67.7435 43.4124 67.0362 42.1347 66.2591 41.0865L66.2292 41.0466C65.9602 40.6773 66.0299 40.1582 66.3986 39.8887C66.7672 39.6192 67.2852 39.6891 67.5542 40.0584C67.5741 40.0784 67.5841 40.0983 67.594 40.1283H67.604Z" fill="#DB8200"/>
<path d="M65.055 41.5555C63.9492 40.6571 62.674 39.8186 61.3888 39.0899C60.0937 38.3612 58.7488 37.7024 57.3441 37.2033C55.9394 36.7142 54.4849 36.3548 52.9905 36.2151C51.4961 36.1153 49.9819 36.265 48.5273 36.7042C49.932 36.1253 51.4563 35.8158 53.0005 35.7759C54.5446 35.7759 56.0888 35.9955 57.5931 36.3648C59.0975 36.7441 60.552 37.2932 61.9766 37.922C63.4012 38.5709 64.7561 39.2796 66.101 40.168C66.4995 40.4375 66.6191 40.9766 66.3501 41.3758C66.0811 41.7751 65.5431 41.8949 65.1446 41.6254C65.1247 41.6054 65.0948 41.5954 65.0749 41.5755L65.055 41.5555Z" fill="#DB8200"/>
<path d="M69.3396 96.1076C76.2336 104.712 87.0926 105.99 87.0926 105.99C87.0926 105.99 85.5285 98.5233 80.4377 93.0032C80.0492 92.5839 79.6208 92.1946 79.1825 91.8153C87.0229 94.8599 99.8046 88.9804 99.8046 88.9804C99.8046 88.9804 88.6766 82.6917 82.1214 81.8033C81.1949 81.6735 79.7802 81.953 78.764 81.943C79.2821 81.5038 79.7603 81.0247 80.1887 80.5156C85.0603 74.7958 86.3355 67.2793 86.3355 67.2793C86.3355 67.2793 75.4366 68.9962 68.8913 77.9701C65.006 73.8076 57.6836 71.372 57.6836 71.372L59.4768 78.1099C60.8118 82.4721 62.9537 85.2471 64.7768 86.9241C64.7868 86.964 64.7968 87.0039 64.8067 87.0439C64.8067 87.0838 64.7868 87.1237 64.7868 87.1537C63.153 88.9604 61.3597 91.7854 60.3934 95.9978L59.0883 102.836C59.0883 102.836 65.6436 100.18 69.3396 96.0777V96.1076Z" fill="#FD9064"/>
<path d="M94.184 88.8905C94.184 88.8905 53.5374 84.9176 51.7342 86.1654C49.931 87.4032 50.8177 88.9005 53.7267 88.4613C56.6457 88.0221 94.1741 88.8905 94.1741 88.8905H94.184Z" fill="#DA5653"/>
<path d="M70.4625 87.4531C71.2097 88.7208 72.0465 89.9686 72.9132 91.1864C73.78 92.4042 74.6965 93.5921 75.6429 94.75C76.5894 95.9079 77.5856 97.0259 78.6317 98.104C79.6578 99.192 80.7736 100.2 81.9093 101.198C80.7238 100.28 79.5482 99.3318 78.4424 98.3036C77.3266 97.2854 76.2606 96.2174 75.2345 95.1094C74.2084 94.0013 73.2121 92.8634 72.2657 91.6855C71.3193 90.5076 70.4027 89.2998 69.5459 88.0221C69.3766 87.7725 69.4463 87.4331 69.6954 87.2634C69.9444 87.0937 70.2832 87.1636 70.4525 87.4131C70.4525 87.4131 70.4625 87.4331 70.4725 87.4431L70.4625 87.4531Z" fill="#DA5653"/>
<path d="M70.5215 87.4632C70.7207 86.5349 71.0097 85.7263 71.3384 84.9078C71.6672 84.0893 72.0457 83.3007 72.4642 82.532C73.291 80.9948 74.2674 79.5474 75.3333 78.1798C75.8813 77.511 76.4192 76.8323 77.017 76.2034C77.5848 75.5546 78.2125 74.9556 78.8301 74.3467C79.4378 73.7378 80.1153 73.1988 80.7529 72.6198C81.4204 72.0708 82.0978 71.5517 82.7753 71.0127C82.1277 71.5817 81.4801 72.1407 80.8426 72.7196C80.2348 73.3285 79.5972 73.9075 79.0194 74.5364C78.4416 75.1653 77.8538 75.7941 77.3258 76.4629C76.7679 77.1118 76.2698 77.8105 75.7617 78.4993C74.7854 79.8968 73.9087 81.3641 73.1815 82.9014C72.8228 83.67 72.4841 84.4486 72.2251 85.2472C71.9561 86.0358 71.717 86.8743 71.5875 87.6329V87.6728C71.5377 87.9723 71.2587 88.1719 70.9598 88.122C70.661 88.0721 70.4617 87.7926 70.5115 87.5031C70.5115 87.5031 70.5115 87.4832 70.5115 87.4732L70.5215 87.4632Z" fill="#DA5653"/>
<path d="M69.5369 87.7924C69.2878 88.8006 68.9291 89.679 68.5107 90.5674C68.0923 91.4458 67.6141 92.2843 67.0861 93.0929C66.5382 93.8914 65.9803 94.6601 65.3327 95.3688C64.7051 96.0975 64.0177 96.7563 63.3203 97.3952C63.9579 96.6864 64.5756 95.9677 65.1235 95.1991C65.6914 94.4404 66.1696 93.6319 66.6179 92.8134C67.0662 91.9849 67.4447 91.1264 67.7635 90.2579C68.0724 89.3895 68.3414 88.4712 68.4709 87.6127V87.5827C68.5207 87.2833 68.7996 87.0737 69.0885 87.1236C69.3874 87.1635 69.5966 87.443 69.5468 87.7425C69.5468 87.7624 69.5468 87.7824 69.5369 87.7924Z" fill="#DA5653"/>
<path d="M67.6951 87.2735C67.5955 86.3351 67.3963 85.3569 67.1372 84.4186C66.8782 83.4802 66.5594 82.5419 66.131 81.6535C65.7027 80.7751 65.1946 79.9266 64.5669 79.168C63.9194 78.4293 63.1423 77.7904 62.2656 77.3213C63.1921 77.7106 64.0389 78.2796 64.7761 78.9783C65.4934 79.697 66.1111 80.5156 66.6391 81.394C67.1671 82.2724 67.5855 83.2007 67.9542 84.159C68.3128 85.1273 68.6216 86.0856 68.8308 87.1237C68.8906 87.4332 68.6914 87.7426 68.3825 87.8025C68.0737 87.8624 67.7649 87.6627 67.7051 87.3533C67.7051 87.3333 67.7051 87.3134 67.7051 87.3034V87.2834L67.6951 87.2735Z" fill="#DA5653"/>
<path d="M9.86278 37.4433C1.27519 30.5257 0 19.6551 0 19.6551C0 19.6551 7.45188 21.2223 12.9611 26.3232C13.3795 26.7125 13.768 27.1417 14.1466 27.5809C11.1081 19.725 16.9759 6.91797 16.9759 6.91797C16.9759 6.91797 23.2523 18.068 24.1389 24.6362C24.2684 25.5645 23.9895 26.982 23.9994 28.0002C24.4378 27.4811 24.916 27.002 25.4241 26.5628C31.1325 21.6815 38.6342 20.4038 38.6342 20.4038C38.6342 20.4038 36.9207 31.3242 27.9645 37.8825C32.1188 41.7755 34.5496 49.1123 34.5496 49.1123L27.815 47.3156C23.4615 45.978 20.6919 43.8318 19.0182 42.0051C18.9784 41.9951 18.9385 41.9851 18.8987 41.9751C18.8588 41.9751 18.819 41.9951 18.7891 41.9951C16.9859 43.6322 14.1665 45.4289 9.96241 46.3972L3.13816 47.7049C3.13816 47.7049 5.78816 41.1366 9.88271 37.4333L9.86278 37.4433Z" fill="#FD9064"/>
<path d="M17.0664 12.5381C17.0664 12.5381 21.0314 53.2651 19.7861 55.0718C18.5508 56.8786 17.0564 55.9902 17.4948 53.0754C17.9331 50.1507 17.0664 12.5481 17.0664 12.5481V12.5381Z" fill="#DA5653"/>
<path d="M18.4995 36.3151C17.2343 35.5665 15.989 34.728 14.7735 33.8595C13.5581 32.9911 12.3726 32.0727 11.217 31.1244C10.0613 30.1761 8.94554 29.1779 7.8696 28.1298C6.78369 27.1017 5.77749 25.9837 4.78125 24.8457C5.69779 26.0336 6.64422 27.2115 7.67035 28.3195C8.68651 29.4375 9.75249 30.5056 10.8583 31.5337C11.9641 32.5619 13.0999 33.5601 14.2754 34.5084C15.451 35.4567 16.6564 36.375 17.9316 37.2335C18.1807 37.4032 18.5194 37.3333 18.6888 37.0838C18.8581 36.8342 18.7884 36.4948 18.5393 36.3251C18.5393 36.3251 18.5194 36.3151 18.5094 36.3052H18.4995V36.3151Z" fill="#DA5653"/>
<path d="M18.4894 36.2555C19.4159 36.0559 20.2228 35.7664 21.0397 35.437C21.8567 35.1076 22.6437 34.7283 23.4108 34.309C24.945 33.4805 26.3896 32.5023 27.7544 31.4342C28.4219 30.8852 29.0993 30.3461 29.727 29.7472C30.3745 29.1782 30.9723 28.5493 31.58 27.9305C32.1877 27.3215 32.7256 26.6428 33.3035 26.0039C33.8514 25.3351 34.3694 24.6563 34.9074 23.9775C34.3396 24.6264 33.7817 25.2752 33.2038 25.9141C32.5961 26.523 32.0183 27.1618 31.3907 27.7408C30.7631 28.3198 30.1354 28.9087 29.4679 29.4378C28.8204 29.9967 28.123 30.4959 27.4356 30.995C26.0409 31.9732 24.5764 32.8516 23.0422 33.5803C22.2751 33.9397 21.498 34.2791 20.701 34.5386C19.914 34.8081 19.0771 35.0477 18.32 35.1775H18.2802C17.9813 35.2274 17.782 35.5069 17.8318 35.8063C17.8817 36.1058 18.1606 36.3054 18.4495 36.2555C18.4495 36.2555 18.4694 36.2555 18.4794 36.2555H18.4894Z" fill="#DA5653"/>
<path d="M18.162 37.2336C17.1558 37.4832 16.2791 37.8426 15.3924 38.2618C14.5157 38.6811 13.6789 39.1602 12.8719 39.6892C12.0749 40.2383 11.3078 40.7973 10.6005 41.4461C9.87324 42.075 9.21572 42.7637 8.57812 43.4625C9.28546 42.8236 10.0027 42.2047 10.7699 41.6557C11.527 41.0867 12.334 40.6076 13.1509 40.1584C13.9777 39.7092 14.8345 39.3299 15.7012 39.0105C16.568 38.701 17.4845 38.4315 18.3413 38.3017H18.3712C18.67 38.2518 18.8793 37.9723 18.8294 37.6828C18.7896 37.3834 18.5106 37.1738 18.2118 37.2237C18.1918 37.2237 18.1719 37.2237 18.162 37.2336Z" fill="#DA5653"/>
<path d="M18.689 39.0905C19.6255 39.1903 20.6018 39.3899 21.5382 39.6495C22.4747 39.909 23.4112 40.2284 24.2978 40.6577C25.1745 41.0869 26.0213 41.596 26.7785 42.2248C27.5157 42.8737 28.1533 43.6523 28.6215 44.5307C28.233 43.6024 27.6651 42.7539 26.9677 42.0152C26.2505 41.2965 25.4335 40.6776 24.5568 40.1486C23.6802 39.6195 22.7536 39.2003 21.7973 38.8309C20.8309 38.4716 19.8745 38.1621 18.8384 37.9525C18.5296 37.8926 18.2208 38.0923 18.161 38.4017C18.1012 38.7111 18.3005 39.0206 18.6093 39.0805C18.6292 39.0805 18.6491 39.0805 18.6591 39.0805H18.679L18.689 39.0905Z" fill="#DA5653"/>
</svg>
