<svg width="99" height="106" viewBox="0 0 99 106" fill="none" xmlns="http://www.w3.org/2000/svg">
<path d="M49.8401 69.3765C44.7163 69.3765 39.7028 67.8075 35.5081 64.9264C32.0401 66.7523 28.1857 67.7066 24.2301 67.7066C10.8732 67.7066 0 56.8702 0 43.5381C0 30.206 10.8732 19.3696 24.2301 19.3696C24.3773 19.3696 24.5337 19.3696 24.6809 19.3696C28.0477 8.01028 38.5897 0 50.6956 0C63.9329 0 75.1557 9.616 77.4002 22.3609C89.129 22.7371 98.5579 32.3714 98.5579 44.162C98.5579 56.1912 88.7518 65.9724 76.6919 65.9724C73.0123 65.9724 69.4523 65.064 66.2603 63.3298C61.6884 67.2478 55.939 69.3765 49.8401 69.3765Z" fill="url(#paint0_linear_528_6153)"/>
<path d="M28.4614 78.4689C27.8175 78.6616 25.9041 79.625 24.9198 80.4967L23.5675 80.9004L23.8987 79.5241C24.7174 78.5056 25.5821 76.542 25.7477 75.8906C25.9685 74.9638 25.3981 74.0371 24.469 73.8169C23.54 73.5967 22.6109 74.1656 22.3901 75.0831C22.2337 75.7346 22.1141 77.8725 22.3809 79.1571L22.0497 80.5334L21.231 79.7535C20.6515 78.4322 19.2072 76.5329 18.7197 76.0741C18.0298 75.4226 16.9351 75.4502 16.282 76.1383C15.6288 76.8265 15.6564 77.9184 16.3463 78.5698C16.8339 79.0286 18.8117 80.3683 20.1639 80.8821L20.9734 81.662L19.888 81.9832C18.4529 81.818 16.0888 82.1208 15.4448 82.3135C14.5341 82.5796 14.0098 83.543 14.2766 84.4514C14.5433 85.3598 15.5092 85.8828 16.4199 85.6167C17.0639 85.424 19.2164 84.3963 20.3295 83.4788L21.4058 83.1576L21.1574 84.2495C20.3019 85.4148 19.382 87.6078 19.2256 88.2593C19.0049 89.186 19.5752 90.1127 20.5043 90.3329C21.4334 90.5531 22.3625 89.9843 22.5833 89.0667C22.7396 88.4152 22.9144 86.0388 22.6844 84.6166L22.9512 83.5247L23.9815 84.4973C24.4599 85.7176 25.7201 87.4518 26.2169 87.9106C26.9068 88.562 28.0015 88.5345 28.6546 87.8463C29.3077 87.1582 29.2801 86.0663 28.5902 85.4148C28.1026 84.956 26.3088 83.7816 25.0578 83.3687L24.0275 82.3961L25.3889 81.9923C26.686 82.1942 28.8202 81.9648 29.4641 81.7721C30.3748 81.506 30.8991 80.5426 30.6232 79.6342C30.338 78.7258 29.3721 78.2028 28.4614 78.4689Z" fill="#9BC1FF"/>
<path d="M81.6244 77.5434C80.7597 77.8004 78.1839 79.0941 76.8685 80.2686L75.0471 80.8099L75.4886 78.9656C76.5925 77.5893 77.7608 74.9651 77.9724 74.0842C78.2759 72.8455 77.5032 71.5885 76.2614 71.2949C75.0195 70.9921 73.7592 71.7628 73.4649 73.0015C73.2533 73.8732 73.0969 76.7543 73.4557 78.4702L73.0049 80.3145L71.9102 79.2684C71.1283 77.4976 69.1873 74.9467 68.5342 74.3228C67.6051 73.442 66.1333 73.4787 65.2594 74.4054C64.3763 75.3321 64.4131 76.791 65.3514 77.6811C66.0045 78.305 68.663 80.1034 70.4752 80.7916L71.5791 81.8376L70.1256 82.2689C68.1938 82.0486 65.011 82.4524 64.1463 82.7093C62.9136 83.0671 62.2145 84.3609 62.5825 85.5812C62.9412 86.8108 64.2383 87.5081 65.4618 87.1503C66.3265 86.8933 69.2149 85.5078 70.7236 84.2783L72.177 83.8471L71.8274 85.3152C70.6776 86.875 69.4357 89.8295 69.2241 90.7012C68.9206 91.9399 69.6933 93.197 70.9443 93.4906C72.1862 93.7934 73.4373 93.0226 73.7408 91.7839C73.9524 90.9031 74.1916 87.7192 73.8696 85.8015L74.2192 84.3334L75.599 85.6455C76.2338 87.2879 77.9448 89.6093 78.5979 90.2333C79.527 91.1141 80.9988 91.0774 81.8727 90.1507C82.7558 89.2239 82.719 87.7559 81.7899 86.8842C81.1368 86.2602 78.7175 84.682 77.0433 84.1315L75.6634 82.8286L77.4848 82.2872C79.2326 82.5533 82.0935 82.2505 82.9674 81.9936C84.1909 81.6357 84.8992 80.342 84.5312 79.1216C84.1449 77.8829 82.8478 77.1856 81.6244 77.5434Z" fill="#9BC1FF"/>
<path d="M54.9643 102.289C54.4951 101.436 52.5358 99.0227 50.9903 97.9033L50.006 96.1049L52.0574 96.1508C53.7592 97.0041 56.8133 97.628 57.7884 97.6556C59.1682 97.6831 60.3181 96.5912 60.3549 95.2149C60.3917 93.8385 59.2878 92.6916 57.908 92.664C56.9329 92.6365 53.8512 93.1228 52.1126 93.9027L50.052 93.8569L50.9075 92.4622C52.6094 91.2418 54.8631 88.6084 55.369 87.7735C56.0866 86.5898 55.7094 85.0575 54.5319 84.3418C53.3453 83.6261 51.809 83.9931 51.0915 85.1768C50.5856 86.0118 49.2793 89.214 48.9758 91.2877L48.1202 92.6732L47.3291 91.2418C47.1176 89.159 45.9585 85.9017 45.4893 85.0483C44.827 83.8371 43.3 83.3967 42.0857 84.0574C40.8714 84.718 40.4299 86.2411 41.0922 87.4523C41.5614 88.3056 43.6955 91.0308 45.333 92.3337L46.1241 93.7651L44.4867 93.7284C42.5733 92.8751 39.1604 92.242 38.1945 92.2144C36.8147 92.1869 35.6648 93.2788 35.6372 94.6552C35.6096 96.0315 36.7043 97.1784 38.0842 97.2151C39.0593 97.2335 42.4905 96.7564 44.4407 95.9948L46.0781 96.0315L45.011 97.784C43.4196 98.83 41.3498 101.151 40.8439 101.986C40.1263 103.17 40.5035 104.702 41.681 105.418C42.8584 106.134 44.4039 105.758 45.1214 104.583C45.6273 103.748 46.7404 100.849 46.9428 98.9585L48.0099 97.206L49.0034 99.0044C49.1137 100.904 50.098 103.858 50.5672 104.702C51.2295 105.914 52.7565 106.354 53.9708 105.693C55.1851 105.024 55.6266 103.5 54.9643 102.289Z" fill="#9BC1FF"/>
<defs>
<linearGradient id="paint0_linear_528_6153" x1="0" y1="0" x2="99" y2="69" gradientUnits="userSpaceOnUse">
<stop stop-color="#F1F1F1"/>
<stop offset="1" stop-color="#B3C2DB"/>
</linearGradient>
</defs>
</svg>
