<svg width="114" height="100" viewBox="0 0 114 100" fill="none" xmlns="http://www.w3.org/2000/svg">
<path d="M25.1412 24.3302C26.7866 30.8844 39.3306 51.7209 46.2354 40.2476C49.9761 34.0427 48.373 19.0338 46.0807 12.4935C44.8995 9.15353 42.115 4.84927 38.8243 3.18626C35.5196 1.50928 30.7382 2.86484 27.9678 -8.96038e-07C24.4943 8.58056 22.7927 14.995 25.1412 24.3162L25.1412 24.3302Z" fill="#CFCFCF"/>
<path d="M32.2767 37.2004C29.4219 31.6245 22.6577 31.0096 17.0748 31.5686C14.3325 31.8481 11.4356 32.3652 8.81991 33.2456C5.58546 34.3356 3.54636 37.6197 0.00253649 37.9132C3.65887 43.028 6.07766 50.8399 10.8871 55.0184C15.5279 59.0431 20.6186 55.5634 25.1609 53.1178C28.8454 51.1334 38.1971 49.5263 40.4612 45.9906C43.3722 41.4348 38.2675 37.4939 33.908 37.5358" fill="#CFCFCF"/>
<path d="M43.4971 72.166C49.0659 66.1988 51.7941 48.0035 41.3595 45.7256C31.6843 43.6154 22.0513 57.2129 19.3653 64.6336C15.2449 76.0371 32.3453 73.3679 34.75 80.5929C38.3501 78.8321 40.8111 75.0448 43.4971 72.166Z" fill="#CFCFCF"/>
<path d="M42.3447 39.5084C44.187 38.7258 46.5354 38.4603 48.8558 38.656C56.1263 39.2569 73.5642 48.0191 72.4532 56.8792C71.8766 61.5188 70.6954 66.5777 71.3282 71.2733C71.0751 69.3867 61.6108 71.399 60.5701 71.3571C51.9918 70.9938 51.0918 64.4116 48.1245 57.9273C46.1698 53.651 41.29 52.0299 39.5181 47.7396C37.7462 43.4074 39.3915 40.7801 42.3447 39.5084Z" fill="#CFCFCF"/>
<path d="M45.8747 38.8076C46.7747 29.2627 46.2262 16.2522 56.5343 11.333C64.9017 7.33622 71.3987 14.5472 78.627 17.6916C75.941 20.5844 76.1097 28.2286 75.041 32.0997C73.5362 37.5918 73.4518 39.8697 67.3767 42.4131C63.0454 44.2298 57.4765 45.823 52.8779 46.7313C45.6356 48.1707 45.1856 46.0186 45.8747 38.8076Z" fill="#CFCFCF"/>
<path d="M38.9538 30.9404C41.0632 34.0987 43.7492 37.5925 44.4805 41.3796" stroke="#9A9A9A" stroke-width="0.84" stroke-miterlimit="10" stroke-linecap="round"/>
<path d="M51.4434 32.3501C51.2887 35.4805 46.6901 39.659 44.201 41.322" stroke="#9A9A9A" stroke-width="0.84" stroke-miterlimit="10" stroke-linecap="round"/>
<path d="M44.4232 40.9453C46.8701 42.9577 52.3546 42.9018 55.3359 42.4546" stroke="#9A9A9A" stroke-width="0.84" stroke-miterlimit="10" stroke-linecap="round"/>
<path d="M44.8027 41.1532C43.4527 42.9978 34.0306 40.8597 32.6525 38.8193" stroke="#9A9A9A" stroke-width="0.84" stroke-miterlimit="10" stroke-linecap="round"/>
<path d="M43.4375 41.5884C41.3562 44.1318 35.6186 46.787 32.3982 46.9687" stroke="#9A9A9A" stroke-width="0.84" stroke-miterlimit="10" stroke-linecap="round"/>
<path d="M44.047 41.0283C45.1017 43.8932 42.3172 50.0142 40.1094 51.8868" stroke="#9A9A9A" stroke-width="0.84" stroke-miterlimit="10" stroke-linecap="round"/>
<path d="M50.7109 48.2823C48.5593 46.0044 46.2952 43.2094 44.8046 40.4424" stroke="#9A9A9A" stroke-width="0.84" stroke-miterlimit="10" stroke-linecap="round"/>
<path d="M38.4498 32.0725C36.0309 31.6113 37.0575 28.6766 39.1529 28.8164C41.8389 28.998 41.6561 32.7014 38.4498 32.0725Z" fill="#9A9A9A"/>
<path d="M54.7623 43.8523C52.3575 43.3911 53.3841 40.4564 55.4654 40.5961C58.1514 40.7778 57.9686 44.4812 54.7623 43.8523Z" fill="#9A9A9A"/>
<path d="M39.983 53.5496C37.5641 53.0884 38.6048 50.1537 40.6861 50.2934C43.3721 50.4751 43.1893 54.1645 39.983 53.5496Z" fill="#9A9A9A"/>
<path d="M31.8267 47.6701C29.4079 47.209 30.4345 44.2743 32.5298 44.414C35.2158 44.5957 35.033 48.285 31.8267 47.6701Z" fill="#9A9A9A"/>
<path d="M50.8943 33.7174C48.5177 33.2562 49.5302 30.3774 51.5834 30.5171C54.2272 30.6988 54.0443 34.3323 50.8943 33.7174Z" fill="#9A9A9A"/>
<path d="M33.5129 40.0766C31.4878 41.0409 30.644 38.3298 32.2472 37.3096C34.3144 35.996 36.1989 38.7909 33.5129 40.0766Z" fill="#9A9A9A"/>
<path d="M50.1619 49.6671C47.7852 49.2059 48.7978 46.3271 50.8509 46.4668C53.4947 46.6485 53.3119 50.282 50.1619 49.6671Z" fill="#9A9A9A"/>
<path d="M71.4868 76.8246C75.1854 78.9907 90.1763 82.6521 88.0528 74.4628C86.8997 70.0468 79.4042 64.0935 75.4244 62.2069C73.3853 61.2426 70.2071 60.5858 67.9993 61.3125C65.7773 62.0532 64.2585 64.7923 61.7413 64.7503C64.0757 70.1027 66.2274 73.7221 71.4868 76.8106L71.4868 76.8246Z" fill="#D9D9D9"/>
<path d="M80.4699 79.3523C76.6729 78.1505 73.3963 80.9035 71.1744 83.6426C70.0775 84.9842 69.0227 86.5075 68.2633 88.0726C67.3211 90.0012 67.8977 92.3769 66.4633 94.0818C70.4009 94.7247 74.9994 97.1144 79.0355 96.8069C82.9168 96.5135 83.6059 92.6983 84.52 89.5819C85.2653 87.0525 88.6826 82.1613 88.0919 79.5899C87.3185 76.2639 83.2824 76.7949 81.3558 78.7654" fill="#D9D9D9"/>
<path d="M101.27 89.874C101.045 84.7313 94.0132 75.438 88.3599 79.0855C83.1145 82.4813 84.9849 92.8088 87.1505 97.3087C90.4834 104.212 96.8679 95.3941 101.199 97.5323C102.001 95.1426 101.382 92.3616 101.27 89.888L101.27 89.874Z" fill="#D9D9D9"/>
<path d="M85.9834 75.8865C86.4474 74.7126 87.3615 73.5527 88.4866 72.6024C91.9882 69.6257 103.688 65.7268 107.204 70.1568C109.046 72.4766 110.818 75.2436 113.209 77.0604C112.239 76.3337 108.948 81.4625 108.47 81.9096C104.504 85.585 101.129 83.0556 96.868 81.5044C94.0695 80.4842 91.1725 81.9376 88.4444 80.8196C85.7021 79.6876 85.238 77.787 85.9834 75.9004L85.9834 75.8865Z" fill="#D9D9D9"/>
<path d="M87.235 73.9992C83.3115 69.3596 77.1941 63.8395 79.5426 57.0477C81.4552 51.5416 87.6006 51.8351 92.2273 50.0044C92.3398 52.4919 95.8696 55.804 97.1493 57.998C98.9634 61.1004 99.9478 62.1625 98.4149 66.0056C97.318 68.7447 95.5602 71.9449 93.9289 74.4045C91.3694 78.2755 90.1882 77.5209 87.235 74.0132L87.235 73.9992Z" fill="#D9D9D9"/>
<path d="M80.5975 73.5952C82.96 74.0564 85.7304 74.4057 87.7695 75.7613" stroke="#9A9A9A" stroke-width="0.53" stroke-miterlimit="10" stroke-linecap="round"/>
<path d="M86.7854 68.6372C88.1354 70.0906 87.9807 74.0035 87.6291 75.8622" stroke="#9A9A9A" stroke-width="0.53" stroke-miterlimit="10" stroke-linecap="round"/>
<path d="M87.5592 75.5946C89.5562 75.3989 91.9609 72.9254 93.0859 71.3882" stroke="#9A9A9A" stroke-width="0.53" stroke-miterlimit="10" stroke-linecap="round"/>
<path d="M87.8259 75.5264C88.065 76.9378 82.918 80.2079 81.3711 79.9284" stroke="#9A9A9A" stroke-width="0.53" stroke-miterlimit="10" stroke-linecap="round"/>
<path d="M87.403 76.3223C87.628 78.3766 86.278 82.1218 84.928 83.6451" stroke="#9A9A9A" stroke-width="0.53" stroke-miterlimit="10" stroke-linecap="round"/>
<path d="M87.4301 75.8047C89.188 76.6013 90.7208 80.5701 90.5942 82.3869" stroke="#9A9A9A" stroke-width="0.53" stroke-miterlimit="10" stroke-linecap="round"/>
<path d="M93.6758 76.0426C91.6929 75.9867 89.4288 75.7631 87.5022 75.2041" stroke="#9A9A9A" stroke-width="0.53" stroke-miterlimit="10" stroke-linecap="round"/>
<path d="M80.8957 74.324C79.616 75.1905 78.7441 73.4297 79.7285 72.5632C81.0082 71.4452 82.5973 73.1641 80.8957 74.324Z" fill="#9A9A9A"/>
<path d="M93.4679 72.2693C92.1882 73.1358 91.3163 71.375 92.3007 70.5085C93.5804 69.3905 95.1695 71.1094 93.4679 72.2693Z" fill="#9A9A9A"/>
<path d="M91.2882 83.1703C90.0085 84.0507 89.1366 82.2758 90.121 81.4094C91.4007 80.2914 92.9898 82.0103 91.2882 83.1703Z" fill="#9A9A9A"/>
<path d="M85.0031 84.2039C83.7234 85.0844 82.8515 83.3095 83.8359 82.4431C85.1156 81.3251 86.7047 83.044 85.0031 84.2039Z" fill="#9A9A9A"/>
<path d="M87.167 69.5017C85.9014 70.3681 85.0576 68.6213 86.028 67.7688C87.2795 66.6648 88.8405 68.3697 87.167 69.5017Z" fill="#9A9A9A"/>
<path d="M82.3284 80.0814C81.8643 81.423 80.2612 80.5984 80.5143 79.4246C80.8378 77.9153 82.9472 78.3205 82.3284 80.0814Z" fill="#9A9A9A"/>
<path d="M94.0577 76.9106C92.792 77.763 91.9482 76.0302 92.9186 75.1777C94.1702 74.0737 95.7311 75.7646 94.0577 76.9106Z" fill="#9A9A9A"/>
</svg>
