<svg width="120" height="106" viewBox="0 0 120 106" fill="none" xmlns="http://www.w3.org/2000/svg">
<path d="M26.6479 25.7901C28.3919 32.7376 41.6886 54.8243 49.0078 42.6625C52.973 36.0854 51.2736 20.1758 48.8438 13.2432C47.5917 9.70276 44.6402 5.14024 41.152 3.37745C37.649 1.59984 32.5807 3.03674 29.6441 -9.49802e-07C25.9622 9.09541 24.1585 15.8947 26.6479 25.7753L26.6479 25.7901Z" fill="#FFAECB"/>
<path d="M34.2109 39.4326C31.1848 33.522 24.0147 32.8703 18.0968 33.4628C15.19 33.7591 12.1193 34.3072 9.34662 35.2404C5.9181 36.3959 3.75666 39.877 0.000190433 40.1881C3.87591 45.6098 6.43983 53.8904 11.5379 58.3196C16.4571 62.5859 21.8533 58.8974 26.6681 56.305C30.5736 54.2015 40.4865 52.498 42.8865 48.7502C45.9722 43.921 40.5611 39.7436 35.94 39.7881" fill="#FFAECB"/>
<path d="M46.1053 76.4961C52.0083 70.1708 54.9002 50.8839 43.8395 48.4693C33.5837 46.2325 23.3727 60.6459 20.5255 68.5118C16.1579 80.5995 34.2843 77.7701 36.8334 85.4287C40.6495 83.5622 43.2581 79.5477 46.1053 76.4961Z" fill="#FFAECB"/>
<path d="M44.8847 41.8792C46.8375 41.0496 49.3269 40.7682 51.7865 40.9756C59.4932 41.6126 77.9774 50.9006 76.7998 60.2922C76.1886 65.2103 74.9365 70.5727 75.6073 75.55C75.3389 73.5502 65.3068 75.6833 64.2037 75.6389C55.1107 75.2537 54.1566 68.2766 51.0114 61.4032C48.9393 56.8703 43.7667 55.152 41.8885 50.6043C40.0103 46.0121 41.7543 43.2272 44.8847 41.8792Z" fill="#FFAECB"/>
<path d="M48.6263 41.1361C49.5803 31.0185 48.9989 17.2273 59.9255 12.013C68.7949 7.77639 75.6818 15.4201 83.3437 18.7531C80.4966 21.8195 80.6755 29.9224 79.5426 34.0257C77.9476 39.8473 77.8581 42.2619 71.4185 44.9579C66.8272 46.8837 60.9242 48.5724 56.0497 49.5353C48.3728 51.061 47.8958 48.7798 48.6263 41.1361Z" fill="#FFAECB"/>
<path d="M41.2902 32.7969C43.5261 36.1447 46.3733 39.848 47.1484 43.8625" stroke="#E3838B" stroke-width="0.84" stroke-miterlimit="10" stroke-linecap="round"/>
<path d="M54.5273 34.291C54.3634 37.6092 49.4889 42.0384 46.8504 43.8012" stroke="#E3838B" stroke-width="0.84" stroke-miterlimit="10" stroke-linecap="round"/>
<path d="M47.0868 43.4023C49.6805 45.5355 55.4941 45.4762 58.6543 45.0022" stroke="#E3838B" stroke-width="0.84" stroke-miterlimit="10" stroke-linecap="round"/>
<path d="M47.4902 43.6223C46.0592 45.5777 36.0718 43.3112 34.6109 41.1484" stroke="#E3838B" stroke-width="0.84" stroke-miterlimit="10" stroke-linecap="round"/>
<path d="M46.043 44.084C43.8368 46.78 37.7549 49.5945 34.3413 49.7871" stroke="#E3838B" stroke-width="0.84" stroke-miterlimit="10" stroke-linecap="round"/>
<path d="M46.6874 43.4902C47.8054 46.527 44.8539 53.0153 42.5136 55.0003" stroke="#E3838B" stroke-width="0.84" stroke-miterlimit="10" stroke-linecap="round"/>
<path d="M53.752 51.1794C51.4712 48.7648 49.0713 45.8022 47.4912 42.8691" stroke="#E3838B" stroke-width="0.84" stroke-miterlimit="10" stroke-linecap="round"/>
<path d="M40.7543 33.9977C38.1904 33.5088 39.2786 30.398 41.4996 30.5461C44.3468 30.7387 44.153 34.6643 40.7543 33.9977Z" fill="#E3838B"/>
<path d="M58.0453 46.484C55.4963 45.9952 56.5845 42.8843 58.7907 43.0325C61.6378 43.225 61.444 47.1506 58.0453 46.484Z" fill="#E3838B"/>
<path d="M42.3793 56.7633C39.8154 56.2745 40.9185 53.1636 43.1246 53.3118C45.9718 53.5043 45.778 57.4151 42.3793 56.7633Z" fill="#E3838B"/>
<path d="M33.7348 50.5308C31.1708 50.042 32.259 46.9312 34.4801 47.0793C37.3273 47.2719 37.1335 51.1826 33.7348 50.5308Z" fill="#E3838B"/>
<path d="M53.9456 35.7412C51.4264 35.2524 52.4997 32.2008 54.6761 32.349C57.4785 32.5415 57.2847 36.393 53.9456 35.7412Z" fill="#E3838B"/>
<path d="M35.523 42.482C33.3764 43.5041 32.482 40.6303 34.1814 39.549C36.3726 38.1565 38.3701 41.1191 35.523 42.482Z" fill="#E3838B"/>
<path d="M53.1702 52.6475C50.651 52.1586 51.7243 49.1071 53.9006 49.2552C56.7031 49.4478 56.5093 53.2993 53.1702 52.6475Z" fill="#E3838B"/>
<path d="M75.7735 81.435C79.694 83.7311 95.5844 87.6122 93.3335 78.9316C92.1112 74.2506 84.166 67.9401 79.9474 65.9403C77.7859 64.9181 74.417 64.2219 72.0767 64.9922C69.7214 65.7773 68.1115 68.6808 65.4432 68.6363C67.9177 74.3098 70.1985 78.1465 75.7735 81.4202L75.7735 81.435Z" fill="#FFD2E0"/>
<path d="M85.2975 84.1144C81.2727 82.8404 77.7995 85.7587 75.4442 88.6621C74.2815 90.0842 73.1635 91.6989 72.3586 93.358C71.3598 95.4022 71.971 97.9205 70.4505 99.7277C74.6244 100.409 79.4988 102.942 83.777 102.616C87.8913 102.305 88.6217 98.2612 89.5906 94.9578C90.3807 92.2766 94.003 87.0919 93.3769 84.3662C92.557 80.8406 88.2788 81.4036 86.2366 83.4922" fill="#FFD2E0"/>
<path d="M107.343 95.2678C107.105 89.8165 99.6515 79.9656 93.659 83.8319C88.0989 87.4315 90.0815 98.3786 92.3771 103.149C95.9099 110.466 102.678 101.119 107.269 103.386C108.118 100.852 107.463 97.9046 107.343 95.2826L107.343 95.2678Z" fill="#FFD2E0"/>
<path d="M91.1408 80.441C91.6327 79.1966 92.6016 77.9671 93.7942 76.9598C97.5059 73.8046 109.908 69.6716 113.635 74.3675C115.588 76.8265 117.466 79.7595 120 81.6853C118.971 80.915 115.483 86.3515 114.976 86.8255C110.773 90.7214 107.195 88.0402 102.679 86.3959C99.7121 85.3145 96.6413 86.8551 93.7495 85.6701C90.8427 84.4702 90.3507 82.4555 91.1408 80.4557L91.1408 80.441Z" fill="#FFD2E0"/>
<path d="M92.468 78.4404C88.309 73.5224 81.8246 67.6711 84.3141 60.4718C86.3413 54.6353 92.8555 54.9464 97.7598 53.0059C97.8791 55.6426 101.621 59.1534 102.977 61.4791C104.9 64.7677 105.944 65.8935 104.319 69.9672C103.156 72.8706 101.293 76.2628 99.5635 78.87C96.8505 82.9733 95.5984 82.1734 92.468 78.4552L92.468 78.4404Z" fill="#FFD2E0"/>
<path d="M85.4328 78.0117C87.9371 78.5006 90.8737 78.8709 93.0352 80.3078" stroke="#E3838B" stroke-width="0.53" stroke-miterlimit="10" stroke-linecap="round"/>
<path d="M91.9916 72.7559C93.4226 74.2964 93.2586 78.4442 92.886 80.4143" stroke="#E3838B" stroke-width="0.53" stroke-miterlimit="10" stroke-linecap="round"/>
<path d="M92.8116 80.1307C94.9284 79.9233 97.4774 77.3013 98.6699 75.6719" stroke="#E3838B" stroke-width="0.53" stroke-miterlimit="10" stroke-linecap="round"/>
<path d="M93.093 80.0586C93.3464 81.5547 87.8906 85.0211 86.2509 84.7248" stroke="#E3838B" stroke-width="0.53" stroke-miterlimit="10" stroke-linecap="round"/>
<path d="M92.6457 80.9023C92.8842 83.0799 91.4532 87.0499 90.0221 88.6645" stroke="#E3838B" stroke-width="0.53" stroke-miterlimit="10" stroke-linecap="round"/>
<path d="M92.6754 80.3535C94.5387 81.1979 96.1635 85.4049 96.0293 87.3306" stroke="#E3838B" stroke-width="0.53" stroke-miterlimit="10" stroke-linecap="round"/>
<path d="M99.2949 80.6056C97.1931 80.5464 94.7931 80.3093 92.7509 79.7168" stroke="#E3838B" stroke-width="0.53" stroke-miterlimit="10" stroke-linecap="round"/>
<path d="M85.7477 78.7839C84.3912 79.7024 83.467 77.8359 84.5104 76.9175C85.8669 75.7324 87.5514 77.5544 85.7477 78.7839Z" fill="#E3838B"/>
<path d="M99.0739 76.6062C97.7174 77.5246 96.7931 75.6582 97.8366 74.7398C99.1931 73.5547 100.878 75.3767 99.0739 76.6062Z" fill="#E3838B"/>
<path d="M96.7633 88.1609C95.4068 89.0942 94.4826 87.2129 95.5261 86.2944C96.8826 85.1094 98.567 86.9314 96.7633 88.1609Z" fill="#E3838B"/>
<path d="M90.1012 89.2566C88.7447 90.1899 87.8205 88.3086 88.864 87.3901C90.2205 86.2051 91.9049 88.0271 90.1012 89.2566Z" fill="#E3838B"/>
<path d="M92.3948 73.6725C91.0532 74.5909 90.1588 72.7392 91.1873 71.8356C92.514 70.6654 94.1686 72.4726 92.3948 73.6725Z" fill="#E3838B"/>
<path d="M87.267 84.887C86.775 86.3091 85.0757 85.4351 85.344 84.1908C85.6869 82.591 87.9228 83.0206 87.267 84.887Z" fill="#E3838B"/>
<path d="M99.6995 81.5258C98.3579 82.4294 97.4634 80.5926 98.492 79.689C99.8187 78.5187 101.473 80.3111 99.6995 81.5258Z" fill="#E3838B"/>
</svg>
