<svg width="106" height="70" viewBox="0 0 106 70" fill="none" xmlns="http://www.w3.org/2000/svg">
<path fill-rule="evenodd" clip-rule="evenodd" d="M75.1879 0.778809C81.4653 20.7906 70.2726 42.12 50.2125 48.3822C30.1524 54.6445 8.77152 43.4788 2.49414 23.467L75.1879 0.778809Z" fill="#FF7A62"/>
<path fill-rule="evenodd" clip-rule="evenodd" d="M77.6847 0C84.3921 21.3877 72.4324 44.1789 50.9964 50.8701C29.557 57.5613 6.70734 45.6304 0 24.2461L4.99095 22.6882C10.8349 41.3275 30.7506 51.7245 49.4348 45.8946C68.119 40.0647 78.5412 20.1971 72.6972 1.55784L77.6847 0Z" fill="#33E042"/>
<path fill-rule="evenodd" clip-rule="evenodd" d="M18.5634 26.5176C18.4843 26.449 18.3742 26.4284 18.2744 26.4593C18.1747 26.4902 18.0956 26.5691 18.0715 26.672C17.8445 27.4613 17.4214 29.1083 17.6381 29.8015C17.903 30.649 18.8076 31.1191 19.6538 30.8549C20.4999 30.5907 20.9746 29.6882 20.7097 28.8441C20.4896 28.1475 19.2032 27.0358 18.5634 26.5176Z" fill="white"/>
<path fill-rule="evenodd" clip-rule="evenodd" d="M49.9091 20.022C49.83 19.9534 49.7199 19.9328 49.6201 19.9637C49.5204 19.9946 49.4447 20.0735 49.4172 20.1764C49.1902 20.9657 48.7671 22.6127 48.9838 23.3059C49.2487 24.1534 50.1533 24.6235 50.9995 24.3593C51.8491 24.0951 52.3203 23.1926 52.0554 22.3485C51.8387 21.6554 50.5489 20.5402 49.9091 20.022Z" fill="white"/>
<path fill-rule="evenodd" clip-rule="evenodd" d="M33.7509 16.9546C33.6718 16.886 33.5617 16.8654 33.4619 16.8963C33.3622 16.9272 33.2865 17.0061 33.259 17.1091C33.032 17.8983 32.6089 19.5453 32.8256 20.2385C33.0905 21.086 33.9951 21.5561 34.8413 21.2919C35.6874 21.0277 36.1621 20.1252 35.8972 19.2811C35.6771 18.5845 34.3872 17.4728 33.7509 16.9546Z" fill="white"/>
<path fill-rule="evenodd" clip-rule="evenodd" d="M62.6669 10.3389C62.5878 10.2703 62.4777 10.2497 62.378 10.2806C62.2782 10.3115 62.2025 10.3938 62.175 10.4933C61.948 11.2826 61.5249 12.9296 61.7416 13.6228C62.0065 14.4669 62.9111 14.9404 63.7573 14.6762C64.6069 14.412 65.0781 13.5095 64.8132 12.6654C64.5965 11.9723 63.3067 10.8571 62.6669 10.3389Z" fill="white"/>
<path fill-rule="evenodd" clip-rule="evenodd" d="M61.0497 28.9468C60.9706 28.8782 60.8605 28.8576 60.7608 28.8885C60.661 28.9194 60.5854 29.0017 60.5578 29.1012C60.3308 29.8905 59.9077 31.5375 60.1244 32.2307C60.3893 33.0748 61.2939 33.5483 62.1401 33.2841C62.9897 33.0199 63.4609 32.1174 63.1961 31.2733C62.9794 30.5802 61.6895 29.465 61.0497 28.9468Z" fill="white"/>
<path fill-rule="evenodd" clip-rule="evenodd" d="M44.0595 39.0728C43.9804 39.0042 43.8703 38.9836 43.7705 39.0145C43.6708 39.0454 43.5917 39.1277 43.5676 39.2272C43.3406 40.0164 42.9175 41.6635 43.1342 42.3566C43.3991 43.2008 44.3037 43.6743 45.1498 43.4101C45.996 43.1459 46.4707 42.2434 46.2058 41.3993C45.9857 40.7061 44.6992 39.5944 44.0595 39.0728Z" fill="white"/>
<path fill-rule="evenodd" clip-rule="evenodd" d="M31.4758 33.4283C31.3967 33.3597 31.2866 33.3391 31.1869 33.3699C31.0871 33.4008 31.008 33.4798 30.9839 33.5827C30.7535 34.3719 30.3338 36.019 30.5505 36.7121C30.8154 37.5597 31.72 38.0298 32.5662 37.7655C33.4123 37.5013 33.887 36.5989 33.6222 35.7548C33.402 35.0616 32.1156 33.9498 31.4758 33.4283Z" fill="white"/>
<path fill-rule="evenodd" clip-rule="evenodd" d="M67.1699 46.7395L96.1697 37.5605L105.371 66.4905C89.3626 71.5552 72.2469 62.7056 67.1699 46.7395Z" fill="#FF7A62"/>
<path fill-rule="evenodd" clip-rule="evenodd" d="M106 68.4736C88.8981 73.8849 70.606 64.428 65.1816 47.3672L69.1613 46.1079C73.8909 60.9795 89.8302 69.2216 104.738 64.5035L106 68.4736Z" fill="#33E042"/>
<path fill-rule="evenodd" clip-rule="evenodd" d="M88.3589 56.2993C88.352 56.2169 88.3004 56.1414 88.2282 56.1037C88.1525 56.0659 88.0665 56.0659 87.9943 56.1105C87.4199 56.4297 86.2504 57.1262 85.9821 57.6409C85.6553 58.2689 85.903 59.0444 86.5324 59.3703C87.1619 59.6963 87.9392 59.4493 88.266 58.8213C88.5343 58.3066 88.4311 56.9547 88.3589 56.2993Z" fill="white"/>
<path fill-rule="evenodd" clip-rule="evenodd" d="M92.9644 41.8637C92.9575 41.7814 92.9093 41.7059 92.8337 41.6681C92.758 41.6304 92.672 41.6304 92.5998 41.675C92.0253 41.9941 90.8559 42.6907 90.5876 43.2054C90.2608 43.8333 90.5084 44.6088 91.1379 44.9348C91.7674 45.2608 92.5447 45.0137 92.8715 44.3858C93.1363 43.8711 93.0332 42.5191 92.9644 41.8637Z" fill="white"/>
<path fill-rule="evenodd" clip-rule="evenodd" d="M96.6753 54.1374C96.6684 54.0551 96.6203 53.9796 96.5446 53.9418C96.4689 53.9041 96.3829 53.9075 96.3107 53.9487C95.7363 54.2678 94.5668 54.9644 94.2985 55.4791C93.9717 56.107 94.2194 56.8825 94.8488 57.2085C95.4783 57.5345 96.2557 57.2874 96.5824 56.6595C96.8473 56.1448 96.7441 54.7928 96.6753 54.1374Z" fill="white"/>
<path fill-rule="evenodd" clip-rule="evenodd" d="M81.6929 46.3896C81.686 46.3072 81.6344 46.2318 81.5622 46.194C81.4865 46.1563 81.4005 46.1563 81.3248 46.2009C80.7504 46.52 79.5809 47.2166 79.3161 47.7313C78.9893 48.3592 79.237 49.1347 79.8664 49.4607C80.4959 49.7867 81.2732 49.5396 81.6 48.9117C81.8649 48.3969 81.7617 47.045 81.6929 46.3896Z" fill="white"/>
</svg>
