<svg width="84" height="90" viewBox="0 0 84 90" fill="none" xmlns="http://www.w3.org/2000/svg">
<path d="M42.3171 58.9052C37.9666 58.9052 33.7099 57.573 30.1484 55.1268C27.2038 56.6771 23.9312 57.4873 20.5727 57.4873C9.23196 57.4873 0 48.2865 0 36.9667C0 25.6469 9.23196 16.4461 20.5727 16.4461C20.6977 16.4461 20.8305 16.4461 20.9555 16.4461C23.8141 6.80125 32.7649 0 43.0434 0C54.2827 0 63.8114 8.16462 65.7172 18.9859C75.6755 19.3053 83.6812 27.4855 83.6812 37.4965C83.6812 47.71 75.3553 56.0149 65.1158 56.0149C61.9916 56.0149 58.969 55.2436 56.2587 53.7712C52.3769 57.0978 47.4954 58.9052 42.3171 58.9052Z" fill="#D3D3D3"/>
<path d="M24.1653 66.6258C23.6185 66.7894 21.994 67.6075 21.1582 68.3476L20.0101 68.6904L20.2913 67.5218C20.9864 66.657 21.7206 64.9898 21.8612 64.4366C22.0486 63.6498 21.5644 62.8629 20.7755 62.676C19.9867 62.489 19.1978 62.972 19.0104 63.7511C18.8776 64.3042 18.7761 66.1194 19.0026 67.2101L18.7214 68.3787L18.0263 67.7165C17.5342 66.5947 16.308 64.982 15.894 64.5925C15.3082 64.0393 14.3788 64.0627 13.8242 64.647C13.2697 65.2313 13.2931 66.1584 13.8789 66.7115C14.2929 67.1011 15.9721 68.2385 17.1202 68.6748L17.8076 69.337L16.8859 69.6097C15.6675 69.4694 13.6602 69.7265 13.1135 69.8901C12.3402 70.116 11.895 70.9341 12.1215 71.7053C12.3481 72.4766 13.1681 72.9207 13.9414 72.6948C14.4881 72.5311 16.3158 71.6586 17.2608 70.8795L18.1747 70.6069L17.9638 71.5339C17.2374 72.5234 16.4564 74.3853 16.3236 74.9385C16.1361 75.7253 16.6204 76.5122 17.4092 76.6992C18.1981 76.8861 18.9869 76.4031 19.1744 75.624C19.3072 75.0709 19.4556 73.0531 19.2603 71.8456L19.4868 70.9185L20.3616 71.7443C20.7677 72.7804 21.8378 74.2529 22.2595 74.6424C22.8453 75.1956 23.7747 75.1722 24.3293 74.5879C24.8838 74.0036 24.8604 73.0765 24.2746 72.5234C23.8607 72.1338 22.3376 71.1366 21.2754 70.786L20.4006 69.9602L21.5566 69.6174C22.6579 69.7888 24.4699 69.5941 25.0166 69.4305C25.7898 69.2045 26.235 68.3865 26.0007 67.6152C25.7586 66.844 24.9385 66.3999 24.1653 66.6258Z" fill="#CFCFCF"/>
<path d="M69.3017 65.8394C68.5675 66.0575 66.3806 67.156 65.2637 68.1532L63.7172 68.6129L64.0921 67.0469C65.0294 65.8783 66.0213 63.6502 66.201 62.9023C66.4587 61.8506 65.8026 60.7832 64.7482 60.5339C63.6938 60.2769 62.6238 60.9313 62.3738 61.983C62.1942 62.7231 62.0614 65.1694 62.366 66.6262L61.9833 68.1922L61.0539 67.304C60.39 65.8004 58.742 63.6346 58.1874 63.1049C57.3986 62.357 56.1489 62.3881 55.4069 63.175C54.6571 63.9618 54.6883 65.2006 55.485 65.9563C56.0396 66.486 58.2968 68.013 59.8354 68.5973L60.7727 69.4854L59.5386 69.8516C57.8984 69.6646 55.196 70.0074 54.4618 70.2255C53.4152 70.5294 52.8216 71.6279 53.1341 72.664C53.4387 73.708 54.54 74.3001 55.5787 73.9962C56.3129 73.7781 58.7654 72.6017 60.0463 71.5577L61.2804 71.1916L60.9836 72.4381C60.0073 73.7625 58.9529 76.2711 58.7732 77.0112C58.5155 78.063 59.1716 79.1303 60.2338 79.3796C61.2882 79.6367 62.3504 78.9822 62.6082 77.9305C62.7878 77.1826 62.9909 74.4792 62.7175 72.851L63.0143 71.6045L64.1859 72.7186C64.7248 74.1131 66.1775 76.0841 66.7321 76.6139C67.5209 77.3618 68.7706 77.3306 69.5126 76.5438C70.2624 75.7569 70.2312 74.5104 69.4423 73.7703C68.8878 73.2405 66.8336 71.9005 65.4121 71.4331L64.2405 70.3268L65.787 69.8672C67.271 70.0931 69.7 69.836 70.442 69.6179C71.4808 69.314 72.0822 68.2156 71.7698 67.1794C71.4418 66.1277 70.3405 65.5356 69.3017 65.8394Z" fill="#CFCFCF"/>
<path d="M46.668 86.849C46.2697 86.1245 44.6061 84.0755 43.2939 83.1251L42.4582 81.5981L44.1999 81.6371C45.6448 82.3616 48.2379 82.8913 49.0658 82.9147C50.2374 82.9381 51.2137 82.011 51.2449 80.8424C51.2762 79.6738 50.3389 78.7 49.1674 78.6766C48.3395 78.6532 45.723 79.0661 44.2468 79.7283L42.4972 79.6894L43.2236 78.5052C44.6685 77.469 46.5821 75.2331 47.0117 74.5242C47.6209 73.5192 47.3007 72.2181 46.3009 71.6105C45.2934 71.0028 43.989 71.3144 43.3798 72.3194C42.9502 73.0284 41.8412 75.7473 41.5834 77.508L40.857 78.6844L40.1853 77.469C40.0057 75.7006 39.0216 72.9349 38.6232 72.2103C38.0609 71.182 36.7644 70.808 35.7334 71.369C34.7024 71.9299 34.3275 73.2231 34.8898 74.2515C35.2882 74.976 37.1002 77.2899 38.4905 78.3961L39.1622 79.6115L37.7719 79.5803C36.1473 78.8558 33.2497 78.3182 32.4296 78.2949C31.258 78.2715 30.2817 79.1986 30.2582 80.3672C30.2348 81.5358 31.1643 82.5096 32.3358 82.5408C33.1637 82.5563 36.077 82.1512 37.7329 81.5046L39.1231 81.5358L38.2171 83.0238C36.8659 83.9119 35.1085 85.883 34.679 86.5919C34.0697 87.5969 34.39 88.898 35.3897 89.5056C36.3895 90.1133 37.7016 89.7939 38.3108 88.7967C38.7404 88.0877 39.6855 85.6259 39.8573 84.021L40.7633 82.533L41.6068 84.0599C41.7006 85.6726 42.5363 88.1812 42.9346 88.898C43.497 89.9263 44.7935 90.3003 45.8245 89.7393C46.8555 89.1706 47.2304 87.8774 46.668 86.849Z" fill="#CFCFCF"/>
</svg>
