<svg width="106" height="70" viewBox="0 0 106 70" fill="none" xmlns="http://www.w3.org/2000/svg">
<g clip-path="url(#clip0_528_6061)">
<path fill-rule="evenodd" clip-rule="evenodd" d="M75.186 0.778809C81.4633 20.7906 70.2707 42.12 50.2106 48.3822C30.1505 54.6445 8.76957 43.4788 2.49219 23.467L75.186 0.778809Z" fill="#CFCFCF"/>
<path fill-rule="evenodd" clip-rule="evenodd" d="M77.6847 0C84.3921 21.3877 72.4324 44.1789 50.9964 50.8701C29.557 57.5613 6.70734 45.6304 0 24.2461L4.99095 22.6882C10.8349 41.3275 30.7506 51.7245 49.4348 45.8946C68.119 40.0647 78.5412 20.1971 72.6972 1.55784L77.6847 0Z" fill="#9A9A9A"/>
<path fill-rule="evenodd" clip-rule="evenodd" d="M18.5634 26.5176C18.4843 26.449 18.3742 26.4284 18.2744 26.4593C18.1747 26.4902 18.0956 26.5691 18.0715 26.672C17.8445 27.4613 17.4214 29.1083 17.6381 29.8015C17.903 30.649 18.8076 31.1191 19.6538 30.8549C20.4999 30.5907 20.9746 29.6882 20.7097 28.8441C20.4896 28.1475 19.2032 27.0358 18.5634 26.5176Z" fill="white"/>
<path fill-rule="evenodd" clip-rule="evenodd" d="M49.911 20.022C49.8319 19.9534 49.7219 19.9328 49.6221 19.9637C49.5224 19.9946 49.4467 20.0735 49.4192 20.1764C49.1921 20.9657 48.7691 22.6127 48.9858 23.3059C49.2506 24.1534 50.1553 24.6235 51.0014 24.3593C51.851 24.0951 52.3222 23.1926 52.0574 22.3485C51.8407 21.6554 50.5508 20.5402 49.911 20.022Z" fill="white"/>
<path fill-rule="evenodd" clip-rule="evenodd" d="M33.7509 16.9546C33.6718 16.886 33.5617 16.8654 33.4619 16.8963C33.3622 16.9272 33.2865 17.0061 33.259 17.1091C33.032 17.8983 32.6089 19.5453 32.8256 20.2385C33.0905 21.086 33.9951 21.5561 34.8413 21.2919C35.6874 21.0277 36.1621 20.1252 35.8972 19.2811C35.6771 18.5845 34.3872 17.4728 33.7509 16.9546Z" fill="white"/>
<path fill-rule="evenodd" clip-rule="evenodd" d="M62.6688 10.3389C62.5897 10.2703 62.4797 10.2497 62.3799 10.2806C62.2802 10.3115 62.2045 10.3938 62.177 10.4933C61.95 11.2826 61.5269 12.9296 61.7436 13.6228C62.0084 14.4669 62.9131 14.9404 63.7592 14.6762C64.6088 14.412 65.08 13.5095 64.8152 12.6654C64.5985 11.9723 63.3086 10.8571 62.6688 10.3389Z" fill="white"/>
<path fill-rule="evenodd" clip-rule="evenodd" d="M61.0517 28.9468C60.9725 28.8782 60.8625 28.8576 60.7627 28.8885C60.663 28.9194 60.5873 29.0017 60.5598 29.1012C60.3328 29.8905 59.9097 31.5375 60.1264 32.2307C60.3912 33.0748 61.2959 33.5483 62.142 33.2841C62.9916 33.0199 63.4629 32.1174 63.198 31.2733C62.9813 30.5802 61.6914 29.465 61.0517 28.9468Z" fill="white"/>
<path fill-rule="evenodd" clip-rule="evenodd" d="M44.0595 39.0728C43.9804 39.0042 43.8703 38.9836 43.7705 39.0145C43.6708 39.0454 43.5917 39.1277 43.5676 39.2272C43.3406 40.0164 42.9175 41.6635 43.1342 42.3566C43.3991 43.2008 44.3037 43.6743 45.1498 43.4101C45.996 43.1459 46.4707 42.2434 46.2058 41.3993C45.9857 40.7061 44.6992 39.5944 44.0595 39.0728Z" fill="white"/>
<path fill-rule="evenodd" clip-rule="evenodd" d="M31.4778 33.4283C31.3986 33.3597 31.2886 33.3391 31.1888 33.3699C31.0891 33.4008 31.01 33.4798 30.9859 33.5827C30.7554 34.3719 30.3358 36.019 30.5525 36.7121C30.8173 37.5597 31.722 38.0298 32.5681 37.7655C33.4143 37.5013 33.889 36.5989 33.6241 35.7548C33.404 35.0616 32.1175 33.9498 31.4778 33.4283Z" fill="white"/>
<path fill-rule="evenodd" clip-rule="evenodd" d="M67.168 46.7385L96.1677 37.5596L105.369 66.4895C89.3607 71.5542 72.2449 62.7047 67.168 46.7385Z" fill="#CFCFCF"/>
<path fill-rule="evenodd" clip-rule="evenodd" d="M105.998 68.4726C88.8961 73.8839 70.604 64.427 65.1797 47.3662L69.1594 46.1069C73.8889 60.9785 89.8283 69.2207 104.736 64.5025L105.998 68.4726Z" fill="#9A9A9A"/>
<path fill-rule="evenodd" clip-rule="evenodd" d="M88.3569 56.2983C88.3501 56.2159 88.2985 56.1404 88.2262 56.1027C88.1506 56.065 88.0646 56.065 87.9923 56.1096C87.4179 56.4287 86.2484 57.1252 85.9801 57.64C85.6534 58.2679 85.901 59.0434 86.5305 59.3694C87.1599 59.6953 87.9373 59.4483 88.2641 58.8203C88.5324 58.3056 88.4292 56.9537 88.3569 56.2983Z" fill="white"/>
<path fill-rule="evenodd" clip-rule="evenodd" d="M92.9624 41.8627C92.9555 41.7804 92.9074 41.7049 92.8317 41.6672C92.756 41.6294 92.67 41.6294 92.5978 41.674C92.0234 41.9931 90.8539 42.6897 90.5856 43.2044C90.2588 43.8324 90.5065 44.6078 91.136 44.9338C91.7654 45.2598 92.5428 45.0127 92.8695 44.3848C93.1344 43.8701 93.0312 42.5181 92.9624 41.8627Z" fill="white"/>
<path fill-rule="evenodd" clip-rule="evenodd" d="M96.6733 54.1364C96.6665 54.0541 96.6183 53.9786 96.5426 53.9408C96.467 53.9031 96.381 53.9065 96.3087 53.9477C95.7343 54.2668 94.5648 54.9634 94.2965 55.4781C93.9698 56.106 94.2174 56.8815 94.8469 57.2075C95.4763 57.5335 96.2537 57.2864 96.5805 56.6585C96.8453 56.1438 96.7421 54.7918 96.6733 54.1364Z" fill="white"/>
<path fill-rule="evenodd" clip-rule="evenodd" d="M81.689 46.3886C81.6821 46.3063 81.6305 46.2308 81.5583 46.193C81.4826 46.1553 81.3966 46.1553 81.3209 46.1999C80.7465 46.519 79.577 47.2156 79.3122 47.7303C78.9854 48.3582 79.2331 49.1337 79.8625 49.4597C80.492 49.7857 81.2693 49.5386 81.5961 48.9107C81.861 48.396 81.7578 47.044 81.689 46.3886Z" fill="white"/>
</g>
<defs>
<clipPath id="clip0_528_6061">
<rect width="106" height="70" fill="white"/>
</clipPath>
</defs>
</svg>
