<svg width="185" height="86" viewBox="0 0 185 86" fill="none" xmlns="http://www.w3.org/2000/svg">
<g clip-path="url(#clip0_278_277)">
<path d="M97.3785 54.1485V47.8374H93.3174V55.1354C93.3174 57.1755 94.5036 58.2204 96.5712 58.2204H117.767V54.9944H98.2188C97.6092 54.9944 97.3785 54.8368 97.3785 54.1485Z" fill="white"/>
<path d="M89.6517 41.4844L89.627 44.7104H103.491V51.121H105.748C107.017 51.121 107.552 50.6234 107.552 49.6531V44.7021H120.452V41.4761H89.6599L89.6517 41.4844Z" fill="white"/>
<path d="M91.9824 36.4669L92.6826 38.4158C93.0533 39.4358 93.7123 39.5436 94.7338 39.3446C98.3748 38.5816 105.632 36.2761 106.843 29.8572H117.297V26.6312H107.057V23.2891H102.996V26.6312H92.7568V29.8572H102.551C100.624 35.2478 92.5096 36.3922 91.9824 36.4586V36.4669Z" fill="white"/>
<path d="M118.079 36.4671C117.609 36.4007 111.093 35.4802 108.325 31.4497H108.268C107.922 32.5029 107.304 33.8879 106.258 35.1733C109.034 37.6945 112.939 38.8555 115.319 39.3531C116.341 39.5438 117 39.436 117.37 38.4243L118.079 36.4754V36.4671Z" fill="white"/>
<path d="M141.615 36.5415H147.703V48.9647H149.96C151.22 48.9647 151.764 48.4671 151.764 47.5051V23.8364H147.703V33.3238H141.615V36.5498V36.5415Z" fill="white"/>
<path d="M134.267 55.002C133.658 55.002 133.427 54.8445 133.427 54.1561V46.6011H129.374V55.143C129.374 57.1831 130.56 58.2281 132.628 58.2281H152.167V55.002H134.275H134.267Z" fill="white"/>
<path d="M136.079 29.8651H143.625V26.639H136.005V23.2969H131.944V26.639H124.324V29.8651H131.795C131.795 38.1416 123.838 41.1769 123.385 41.3428L124.34 43.0097C124.884 43.9468 125.345 44.3947 126.672 43.7727C129.818 42.1306 136.087 37.8679 136.087 29.8651H136.079Z" fill="white"/>
<path d="M137.141 34.5918C136.474 36.7729 135.526 38.2408 135.09 38.8379C137.108 41.3175 139.629 42.9098 141.276 43.7723C142.603 44.3943 143.064 43.9465 143.599 43.0093L144.555 41.3424C144.201 41.2097 139.283 39.3355 137.133 34.5835L137.141 34.5918Z" fill="white"/>
<path d="M180.938 23.8359V58.153H183.047C184.308 58.153 185 57.5393 185 56.6105V23.8359H180.938Z" fill="white"/>
<path d="M169.406 24.9057H165.345V28.6045C165.345 41.4838 156.275 46.2357 156.275 46.2357L157.511 47.7202C158.368 48.7403 159.06 48.873 160.196 48.11C163.17 45.9869 169.398 40.331 169.398 30.1885V24.8892L169.406 24.9057Z" fill="white"/>
<path d="M170.501 35.8604C170.031 37.859 169.331 39.7333 168.4 41.4748C170.41 44.8087 172.948 46.9732 174.554 48.1176C175.691 48.8806 176.391 48.7479 177.239 47.7279L178.475 46.2434C178.475 46.2434 172.906 43.3242 170.501 35.8686V35.8604Z" fill="white"/>
<path d="M72.5989 14.4389C72.5413 12.4651 72.2282 11.9675 70.6713 10.5162C63.1834 3.97291 53.4136 0.000488281 42.7129 0.000488281C19.1204 0.000488281 0.000976562 19.2572 0.000976562 43.0005C0.000976562 66.7438 19.1204 86.0005 42.7129 86.0005C53.4136 86.0005 63.1916 82.0281 70.6878 75.4765C72.4754 73.8096 72.6072 73.4032 72.6154 70.5421V44.8996L47.6637 65.9808C42.9848 69.7874 35.7274 69.6381 31.3533 64.5295C26.9709 59.4126 27.7946 51.899 32.7125 47.7525C32.7619 47.711 38.2976 43.0337 38.3305 43.0005C38.2893 42.9673 32.7537 38.29 32.7125 38.2485C27.7946 34.1019 26.9791 26.5883 31.3533 21.4715C35.7357 16.3546 42.9848 16.2053 47.6637 20.0202L72.6154 41.0931V14.4389H72.5989Z" fill="white"/>
<path d="M72.5989 14.4389C72.5413 12.4651 72.2282 11.9675 70.6713 10.5162C63.1834 3.97291 53.4136 0.000488281 42.7129 0.000488281C19.1204 0.000488281 0.000976562 19.2572 0.000976562 43.0005C0.000976562 66.7438 19.1204 86.0005 42.7129 86.0005C53.4136 86.0005 63.1916 82.0281 70.6878 75.4765C72.4754 73.8096 72.6072 73.4032 72.6154 70.5421V44.8996L47.6637 65.9808C42.9848 69.7874 35.7274 69.6381 31.3533 64.5295C26.9709 59.4126 27.7946 51.899 32.7125 47.7525C32.7619 47.711 38.2976 43.0337 38.3305 43.0005C38.2893 42.9673 32.7537 38.29 32.7125 38.2485C27.7946 34.1019 26.9791 26.5883 31.3533 21.4715C35.7357 16.3546 42.9848 16.2053 47.6637 20.0202L72.6154 41.0931V14.4389H72.5989Z" fill="white"/>
</g>
<defs>
<clipPath id="clip0_278_277">
<rect width="185" height="86" fill="white"/>
</clipPath>
</defs>
</svg>
